%TF.GenerationSoftware,KiCad,Pcbnew,(6.0.0)*%
%TF.CreationDate,2022-01-17T14:04:50+01:00*%
%TF.ProjectId,LoraTrigger,4c6f7261-5472-4696-9767-65722e6b6963,rev?*%
%TF.SameCoordinates,Original*%
%TF.FileFunction,Copper,L2,Bot*%
%TF.FilePolarity,Positive*%
%FSLAX46Y46*%
G04 Gerber Fmt 4.6, Leading zero omitted, Abs format (unit mm)*
G04 Created by KiCad (PCBNEW (6.0.0)) date 2022-01-17 14:04:50*
%MOMM*%
%LPD*%
G01*
G04 APERTURE LIST*
%TA.AperFunction,ComponentPad*%
%ADD10R,1.000000X1.000000*%
%TD*%
%TA.AperFunction,ComponentPad*%
%ADD11O,1.000000X1.000000*%
%TD*%
%TA.AperFunction,SMDPad,CuDef*%
%ADD12R,5.100000X2.500000*%
%TD*%
%TA.AperFunction,SMDPad,CuDef*%
%ADD13C,2.500000*%
%TD*%
%TA.AperFunction,ViaPad*%
%ADD14C,0.800000*%
%TD*%
%TA.AperFunction,Conductor*%
%ADD15C,0.250000*%
%TD*%
G04 APERTURE END LIST*
D10*
X100200000Y-80150000D03*
D11*
X100200000Y-81420000D03*
D12*
X108500000Y-77400000D03*
X108500000Y-53800000D03*
D13*
X112500000Y-61600000D03*
X112500000Y-69600000D03*
X104500000Y-65600000D03*
D14*
X114000000Y-80000000D03*
X104500000Y-79500000D03*
X104900000Y-60700000D03*
X104800000Y-70100000D03*
X116900000Y-60800000D03*
X104900000Y-68000000D03*
X110500000Y-59100000D03*
X108500000Y-55900000D03*
X107200000Y-55900000D03*
X109800000Y-55900000D03*
X114400000Y-60800000D03*
X110800000Y-67700000D03*
X114300000Y-65500000D03*
X115099989Y-59900000D03*
D15*
X108500000Y-77400000D02*
X111400000Y-77400000D01*
X111400000Y-77400000D02*
X114000000Y-80000000D01*
X106600000Y-77400000D02*
X104500000Y-79500000D01*
X108500000Y-77400000D02*
X106600000Y-77400000D01*
X108500000Y-53800000D02*
X107200000Y-55100000D01*
X109800000Y-55100000D02*
X109800000Y-55900000D01*
X108500000Y-53800000D02*
X108500000Y-55900000D01*
X107200000Y-55100000D02*
X107200000Y-55900000D01*
X108500000Y-53800000D02*
X109800000Y-55100000D01*
X110800000Y-67700000D02*
X114400000Y-64100000D01*
X114400000Y-64100000D02*
X114400000Y-60800000D01*
X114300000Y-65500000D02*
X115124501Y-64675499D01*
X115124501Y-64675499D02*
X115124501Y-59924512D01*
X115124501Y-59924512D02*
X115099989Y-59900000D01*
%TA.AperFunction,Conductor*%
G36*
X105691621Y-52520002D02*
G01*
X105738114Y-52573658D01*
X105749500Y-52626000D01*
X105749500Y-55069748D01*
X105761133Y-55128231D01*
X105805448Y-55194552D01*
X105871769Y-55238867D01*
X105883938Y-55241288D01*
X105883939Y-55241288D01*
X105924184Y-55249293D01*
X105930252Y-55250500D01*
X106690269Y-55250500D01*
X106758390Y-55270502D01*
X106804883Y-55324158D01*
X106814987Y-55394432D01*
X106785493Y-55459012D01*
X106779364Y-55465595D01*
X106778264Y-55466695D01*
X106771718Y-55471718D01*
X106675464Y-55597159D01*
X106614956Y-55743238D01*
X106594318Y-55900000D01*
X106614956Y-56056762D01*
X106675464Y-56202841D01*
X106771718Y-56328282D01*
X106897159Y-56424536D01*
X107043238Y-56485044D01*
X107200000Y-56505682D01*
X107208188Y-56504604D01*
X107348574Y-56486122D01*
X107356762Y-56485044D01*
X107502841Y-56424536D01*
X107628282Y-56328282D01*
X107724536Y-56202841D01*
X107733591Y-56180980D01*
X107778139Y-56125699D01*
X107845502Y-56103278D01*
X107914294Y-56120836D01*
X107962672Y-56172798D01*
X107966408Y-56180977D01*
X107975464Y-56202841D01*
X108071718Y-56328282D01*
X108197159Y-56424536D01*
X108343238Y-56485044D01*
X108500000Y-56505682D01*
X108508188Y-56504604D01*
X108648574Y-56486122D01*
X108656762Y-56485044D01*
X108802841Y-56424536D01*
X108928282Y-56328282D01*
X109024536Y-56202841D01*
X109033591Y-56180980D01*
X109078139Y-56125699D01*
X109145502Y-56103278D01*
X109214294Y-56120836D01*
X109262672Y-56172798D01*
X109266408Y-56180977D01*
X109275464Y-56202841D01*
X109371718Y-56328282D01*
X109497159Y-56424536D01*
X109643238Y-56485044D01*
X109800000Y-56505682D01*
X109808188Y-56504604D01*
X109948574Y-56486122D01*
X109956762Y-56485044D01*
X110102841Y-56424536D01*
X110228282Y-56328282D01*
X110324536Y-56202841D01*
X110385044Y-56056762D01*
X110405682Y-55900000D01*
X110385044Y-55743238D01*
X110324536Y-55597159D01*
X110228282Y-55471718D01*
X110221736Y-55466695D01*
X110220636Y-55465595D01*
X110186610Y-55403283D01*
X110191675Y-55332468D01*
X110234222Y-55275632D01*
X110300742Y-55250821D01*
X110309731Y-55250500D01*
X111069748Y-55250500D01*
X111075816Y-55249293D01*
X111116061Y-55241288D01*
X111116062Y-55241288D01*
X111128231Y-55238867D01*
X111194552Y-55194552D01*
X111238867Y-55128231D01*
X111250500Y-55069748D01*
X111250500Y-52626000D01*
X111270502Y-52557879D01*
X111324158Y-52511386D01*
X111376500Y-52500000D01*
X118024000Y-52500000D01*
X118092121Y-52520002D01*
X118138614Y-52573658D01*
X118150000Y-52626000D01*
X118150000Y-82274000D01*
X118129998Y-82342121D01*
X118076342Y-82388614D01*
X118024000Y-82400000D01*
X98926000Y-82400000D01*
X98857879Y-82379998D01*
X98811386Y-82326342D01*
X98800000Y-82274000D01*
X98800000Y-81412611D01*
X99494394Y-81412611D01*
X99512999Y-81581135D01*
X99571266Y-81740356D01*
X99575502Y-81746659D01*
X99575502Y-81746660D01*
X99588574Y-81766113D01*
X99665830Y-81881083D01*
X99671442Y-81886190D01*
X99671445Y-81886193D01*
X99785612Y-81990077D01*
X99785616Y-81990080D01*
X99791233Y-81995191D01*
X99797906Y-81998814D01*
X99797910Y-81998817D01*
X99933558Y-82072467D01*
X99933560Y-82072468D01*
X99940235Y-82076092D01*
X99947584Y-82078020D01*
X100096883Y-82117188D01*
X100096885Y-82117188D01*
X100104233Y-82119116D01*
X100190609Y-82120473D01*
X100266161Y-82121660D01*
X100266164Y-82121660D01*
X100273760Y-82121779D01*
X100281165Y-82120083D01*
X100281166Y-82120083D01*
X100341586Y-82106245D01*
X100439029Y-82083928D01*
X100590498Y-82007747D01*
X100719423Y-81897634D01*
X100818361Y-81759947D01*
X100826237Y-81740356D01*
X100878766Y-81609687D01*
X100878767Y-81609685D01*
X100881601Y-81602634D01*
X100905490Y-81434778D01*
X100905645Y-81420000D01*
X100903840Y-81405080D01*
X100886188Y-81259220D01*
X100885276Y-81251680D01*
X100825345Y-81093077D01*
X100763095Y-81002503D01*
X100740995Y-80935034D01*
X100758880Y-80866327D01*
X100796933Y-80826371D01*
X100834237Y-80801445D01*
X100834239Y-80801443D01*
X100844552Y-80794552D01*
X100888867Y-80728231D01*
X100900500Y-80669748D01*
X100900500Y-79630252D01*
X100888867Y-79571769D01*
X100844552Y-79505448D01*
X100836399Y-79500000D01*
X103894318Y-79500000D01*
X103914956Y-79656762D01*
X103975464Y-79802841D01*
X104071718Y-79928282D01*
X104197159Y-80024536D01*
X104343238Y-80085044D01*
X104500000Y-80105682D01*
X104508188Y-80104604D01*
X104648574Y-80086122D01*
X104656762Y-80085044D01*
X104802841Y-80024536D01*
X104928282Y-79928282D01*
X105024536Y-79802841D01*
X105085044Y-79656762D01*
X105105682Y-79500000D01*
X105096882Y-79433157D01*
X105107821Y-79363010D01*
X105132709Y-79327617D01*
X105648600Y-78811726D01*
X105710912Y-78777700D01*
X105781727Y-78782765D01*
X105807697Y-78796056D01*
X105861450Y-78831973D01*
X105861454Y-78831975D01*
X105871769Y-78838867D01*
X105883938Y-78841288D01*
X105883939Y-78841288D01*
X105924184Y-78849293D01*
X105930252Y-78850500D01*
X111069748Y-78850500D01*
X111075816Y-78849293D01*
X111116061Y-78841288D01*
X111116062Y-78841288D01*
X111128231Y-78838867D01*
X111194552Y-78794552D01*
X111238867Y-78728231D01*
X111250500Y-78669748D01*
X111250500Y-78015016D01*
X111270502Y-77946895D01*
X111324158Y-77900402D01*
X111394432Y-77890298D01*
X111459012Y-77919792D01*
X111465594Y-77925920D01*
X112433991Y-78894318D01*
X113367291Y-79827618D01*
X113401317Y-79889930D01*
X113403118Y-79933158D01*
X113394318Y-80000000D01*
X113414956Y-80156762D01*
X113475464Y-80302841D01*
X113571718Y-80428282D01*
X113697159Y-80524536D01*
X113843238Y-80585044D01*
X114000000Y-80605682D01*
X114008188Y-80604604D01*
X114148574Y-80586122D01*
X114156762Y-80585044D01*
X114302841Y-80524536D01*
X114428282Y-80428282D01*
X114524536Y-80302841D01*
X114585044Y-80156762D01*
X114605682Y-80000000D01*
X114585044Y-79843238D01*
X114524536Y-79697159D01*
X114456059Y-79607918D01*
X114433305Y-79578264D01*
X114428282Y-79571718D01*
X114302841Y-79475464D01*
X114156762Y-79414956D01*
X114000000Y-79394318D01*
X113933159Y-79403118D01*
X113863011Y-79392179D01*
X113827618Y-79367291D01*
X111644110Y-77183784D01*
X111636683Y-77175680D01*
X111619541Y-77155251D01*
X111619542Y-77155251D01*
X111612455Y-77146806D01*
X111602906Y-77141293D01*
X111579815Y-77127961D01*
X111570544Y-77122055D01*
X111548715Y-77106770D01*
X111539684Y-77100446D01*
X111529034Y-77097592D01*
X111525866Y-77096115D01*
X111522590Y-77094923D01*
X111513045Y-77089412D01*
X111479301Y-77083462D01*
X111475942Y-77082870D01*
X111465215Y-77080492D01*
X111428807Y-77070736D01*
X111417822Y-77071697D01*
X111417820Y-77071697D01*
X111391272Y-77074020D01*
X111380290Y-77074500D01*
X111376500Y-77074500D01*
X111308379Y-77054498D01*
X111261886Y-77000842D01*
X111250500Y-76948500D01*
X111250500Y-76130252D01*
X111238867Y-76071769D01*
X111194552Y-76005448D01*
X111128231Y-75961133D01*
X111116062Y-75958712D01*
X111116061Y-75958712D01*
X111075816Y-75950707D01*
X111069748Y-75949500D01*
X105930252Y-75949500D01*
X105924184Y-75950707D01*
X105883939Y-75958712D01*
X105883938Y-75958712D01*
X105871769Y-75961133D01*
X105805448Y-76005448D01*
X105761133Y-76071769D01*
X105749500Y-76130252D01*
X105749500Y-77737983D01*
X105729498Y-77806104D01*
X105712595Y-77827078D01*
X104672383Y-78867291D01*
X104610071Y-78901316D01*
X104566843Y-78903118D01*
X104500000Y-78894318D01*
X104343238Y-78914956D01*
X104197159Y-78975464D01*
X104071718Y-79071718D01*
X103975464Y-79197159D01*
X103914956Y-79343238D01*
X103894318Y-79500000D01*
X100836399Y-79500000D01*
X100778231Y-79461133D01*
X100766062Y-79458712D01*
X100766061Y-79458712D01*
X100725816Y-79450707D01*
X100719748Y-79449500D01*
X99680252Y-79449500D01*
X99674184Y-79450707D01*
X99633939Y-79458712D01*
X99633938Y-79458712D01*
X99621769Y-79461133D01*
X99555448Y-79505448D01*
X99511133Y-79571769D01*
X99499500Y-79630252D01*
X99499500Y-80669748D01*
X99511133Y-80728231D01*
X99555448Y-80794552D01*
X99565761Y-80801443D01*
X99565763Y-80801445D01*
X99603248Y-80826492D01*
X99648776Y-80880969D01*
X99657623Y-80951413D01*
X99636333Y-81003707D01*
X99582484Y-81080326D01*
X99582480Y-81080333D01*
X99578113Y-81086547D01*
X99516524Y-81244513D01*
X99494394Y-81412611D01*
X98800000Y-81412611D01*
X98800000Y-70868778D01*
X111449499Y-70868778D01*
X111456286Y-70878479D01*
X111523390Y-70935790D01*
X111531372Y-70941590D01*
X111744379Y-71072121D01*
X111753173Y-71076602D01*
X111983972Y-71172202D01*
X111993357Y-71175251D01*
X112236272Y-71233570D01*
X112246019Y-71235113D01*
X112495070Y-71254714D01*
X112504930Y-71254714D01*
X112753981Y-71235113D01*
X112763728Y-71233570D01*
X113006643Y-71175251D01*
X113016028Y-71172202D01*
X113246827Y-71076602D01*
X113255621Y-71072121D01*
X113468628Y-70941590D01*
X113476610Y-70935790D01*
X113542144Y-70879820D01*
X113550574Y-70866906D01*
X113544567Y-70856699D01*
X112512812Y-69824944D01*
X112498868Y-69817330D01*
X112497035Y-69817461D01*
X112490420Y-69821712D01*
X111456891Y-70855241D01*
X111449499Y-70868778D01*
X98800000Y-70868778D01*
X98800000Y-69604930D01*
X110845286Y-69604930D01*
X110864887Y-69853981D01*
X110866430Y-69863728D01*
X110924749Y-70106643D01*
X110927798Y-70116028D01*
X111023398Y-70346827D01*
X111027879Y-70355621D01*
X111158410Y-70568628D01*
X111164210Y-70576610D01*
X111220180Y-70642144D01*
X111233094Y-70650574D01*
X111243301Y-70644567D01*
X112275056Y-69612812D01*
X112281434Y-69601132D01*
X112717330Y-69601132D01*
X112717461Y-69602965D01*
X112721712Y-69609580D01*
X113755241Y-70643109D01*
X113768778Y-70650501D01*
X113778479Y-70643714D01*
X113835790Y-70576610D01*
X113841590Y-70568628D01*
X113972121Y-70355621D01*
X113976602Y-70346827D01*
X114072202Y-70116028D01*
X114075251Y-70106643D01*
X114133570Y-69863728D01*
X114135113Y-69853981D01*
X114154714Y-69604930D01*
X114154714Y-69595070D01*
X114135113Y-69346019D01*
X114133570Y-69336272D01*
X114075251Y-69093357D01*
X114072202Y-69083972D01*
X113976602Y-68853173D01*
X113972121Y-68844379D01*
X113841590Y-68631372D01*
X113835790Y-68623390D01*
X113779820Y-68557856D01*
X113766906Y-68549426D01*
X113756699Y-68555433D01*
X112724944Y-69587188D01*
X112717330Y-69601132D01*
X112281434Y-69601132D01*
X112282670Y-69598868D01*
X112282539Y-69597035D01*
X112278288Y-69590420D01*
X111244759Y-68556891D01*
X111231222Y-68549499D01*
X111221521Y-68556286D01*
X111164210Y-68623390D01*
X111158410Y-68631372D01*
X111027879Y-68844379D01*
X111023398Y-68853173D01*
X110927798Y-69083972D01*
X110924749Y-69093357D01*
X110866430Y-69336272D01*
X110864887Y-69346019D01*
X110845286Y-69595070D01*
X110845286Y-69604930D01*
X98800000Y-69604930D01*
X98800000Y-68333094D01*
X111449426Y-68333094D01*
X111455433Y-68343301D01*
X112487188Y-69375056D01*
X112501132Y-69382670D01*
X112502965Y-69382539D01*
X112509580Y-69378288D01*
X113543109Y-68344759D01*
X113550501Y-68331222D01*
X113543714Y-68321521D01*
X113476610Y-68264210D01*
X113468628Y-68258410D01*
X113255621Y-68127879D01*
X113246827Y-68123398D01*
X113016028Y-68027798D01*
X113006643Y-68024749D01*
X112763728Y-67966430D01*
X112753981Y-67964887D01*
X112504930Y-67945286D01*
X112495070Y-67945286D01*
X112246019Y-67964887D01*
X112236272Y-67966430D01*
X111993357Y-68024749D01*
X111983972Y-68027798D01*
X111753173Y-68123398D01*
X111744379Y-68127879D01*
X111531372Y-68258410D01*
X111523390Y-68264210D01*
X111457856Y-68320180D01*
X111449426Y-68333094D01*
X98800000Y-68333094D01*
X98800000Y-67700000D01*
X110194318Y-67700000D01*
X110214956Y-67856762D01*
X110275464Y-68002841D01*
X110371718Y-68128282D01*
X110497159Y-68224536D01*
X110643238Y-68285044D01*
X110800000Y-68305682D01*
X110808188Y-68304604D01*
X110948574Y-68286122D01*
X110956762Y-68285044D01*
X111102841Y-68224536D01*
X111228282Y-68128282D01*
X111324536Y-68002841D01*
X111385044Y-67856762D01*
X111405682Y-67700000D01*
X111396882Y-67633157D01*
X111407821Y-67563010D01*
X111432709Y-67527617D01*
X113486429Y-65473897D01*
X113548741Y-65439871D01*
X113619556Y-65444936D01*
X113676392Y-65487483D01*
X113700446Y-65546546D01*
X113714956Y-65656762D01*
X113775464Y-65802841D01*
X113871718Y-65928282D01*
X113997159Y-66024536D01*
X114143238Y-66085044D01*
X114300000Y-66105682D01*
X114308188Y-66104604D01*
X114448574Y-66086122D01*
X114456762Y-66085044D01*
X114602841Y-66024536D01*
X114728282Y-65928282D01*
X114824536Y-65802841D01*
X114885044Y-65656762D01*
X114905682Y-65500000D01*
X114896882Y-65433159D01*
X114907821Y-65363011D01*
X114932709Y-65327618D01*
X115340723Y-64919604D01*
X115348827Y-64912177D01*
X115359623Y-64903118D01*
X115377695Y-64887954D01*
X115396540Y-64855314D01*
X115402444Y-64846046D01*
X115417732Y-64824212D01*
X115424054Y-64815183D01*
X115426907Y-64804537D01*
X115428384Y-64801369D01*
X115429577Y-64798092D01*
X115435089Y-64788544D01*
X115441633Y-64751430D01*
X115444013Y-64740695D01*
X115450911Y-64714953D01*
X115453764Y-64704306D01*
X115450480Y-64666768D01*
X115450001Y-64655787D01*
X115450001Y-60450477D01*
X115470003Y-60382356D01*
X115499295Y-60350516D01*
X115528271Y-60328282D01*
X115624525Y-60202841D01*
X115685033Y-60056762D01*
X115705671Y-59900000D01*
X115685033Y-59743238D01*
X115624525Y-59597159D01*
X115528271Y-59471718D01*
X115402830Y-59375464D01*
X115256751Y-59314956D01*
X115099989Y-59294318D01*
X114943227Y-59314956D01*
X114797148Y-59375464D01*
X114671707Y-59471718D01*
X114575453Y-59597159D01*
X114514945Y-59743238D01*
X114494307Y-59900000D01*
X114495385Y-59908188D01*
X114514443Y-60052950D01*
X114503504Y-60123099D01*
X114456375Y-60176197D01*
X114399755Y-60192457D01*
X114400000Y-60194318D01*
X114243238Y-60214956D01*
X114097159Y-60275464D01*
X113971718Y-60371718D01*
X113875464Y-60497159D01*
X113873296Y-60495496D01*
X113831639Y-60535215D01*
X113773005Y-60549218D01*
X113767328Y-60549177D01*
X113756699Y-60555433D01*
X112724944Y-61587188D01*
X112717330Y-61601132D01*
X112717461Y-61602965D01*
X112721712Y-61609580D01*
X113755241Y-62643109D01*
X113768778Y-62650501D01*
X113778479Y-62643714D01*
X113835790Y-62576610D01*
X113844506Y-62564615D01*
X113845582Y-62565397D01*
X113893719Y-62521849D01*
X113963760Y-62510245D01*
X114028957Y-62538350D01*
X114068609Y-62597241D01*
X114074500Y-62635317D01*
X114074500Y-63912984D01*
X114054498Y-63981105D01*
X114037595Y-64002079D01*
X110972383Y-67067291D01*
X110910071Y-67101317D01*
X110866843Y-67103118D01*
X110800000Y-67094318D01*
X110643238Y-67114956D01*
X110497159Y-67175464D01*
X110371718Y-67271718D01*
X110275464Y-67397159D01*
X110214956Y-67543238D01*
X110194318Y-67700000D01*
X98800000Y-67700000D01*
X98800000Y-66868778D01*
X103449499Y-66868778D01*
X103456286Y-66878479D01*
X103523390Y-66935790D01*
X103531372Y-66941590D01*
X103744379Y-67072121D01*
X103753173Y-67076602D01*
X103983972Y-67172202D01*
X103993357Y-67175251D01*
X104236272Y-67233570D01*
X104246019Y-67235113D01*
X104495070Y-67254714D01*
X104504930Y-67254714D01*
X104753981Y-67235113D01*
X104763728Y-67233570D01*
X105006643Y-67175251D01*
X105016028Y-67172202D01*
X105246827Y-67076602D01*
X105255621Y-67072121D01*
X105468628Y-66941590D01*
X105476610Y-66935790D01*
X105542144Y-66879820D01*
X105550574Y-66866906D01*
X105544567Y-66856699D01*
X104512812Y-65824944D01*
X104498868Y-65817330D01*
X104497035Y-65817461D01*
X104490420Y-65821712D01*
X103456891Y-66855241D01*
X103449499Y-66868778D01*
X98800000Y-66868778D01*
X98800000Y-65604930D01*
X102845286Y-65604930D01*
X102864887Y-65853981D01*
X102866430Y-65863728D01*
X102924749Y-66106643D01*
X102927798Y-66116028D01*
X103023398Y-66346827D01*
X103027879Y-66355621D01*
X103158410Y-66568628D01*
X103164210Y-66576610D01*
X103220180Y-66642144D01*
X103233094Y-66650574D01*
X103243301Y-66644567D01*
X104275056Y-65612812D01*
X104281434Y-65601132D01*
X104717330Y-65601132D01*
X104717461Y-65602965D01*
X104721712Y-65609580D01*
X105755241Y-66643109D01*
X105768778Y-66650501D01*
X105778479Y-66643714D01*
X105835790Y-66576610D01*
X105841590Y-66568628D01*
X105972121Y-66355621D01*
X105976602Y-66346827D01*
X106072202Y-66116028D01*
X106075251Y-66106643D01*
X106133570Y-65863728D01*
X106135113Y-65853981D01*
X106154714Y-65604930D01*
X106154714Y-65595070D01*
X106135113Y-65346019D01*
X106133570Y-65336272D01*
X106075251Y-65093357D01*
X106072202Y-65083972D01*
X105976602Y-64853173D01*
X105972121Y-64844379D01*
X105841590Y-64631372D01*
X105835790Y-64623390D01*
X105779820Y-64557856D01*
X105766906Y-64549426D01*
X105756699Y-64555433D01*
X104724944Y-65587188D01*
X104717330Y-65601132D01*
X104281434Y-65601132D01*
X104282670Y-65598868D01*
X104282539Y-65597035D01*
X104278288Y-65590420D01*
X103244759Y-64556891D01*
X103231222Y-64549499D01*
X103221521Y-64556286D01*
X103164210Y-64623390D01*
X103158410Y-64631372D01*
X103027879Y-64844379D01*
X103023398Y-64853173D01*
X102927798Y-65083972D01*
X102924749Y-65093357D01*
X102866430Y-65336272D01*
X102864887Y-65346019D01*
X102845286Y-65595070D01*
X102845286Y-65604930D01*
X98800000Y-65604930D01*
X98800000Y-64333094D01*
X103449426Y-64333094D01*
X103455433Y-64343301D01*
X104487188Y-65375056D01*
X104501132Y-65382670D01*
X104502965Y-65382539D01*
X104509580Y-65378288D01*
X105543109Y-64344759D01*
X105550501Y-64331222D01*
X105543714Y-64321521D01*
X105476610Y-64264210D01*
X105468628Y-64258410D01*
X105255621Y-64127879D01*
X105246827Y-64123398D01*
X105016028Y-64027798D01*
X105006643Y-64024749D01*
X104763728Y-63966430D01*
X104753981Y-63964887D01*
X104504930Y-63945286D01*
X104495070Y-63945286D01*
X104246019Y-63964887D01*
X104236272Y-63966430D01*
X103993357Y-64024749D01*
X103983972Y-64027798D01*
X103753173Y-64123398D01*
X103744379Y-64127879D01*
X103531372Y-64258410D01*
X103523390Y-64264210D01*
X103457856Y-64320180D01*
X103449426Y-64333094D01*
X98800000Y-64333094D01*
X98800000Y-62868778D01*
X111449499Y-62868778D01*
X111456286Y-62878479D01*
X111523390Y-62935790D01*
X111531372Y-62941590D01*
X111744379Y-63072121D01*
X111753173Y-63076602D01*
X111983972Y-63172202D01*
X111993357Y-63175251D01*
X112236272Y-63233570D01*
X112246019Y-63235113D01*
X112495070Y-63254714D01*
X112504930Y-63254714D01*
X112753981Y-63235113D01*
X112763728Y-63233570D01*
X113006643Y-63175251D01*
X113016028Y-63172202D01*
X113246827Y-63076602D01*
X113255621Y-63072121D01*
X113468628Y-62941590D01*
X113476610Y-62935790D01*
X113542144Y-62879820D01*
X113550574Y-62866906D01*
X113544567Y-62856699D01*
X112512812Y-61824944D01*
X112498868Y-61817330D01*
X112497035Y-61817461D01*
X112490420Y-61821712D01*
X111456891Y-62855241D01*
X111449499Y-62868778D01*
X98800000Y-62868778D01*
X98800000Y-61604930D01*
X110845286Y-61604930D01*
X110864887Y-61853981D01*
X110866430Y-61863728D01*
X110924749Y-62106643D01*
X110927798Y-62116028D01*
X111023398Y-62346827D01*
X111027879Y-62355621D01*
X111158410Y-62568628D01*
X111164210Y-62576610D01*
X111220180Y-62642144D01*
X111233094Y-62650574D01*
X111243301Y-62644567D01*
X112275056Y-61612812D01*
X112282670Y-61598868D01*
X112282539Y-61597035D01*
X112278288Y-61590420D01*
X111244759Y-60556891D01*
X111231222Y-60549499D01*
X111221521Y-60556286D01*
X111164210Y-60623390D01*
X111158410Y-60631372D01*
X111027879Y-60844379D01*
X111023398Y-60853173D01*
X110927798Y-61083972D01*
X110924749Y-61093357D01*
X110866430Y-61336272D01*
X110864887Y-61346019D01*
X110845286Y-61595070D01*
X110845286Y-61604930D01*
X98800000Y-61604930D01*
X98800000Y-60333094D01*
X111449426Y-60333094D01*
X111455433Y-60343301D01*
X112487188Y-61375056D01*
X112501132Y-61382670D01*
X112502965Y-61382539D01*
X112509580Y-61378288D01*
X113543109Y-60344759D01*
X113550501Y-60331222D01*
X113543714Y-60321521D01*
X113476610Y-60264210D01*
X113468628Y-60258410D01*
X113255621Y-60127879D01*
X113246827Y-60123398D01*
X113016028Y-60027798D01*
X113006643Y-60024749D01*
X112763728Y-59966430D01*
X112753981Y-59964887D01*
X112504930Y-59945286D01*
X112495070Y-59945286D01*
X112246019Y-59964887D01*
X112236272Y-59966430D01*
X111993357Y-60024749D01*
X111983972Y-60027798D01*
X111753173Y-60123398D01*
X111744379Y-60127879D01*
X111531372Y-60258410D01*
X111523390Y-60264210D01*
X111457856Y-60320180D01*
X111449426Y-60333094D01*
X98800000Y-60333094D01*
X98800000Y-52626000D01*
X98820002Y-52557879D01*
X98873658Y-52511386D01*
X98926000Y-52500000D01*
X105623500Y-52500000D01*
X105691621Y-52520002D01*
G37*
%TD.AperFunction*%
M02*
