M48
; DRILL file {KiCad (6.0.5)} date Sat May 21 08:54:38 2022
; FORMAT={-:-/ absolute / inch / decimal}
; #@! TF.CreationDate,2022-05-21T08:54:38+02:00
; #@! TF.GenerationSoftware,Kicad,Pcbnew,(6.0.5)
; #@! TF.FileFunction,Plated,1,2,PTH
FMAT,2
INCH
; #@! TA.AperFunction,Plated,PTH,ViaDrill
T1C0.0157
; #@! TA.AperFunction,Plated,PTH,ComponentDrill
T2C0.0394
; #@! TA.AperFunction,Plated,PTH,ComponentDrill
T3C0.0512
%
G90
G05
T1
X3.9331Y-3.1063
X3.9685Y-2.4291
X3.9724Y-2.3268
X3.9833Y-3.0799
X4.0119Y-3.1402
X4.0236Y-2.3858
X4.0443Y-2.8897
X4.0512Y-2.8346
X4.0512Y-3.1378
X4.0521Y-2.4457
X4.0561Y-2.5263
X4.0573Y-1.8858
X4.062Y-2.9646
X4.0827Y-1.6575
X4.0848Y-2.8551
X4.0866Y-1.9921
X4.126Y-2.5118
X4.1496Y-1.9882
X4.1654Y-2.2598
X4.2087Y-2.2598
X4.2323Y-2.9409
X4.2559Y-2.2559
X4.2815Y-2.4969
X4.2913Y-2.2323
X4.3031Y-1.7323
X4.3086Y-1.844
X4.3228Y-2.2717
X4.3386Y-1.7992
X4.3514Y-2.3015
X4.3799Y-2.3307
X4.4055Y-2.8543
X4.5118Y-2.9567
X4.5157Y-1.9213
X4.5157Y-2.6457
X4.5197Y-1.7559
X4.5197Y-2.4803
X4.5236Y-2.5315
X4.6181Y-2.2165
T2
X3.9567Y-1.6161
X3.9567Y-1.7161
X3.9567Y-1.8161
X3.9567Y-1.9161
X3.9567Y-2.0161
X3.9567Y-2.1161
X4.575Y-3.17
X4.5827Y-1.6161
X4.5827Y-1.7161
X4.5827Y-1.8161
X4.5827Y-1.9161
X4.5827Y-2.0161
X4.5827Y-2.1161
T3
X4.2697Y-1.6555
X4.2697Y-3.1319
T0
M30
