%TF.GenerationSoftware,KiCad,Pcbnew,(6.0.0)*%
%TF.CreationDate,2022-02-13T23:40:39+01:00*%
%TF.ProjectId,LoraTrigger,4c6f7261-5472-4696-9767-65722e6b6963,rev?*%
%TF.SameCoordinates,Original*%
%TF.FileFunction,Soldermask,Top*%
%TF.FilePolarity,Negative*%
%FSLAX46Y46*%
G04 Gerber Fmt 4.6, Leading zero omitted, Abs format (unit mm)*
G04 Created by KiCad (PCBNEW (6.0.0)) date 2022-02-13 23:40:39*
%MOMM*%
%LPD*%
G01*
G04 APERTURE LIST*
G04 Aperture macros list*
%AMRoundRect*
0 Rectangle with rounded corners*
0 $1 Rounding radius*
0 $2 $3 $4 $5 $6 $7 $8 $9 X,Y pos of 4 corners*
0 Add a 4 corners polygon primitive as box body*
4,1,4,$2,$3,$4,$5,$6,$7,$8,$9,$2,$3,0*
0 Add four circle primitives for the rounded corners*
1,1,$1+$1,$2,$3*
1,1,$1+$1,$4,$5*
1,1,$1+$1,$6,$7*
1,1,$1+$1,$8,$9*
0 Add four rect primitives between the rounded corners*
20,1,$1+$1,$2,$3,$4,$5,0*
20,1,$1+$1,$4,$5,$6,$7,0*
20,1,$1+$1,$6,$7,$8,$9,0*
20,1,$1+$1,$8,$9,$2,$3,0*%
G04 Aperture macros list end*
%ADD10RoundRect,0.320754X0.529246X0.579246X-0.529246X0.579246X-0.529246X-0.579246X0.529246X-0.579246X0*%
%ADD11R,1.498600X0.698500*%
%ADD12RoundRect,0.150000X-0.150000X0.587500X-0.150000X-0.587500X0.150000X-0.587500X0.150000X0.587500X0*%
%ADD13R,1.200000X1.200000*%
%ADD14R,0.700000X0.900000*%
%ADD15R,0.900000X0.700000*%
%ADD16R,0.750000X0.900000*%
%ADD17R,1.000000X3.000000*%
%ADD18C,0.985520*%
%ADD19C,0.988060*%
%ADD20C,0.784860*%
%ADD21R,1.100000X0.300000*%
%ADD22R,1.200000X0.800000*%
G04 APERTURE END LIST*
D10*
X105762500Y-60400000D03*
X102637500Y-60400000D03*
D11*
X115242760Y-80054490D03*
X115242760Y-78954670D03*
X115242760Y-77854850D03*
X115242760Y-76755030D03*
X115242760Y-75655210D03*
X115242760Y-74555390D03*
X115242760Y-73455570D03*
X115242760Y-72355750D03*
X101244820Y-72355750D03*
X101244820Y-73455570D03*
X101244820Y-74555390D03*
X101244820Y-75655210D03*
X101244820Y-76755030D03*
X101244820Y-77854850D03*
X101244820Y-78954670D03*
X101244820Y-80054490D03*
D12*
X115150000Y-66462500D03*
X113250000Y-66462500D03*
X114200000Y-68337500D03*
D13*
X100700000Y-56800000D03*
X102900000Y-56800000D03*
D14*
X103050000Y-58400000D03*
X101350000Y-58400000D03*
D15*
X111100000Y-68350000D03*
X111100000Y-66650000D03*
X109400000Y-68350000D03*
X109400000Y-66650000D03*
D16*
X117200000Y-79300000D03*
X117200000Y-80900000D03*
D14*
X115050000Y-70100000D03*
X113350000Y-70100000D03*
D17*
X108690000Y-57980000D03*
X108690000Y-63020000D03*
X111230000Y-57980000D03*
X111230000Y-63020000D03*
X113770000Y-57980000D03*
X113770000Y-63020000D03*
X116310000Y-57980000D03*
X116310000Y-63020000D03*
D18*
X101060000Y-69316000D03*
X101060000Y-67284000D03*
D19*
X106140000Y-68300000D03*
D20*
X104870000Y-67665000D03*
X104870000Y-68935000D03*
X103600000Y-67665000D03*
X103600000Y-68935000D03*
X102330000Y-67665000D03*
X102330000Y-68935000D03*
D21*
X103200000Y-63900000D03*
X103200000Y-63100000D03*
X101400000Y-63100000D03*
X101400000Y-63900000D03*
D16*
X117200000Y-75300000D03*
X117200000Y-73700000D03*
D22*
X117200000Y-76700000D03*
X117200000Y-77900000D03*
D16*
X99900000Y-62600000D03*
X99900000Y-64200000D03*
M02*
