M48
; DRILL file {KiCad (5.1.5)-3} date 09/01/2020 06:37:20
; FORMAT={-:-/ absolute / inch / decimal}
; #@! TF.CreationDate,2020-01-09T06:37:20+01:00
; #@! TF.GenerationSoftware,Kicad,Pcbnew,(5.1.5)-3
; #@! TF.FileFunction,Plated,1,2,PTH
FMAT,2
INCH
T1C0.0157
T2C0.0394
T3C0.0512
%
G90
G05
T1
X3.9232Y-3.0925
X3.9449Y-2.2638
X3.9508Y-2.0787
X3.9547Y-2.435
X3.9823Y-3.1319
X4.0222Y-3.1324
X4.0394Y-2.0748
X4.0394Y-2.7441
X4.0394Y-2.9291
X4.0627Y-1.9133
X4.0925Y-1.939
X4.1063Y-1.7126
X4.1142Y-1.8189
X4.1239Y-2.8619
X4.124Y-2.1535
X4.1319Y-1.6417
X4.1358Y-1.5846
X4.1732Y-2.5354
X4.1811Y-2.128
X4.1973Y-2.7252
X4.2126Y-1.7795
X4.2244Y-2.7795
X4.2323Y-2.5394
X4.2323Y-3.1929
X4.2539Y-2.0079
X4.2559Y-2.1693
X4.2619Y-2.5703
X4.3018Y-2.3233
X4.3071Y-2.937
X4.3154Y-2.5419
X4.3406Y-2.3315
X4.3819Y-2.0236
X4.3819Y-2.063
X4.4016Y-1.8839
X4.4173Y-2.3858
X4.439Y-1.6024
X4.4429Y-1.9409
X4.4882Y-2.622
X4.4941Y-2.9626
X4.4961Y-2.1713
X4.5295Y-2.3051
X4.5335Y-2.0866
X4.5531Y-1.6024
X4.5768Y-1.8878
X4.5906Y-2.3465
X4.6142Y-1.9744
T2
X3.9724Y-1.6299
X3.9724Y-1.7299
X3.9724Y-1.8299
X4.575Y-3.17
T3
X4.2697Y-1.6555
X4.2697Y-3.1319
T0
M30
