G04 #@! TF.GenerationSoftware,KiCad,Pcbnew,(5.1.5)-3*
G04 #@! TF.CreationDate,2020-01-09T06:37:15+01:00*
G04 #@! TF.ProjectId,LoraTrigger,4c6f7261-5472-4696-9767-65722e6b6963,rev?*
G04 #@! TF.SameCoordinates,Original*
G04 #@! TF.FileFunction,Soldermask,Bot*
G04 #@! TF.FilePolarity,Negative*
%FSLAX46Y46*%
G04 Gerber Fmt 4.6, Leading zero omitted, Abs format (unit mm)*
G04 Created by KiCad (PCBNEW (5.1.5)-3) date 2020-01-09 06:37:15*
%MOMM*%
%LPD*%
G04 APERTURE LIST*
%ADD10C,0.100000*%
G04 APERTURE END LIST*
D10*
G36*
X103177988Y-80459923D02*
G01*
X103252980Y-80482671D01*
X103322093Y-80519614D01*
X103382671Y-80569329D01*
X103432386Y-80629907D01*
X103469329Y-80699020D01*
X103492077Y-80774012D01*
X103500000Y-80854454D01*
X103500000Y-82249546D01*
X103492077Y-82329988D01*
X103469329Y-82404980D01*
X103432386Y-82474093D01*
X103382671Y-82534671D01*
X103322093Y-82584386D01*
X103252980Y-82621329D01*
X103177988Y-82644077D01*
X103097546Y-82652000D01*
X102202454Y-82652000D01*
X102122012Y-82644077D01*
X102047020Y-82621329D01*
X101977907Y-82584386D01*
X101917329Y-82534671D01*
X101867614Y-82474093D01*
X101830671Y-82404980D01*
X101807923Y-82329988D01*
X101800000Y-82249546D01*
X101800000Y-80854454D01*
X101807923Y-80774012D01*
X101830671Y-80699020D01*
X101867614Y-80629907D01*
X101917329Y-80569329D01*
X101977907Y-80519614D01*
X102047020Y-80482671D01*
X102122012Y-80459923D01*
X102202454Y-80452000D01*
X103097546Y-80452000D01*
X103177988Y-80459923D01*
G37*
G36*
X100637988Y-80459923D02*
G01*
X100712980Y-80482671D01*
X100782093Y-80519614D01*
X100842671Y-80569329D01*
X100892386Y-80629907D01*
X100929329Y-80699020D01*
X100952077Y-80774012D01*
X100960000Y-80854454D01*
X100960000Y-82249546D01*
X100952077Y-82329988D01*
X100929329Y-82404980D01*
X100892386Y-82474093D01*
X100842671Y-82534671D01*
X100782093Y-82584386D01*
X100712980Y-82621329D01*
X100637988Y-82644077D01*
X100557546Y-82652000D01*
X99662454Y-82652000D01*
X99582012Y-82644077D01*
X99507020Y-82621329D01*
X99437907Y-82584386D01*
X99377329Y-82534671D01*
X99327614Y-82474093D01*
X99290671Y-82404980D01*
X99267923Y-82329988D01*
X99260000Y-82249546D01*
X99260000Y-80854454D01*
X99267923Y-80774012D01*
X99290671Y-80699020D01*
X99327614Y-80629907D01*
X99377329Y-80569329D01*
X99437907Y-80519614D01*
X99507020Y-80482671D01*
X99582012Y-80459923D01*
X99662454Y-80452000D01*
X100557546Y-80452000D01*
X100637988Y-80459923D01*
G37*
G36*
X105717988Y-80459923D02*
G01*
X105792980Y-80482671D01*
X105862093Y-80519614D01*
X105922671Y-80569329D01*
X105972386Y-80629907D01*
X106009329Y-80699020D01*
X106032077Y-80774012D01*
X106040000Y-80854454D01*
X106040000Y-82249546D01*
X106032077Y-82329988D01*
X106009329Y-82404980D01*
X105972386Y-82474093D01*
X105922671Y-82534671D01*
X105862093Y-82584386D01*
X105792980Y-82621329D01*
X105717988Y-82644077D01*
X105637546Y-82652000D01*
X104742454Y-82652000D01*
X104662012Y-82644077D01*
X104587020Y-82621329D01*
X104517907Y-82584386D01*
X104457329Y-82534671D01*
X104407614Y-82474093D01*
X104370671Y-82404980D01*
X104347923Y-82329988D01*
X104340000Y-82249546D01*
X104340000Y-80854454D01*
X104347923Y-80774012D01*
X104370671Y-80699020D01*
X104407614Y-80629907D01*
X104457329Y-80569329D01*
X104517907Y-80519614D01*
X104587020Y-80482671D01*
X104662012Y-80459923D01*
X104742454Y-80452000D01*
X105637546Y-80452000D01*
X105717988Y-80459923D01*
G37*
G36*
X117155000Y-81468000D02*
G01*
X115255000Y-81468000D01*
X115255000Y-79568000D01*
X117155000Y-79568000D01*
X117155000Y-81468000D01*
G37*
G36*
X108770856Y-78492272D02*
G01*
X108971044Y-78575192D01*
X108971045Y-78575193D01*
X109151209Y-78695575D01*
X109304425Y-78848791D01*
X109304426Y-78848793D01*
X109424808Y-79028956D01*
X109507728Y-79229144D01*
X109550000Y-79441658D01*
X109550000Y-79658342D01*
X109507728Y-79870856D01*
X109424808Y-80071044D01*
X109424807Y-80071045D01*
X109304425Y-80251209D01*
X109151209Y-80404425D01*
X109080008Y-80452000D01*
X108971044Y-80524808D01*
X108770856Y-80607728D01*
X108558342Y-80650000D01*
X108341658Y-80650000D01*
X108129144Y-80607728D01*
X107928956Y-80524808D01*
X107819992Y-80452000D01*
X107748791Y-80404425D01*
X107595575Y-80251209D01*
X107475193Y-80071045D01*
X107475192Y-80071044D01*
X107392272Y-79870856D01*
X107350000Y-79658342D01*
X107350000Y-79441658D01*
X107392272Y-79229144D01*
X107475192Y-79028956D01*
X107595574Y-78848793D01*
X107595575Y-78848791D01*
X107748791Y-78695575D01*
X107928955Y-78575193D01*
X107928956Y-78575192D01*
X108129144Y-78492272D01*
X108341658Y-78450000D01*
X108558342Y-78450000D01*
X108770856Y-78492272D01*
G37*
G36*
X111050000Y-73850000D02*
G01*
X105750000Y-73850000D01*
X105750000Y-71150000D01*
X111050000Y-71150000D01*
X111050000Y-73850000D01*
G37*
G36*
X112793779Y-63401879D02*
G01*
X113039463Y-63503645D01*
X113039465Y-63503646D01*
X113260575Y-63651387D01*
X113448613Y-63839425D01*
X113448614Y-63839427D01*
X113596355Y-64060537D01*
X113698121Y-64306221D01*
X113750000Y-64567035D01*
X113750000Y-64832965D01*
X113698121Y-65093779D01*
X113596355Y-65339463D01*
X113596354Y-65339465D01*
X113448613Y-65560575D01*
X113260575Y-65748613D01*
X113039465Y-65896354D01*
X113039464Y-65896355D01*
X113039463Y-65896355D01*
X112793779Y-65998121D01*
X112532965Y-66050000D01*
X112267035Y-66050000D01*
X112006221Y-65998121D01*
X111760537Y-65896355D01*
X111760536Y-65896355D01*
X111760535Y-65896354D01*
X111539425Y-65748613D01*
X111351387Y-65560575D01*
X111203646Y-65339465D01*
X111203645Y-65339463D01*
X111101879Y-65093779D01*
X111050000Y-64832965D01*
X111050000Y-64567035D01*
X111101879Y-64306221D01*
X111203645Y-64060537D01*
X111351386Y-63839427D01*
X111351387Y-63839425D01*
X111539425Y-63651387D01*
X111760535Y-63503646D01*
X111760537Y-63503645D01*
X112006221Y-63401879D01*
X112267035Y-63350000D01*
X112532965Y-63350000D01*
X112793779Y-63401879D01*
G37*
G36*
X104793779Y-59401879D02*
G01*
X105039463Y-59503645D01*
X105039465Y-59503646D01*
X105260575Y-59651387D01*
X105448613Y-59839425D01*
X105448614Y-59839427D01*
X105596355Y-60060537D01*
X105698121Y-60306221D01*
X105750000Y-60567035D01*
X105750000Y-60832965D01*
X105698121Y-61093779D01*
X105596355Y-61339463D01*
X105596354Y-61339465D01*
X105448613Y-61560575D01*
X105260575Y-61748613D01*
X105039465Y-61896354D01*
X105039464Y-61896355D01*
X105039463Y-61896355D01*
X104793779Y-61998121D01*
X104532965Y-62050000D01*
X104267035Y-62050000D01*
X104006221Y-61998121D01*
X103760537Y-61896355D01*
X103760536Y-61896355D01*
X103760535Y-61896354D01*
X103539425Y-61748613D01*
X103351387Y-61560575D01*
X103203646Y-61339465D01*
X103203645Y-61339463D01*
X103101879Y-61093779D01*
X103050000Y-60832965D01*
X103050000Y-60567035D01*
X103101879Y-60306221D01*
X103203645Y-60060537D01*
X103351386Y-59839427D01*
X103351387Y-59839425D01*
X103539425Y-59651387D01*
X103760535Y-59503646D01*
X103760537Y-59503645D01*
X104006221Y-59401879D01*
X104267035Y-59350000D01*
X104532965Y-59350000D01*
X104793779Y-59401879D01*
G37*
G36*
X112793779Y-55401879D02*
G01*
X113039463Y-55503645D01*
X113039465Y-55503646D01*
X113260575Y-55651387D01*
X113448613Y-55839425D01*
X113448614Y-55839427D01*
X113596355Y-56060537D01*
X113698121Y-56306221D01*
X113750000Y-56567035D01*
X113750000Y-56832965D01*
X113698121Y-57093779D01*
X113596355Y-57339463D01*
X113596354Y-57339465D01*
X113448613Y-57560575D01*
X113260575Y-57748613D01*
X113039465Y-57896354D01*
X113039464Y-57896355D01*
X113039463Y-57896355D01*
X112793779Y-57998121D01*
X112532965Y-58050000D01*
X112267035Y-58050000D01*
X112006221Y-57998121D01*
X111760537Y-57896355D01*
X111760536Y-57896355D01*
X111760535Y-57896354D01*
X111539425Y-57748613D01*
X111351387Y-57560575D01*
X111203646Y-57339465D01*
X111203645Y-57339463D01*
X111101879Y-57093779D01*
X111050000Y-56832965D01*
X111050000Y-56567035D01*
X111101879Y-56306221D01*
X111203645Y-56060537D01*
X111351386Y-55839427D01*
X111351387Y-55839425D01*
X111539425Y-55651387D01*
X111760535Y-55503646D01*
X111760537Y-55503645D01*
X112006221Y-55401879D01*
X112267035Y-55350000D01*
X112532965Y-55350000D01*
X112793779Y-55401879D01*
G37*
G36*
X111050000Y-50250000D02*
G01*
X105750000Y-50250000D01*
X105750000Y-47550000D01*
X111050000Y-47550000D01*
X111050000Y-50250000D01*
G37*
G36*
X101177103Y-45566507D02*
G01*
X101177106Y-45566508D01*
X101177105Y-45566508D01*
X101349994Y-45638121D01*
X101505590Y-45742087D01*
X101637913Y-45874410D01*
X101637914Y-45874412D01*
X101741880Y-46030008D01*
X101813493Y-46202897D01*
X101850000Y-46386432D01*
X101850000Y-46573568D01*
X101813493Y-46757103D01*
X101813492Y-46757105D01*
X101741879Y-46929994D01*
X101637913Y-47085590D01*
X101505590Y-47217913D01*
X101349994Y-47321879D01*
X101349993Y-47321880D01*
X101349992Y-47321880D01*
X101177103Y-47393493D01*
X100993568Y-47430000D01*
X100806432Y-47430000D01*
X100622897Y-47393493D01*
X100450008Y-47321880D01*
X100450007Y-47321880D01*
X100450006Y-47321879D01*
X100294410Y-47217913D01*
X100162087Y-47085590D01*
X100058121Y-46929994D01*
X99986508Y-46757105D01*
X99986507Y-46757103D01*
X99950000Y-46573568D01*
X99950000Y-46386432D01*
X99986507Y-46202897D01*
X100058120Y-46030008D01*
X100162086Y-45874412D01*
X100162087Y-45874410D01*
X100294410Y-45742087D01*
X100450006Y-45638121D01*
X100622895Y-45566508D01*
X100622894Y-45566508D01*
X100622897Y-45566507D01*
X100806432Y-45530000D01*
X100993568Y-45530000D01*
X101177103Y-45566507D01*
G37*
G36*
X101177103Y-43026507D02*
G01*
X101177106Y-43026508D01*
X101177105Y-43026508D01*
X101349994Y-43098121D01*
X101505590Y-43202087D01*
X101637913Y-43334410D01*
X101637914Y-43334412D01*
X101741880Y-43490008D01*
X101813493Y-43662897D01*
X101850000Y-43846432D01*
X101850000Y-44033568D01*
X101813493Y-44217103D01*
X101813492Y-44217105D01*
X101741879Y-44389994D01*
X101637913Y-44545590D01*
X101505590Y-44677913D01*
X101349994Y-44781879D01*
X101349993Y-44781880D01*
X101349992Y-44781880D01*
X101177103Y-44853493D01*
X100993568Y-44890000D01*
X100806432Y-44890000D01*
X100622897Y-44853493D01*
X100450008Y-44781880D01*
X100450007Y-44781880D01*
X100450006Y-44781879D01*
X100294410Y-44677913D01*
X100162087Y-44545590D01*
X100058121Y-44389994D01*
X99986508Y-44217105D01*
X99986507Y-44217103D01*
X99950000Y-44033568D01*
X99950000Y-43846432D01*
X99986507Y-43662897D01*
X100058120Y-43490008D01*
X100162086Y-43334412D01*
X100162087Y-43334410D01*
X100294410Y-43202087D01*
X100450006Y-43098121D01*
X100622895Y-43026508D01*
X100622894Y-43026508D01*
X100622897Y-43026507D01*
X100806432Y-42990000D01*
X100993568Y-42990000D01*
X101177103Y-43026507D01*
G37*
G36*
X108770856Y-40992272D02*
G01*
X108971044Y-41075192D01*
X108971045Y-41075193D01*
X109151209Y-41195575D01*
X109304425Y-41348791D01*
X109304426Y-41348793D01*
X109424808Y-41528956D01*
X109507728Y-41729144D01*
X109550000Y-41941658D01*
X109550000Y-42158342D01*
X109507728Y-42370856D01*
X109424808Y-42571044D01*
X109424807Y-42571045D01*
X109304425Y-42751209D01*
X109151209Y-42904425D01*
X109060513Y-42965026D01*
X108971044Y-43024808D01*
X108770856Y-43107728D01*
X108558342Y-43150000D01*
X108341658Y-43150000D01*
X108129144Y-43107728D01*
X107928956Y-43024808D01*
X107839487Y-42965026D01*
X107748791Y-42904425D01*
X107595575Y-42751209D01*
X107475193Y-42571045D01*
X107475192Y-42571044D01*
X107392272Y-42370856D01*
X107350000Y-42158342D01*
X107350000Y-41941658D01*
X107392272Y-41729144D01*
X107475192Y-41528956D01*
X107595574Y-41348793D01*
X107595575Y-41348791D01*
X107748791Y-41195575D01*
X107928955Y-41075193D01*
X107928956Y-41075192D01*
X108129144Y-40992272D01*
X108341658Y-40950000D01*
X108558342Y-40950000D01*
X108770856Y-40992272D01*
G37*
G36*
X101850000Y-42350000D02*
G01*
X99950000Y-42350000D01*
X99950000Y-40450000D01*
X101850000Y-40450000D01*
X101850000Y-42350000D01*
G37*
M02*
