%TF.GenerationSoftware,KiCad,Pcbnew,(6.0.5)*%
%TF.CreationDate,2022-05-21T08:56:41+02:00*%
%TF.ProjectId,LoraTrigger,4c6f7261-5472-4696-9767-65722e6b6963,rev?*%
%TF.SameCoordinates,Original*%
%TF.FileFunction,Copper,L2,Bot*%
%TF.FilePolarity,Positive*%
%FSLAX46Y46*%
G04 Gerber Fmt 4.6, Leading zero omitted, Abs format (unit mm)*
G04 Created by KiCad (PCBNEW (6.0.5)) date 2022-05-21 08:56:41*
%MOMM*%
%LPD*%
G01*
G04 APERTURE LIST*
G04 Aperture macros list*
%AMRoundRect*
0 Rectangle with rounded corners*
0 $1 Rounding radius*
0 $2 $3 $4 $5 $6 $7 $8 $9 X,Y pos of 4 corners*
0 Add a 4 corners polygon primitive as box body*
4,1,4,$2,$3,$4,$5,$6,$7,$8,$9,$2,$3,0*
0 Add four circle primitives for the rounded corners*
1,1,$1+$1,$2,$3*
1,1,$1+$1,$4,$5*
1,1,$1+$1,$6,$7*
1,1,$1+$1,$8,$9*
0 Add four rect primitives between the rounded corners*
20,1,$1+$1,$2,$3,$4,$5,0*
20,1,$1+$1,$4,$5,$6,$7,0*
20,1,$1+$1,$6,$7,$8,$9,0*
20,1,$1+$1,$8,$9,$2,$3,0*%
G04 Aperture macros list end*
%TA.AperFunction,ComponentPad*%
%ADD10R,1.700000X1.700000*%
%TD*%
%TA.AperFunction,ConnectorPad*%
%ADD11RoundRect,0.375000X-0.375000X-0.625000X0.375000X-0.625000X0.375000X0.625000X-0.375000X0.625000X0*%
%TD*%
%TA.AperFunction,ComponentPad*%
%ADD12C,2.000000*%
%TD*%
%TA.AperFunction,ComponentPad*%
%ADD13O,1.700000X1.700000*%
%TD*%
%TA.AperFunction,SMDPad,CuDef*%
%ADD14R,5.100000X2.500000*%
%TD*%
%TA.AperFunction,SMDPad,CuDef*%
%ADD15C,2.500000*%
%TD*%
%TA.AperFunction,ViaPad*%
%ADD16C,0.800000*%
%TD*%
%TA.AperFunction,Conductor*%
%ADD17C,0.250000*%
%TD*%
G04 APERTURE END LIST*
D10*
X116205000Y-80518000D03*
D11*
X100110000Y-81552000D03*
X102650000Y-81552000D03*
X105190000Y-81552000D03*
D12*
X108450000Y-42050000D03*
X108450000Y-79550000D03*
D10*
X100500000Y-41050000D03*
D13*
X100500000Y-43590000D03*
X100500000Y-46130000D03*
X100500000Y-48670000D03*
X100500000Y-51210000D03*
X100500000Y-53750000D03*
D10*
X116400000Y-41050000D03*
D13*
X116400000Y-43590000D03*
X116400000Y-46130000D03*
X116400000Y-48670000D03*
X116400000Y-51210000D03*
X116400000Y-53750000D03*
D14*
X108400000Y-72500000D03*
X108400000Y-48900000D03*
D15*
X112400000Y-56700000D03*
X112400000Y-64700000D03*
X104400000Y-60700000D03*
D16*
X100900000Y-59100000D03*
X102900000Y-79700000D03*
X102900000Y-72000000D03*
X102724500Y-73398305D03*
X102200000Y-60600000D03*
X102924500Y-62119632D03*
X111250498Y-59200000D03*
X114800000Y-63000000D03*
X110525998Y-58457930D03*
X109800000Y-57700000D03*
X109000000Y-56700000D03*
X108750682Y-63421897D03*
X103024500Y-64167712D03*
X104800701Y-63800701D03*
X114700000Y-67200000D03*
X109437701Y-46837701D03*
X100800000Y-61700000D03*
X114700000Y-48800000D03*
X109300000Y-44000000D03*
X101175500Y-78229014D03*
X114600000Y-75100000D03*
X103700000Y-42100000D03*
X114800000Y-44600000D03*
X117300000Y-56300000D03*
X107500000Y-74700000D03*
X111900000Y-72500000D03*
X110200000Y-45700000D03*
X105400000Y-50500000D03*
X99900000Y-78900000D03*
X103055718Y-47899248D03*
X106900000Y-57400000D03*
X103800000Y-50600000D03*
X108100000Y-57300000D03*
X114900000Y-64300000D03*
X103754018Y-72519286D03*
X101902314Y-79760232D03*
X103174011Y-75300000D03*
X105800000Y-57400000D03*
D17*
X102900000Y-81302000D02*
X102650000Y-81552000D01*
X102900000Y-79700000D02*
X102900000Y-81302000D01*
X102175499Y-79487047D02*
X101902314Y-79760232D01*
X102175499Y-76298512D02*
X102175499Y-79487047D01*
X103174011Y-75300000D02*
X102175499Y-76298512D01*
X101850489Y-60949511D02*
X101850489Y-72524294D01*
X102200000Y-60600000D02*
X101850489Y-60949511D01*
X101850489Y-72524294D02*
X102724500Y-73398305D01*
X102924500Y-62119632D02*
X102300000Y-62744132D01*
X102300000Y-62744132D02*
X102300000Y-62800000D01*
X102300000Y-62800000D02*
X102300000Y-71400000D01*
X102300000Y-71400000D02*
X102900000Y-72000000D01*
X105974511Y-64674511D02*
X103754018Y-66895004D01*
X105974511Y-57574511D02*
X105974511Y-64674511D01*
X103754018Y-66895004D02*
X103754018Y-72519286D01*
X105800000Y-57400000D02*
X105974511Y-57574511D01*
X104800701Y-63800701D02*
X104433690Y-64167712D01*
X104433690Y-64167712D02*
X103024500Y-64167712D01*
X102330000Y-46130000D02*
X100500000Y-46130000D01*
X103800000Y-47600000D02*
X102330000Y-46130000D01*
X103800000Y-50600000D02*
X103800000Y-47600000D01*
X110475499Y-58508429D02*
X110525998Y-58457930D01*
X110475499Y-59875499D02*
X110475499Y-58508429D01*
X111250498Y-59450498D02*
X111250498Y-59200000D01*
X114800000Y-63000000D02*
X111250498Y-59450498D01*
X114900000Y-64300000D02*
X110475499Y-59875499D01*
X114175499Y-66675499D02*
X114700000Y-67200000D01*
X114175499Y-64211203D02*
X114175499Y-66675499D01*
X109800000Y-59835704D02*
X114175499Y-64211203D01*
X109800000Y-57700000D02*
X109800000Y-59835704D01*
X109000000Y-63172579D02*
X109000000Y-56700000D01*
X108750682Y-63421897D02*
X109000000Y-63172579D01*
X100110000Y-81552000D02*
X99900000Y-81342000D01*
X108400000Y-72500000D02*
X108400000Y-73800000D01*
X106800000Y-50500000D02*
X105400000Y-50500000D01*
X108400000Y-72500000D02*
X111900000Y-72500000D01*
X108400000Y-48900000D02*
X106800000Y-50500000D01*
X99900000Y-81342000D02*
X99900000Y-78900000D01*
X110200000Y-47100000D02*
X110200000Y-45700000D01*
X108400000Y-73800000D02*
X107500000Y-74700000D01*
X108400000Y-48900000D02*
X110200000Y-47100000D01*
X103055718Y-53555718D02*
X103055718Y-47899248D01*
X106900000Y-57400000D02*
X103055718Y-53555718D01*
X108100000Y-57300000D02*
X103800000Y-53000000D01*
X103800000Y-53000000D02*
X103800000Y-50600000D01*
%TA.AperFunction,Conductor*%
G36*
X118091621Y-39336502D02*
G01*
X118138114Y-39390158D01*
X118149500Y-39442500D01*
X118149500Y-82273500D01*
X118129498Y-82341621D01*
X118075842Y-82388114D01*
X118023500Y-82399500D01*
X106465549Y-82399500D01*
X106397428Y-82379498D01*
X106350935Y-82325842D01*
X106339757Y-82266257D01*
X106339895Y-82263857D01*
X106340000Y-82260220D01*
X106340000Y-81720115D01*
X106335525Y-81704876D01*
X106334135Y-81703671D01*
X106326452Y-81702000D01*
X104058115Y-81702000D01*
X104042876Y-81706475D01*
X104041671Y-81707865D01*
X104040000Y-81715548D01*
X104040000Y-82260220D01*
X104040105Y-82263857D01*
X104040243Y-82266257D01*
X104024189Y-82335415D01*
X103973295Y-82384915D01*
X103914451Y-82399500D01*
X103719849Y-82399500D01*
X103651728Y-82379498D01*
X103605235Y-82325842D01*
X103594927Y-82257055D01*
X103599962Y-82218810D01*
X103599962Y-82218803D01*
X103600500Y-82214720D01*
X103600500Y-81383885D01*
X104040000Y-81383885D01*
X104044475Y-81399124D01*
X104045865Y-81400329D01*
X104053548Y-81402000D01*
X105021885Y-81402000D01*
X105037124Y-81397525D01*
X105038329Y-81396135D01*
X105040000Y-81388452D01*
X105040000Y-81383885D01*
X105340000Y-81383885D01*
X105344475Y-81399124D01*
X105345865Y-81400329D01*
X105353548Y-81402000D01*
X106321885Y-81402000D01*
X106337124Y-81397525D01*
X106338329Y-81396135D01*
X106340000Y-81388452D01*
X106340000Y-81387748D01*
X115154500Y-81387748D01*
X115155707Y-81393816D01*
X115157003Y-81400329D01*
X115166133Y-81446231D01*
X115210448Y-81512552D01*
X115276769Y-81556867D01*
X115288938Y-81559288D01*
X115288939Y-81559288D01*
X115329184Y-81567293D01*
X115335252Y-81568500D01*
X117074748Y-81568500D01*
X117080816Y-81567293D01*
X117121061Y-81559288D01*
X117121062Y-81559288D01*
X117133231Y-81556867D01*
X117199552Y-81512552D01*
X117243867Y-81446231D01*
X117252998Y-81400329D01*
X117254293Y-81393816D01*
X117255500Y-81387748D01*
X117255500Y-79648252D01*
X117248221Y-79611658D01*
X117246288Y-79601939D01*
X117246288Y-79601938D01*
X117243867Y-79589769D01*
X117199552Y-79523448D01*
X117133231Y-79479133D01*
X117121062Y-79476712D01*
X117121061Y-79476712D01*
X117080816Y-79468707D01*
X117074748Y-79467500D01*
X115335252Y-79467500D01*
X115329184Y-79468707D01*
X115288939Y-79476712D01*
X115288938Y-79476712D01*
X115276769Y-79479133D01*
X115210448Y-79523448D01*
X115166133Y-79589769D01*
X115163712Y-79601938D01*
X115163712Y-79601939D01*
X115161779Y-79611658D01*
X115154500Y-79648252D01*
X115154500Y-81387748D01*
X106340000Y-81387748D01*
X106340000Y-80843780D01*
X106339950Y-80842045D01*
X106338535Y-80832161D01*
X106302207Y-80674807D01*
X106297557Y-80661604D01*
X106287577Y-80640960D01*
X107577206Y-80640960D01*
X107584350Y-80651020D01*
X107640267Y-80697443D01*
X107648698Y-80703348D01*
X107838549Y-80814288D01*
X107847832Y-80818735D01*
X108053243Y-80897174D01*
X108063141Y-80900050D01*
X108278605Y-80943886D01*
X108288833Y-80945105D01*
X108508562Y-80953163D01*
X108518848Y-80952696D01*
X108736946Y-80924757D01*
X108747024Y-80922615D01*
X108957625Y-80859431D01*
X108967223Y-80855670D01*
X109164682Y-80758936D01*
X109173520Y-80753667D01*
X109315206Y-80652604D01*
X109323606Y-80641904D01*
X109316619Y-80628751D01*
X108462812Y-79774944D01*
X108448868Y-79767330D01*
X108447035Y-79767461D01*
X108440420Y-79771712D01*
X107584465Y-80627667D01*
X107577206Y-80640960D01*
X106287577Y-80640960D01*
X106228016Y-80517752D01*
X106220555Y-80505904D01*
X106120864Y-80381023D01*
X106110977Y-80371136D01*
X105986096Y-80271445D01*
X105974248Y-80263984D01*
X105830396Y-80194443D01*
X105817193Y-80189793D01*
X105659839Y-80153465D01*
X105649955Y-80152050D01*
X105648220Y-80152000D01*
X105358115Y-80152000D01*
X105342876Y-80156475D01*
X105341671Y-80157865D01*
X105340000Y-80165548D01*
X105340000Y-81383885D01*
X105040000Y-81383885D01*
X105040000Y-80170115D01*
X105035525Y-80154876D01*
X105034135Y-80153671D01*
X105026452Y-80152000D01*
X104731780Y-80152000D01*
X104730045Y-80152050D01*
X104720161Y-80153465D01*
X104562807Y-80189793D01*
X104549604Y-80194443D01*
X104405752Y-80263984D01*
X104393904Y-80271445D01*
X104269023Y-80371136D01*
X104259136Y-80381023D01*
X104159445Y-80505904D01*
X104151984Y-80517752D01*
X104082443Y-80661604D01*
X104077793Y-80674807D01*
X104041465Y-80832161D01*
X104040050Y-80842045D01*
X104040000Y-80843780D01*
X104040000Y-81383885D01*
X103600500Y-81383885D01*
X103600500Y-80889280D01*
X103585687Y-80776764D01*
X103527698Y-80636767D01*
X103435451Y-80516549D01*
X103315233Y-80424302D01*
X103307611Y-80421145D01*
X103307606Y-80421142D01*
X103303279Y-80419350D01*
X103247999Y-80374800D01*
X103225500Y-80302942D01*
X103225500Y-80269286D01*
X103245502Y-80201165D01*
X103274796Y-80169323D01*
X103321736Y-80133305D01*
X103328282Y-80128282D01*
X103424536Y-80002841D01*
X103485044Y-79856762D01*
X103505682Y-79700000D01*
X103485044Y-79543238D01*
X103481119Y-79533761D01*
X103475764Y-79520834D01*
X107045918Y-79520834D01*
X107058575Y-79740341D01*
X107060011Y-79750562D01*
X107108349Y-79965050D01*
X107111428Y-79974878D01*
X107194153Y-80178605D01*
X107198796Y-80187796D01*
X107313688Y-80375282D01*
X107319764Y-80383584D01*
X107347135Y-80415182D01*
X107360219Y-80423593D01*
X107370192Y-80417676D01*
X108225056Y-79562812D01*
X108231434Y-79551132D01*
X108667330Y-79551132D01*
X108667461Y-79552965D01*
X108671712Y-79559580D01*
X109529073Y-80416941D01*
X109541083Y-80423500D01*
X109552823Y-80414532D01*
X109651129Y-80277723D01*
X109656440Y-80268885D01*
X109753854Y-80071782D01*
X109757653Y-80062187D01*
X109821568Y-79851821D01*
X109823747Y-79841740D01*
X109852684Y-79621945D01*
X109853203Y-79615272D01*
X109854716Y-79553365D01*
X109854522Y-79546646D01*
X109836359Y-79325721D01*
X109834674Y-79315541D01*
X109781111Y-79102300D01*
X109777786Y-79092534D01*
X109690118Y-78890911D01*
X109685240Y-78881814D01*
X109565818Y-78697214D01*
X109559526Y-78689044D01*
X109554358Y-78683364D01*
X109540793Y-78675105D01*
X109540538Y-78675111D01*
X109531523Y-78680609D01*
X108674944Y-79537188D01*
X108667330Y-79551132D01*
X108231434Y-79551132D01*
X108232670Y-79548868D01*
X108232539Y-79547035D01*
X108228288Y-79540420D01*
X107369268Y-78681400D01*
X107357732Y-78675100D01*
X107345449Y-78684723D01*
X107231447Y-78851842D01*
X107226359Y-78860798D01*
X107133786Y-79060231D01*
X107130223Y-79069918D01*
X107071467Y-79281783D01*
X107069536Y-79291904D01*
X107046169Y-79510546D01*
X107045918Y-79520834D01*
X103475764Y-79520834D01*
X103473992Y-79516557D01*
X103424536Y-79397159D01*
X103328282Y-79271718D01*
X103202841Y-79175464D01*
X103056762Y-79114956D01*
X102900000Y-79094318D01*
X102743238Y-79114956D01*
X102735611Y-79118115D01*
X102735608Y-79118116D01*
X102675217Y-79143131D01*
X102604627Y-79150720D01*
X102541140Y-79118940D01*
X102504913Y-79057882D01*
X102500999Y-79026722D01*
X102500999Y-78459500D01*
X107577218Y-78459500D01*
X107583964Y-78471832D01*
X108437188Y-79325056D01*
X108451132Y-79332670D01*
X108452965Y-79332539D01*
X108459580Y-79328288D01*
X109315471Y-78472397D01*
X109322492Y-78459540D01*
X109314719Y-78448873D01*
X109231460Y-78383118D01*
X109222876Y-78377415D01*
X109030393Y-78271158D01*
X109020981Y-78266928D01*
X108813725Y-78193534D01*
X108803755Y-78190900D01*
X108587293Y-78152344D01*
X108577039Y-78151374D01*
X108357176Y-78148687D01*
X108346891Y-78149407D01*
X108129553Y-78182664D01*
X108119526Y-78185053D01*
X107910538Y-78253360D01*
X107901029Y-78257357D01*
X107706009Y-78358879D01*
X107697274Y-78364380D01*
X107585672Y-78448174D01*
X107577218Y-78459500D01*
X102500999Y-78459500D01*
X102500999Y-76485529D01*
X102521001Y-76417408D01*
X102537904Y-76396433D01*
X103001630Y-75932708D01*
X103063942Y-75898683D01*
X103107169Y-75896882D01*
X103174011Y-75905682D01*
X103182199Y-75904604D01*
X103322585Y-75886122D01*
X103330773Y-75885044D01*
X103476852Y-75824536D01*
X103602293Y-75728282D01*
X103698547Y-75602841D01*
X103759055Y-75456762D01*
X103779693Y-75300000D01*
X103759055Y-75143238D01*
X103698547Y-74997159D01*
X103602293Y-74871718D01*
X103476852Y-74775464D01*
X103330773Y-74714956D01*
X103174011Y-74694318D01*
X103017249Y-74714956D01*
X102871170Y-74775464D01*
X102745729Y-74871718D01*
X102649475Y-74997159D01*
X102588967Y-75143238D01*
X102568329Y-75300000D01*
X102569407Y-75308187D01*
X102577129Y-75366840D01*
X102566190Y-75436989D01*
X102541302Y-75472382D01*
X101959286Y-76054398D01*
X101951183Y-76061824D01*
X101930748Y-76078972D01*
X101922305Y-76086057D01*
X101916795Y-76095601D01*
X101916794Y-76095602D01*
X101903460Y-76118697D01*
X101897554Y-76127968D01*
X101875945Y-76158828D01*
X101873091Y-76169478D01*
X101871614Y-76172646D01*
X101870422Y-76175922D01*
X101864911Y-76185467D01*
X101858961Y-76219211D01*
X101858369Y-76222570D01*
X101855991Y-76233297D01*
X101846235Y-76269705D01*
X101847196Y-76280690D01*
X101847196Y-76280692D01*
X101849519Y-76307240D01*
X101849999Y-76318222D01*
X101849999Y-79051634D01*
X101829997Y-79119755D01*
X101776341Y-79166248D01*
X101756611Y-79173341D01*
X101753742Y-79174110D01*
X101745552Y-79175188D01*
X101737922Y-79178348D01*
X101737920Y-79178349D01*
X101732749Y-79180491D01*
X101599473Y-79235696D01*
X101474032Y-79331950D01*
X101377778Y-79457391D01*
X101317270Y-79603470D01*
X101296632Y-79760232D01*
X101317270Y-79916994D01*
X101377778Y-80063073D01*
X101431669Y-80133305D01*
X101466429Y-80178605D01*
X101474032Y-80188514D01*
X101599473Y-80284768D01*
X101745552Y-80345276D01*
X101756629Y-80346734D01*
X101758884Y-80347732D01*
X101761716Y-80348491D01*
X101761598Y-80348933D01*
X101821554Y-80375459D01*
X101860644Y-80434725D01*
X101861487Y-80505717D01*
X101840143Y-80548356D01*
X101772302Y-80636767D01*
X101714313Y-80776764D01*
X101699500Y-80889280D01*
X101699500Y-82214720D01*
X101700038Y-82218803D01*
X101700038Y-82218810D01*
X101705073Y-82257055D01*
X101694133Y-82327203D01*
X101647005Y-82380302D01*
X101580151Y-82399500D01*
X101179849Y-82399500D01*
X101111728Y-82379498D01*
X101065235Y-82325842D01*
X101054927Y-82257055D01*
X101059962Y-82218810D01*
X101059962Y-82218803D01*
X101060500Y-82214720D01*
X101060500Y-80889280D01*
X101045687Y-80776764D01*
X100987698Y-80636767D01*
X100895451Y-80516549D01*
X100775233Y-80424302D01*
X100635236Y-80366313D01*
X100627048Y-80365235D01*
X100526807Y-80352038D01*
X100526806Y-80352038D01*
X100522720Y-80351500D01*
X100351500Y-80351500D01*
X100283379Y-80331498D01*
X100236886Y-80277842D01*
X100225500Y-80225500D01*
X100225500Y-79469286D01*
X100245502Y-79401165D01*
X100274796Y-79369323D01*
X100321736Y-79333305D01*
X100328282Y-79328282D01*
X100338059Y-79315541D01*
X100395468Y-79240723D01*
X100424536Y-79202841D01*
X100485044Y-79056762D01*
X100505682Y-78900000D01*
X100485044Y-78743238D01*
X100424536Y-78597159D01*
X100328282Y-78471718D01*
X100202841Y-78375464D01*
X100056762Y-78314956D01*
X99900000Y-78294318D01*
X99743238Y-78314956D01*
X99597159Y-78375464D01*
X99471718Y-78471718D01*
X99375464Y-78597159D01*
X99314956Y-78743238D01*
X99294318Y-78900000D01*
X99314956Y-79056762D01*
X99375464Y-79202841D01*
X99404532Y-79240723D01*
X99461942Y-79315541D01*
X99471718Y-79328282D01*
X99478264Y-79333305D01*
X99525204Y-79369323D01*
X99567071Y-79426661D01*
X99574500Y-79469286D01*
X99574500Y-80286374D01*
X99554498Y-80354495D01*
X99496718Y-80402783D01*
X99480305Y-80409582D01*
X99444767Y-80424302D01*
X99324549Y-80516549D01*
X99232302Y-80636767D01*
X99174313Y-80776764D01*
X99159500Y-80889280D01*
X99159500Y-82214720D01*
X99160038Y-82218803D01*
X99160038Y-82218810D01*
X99165073Y-82257055D01*
X99154133Y-82327203D01*
X99107005Y-82380302D01*
X99040151Y-82399500D01*
X98876500Y-82399500D01*
X98808379Y-82379498D01*
X98761886Y-82325842D01*
X98750500Y-82273500D01*
X98750500Y-53735262D01*
X99444520Y-53735262D01*
X99445036Y-53741406D01*
X99458354Y-53900000D01*
X99461759Y-53940553D01*
X99463458Y-53946478D01*
X99471120Y-53973197D01*
X99518544Y-54138586D01*
X99521359Y-54144063D01*
X99521360Y-54144066D01*
X99541955Y-54184140D01*
X99612712Y-54321818D01*
X99740677Y-54483270D01*
X99745370Y-54487264D01*
X99745371Y-54487265D01*
X99831365Y-54560451D01*
X99897564Y-54616791D01*
X100077398Y-54717297D01*
X100172238Y-54748113D01*
X100267471Y-54779056D01*
X100267475Y-54779057D01*
X100273329Y-54780959D01*
X100477894Y-54805351D01*
X100484029Y-54804879D01*
X100484031Y-54804879D01*
X100540039Y-54800569D01*
X100683300Y-54789546D01*
X100689230Y-54787890D01*
X100689232Y-54787890D01*
X100875797Y-54735800D01*
X100875796Y-54735800D01*
X100881725Y-54734145D01*
X100887214Y-54731372D01*
X100887220Y-54731370D01*
X101060116Y-54644033D01*
X101065610Y-54641258D01*
X101227951Y-54514424D01*
X101362564Y-54358472D01*
X101383387Y-54321818D01*
X101461276Y-54184707D01*
X101464323Y-54179344D01*
X101529351Y-53983863D01*
X101555171Y-53779474D01*
X101555390Y-53763806D01*
X101555534Y-53753522D01*
X101555534Y-53753518D01*
X101555583Y-53750000D01*
X101535480Y-53544970D01*
X101475935Y-53347749D01*
X101379218Y-53165849D01*
X101267449Y-53028807D01*
X101252906Y-53010975D01*
X101252903Y-53010972D01*
X101249011Y-53006200D01*
X101224335Y-52985786D01*
X101095025Y-52878811D01*
X101095021Y-52878809D01*
X101090275Y-52874882D01*
X100909055Y-52776897D01*
X100712254Y-52715977D01*
X100706129Y-52715333D01*
X100706128Y-52715333D01*
X100513498Y-52695087D01*
X100513496Y-52695087D01*
X100507369Y-52694443D01*
X100420529Y-52702346D01*
X100308342Y-52712555D01*
X100308339Y-52712556D01*
X100302203Y-52713114D01*
X100104572Y-52771280D01*
X99922002Y-52866726D01*
X99917201Y-52870586D01*
X99917198Y-52870588D01*
X99766254Y-52991950D01*
X99761447Y-52995815D01*
X99629024Y-53153630D01*
X99626056Y-53159028D01*
X99626053Y-53159033D01*
X99532743Y-53328765D01*
X99529776Y-53334162D01*
X99467484Y-53530532D01*
X99466798Y-53536649D01*
X99466797Y-53536653D01*
X99445207Y-53729137D01*
X99444520Y-53735262D01*
X98750500Y-53735262D01*
X98750500Y-51195262D01*
X99444520Y-51195262D01*
X99461759Y-51400553D01*
X99518544Y-51598586D01*
X99521359Y-51604063D01*
X99521360Y-51604066D01*
X99542247Y-51644707D01*
X99612712Y-51781818D01*
X99740677Y-51943270D01*
X99897564Y-52076791D01*
X100077398Y-52177297D01*
X100172238Y-52208112D01*
X100267471Y-52239056D01*
X100267475Y-52239057D01*
X100273329Y-52240959D01*
X100477894Y-52265351D01*
X100484029Y-52264879D01*
X100484031Y-52264879D01*
X100540039Y-52260569D01*
X100683300Y-52249546D01*
X100689230Y-52247890D01*
X100689232Y-52247890D01*
X100875797Y-52195800D01*
X100875796Y-52195800D01*
X100881725Y-52194145D01*
X100887214Y-52191372D01*
X100887220Y-52191370D01*
X101060116Y-52104033D01*
X101065610Y-52101258D01*
X101227951Y-51974424D01*
X101362564Y-51818472D01*
X101383387Y-51781818D01*
X101461276Y-51644707D01*
X101464323Y-51639344D01*
X101529351Y-51443863D01*
X101555171Y-51239474D01*
X101555583Y-51210000D01*
X101535480Y-51004970D01*
X101475935Y-50807749D01*
X101379218Y-50625849D01*
X101269900Y-50491812D01*
X101252906Y-50470975D01*
X101252903Y-50470972D01*
X101249011Y-50466200D01*
X101231786Y-50451950D01*
X101095025Y-50338811D01*
X101095021Y-50338809D01*
X101090275Y-50334882D01*
X100909055Y-50236897D01*
X100712254Y-50175977D01*
X100706129Y-50175333D01*
X100706128Y-50175333D01*
X100513498Y-50155087D01*
X100513496Y-50155087D01*
X100507369Y-50154443D01*
X100420529Y-50162346D01*
X100308342Y-50172555D01*
X100308339Y-50172556D01*
X100302203Y-50173114D01*
X100104572Y-50231280D01*
X99922002Y-50326726D01*
X99917201Y-50330586D01*
X99917198Y-50330588D01*
X99891281Y-50351426D01*
X99761447Y-50455815D01*
X99629024Y-50613630D01*
X99626056Y-50619028D01*
X99626053Y-50619033D01*
X99570486Y-50720110D01*
X99529776Y-50794162D01*
X99467484Y-50990532D01*
X99466798Y-50996649D01*
X99466797Y-50996653D01*
X99454689Y-51104604D01*
X99444520Y-51195262D01*
X98750500Y-51195262D01*
X98750500Y-48655262D01*
X99444520Y-48655262D01*
X99461759Y-48860553D01*
X99518544Y-49058586D01*
X99521359Y-49064063D01*
X99521360Y-49064066D01*
X99542247Y-49104707D01*
X99612712Y-49241818D01*
X99740677Y-49403270D01*
X99897564Y-49536791D01*
X100077398Y-49637297D01*
X100172238Y-49668113D01*
X100267471Y-49699056D01*
X100267475Y-49699057D01*
X100273329Y-49700959D01*
X100477894Y-49725351D01*
X100484029Y-49724879D01*
X100484031Y-49724879D01*
X100540039Y-49720569D01*
X100683300Y-49709546D01*
X100689230Y-49707890D01*
X100689232Y-49707890D01*
X100875797Y-49655800D01*
X100875796Y-49655800D01*
X100881725Y-49654145D01*
X100887214Y-49651372D01*
X100887220Y-49651370D01*
X101060116Y-49564033D01*
X101065610Y-49561258D01*
X101227951Y-49434424D01*
X101362564Y-49278472D01*
X101383387Y-49241818D01*
X101461276Y-49104707D01*
X101464323Y-49099344D01*
X101529351Y-48903863D01*
X101555171Y-48699474D01*
X101555583Y-48670000D01*
X101535480Y-48464970D01*
X101475935Y-48267749D01*
X101379218Y-48085849D01*
X101305859Y-47995902D01*
X101252906Y-47930975D01*
X101252903Y-47930972D01*
X101249011Y-47926200D01*
X101231786Y-47911950D01*
X101095025Y-47798811D01*
X101095021Y-47798809D01*
X101090275Y-47794882D01*
X100909055Y-47696897D01*
X100712254Y-47635977D01*
X100706129Y-47635333D01*
X100706128Y-47635333D01*
X100513498Y-47615087D01*
X100513496Y-47615087D01*
X100507369Y-47614443D01*
X100420529Y-47622346D01*
X100308342Y-47632555D01*
X100308339Y-47632556D01*
X100302203Y-47633114D01*
X100104572Y-47691280D01*
X100099107Y-47694137D01*
X100013287Y-47739003D01*
X99922002Y-47786726D01*
X99917201Y-47790586D01*
X99917198Y-47790588D01*
X99906971Y-47798811D01*
X99761447Y-47915815D01*
X99629024Y-48073630D01*
X99626056Y-48079028D01*
X99626053Y-48079033D01*
X99619315Y-48091290D01*
X99529776Y-48254162D01*
X99467484Y-48450532D01*
X99466798Y-48456649D01*
X99466797Y-48456653D01*
X99445207Y-48649137D01*
X99444520Y-48655262D01*
X98750500Y-48655262D01*
X98750500Y-46115262D01*
X99444520Y-46115262D01*
X99445036Y-46121406D01*
X99453875Y-46226661D01*
X99461759Y-46320553D01*
X99463458Y-46326478D01*
X99511037Y-46492405D01*
X99518544Y-46518586D01*
X99521359Y-46524063D01*
X99521360Y-46524066D01*
X99542247Y-46564707D01*
X99612712Y-46701818D01*
X99740677Y-46863270D01*
X99897564Y-46996791D01*
X100077398Y-47097297D01*
X100140586Y-47117828D01*
X100267471Y-47159056D01*
X100267475Y-47159057D01*
X100273329Y-47160959D01*
X100477894Y-47185351D01*
X100484029Y-47184879D01*
X100484031Y-47184879D01*
X100540039Y-47180569D01*
X100683300Y-47169546D01*
X100689230Y-47167890D01*
X100689232Y-47167890D01*
X100875797Y-47115800D01*
X100875796Y-47115800D01*
X100881725Y-47114145D01*
X100887214Y-47111372D01*
X100887220Y-47111370D01*
X101060116Y-47024033D01*
X101065610Y-47021258D01*
X101090160Y-47002078D01*
X101223101Y-46898213D01*
X101227951Y-46894424D01*
X101362564Y-46738472D01*
X101383387Y-46701818D01*
X101461275Y-46564709D01*
X101461276Y-46564707D01*
X101464323Y-46559344D01*
X101470184Y-46541726D01*
X101510666Y-46483403D01*
X101576254Y-46456224D01*
X101589741Y-46455500D01*
X102142984Y-46455500D01*
X102211105Y-46475502D01*
X102232079Y-46492405D01*
X102875162Y-47135488D01*
X102909188Y-47197800D01*
X102904123Y-47268615D01*
X102861576Y-47325451D01*
X102834287Y-47340991D01*
X102752877Y-47374712D01*
X102627436Y-47470966D01*
X102531182Y-47596407D01*
X102470674Y-47742486D01*
X102450036Y-47899248D01*
X102470674Y-48056010D01*
X102531182Y-48202089D01*
X102627436Y-48327530D01*
X102633982Y-48332553D01*
X102680922Y-48368571D01*
X102722789Y-48425909D01*
X102730218Y-48468534D01*
X102730218Y-53536008D01*
X102729738Y-53546990D01*
X102726454Y-53584525D01*
X102730601Y-53600000D01*
X102736209Y-53620928D01*
X102738588Y-53631660D01*
X102745130Y-53668763D01*
X102750641Y-53678308D01*
X102751833Y-53681584D01*
X102753310Y-53684752D01*
X102756164Y-53695402D01*
X102762488Y-53704433D01*
X102777773Y-53726262D01*
X102783679Y-53735533D01*
X102787070Y-53741406D01*
X102802524Y-53768173D01*
X102810969Y-53775259D01*
X102831400Y-53792403D01*
X102839503Y-53799829D01*
X105659374Y-56619700D01*
X105693400Y-56682012D01*
X105688335Y-56752827D01*
X105645788Y-56809663D01*
X105618497Y-56825204D01*
X105497159Y-56875464D01*
X105371718Y-56971718D01*
X105366695Y-56978264D01*
X105347837Y-57002841D01*
X105275464Y-57097159D01*
X105214956Y-57243238D01*
X105194318Y-57400000D01*
X105214956Y-57556762D01*
X105275464Y-57702841D01*
X105371718Y-57828282D01*
X105497159Y-57924536D01*
X105554560Y-57948312D01*
X105571229Y-57955217D01*
X105626510Y-57999766D01*
X105649011Y-58071626D01*
X105649011Y-59323547D01*
X105629009Y-59391668D01*
X105575353Y-59438161D01*
X105505079Y-59448265D01*
X105441180Y-59419358D01*
X105376604Y-59364204D01*
X105368631Y-59358412D01*
X105155621Y-59227879D01*
X105146827Y-59223398D01*
X104916028Y-59127798D01*
X104906643Y-59124749D01*
X104663728Y-59066430D01*
X104653981Y-59064887D01*
X104404930Y-59045286D01*
X104395070Y-59045286D01*
X104146019Y-59064887D01*
X104136272Y-59066430D01*
X103893357Y-59124749D01*
X103883972Y-59127798D01*
X103653173Y-59223398D01*
X103644379Y-59227879D01*
X103431372Y-59358410D01*
X103423390Y-59364210D01*
X103357856Y-59420180D01*
X103349426Y-59433094D01*
X103355433Y-59443301D01*
X104523037Y-60610905D01*
X104557063Y-60673217D01*
X104551998Y-60744032D01*
X104523037Y-60789095D01*
X104489095Y-60823037D01*
X104426783Y-60857063D01*
X104355968Y-60851998D01*
X104310905Y-60823037D01*
X103144759Y-59656891D01*
X103131222Y-59649499D01*
X103121521Y-59656286D01*
X103064210Y-59723390D01*
X103058410Y-59731372D01*
X102927879Y-59944379D01*
X102923398Y-59953173D01*
X102844667Y-60143248D01*
X102800119Y-60198529D01*
X102732755Y-60220950D01*
X102663964Y-60203392D01*
X102640294Y-60182965D01*
X102639150Y-60184109D01*
X102633305Y-60178264D01*
X102628282Y-60171718D01*
X102502841Y-60075464D01*
X102356762Y-60014956D01*
X102200000Y-59994318D01*
X102043238Y-60014956D01*
X101897159Y-60075464D01*
X101771718Y-60171718D01*
X101675464Y-60297159D01*
X101614956Y-60443238D01*
X101594318Y-60600000D01*
X101595396Y-60608188D01*
X101603981Y-60673400D01*
X101593041Y-60743549D01*
X101588179Y-60752844D01*
X101578451Y-60769694D01*
X101572544Y-60778967D01*
X101550935Y-60809827D01*
X101548081Y-60820477D01*
X101546604Y-60823645D01*
X101545412Y-60826921D01*
X101539901Y-60836466D01*
X101533951Y-60870210D01*
X101533359Y-60873569D01*
X101530981Y-60884296D01*
X101521225Y-60920704D01*
X101522186Y-60931689D01*
X101522186Y-60931691D01*
X101524509Y-60958239D01*
X101524989Y-60969221D01*
X101524989Y-72504584D01*
X101524509Y-72515566D01*
X101524184Y-72519286D01*
X101521225Y-72553101D01*
X101524079Y-72563750D01*
X101530980Y-72589504D01*
X101533359Y-72600236D01*
X101539901Y-72637339D01*
X101545412Y-72646884D01*
X101546604Y-72650160D01*
X101548081Y-72653328D01*
X101550935Y-72663978D01*
X101557259Y-72673009D01*
X101572544Y-72694838D01*
X101578450Y-72704109D01*
X101591782Y-72727200D01*
X101597295Y-72736749D01*
X101605740Y-72743835D01*
X101626164Y-72760973D01*
X101634269Y-72768400D01*
X102091792Y-73225924D01*
X102125817Y-73288236D01*
X102127618Y-73331463D01*
X102118818Y-73398305D01*
X102139456Y-73555067D01*
X102199964Y-73701146D01*
X102296218Y-73826587D01*
X102421659Y-73922841D01*
X102567738Y-73983349D01*
X102724500Y-74003987D01*
X102732688Y-74002909D01*
X102873074Y-73984427D01*
X102881262Y-73983349D01*
X103027341Y-73922841D01*
X103152782Y-73826587D01*
X103196396Y-73769748D01*
X105649500Y-73769748D01*
X105661133Y-73828231D01*
X105705448Y-73894552D01*
X105771769Y-73938867D01*
X105783938Y-73941288D01*
X105783939Y-73941288D01*
X105824184Y-73949293D01*
X105830252Y-73950500D01*
X107119153Y-73950500D01*
X107187274Y-73970502D01*
X107233767Y-74024158D01*
X107243871Y-74094432D01*
X107214377Y-74159012D01*
X107195857Y-74176463D01*
X107071718Y-74271718D01*
X106975464Y-74397159D01*
X106914956Y-74543238D01*
X106894318Y-74700000D01*
X106914956Y-74856762D01*
X106975464Y-75002841D01*
X107071718Y-75128282D01*
X107197159Y-75224536D01*
X107343238Y-75285044D01*
X107500000Y-75305682D01*
X107508188Y-75304604D01*
X107648574Y-75286122D01*
X107656762Y-75285044D01*
X107802841Y-75224536D01*
X107928282Y-75128282D01*
X108024536Y-75002841D01*
X108085044Y-74856762D01*
X108105682Y-74700000D01*
X108096882Y-74633158D01*
X108107821Y-74563011D01*
X108132709Y-74527617D01*
X108616228Y-74044099D01*
X108624332Y-74036673D01*
X108644750Y-74019540D01*
X108653194Y-74012455D01*
X108658705Y-74002910D01*
X108664916Y-73995508D01*
X108724026Y-73956182D01*
X108761437Y-73950500D01*
X110969748Y-73950500D01*
X110975816Y-73949293D01*
X111016061Y-73941288D01*
X111016062Y-73941288D01*
X111028231Y-73938867D01*
X111094552Y-73894552D01*
X111138867Y-73828231D01*
X111150500Y-73769748D01*
X111150500Y-72951500D01*
X111170502Y-72883379D01*
X111224158Y-72836886D01*
X111276500Y-72825500D01*
X111330714Y-72825500D01*
X111398835Y-72845502D01*
X111430677Y-72874796D01*
X111471718Y-72928282D01*
X111597159Y-73024536D01*
X111743238Y-73085044D01*
X111900000Y-73105682D01*
X111908188Y-73104604D01*
X111910270Y-73104330D01*
X112056762Y-73085044D01*
X112202841Y-73024536D01*
X112328282Y-72928282D01*
X112424536Y-72802841D01*
X112485044Y-72656762D01*
X112505682Y-72500000D01*
X112485044Y-72343238D01*
X112424536Y-72197159D01*
X112328282Y-72071718D01*
X112202841Y-71975464D01*
X112056762Y-71914956D01*
X111900000Y-71894318D01*
X111743238Y-71914956D01*
X111597159Y-71975464D01*
X111471718Y-72071718D01*
X111466695Y-72078264D01*
X111430677Y-72125204D01*
X111373339Y-72167071D01*
X111330714Y-72174500D01*
X111276500Y-72174500D01*
X111208379Y-72154498D01*
X111161886Y-72100842D01*
X111150500Y-72048500D01*
X111150500Y-71230252D01*
X111138867Y-71171769D01*
X111094552Y-71105448D01*
X111028231Y-71061133D01*
X111016062Y-71058712D01*
X111016061Y-71058712D01*
X110975816Y-71050707D01*
X110969748Y-71049500D01*
X105830252Y-71049500D01*
X105824184Y-71050707D01*
X105783939Y-71058712D01*
X105783938Y-71058712D01*
X105771769Y-71061133D01*
X105705448Y-71105448D01*
X105661133Y-71171769D01*
X105649500Y-71230252D01*
X105649500Y-73769748D01*
X103196396Y-73769748D01*
X103249036Y-73701146D01*
X103309544Y-73555067D01*
X103330182Y-73398305D01*
X103309544Y-73241543D01*
X103297759Y-73213091D01*
X103290170Y-73142503D01*
X103321949Y-73079016D01*
X103383007Y-73042788D01*
X103453958Y-73045322D01*
X103462386Y-73048465D01*
X103553298Y-73086122D01*
X103597256Y-73104330D01*
X103605444Y-73105408D01*
X103675637Y-73114649D01*
X103754018Y-73124968D01*
X103762206Y-73123890D01*
X103902592Y-73105408D01*
X103910780Y-73104330D01*
X104056859Y-73043822D01*
X104182300Y-72947568D01*
X104278554Y-72822127D01*
X104339062Y-72676048D01*
X104359700Y-72519286D01*
X104339062Y-72362524D01*
X104278554Y-72216445D01*
X104182300Y-72091004D01*
X104128814Y-72049963D01*
X104086947Y-71992625D01*
X104079518Y-71950000D01*
X104079518Y-67082020D01*
X104099520Y-67013899D01*
X104116423Y-66992925D01*
X105140571Y-65968778D01*
X111349499Y-65968778D01*
X111356286Y-65978479D01*
X111423390Y-66035790D01*
X111431372Y-66041590D01*
X111644379Y-66172121D01*
X111653173Y-66176602D01*
X111883972Y-66272202D01*
X111893357Y-66275251D01*
X112136272Y-66333570D01*
X112146019Y-66335113D01*
X112395070Y-66354714D01*
X112404930Y-66354714D01*
X112653981Y-66335113D01*
X112663728Y-66333570D01*
X112906643Y-66275251D01*
X112916028Y-66272202D01*
X113146827Y-66176602D01*
X113155621Y-66172121D01*
X113368628Y-66041590D01*
X113376610Y-66035790D01*
X113442144Y-65979820D01*
X113450574Y-65966906D01*
X113444567Y-65956699D01*
X112412812Y-64924944D01*
X112398868Y-64917330D01*
X112397035Y-64917461D01*
X112390420Y-64921712D01*
X111356891Y-65955241D01*
X111349499Y-65968778D01*
X105140571Y-65968778D01*
X106190733Y-64918616D01*
X106198837Y-64911189D01*
X106219261Y-64894051D01*
X106227705Y-64886966D01*
X106233215Y-64877423D01*
X106233218Y-64877419D01*
X106246547Y-64854332D01*
X106252452Y-64845062D01*
X106267743Y-64823224D01*
X106274065Y-64814195D01*
X106276918Y-64803547D01*
X106278397Y-64800376D01*
X106279589Y-64797100D01*
X106285099Y-64787556D01*
X106291645Y-64750435D01*
X106294019Y-64739728D01*
X106303342Y-64704930D01*
X110745286Y-64704930D01*
X110764887Y-64953981D01*
X110766430Y-64963728D01*
X110824749Y-65206643D01*
X110827798Y-65216028D01*
X110923398Y-65446827D01*
X110927879Y-65455621D01*
X111058410Y-65668628D01*
X111064210Y-65676610D01*
X111120180Y-65742144D01*
X111133094Y-65750574D01*
X111143301Y-65744567D01*
X112175056Y-64712812D01*
X112182670Y-64698868D01*
X112182539Y-64697035D01*
X112178288Y-64690420D01*
X111144759Y-63656891D01*
X111131222Y-63649499D01*
X111121521Y-63656286D01*
X111064210Y-63723390D01*
X111058410Y-63731372D01*
X110927879Y-63944379D01*
X110923398Y-63953173D01*
X110827798Y-64183972D01*
X110824749Y-64193357D01*
X110766430Y-64436272D01*
X110764887Y-64446019D01*
X110745286Y-64695070D01*
X110745286Y-64704930D01*
X106303342Y-64704930D01*
X106303774Y-64703318D01*
X106300490Y-64665780D01*
X106300011Y-64654799D01*
X106300011Y-57952030D01*
X106320013Y-57883909D01*
X106373669Y-57837416D01*
X106443943Y-57827312D01*
X106502716Y-57852067D01*
X106597159Y-57924536D01*
X106743238Y-57985044D01*
X106900000Y-58005682D01*
X106908188Y-58004604D01*
X107048574Y-57986122D01*
X107056762Y-57985044D01*
X107202841Y-57924536D01*
X107328282Y-57828282D01*
X107424536Y-57702841D01*
X107427478Y-57695739D01*
X107478669Y-57646927D01*
X107548382Y-57633489D01*
X107614293Y-57659875D01*
X107636370Y-57682216D01*
X107666692Y-57721733D01*
X107666695Y-57721736D01*
X107671718Y-57728282D01*
X107797159Y-57824536D01*
X107943238Y-57885044D01*
X108100000Y-57905682D01*
X108108188Y-57904604D01*
X108248574Y-57886122D01*
X108256762Y-57885044D01*
X108402841Y-57824536D01*
X108471796Y-57771625D01*
X108538016Y-57746025D01*
X108607565Y-57760290D01*
X108658361Y-57809891D01*
X108674500Y-57871588D01*
X108674500Y-62719694D01*
X108654498Y-62787815D01*
X108600842Y-62834308D01*
X108593900Y-62836804D01*
X108593920Y-62836853D01*
X108447841Y-62897361D01*
X108322400Y-62993615D01*
X108226146Y-63119056D01*
X108165638Y-63265135D01*
X108145000Y-63421897D01*
X108165638Y-63578659D01*
X108226146Y-63724738D01*
X108322400Y-63850179D01*
X108447841Y-63946433D01*
X108593920Y-64006941D01*
X108750682Y-64027579D01*
X108758870Y-64026501D01*
X108899256Y-64008019D01*
X108907444Y-64006941D01*
X109053523Y-63946433D01*
X109178964Y-63850179D01*
X109275218Y-63724738D01*
X109335726Y-63578659D01*
X109356364Y-63421897D01*
X109335726Y-63265135D01*
X109332565Y-63257503D01*
X109330676Y-63250454D01*
X109327093Y-63209488D01*
X109329264Y-63201386D01*
X109325980Y-63163851D01*
X109325500Y-63152869D01*
X109325500Y-60127621D01*
X109345502Y-60059500D01*
X109399158Y-60013007D01*
X109469432Y-60002903D01*
X109534012Y-60032397D01*
X109542946Y-60041473D01*
X109546806Y-60048159D01*
X109555251Y-60055245D01*
X109575682Y-60072389D01*
X109583785Y-60079815D01*
X112344744Y-62840774D01*
X112378770Y-62903086D01*
X112373705Y-62973901D01*
X112331158Y-63030737D01*
X112265534Y-63055481D01*
X112146020Y-63064887D01*
X112136272Y-63066430D01*
X111893357Y-63124749D01*
X111883972Y-63127798D01*
X111653173Y-63223398D01*
X111644379Y-63227879D01*
X111431372Y-63358410D01*
X111423390Y-63364210D01*
X111357856Y-63420180D01*
X111349426Y-63433094D01*
X111355433Y-63443301D01*
X113655241Y-65743109D01*
X113669185Y-65750723D01*
X113691091Y-65749157D01*
X113719054Y-65739739D01*
X113787907Y-65757052D01*
X113836470Y-65808842D01*
X113849999Y-65865642D01*
X113849999Y-66655789D01*
X113849519Y-66666771D01*
X113848139Y-66682549D01*
X113846235Y-66704306D01*
X113850427Y-66719950D01*
X113855990Y-66740709D01*
X113858369Y-66751441D01*
X113864911Y-66788544D01*
X113870422Y-66798089D01*
X113871614Y-66801365D01*
X113873091Y-66804533D01*
X113875945Y-66815183D01*
X113886176Y-66829794D01*
X113897554Y-66846043D01*
X113903460Y-66855314D01*
X113916087Y-66877184D01*
X113922305Y-66887954D01*
X113942368Y-66904789D01*
X113951180Y-66912183D01*
X113959284Y-66919610D01*
X114067291Y-67027617D01*
X114101317Y-67089929D01*
X114103118Y-67133157D01*
X114094318Y-67200000D01*
X114114956Y-67356762D01*
X114175464Y-67502841D01*
X114271718Y-67628282D01*
X114397159Y-67724536D01*
X114543238Y-67785044D01*
X114700000Y-67805682D01*
X114708188Y-67804604D01*
X114848574Y-67786122D01*
X114856762Y-67785044D01*
X115002841Y-67724536D01*
X115128282Y-67628282D01*
X115224536Y-67502841D01*
X115285044Y-67356762D01*
X115305682Y-67200000D01*
X115285044Y-67043238D01*
X115224536Y-66897159D01*
X115128282Y-66771718D01*
X115002841Y-66675464D01*
X114856762Y-66614956D01*
X114700000Y-66594318D01*
X114643444Y-66601764D01*
X114573297Y-66590825D01*
X114520198Y-66543697D01*
X114500999Y-66476842D01*
X114500999Y-64973278D01*
X114521001Y-64905157D01*
X114574657Y-64858664D01*
X114644931Y-64848560D01*
X114675217Y-64856869D01*
X114735608Y-64881884D01*
X114735611Y-64881885D01*
X114743238Y-64885044D01*
X114900000Y-64905682D01*
X114908188Y-64904604D01*
X115048574Y-64886122D01*
X115056762Y-64885044D01*
X115202841Y-64824536D01*
X115328282Y-64728282D01*
X115347438Y-64703318D01*
X115419509Y-64609392D01*
X115424536Y-64602841D01*
X115485044Y-64456762D01*
X115491677Y-64406383D01*
X115501943Y-64328397D01*
X115505682Y-64300000D01*
X115485044Y-64143238D01*
X115424536Y-63997159D01*
X115328282Y-63871718D01*
X115202841Y-63775464D01*
X115126350Y-63743780D01*
X115071070Y-63699233D01*
X115048649Y-63631870D01*
X115066207Y-63563078D01*
X115103863Y-63525867D01*
X115102841Y-63524536D01*
X115221736Y-63433305D01*
X115228282Y-63428282D01*
X115324536Y-63302841D01*
X115385044Y-63156762D01*
X115405682Y-63000000D01*
X115385044Y-62843238D01*
X115324536Y-62697159D01*
X115228282Y-62571718D01*
X115102841Y-62475464D01*
X114956762Y-62414956D01*
X114800000Y-62394318D01*
X114733157Y-62403118D01*
X114663010Y-62392179D01*
X114627617Y-62367291D01*
X111831090Y-59570764D01*
X111797064Y-59508452D01*
X111803776Y-59433452D01*
X111835542Y-59356762D01*
X111856180Y-59200000D01*
X111835542Y-59043238D01*
X111775034Y-58897159D01*
X111678780Y-58771718D01*
X111553339Y-58675464D01*
X111407260Y-58614956D01*
X111389684Y-58612642D01*
X111258686Y-58595396D01*
X111250498Y-58594318D01*
X111250589Y-58593630D01*
X111188481Y-58575394D01*
X111141988Y-58521738D01*
X111130602Y-58469396D01*
X111130602Y-58466118D01*
X111131680Y-58457930D01*
X111111042Y-58301168D01*
X111050534Y-58155089D01*
X110954280Y-58029648D01*
X110874952Y-57968778D01*
X111349499Y-57968778D01*
X111356286Y-57978479D01*
X111423390Y-58035790D01*
X111431372Y-58041590D01*
X111644379Y-58172121D01*
X111653173Y-58176602D01*
X111883972Y-58272202D01*
X111893357Y-58275251D01*
X112136272Y-58333570D01*
X112146019Y-58335113D01*
X112395070Y-58354714D01*
X112404930Y-58354714D01*
X112653981Y-58335113D01*
X112663728Y-58333570D01*
X112906643Y-58275251D01*
X112916028Y-58272202D01*
X113146827Y-58176602D01*
X113155621Y-58172121D01*
X113368628Y-58041590D01*
X113376610Y-58035790D01*
X113442144Y-57979820D01*
X113450574Y-57966906D01*
X113444567Y-57956699D01*
X112412812Y-56924944D01*
X112398868Y-56917330D01*
X112397035Y-56917461D01*
X112390420Y-56921712D01*
X111356891Y-57955241D01*
X111349499Y-57968778D01*
X110874952Y-57968778D01*
X110828839Y-57933394D01*
X110682760Y-57872886D01*
X110525998Y-57852248D01*
X110525655Y-57852293D01*
X110461051Y-57833324D01*
X110414558Y-57779668D01*
X110405083Y-57716446D01*
X110404604Y-57716446D01*
X110404604Y-57713253D01*
X110404249Y-57710884D01*
X110405682Y-57700000D01*
X110385044Y-57543238D01*
X110324536Y-57397159D01*
X110256059Y-57307918D01*
X110233305Y-57278264D01*
X110228282Y-57271718D01*
X110102841Y-57175464D01*
X109956762Y-57114956D01*
X109800000Y-57094318D01*
X109684942Y-57109466D01*
X109614795Y-57098527D01*
X109561696Y-57051399D01*
X109542506Y-56983045D01*
X109552088Y-56936326D01*
X109581884Y-56864392D01*
X109581885Y-56864389D01*
X109585044Y-56856762D01*
X109605033Y-56704930D01*
X110745286Y-56704930D01*
X110764887Y-56953981D01*
X110766430Y-56963728D01*
X110824749Y-57206643D01*
X110827798Y-57216028D01*
X110923398Y-57446827D01*
X110927879Y-57455621D01*
X111058410Y-57668628D01*
X111064210Y-57676610D01*
X111120180Y-57742144D01*
X111133094Y-57750574D01*
X111143301Y-57744567D01*
X112175056Y-56712812D01*
X112181434Y-56701132D01*
X112617330Y-56701132D01*
X112617461Y-56702965D01*
X112621712Y-56709580D01*
X113655241Y-57743109D01*
X113668778Y-57750501D01*
X113678479Y-57743714D01*
X113735790Y-57676610D01*
X113741590Y-57668628D01*
X113872121Y-57455621D01*
X113876602Y-57446827D01*
X113972202Y-57216028D01*
X113975251Y-57206643D01*
X114033570Y-56963728D01*
X114035113Y-56953981D01*
X114054714Y-56704930D01*
X114054714Y-56695070D01*
X114035113Y-56446019D01*
X114033570Y-56436272D01*
X113975251Y-56193357D01*
X113972202Y-56183972D01*
X113876602Y-55953173D01*
X113872121Y-55944379D01*
X113741590Y-55731372D01*
X113735790Y-55723390D01*
X113679820Y-55657856D01*
X113666906Y-55649426D01*
X113656699Y-55655433D01*
X112624944Y-56687188D01*
X112617330Y-56701132D01*
X112181434Y-56701132D01*
X112182670Y-56698868D01*
X112182539Y-56697035D01*
X112178288Y-56690420D01*
X111144759Y-55656891D01*
X111131222Y-55649499D01*
X111121521Y-55656286D01*
X111064210Y-55723390D01*
X111058410Y-55731372D01*
X110927879Y-55944379D01*
X110923398Y-55953173D01*
X110827798Y-56183972D01*
X110824749Y-56193357D01*
X110766430Y-56436272D01*
X110764887Y-56446019D01*
X110745286Y-56695070D01*
X110745286Y-56704930D01*
X109605033Y-56704930D01*
X109605682Y-56700000D01*
X109585044Y-56543238D01*
X109524536Y-56397159D01*
X109428282Y-56271718D01*
X109302841Y-56175464D01*
X109156762Y-56114956D01*
X109000000Y-56094318D01*
X108843238Y-56114956D01*
X108697159Y-56175464D01*
X108571718Y-56271718D01*
X108475464Y-56397159D01*
X108414956Y-56543238D01*
X108413878Y-56551426D01*
X108406340Y-56608681D01*
X108377617Y-56673608D01*
X108318352Y-56712699D01*
X108256915Y-56713795D01*
X108256762Y-56714956D01*
X108249016Y-56713936D01*
X108249015Y-56713936D01*
X108247944Y-56713795D01*
X108108188Y-56695396D01*
X108100000Y-56694318D01*
X108033159Y-56703118D01*
X107963011Y-56692179D01*
X107927618Y-56667291D01*
X106693421Y-55433094D01*
X111349426Y-55433094D01*
X111355433Y-55443301D01*
X112387188Y-56475056D01*
X112401132Y-56482670D01*
X112402965Y-56482539D01*
X112409580Y-56478288D01*
X113443109Y-55444759D01*
X113450501Y-55431222D01*
X113443714Y-55421521D01*
X113376610Y-55364210D01*
X113368628Y-55358410D01*
X113155621Y-55227879D01*
X113146827Y-55223398D01*
X112916028Y-55127798D01*
X112906643Y-55124749D01*
X112663728Y-55066430D01*
X112653981Y-55064887D01*
X112404930Y-55045286D01*
X112395070Y-55045286D01*
X112146019Y-55064887D01*
X112136272Y-55066430D01*
X111893357Y-55124749D01*
X111883972Y-55127798D01*
X111653173Y-55223398D01*
X111644379Y-55227879D01*
X111431372Y-55358410D01*
X111423390Y-55364210D01*
X111357856Y-55420180D01*
X111349426Y-55433094D01*
X106693421Y-55433094D01*
X105176599Y-53916273D01*
X115159772Y-53916273D01*
X115163809Y-53962411D01*
X115165710Y-53973197D01*
X115219474Y-54173848D01*
X115223220Y-54184140D01*
X115311007Y-54372400D01*
X115316490Y-54381896D01*
X115435628Y-54552043D01*
X115442684Y-54560451D01*
X115589549Y-54707316D01*
X115597957Y-54714372D01*
X115768104Y-54833510D01*
X115777599Y-54838993D01*
X115965860Y-54926780D01*
X115976152Y-54930526D01*
X116176803Y-54984290D01*
X116187589Y-54986191D01*
X116231952Y-54990073D01*
X116246901Y-54987069D01*
X116250000Y-54975317D01*
X116250000Y-54973537D01*
X116550000Y-54973537D01*
X116554295Y-54988165D01*
X116566273Y-54990228D01*
X116612411Y-54986191D01*
X116623197Y-54984290D01*
X116823848Y-54930526D01*
X116834140Y-54926780D01*
X117022401Y-54838993D01*
X117031896Y-54833510D01*
X117202043Y-54714372D01*
X117210451Y-54707316D01*
X117357316Y-54560451D01*
X117364372Y-54552043D01*
X117483510Y-54381896D01*
X117488993Y-54372400D01*
X117576780Y-54184140D01*
X117580526Y-54173848D01*
X117634290Y-53973197D01*
X117636191Y-53962411D01*
X117640073Y-53918048D01*
X117637069Y-53903099D01*
X117625317Y-53900000D01*
X116568115Y-53900000D01*
X116552876Y-53904475D01*
X116551671Y-53905865D01*
X116550000Y-53913548D01*
X116550000Y-54973537D01*
X116250000Y-54973537D01*
X116250000Y-53918115D01*
X116245525Y-53902876D01*
X116244135Y-53901671D01*
X116236452Y-53900000D01*
X115176463Y-53900000D01*
X115161835Y-53904295D01*
X115159772Y-53916273D01*
X105176599Y-53916273D01*
X104842278Y-53581952D01*
X115159927Y-53581952D01*
X115162931Y-53596901D01*
X115174683Y-53600000D01*
X117623537Y-53600000D01*
X117638165Y-53595705D01*
X117640228Y-53583727D01*
X117636191Y-53537589D01*
X117634290Y-53526803D01*
X117580526Y-53326152D01*
X117576780Y-53315860D01*
X117488993Y-53127600D01*
X117483510Y-53118104D01*
X117364372Y-52947957D01*
X117357316Y-52939549D01*
X117210451Y-52792684D01*
X117202043Y-52785628D01*
X117031896Y-52666490D01*
X117022401Y-52661007D01*
X116834140Y-52573220D01*
X116823848Y-52569474D01*
X116623204Y-52515712D01*
X116612397Y-52513807D01*
X116518429Y-52505585D01*
X116452311Y-52479722D01*
X116410671Y-52422218D01*
X116406731Y-52351331D01*
X116441741Y-52289567D01*
X116504585Y-52256535D01*
X116519741Y-52254437D01*
X116539436Y-52252921D01*
X116577159Y-52250019D01*
X116577164Y-52250018D01*
X116583300Y-52249546D01*
X116589230Y-52247890D01*
X116589232Y-52247890D01*
X116775797Y-52195800D01*
X116775796Y-52195800D01*
X116781725Y-52194145D01*
X116787214Y-52191372D01*
X116787220Y-52191370D01*
X116960116Y-52104033D01*
X116965610Y-52101258D01*
X117127951Y-51974424D01*
X117262564Y-51818472D01*
X117283387Y-51781818D01*
X117361276Y-51644707D01*
X117364323Y-51639344D01*
X117429351Y-51443863D01*
X117455171Y-51239474D01*
X117455583Y-51210000D01*
X117435480Y-51004970D01*
X117375935Y-50807749D01*
X117279218Y-50625849D01*
X117169900Y-50491812D01*
X117152906Y-50470975D01*
X117152903Y-50470972D01*
X117149011Y-50466200D01*
X117131786Y-50451950D01*
X116995025Y-50338811D01*
X116995021Y-50338809D01*
X116990275Y-50334882D01*
X116809055Y-50236897D01*
X116612254Y-50175977D01*
X116606129Y-50175333D01*
X116606128Y-50175333D01*
X116413498Y-50155087D01*
X116413496Y-50155087D01*
X116407369Y-50154443D01*
X116320529Y-50162346D01*
X116208342Y-50172555D01*
X116208339Y-50172556D01*
X116202203Y-50173114D01*
X116004572Y-50231280D01*
X115822002Y-50326726D01*
X115817201Y-50330586D01*
X115817198Y-50330588D01*
X115791281Y-50351426D01*
X115661447Y-50455815D01*
X115529024Y-50613630D01*
X115526056Y-50619028D01*
X115526053Y-50619033D01*
X115470486Y-50720110D01*
X115429776Y-50794162D01*
X115367484Y-50990532D01*
X115366798Y-50996649D01*
X115366797Y-50996653D01*
X115354689Y-51104604D01*
X115344520Y-51195262D01*
X115361759Y-51400553D01*
X115418544Y-51598586D01*
X115421359Y-51604063D01*
X115421360Y-51604066D01*
X115442247Y-51644707D01*
X115512712Y-51781818D01*
X115640677Y-51943270D01*
X115797564Y-52076791D01*
X115977398Y-52177297D01*
X116072238Y-52208112D01*
X116167471Y-52239056D01*
X116167475Y-52239057D01*
X116173329Y-52240959D01*
X116288491Y-52254691D01*
X116353762Y-52282617D01*
X116393576Y-52341400D01*
X116395288Y-52412376D01*
X116358357Y-52473010D01*
X116294506Y-52504053D01*
X116284553Y-52505324D01*
X116187603Y-52513807D01*
X116176796Y-52515712D01*
X115976152Y-52569474D01*
X115965860Y-52573220D01*
X115777600Y-52661007D01*
X115768104Y-52666490D01*
X115597957Y-52785628D01*
X115589549Y-52792684D01*
X115442684Y-52939549D01*
X115435628Y-52947957D01*
X115316490Y-53118104D01*
X115311007Y-53127600D01*
X115223220Y-53315860D01*
X115219474Y-53326152D01*
X115165710Y-53526803D01*
X115163809Y-53537589D01*
X115159927Y-53581952D01*
X104842278Y-53581952D01*
X104162405Y-52902079D01*
X104128379Y-52839767D01*
X104125500Y-52812984D01*
X104125500Y-51169286D01*
X104145502Y-51101165D01*
X104174796Y-51069323D01*
X104221736Y-51033305D01*
X104228282Y-51028282D01*
X104324536Y-50902841D01*
X104385044Y-50756762D01*
X104405682Y-50600000D01*
X104392517Y-50500000D01*
X104794318Y-50500000D01*
X104814956Y-50656762D01*
X104875464Y-50802841D01*
X104971718Y-50928282D01*
X105097159Y-51024536D01*
X105243238Y-51085044D01*
X105400000Y-51105682D01*
X105408188Y-51104604D01*
X105548574Y-51086122D01*
X105556762Y-51085044D01*
X105702841Y-51024536D01*
X105828282Y-50928282D01*
X105847804Y-50902841D01*
X105869323Y-50874796D01*
X105926661Y-50832929D01*
X105969286Y-50825500D01*
X106780290Y-50825500D01*
X106791272Y-50825980D01*
X106817820Y-50828303D01*
X106817822Y-50828303D01*
X106828807Y-50829264D01*
X106865215Y-50819508D01*
X106875942Y-50817130D01*
X106879301Y-50816538D01*
X106913045Y-50810588D01*
X106922590Y-50805077D01*
X106925866Y-50803885D01*
X106929034Y-50802408D01*
X106939684Y-50799554D01*
X106970544Y-50777945D01*
X106979815Y-50772039D01*
X107002906Y-50758707D01*
X107012455Y-50753194D01*
X107036685Y-50724317D01*
X107044111Y-50716215D01*
X107372921Y-50387405D01*
X107435233Y-50353379D01*
X107462016Y-50350500D01*
X110969748Y-50350500D01*
X111006257Y-50343238D01*
X111016061Y-50341288D01*
X111016062Y-50341288D01*
X111028231Y-50338867D01*
X111094552Y-50294552D01*
X111138867Y-50228231D01*
X111150500Y-50169748D01*
X111150500Y-48655262D01*
X115344520Y-48655262D01*
X115361759Y-48860553D01*
X115418544Y-49058586D01*
X115421359Y-49064063D01*
X115421360Y-49064066D01*
X115442247Y-49104707D01*
X115512712Y-49241818D01*
X115640677Y-49403270D01*
X115797564Y-49536791D01*
X115977398Y-49637297D01*
X116072238Y-49668113D01*
X116167471Y-49699056D01*
X116167475Y-49699057D01*
X116173329Y-49700959D01*
X116377894Y-49725351D01*
X116384029Y-49724879D01*
X116384031Y-49724879D01*
X116440039Y-49720569D01*
X116583300Y-49709546D01*
X116589230Y-49707890D01*
X116589232Y-49707890D01*
X116775797Y-49655800D01*
X116775796Y-49655800D01*
X116781725Y-49654145D01*
X116787214Y-49651372D01*
X116787220Y-49651370D01*
X116960116Y-49564033D01*
X116965610Y-49561258D01*
X117127951Y-49434424D01*
X117262564Y-49278472D01*
X117283387Y-49241818D01*
X117361276Y-49104707D01*
X117364323Y-49099344D01*
X117429351Y-48903863D01*
X117455171Y-48699474D01*
X117455583Y-48670000D01*
X117435480Y-48464970D01*
X117375935Y-48267749D01*
X117279218Y-48085849D01*
X117205859Y-47995902D01*
X117152906Y-47930975D01*
X117152903Y-47930972D01*
X117149011Y-47926200D01*
X117131786Y-47911950D01*
X116995025Y-47798811D01*
X116995021Y-47798809D01*
X116990275Y-47794882D01*
X116809055Y-47696897D01*
X116612254Y-47635977D01*
X116606129Y-47635333D01*
X116606128Y-47635333D01*
X116413498Y-47615087D01*
X116413496Y-47615087D01*
X116407369Y-47614443D01*
X116320529Y-47622346D01*
X116208342Y-47632555D01*
X116208339Y-47632556D01*
X116202203Y-47633114D01*
X116004572Y-47691280D01*
X115999107Y-47694137D01*
X115913287Y-47739003D01*
X115822002Y-47786726D01*
X115817201Y-47790586D01*
X115817198Y-47790588D01*
X115806971Y-47798811D01*
X115661447Y-47915815D01*
X115529024Y-48073630D01*
X115526056Y-48079028D01*
X115526053Y-48079033D01*
X115519315Y-48091290D01*
X115429776Y-48254162D01*
X115367484Y-48450532D01*
X115366798Y-48456649D01*
X115366797Y-48456653D01*
X115345207Y-48649137D01*
X115344520Y-48655262D01*
X111150500Y-48655262D01*
X111150500Y-47630252D01*
X111148403Y-47619710D01*
X111141288Y-47583939D01*
X111141288Y-47583938D01*
X111138867Y-47571769D01*
X111094552Y-47505448D01*
X111028231Y-47461133D01*
X111016062Y-47458712D01*
X111016061Y-47458712D01*
X110975816Y-47450707D01*
X110969748Y-47449500D01*
X110594682Y-47449500D01*
X110526561Y-47429498D01*
X110480068Y-47375842D01*
X110469964Y-47305568D01*
X110491468Y-47251231D01*
X110493231Y-47248713D01*
X110499553Y-47239684D01*
X110502406Y-47229038D01*
X110503883Y-47225870D01*
X110505076Y-47222593D01*
X110510588Y-47213045D01*
X110517132Y-47175931D01*
X110519512Y-47165196D01*
X110526410Y-47139454D01*
X110529263Y-47128807D01*
X110528126Y-47115800D01*
X110525979Y-47091269D01*
X110525500Y-47080288D01*
X110525500Y-46269286D01*
X110545502Y-46201165D01*
X110574796Y-46169323D01*
X110621736Y-46133305D01*
X110628282Y-46128282D01*
X110638273Y-46115262D01*
X115344520Y-46115262D01*
X115345036Y-46121406D01*
X115353875Y-46226661D01*
X115361759Y-46320553D01*
X115363458Y-46326478D01*
X115411037Y-46492405D01*
X115418544Y-46518586D01*
X115421359Y-46524063D01*
X115421360Y-46524066D01*
X115442247Y-46564707D01*
X115512712Y-46701818D01*
X115640677Y-46863270D01*
X115797564Y-46996791D01*
X115977398Y-47097297D01*
X116040586Y-47117828D01*
X116167471Y-47159056D01*
X116167475Y-47159057D01*
X116173329Y-47160959D01*
X116377894Y-47185351D01*
X116384029Y-47184879D01*
X116384031Y-47184879D01*
X116440039Y-47180569D01*
X116583300Y-47169546D01*
X116589230Y-47167890D01*
X116589232Y-47167890D01*
X116775797Y-47115800D01*
X116775796Y-47115800D01*
X116781725Y-47114145D01*
X116787214Y-47111372D01*
X116787220Y-47111370D01*
X116960116Y-47024033D01*
X116965610Y-47021258D01*
X116990160Y-47002078D01*
X117123101Y-46898213D01*
X117127951Y-46894424D01*
X117262564Y-46738472D01*
X117283387Y-46701818D01*
X117361276Y-46564707D01*
X117364323Y-46559344D01*
X117429351Y-46363863D01*
X117455171Y-46159474D01*
X117455583Y-46130000D01*
X117435480Y-45924970D01*
X117375935Y-45727749D01*
X117279218Y-45545849D01*
X117164172Y-45404789D01*
X117152906Y-45390975D01*
X117152903Y-45390972D01*
X117149011Y-45386200D01*
X117131786Y-45371950D01*
X116995025Y-45258811D01*
X116995021Y-45258809D01*
X116990275Y-45254882D01*
X116809055Y-45156897D01*
X116612254Y-45095977D01*
X116606129Y-45095333D01*
X116606128Y-45095333D01*
X116413498Y-45075087D01*
X116413496Y-45075087D01*
X116407369Y-45074443D01*
X116320529Y-45082346D01*
X116208342Y-45092555D01*
X116208339Y-45092556D01*
X116202203Y-45093114D01*
X116004572Y-45151280D01*
X115822002Y-45246726D01*
X115817201Y-45250586D01*
X115817198Y-45250588D01*
X115806971Y-45258811D01*
X115661447Y-45375815D01*
X115529024Y-45533630D01*
X115526056Y-45539028D01*
X115526053Y-45539033D01*
X115442063Y-45691812D01*
X115429776Y-45714162D01*
X115367484Y-45910532D01*
X115366798Y-45916649D01*
X115366797Y-45916653D01*
X115357986Y-45995211D01*
X115344520Y-46115262D01*
X110638273Y-46115262D01*
X110724536Y-46002841D01*
X110785044Y-45856762D01*
X110805682Y-45700000D01*
X110785044Y-45543238D01*
X110724536Y-45397159D01*
X110628282Y-45271718D01*
X110502841Y-45175464D01*
X110356762Y-45114956D01*
X110200000Y-45094318D01*
X110043238Y-45114956D01*
X109897159Y-45175464D01*
X109771718Y-45271718D01*
X109675464Y-45397159D01*
X109614956Y-45543238D01*
X109594318Y-45700000D01*
X109614956Y-45856762D01*
X109675464Y-46002841D01*
X109771718Y-46128282D01*
X109778264Y-46133305D01*
X109825204Y-46169323D01*
X109867071Y-46226661D01*
X109874500Y-46269286D01*
X109874500Y-46912983D01*
X109854498Y-46981104D01*
X109837595Y-47002078D01*
X109427078Y-47412595D01*
X109364766Y-47446621D01*
X109337983Y-47449500D01*
X105830252Y-47449500D01*
X105824184Y-47450707D01*
X105783939Y-47458712D01*
X105783938Y-47458712D01*
X105771769Y-47461133D01*
X105705448Y-47505448D01*
X105661133Y-47571769D01*
X105658712Y-47583938D01*
X105658712Y-47583939D01*
X105651597Y-47619710D01*
X105649500Y-47630252D01*
X105649500Y-49783490D01*
X105629498Y-49851611D01*
X105575842Y-49898104D01*
X105507055Y-49908412D01*
X105400000Y-49894318D01*
X105243238Y-49914956D01*
X105097159Y-49975464D01*
X104971718Y-50071718D01*
X104875464Y-50197159D01*
X104834043Y-50297159D01*
X104821796Y-50326726D01*
X104814956Y-50343238D01*
X104794318Y-50500000D01*
X104392517Y-50500000D01*
X104385044Y-50443238D01*
X104324536Y-50297159D01*
X104228282Y-50171718D01*
X104218782Y-50164428D01*
X104174796Y-50130677D01*
X104132929Y-50073339D01*
X104125500Y-50030714D01*
X104125500Y-47619710D01*
X104125980Y-47608728D01*
X104128303Y-47582180D01*
X104128303Y-47582178D01*
X104129264Y-47571193D01*
X104119508Y-47534785D01*
X104117130Y-47524058D01*
X104115667Y-47515761D01*
X104110588Y-47486955D01*
X104105077Y-47477410D01*
X104103885Y-47474134D01*
X104102408Y-47470966D01*
X104099554Y-47460316D01*
X104077945Y-47429456D01*
X104072039Y-47420185D01*
X104058707Y-47397094D01*
X104053194Y-47387545D01*
X104024317Y-47363315D01*
X104016215Y-47355889D01*
X102574111Y-45913785D01*
X102566684Y-45905681D01*
X102549541Y-45885251D01*
X102549542Y-45885251D01*
X102542455Y-45876806D01*
X102532906Y-45871293D01*
X102509815Y-45857961D01*
X102500544Y-45852055D01*
X102478715Y-45836770D01*
X102469684Y-45830446D01*
X102459034Y-45827592D01*
X102455866Y-45826115D01*
X102452590Y-45824923D01*
X102443045Y-45819412D01*
X102409301Y-45813462D01*
X102405942Y-45812870D01*
X102395215Y-45810492D01*
X102358807Y-45800736D01*
X102347822Y-45801697D01*
X102347820Y-45801697D01*
X102321272Y-45804020D01*
X102310290Y-45804500D01*
X101591269Y-45804500D01*
X101523148Y-45784498D01*
X101476008Y-45727991D01*
X101475935Y-45727749D01*
X101379218Y-45545849D01*
X101264172Y-45404789D01*
X101252906Y-45390975D01*
X101252903Y-45390972D01*
X101249011Y-45386200D01*
X101231786Y-45371950D01*
X101095025Y-45258811D01*
X101095021Y-45258809D01*
X101090275Y-45254882D01*
X100909055Y-45156897D01*
X100712254Y-45095977D01*
X100706129Y-45095333D01*
X100706128Y-45095333D01*
X100513498Y-45075087D01*
X100513496Y-45075087D01*
X100507369Y-45074443D01*
X100420529Y-45082346D01*
X100308342Y-45092555D01*
X100308339Y-45092556D01*
X100302203Y-45093114D01*
X100104572Y-45151280D01*
X99922002Y-45246726D01*
X99917201Y-45250586D01*
X99917198Y-45250588D01*
X99906971Y-45258811D01*
X99761447Y-45375815D01*
X99629024Y-45533630D01*
X99626056Y-45539028D01*
X99626053Y-45539033D01*
X99542063Y-45691812D01*
X99529776Y-45714162D01*
X99467484Y-45910532D01*
X99466798Y-45916649D01*
X99466797Y-45916653D01*
X99457986Y-45995211D01*
X99444520Y-46115262D01*
X98750500Y-46115262D01*
X98750500Y-41926525D01*
X99250001Y-41926525D01*
X99250776Y-41936374D01*
X99263283Y-42015351D01*
X99269338Y-42033986D01*
X99317859Y-42129213D01*
X99329370Y-42145056D01*
X99404944Y-42220630D01*
X99420787Y-42232141D01*
X99516018Y-42280664D01*
X99534645Y-42286716D01*
X99613627Y-42299225D01*
X99623473Y-42300000D01*
X100308732Y-42300000D01*
X100376853Y-42320002D01*
X100423346Y-42373658D01*
X100433450Y-42443932D01*
X100403956Y-42508512D01*
X100344230Y-42546896D01*
X100320161Y-42551480D01*
X100302203Y-42553114D01*
X100104572Y-42611280D01*
X99922002Y-42706726D01*
X99917201Y-42710586D01*
X99917198Y-42710588D01*
X99883943Y-42737326D01*
X99761447Y-42835815D01*
X99629024Y-42993630D01*
X99626056Y-42999028D01*
X99626053Y-42999033D01*
X99532743Y-43168765D01*
X99529776Y-43174162D01*
X99467484Y-43370532D01*
X99466798Y-43376649D01*
X99466797Y-43376653D01*
X99445207Y-43569137D01*
X99444520Y-43575262D01*
X99461759Y-43780553D01*
X99518544Y-43978586D01*
X99521359Y-43984063D01*
X99521360Y-43984066D01*
X99542247Y-44024707D01*
X99612712Y-44161818D01*
X99740677Y-44323270D01*
X99897564Y-44456791D01*
X100077398Y-44557297D01*
X100172238Y-44588113D01*
X100267471Y-44619056D01*
X100267475Y-44619057D01*
X100273329Y-44620959D01*
X100477894Y-44645351D01*
X100484029Y-44644879D01*
X100484031Y-44644879D01*
X100540039Y-44640569D01*
X100683300Y-44629546D01*
X100689230Y-44627890D01*
X100689232Y-44627890D01*
X100875797Y-44575800D01*
X100875796Y-44575800D01*
X100881725Y-44574145D01*
X100887214Y-44571372D01*
X100887220Y-44571370D01*
X101060116Y-44484033D01*
X101065610Y-44481258D01*
X101227951Y-44354424D01*
X101362564Y-44198472D01*
X101383387Y-44161818D01*
X101461276Y-44024707D01*
X101464323Y-44019344D01*
X101529351Y-43823863D01*
X101555171Y-43619474D01*
X101555583Y-43590000D01*
X101554138Y-43575262D01*
X115344520Y-43575262D01*
X115361759Y-43780553D01*
X115418544Y-43978586D01*
X115421359Y-43984063D01*
X115421360Y-43984066D01*
X115442247Y-44024707D01*
X115512712Y-44161818D01*
X115640677Y-44323270D01*
X115797564Y-44456791D01*
X115977398Y-44557297D01*
X116072238Y-44588113D01*
X116167471Y-44619056D01*
X116167475Y-44619057D01*
X116173329Y-44620959D01*
X116377894Y-44645351D01*
X116384029Y-44644879D01*
X116384031Y-44644879D01*
X116440039Y-44640569D01*
X116583300Y-44629546D01*
X116589230Y-44627890D01*
X116589232Y-44627890D01*
X116775797Y-44575800D01*
X116775796Y-44575800D01*
X116781725Y-44574145D01*
X116787214Y-44571372D01*
X116787220Y-44571370D01*
X116960116Y-44484033D01*
X116965610Y-44481258D01*
X117127951Y-44354424D01*
X117262564Y-44198472D01*
X117283387Y-44161818D01*
X117361276Y-44024707D01*
X117364323Y-44019344D01*
X117429351Y-43823863D01*
X117455171Y-43619474D01*
X117455583Y-43590000D01*
X117435480Y-43384970D01*
X117375935Y-43187749D01*
X117279218Y-43005849D01*
X117191328Y-42898086D01*
X117152906Y-42850975D01*
X117152903Y-42850972D01*
X117149011Y-42846200D01*
X117142173Y-42840543D01*
X116995025Y-42718811D01*
X116995021Y-42718809D01*
X116990275Y-42714882D01*
X116809055Y-42616897D01*
X116612254Y-42555977D01*
X116606129Y-42555333D01*
X116606128Y-42555333D01*
X116413498Y-42535087D01*
X116413496Y-42535087D01*
X116407369Y-42534443D01*
X116320529Y-42542346D01*
X116208342Y-42552555D01*
X116208339Y-42552556D01*
X116202203Y-42553114D01*
X116004572Y-42611280D01*
X115822002Y-42706726D01*
X115817201Y-42710586D01*
X115817198Y-42710588D01*
X115783943Y-42737326D01*
X115661447Y-42835815D01*
X115529024Y-42993630D01*
X115526056Y-42999028D01*
X115526053Y-42999033D01*
X115432743Y-43168765D01*
X115429776Y-43174162D01*
X115367484Y-43370532D01*
X115366798Y-43376649D01*
X115366797Y-43376653D01*
X115345207Y-43569137D01*
X115344520Y-43575262D01*
X101554138Y-43575262D01*
X101535480Y-43384970D01*
X101475935Y-43187749D01*
X101379218Y-43005849D01*
X101291328Y-42898086D01*
X101252906Y-42850975D01*
X101252903Y-42850972D01*
X101249011Y-42846200D01*
X101242173Y-42840543D01*
X101095025Y-42718811D01*
X101095021Y-42718809D01*
X101090275Y-42714882D01*
X100909055Y-42616897D01*
X100712254Y-42555977D01*
X100706131Y-42555334D01*
X100706129Y-42555333D01*
X100667843Y-42551309D01*
X100602186Y-42524295D01*
X100561557Y-42466073D01*
X100558854Y-42395128D01*
X100594937Y-42333984D01*
X100658348Y-42302054D01*
X100681014Y-42299999D01*
X101376525Y-42299999D01*
X101386374Y-42299224D01*
X101465351Y-42286717D01*
X101483986Y-42280662D01*
X101579213Y-42232141D01*
X101595056Y-42220630D01*
X101670630Y-42145056D01*
X101682141Y-42129213D01*
X101730664Y-42033982D01*
X101735714Y-42018440D01*
X107244770Y-42018440D01*
X107259200Y-42238604D01*
X107260621Y-42244200D01*
X107260622Y-42244205D01*
X107298952Y-42395128D01*
X107313511Y-42452452D01*
X107315928Y-42457694D01*
X107315928Y-42457695D01*
X107354046Y-42540379D01*
X107405883Y-42652821D01*
X107533222Y-42833002D01*
X107691264Y-42986961D01*
X107696060Y-42990166D01*
X107696063Y-42990168D01*
X107780261Y-43046427D01*
X107874717Y-43109540D01*
X107880020Y-43111818D01*
X107880023Y-43111820D01*
X108056753Y-43187749D01*
X108077436Y-43196635D01*
X108157088Y-43214658D01*
X108286995Y-43244054D01*
X108287001Y-43244055D01*
X108292632Y-43245329D01*
X108298403Y-43245556D01*
X108298405Y-43245556D01*
X108366211Y-43248220D01*
X108513098Y-43253991D01*
X108622275Y-43238161D01*
X108725738Y-43223160D01*
X108725743Y-43223159D01*
X108731452Y-43222331D01*
X108736916Y-43220476D01*
X108736921Y-43220475D01*
X108934907Y-43153268D01*
X108934912Y-43153266D01*
X108940379Y-43151410D01*
X109132884Y-43043602D01*
X109184020Y-43001073D01*
X109298086Y-42906204D01*
X109302518Y-42902518D01*
X109345386Y-42850975D01*
X109439908Y-42737326D01*
X109439910Y-42737323D01*
X109443602Y-42732884D01*
X109512678Y-42609540D01*
X109548586Y-42545422D01*
X109548587Y-42545420D01*
X109551410Y-42540379D01*
X109553266Y-42534912D01*
X109553268Y-42534907D01*
X109620475Y-42336921D01*
X109620476Y-42336916D01*
X109622331Y-42331452D01*
X109623159Y-42325743D01*
X109623160Y-42325738D01*
X109653458Y-42116772D01*
X109653991Y-42113098D01*
X109655643Y-42050000D01*
X109643674Y-41919748D01*
X115349500Y-41919748D01*
X115361133Y-41978231D01*
X115405448Y-42044552D01*
X115471769Y-42088867D01*
X115483938Y-42091288D01*
X115483939Y-42091288D01*
X115524184Y-42099293D01*
X115530252Y-42100500D01*
X117269748Y-42100500D01*
X117275816Y-42099293D01*
X117316061Y-42091288D01*
X117316062Y-42091288D01*
X117328231Y-42088867D01*
X117394552Y-42044552D01*
X117438867Y-41978231D01*
X117450500Y-41919748D01*
X117450500Y-40180252D01*
X117438867Y-40121769D01*
X117394552Y-40055448D01*
X117328231Y-40011133D01*
X117316062Y-40008712D01*
X117316061Y-40008712D01*
X117275816Y-40000707D01*
X117269748Y-39999500D01*
X115530252Y-39999500D01*
X115524184Y-40000707D01*
X115483939Y-40008712D01*
X115483938Y-40008712D01*
X115471769Y-40011133D01*
X115405448Y-40055448D01*
X115361133Y-40121769D01*
X115349500Y-40180252D01*
X115349500Y-41919748D01*
X109643674Y-41919748D01*
X109635454Y-41830289D01*
X109575565Y-41617936D01*
X109477980Y-41420053D01*
X109345967Y-41243267D01*
X109183949Y-41093499D01*
X108997350Y-40975764D01*
X108792421Y-40894006D01*
X108786761Y-40892880D01*
X108786757Y-40892879D01*
X108581691Y-40852089D01*
X108581688Y-40852089D01*
X108576024Y-40850962D01*
X108570249Y-40850886D01*
X108570245Y-40850886D01*
X108459504Y-40849437D01*
X108355406Y-40848074D01*
X108349709Y-40849053D01*
X108349708Y-40849053D01*
X108143654Y-40884459D01*
X108143653Y-40884459D01*
X108137957Y-40885438D01*
X107930957Y-40961804D01*
X107741341Y-41074614D01*
X107575457Y-41220090D01*
X107438863Y-41393360D01*
X107336131Y-41588620D01*
X107270703Y-41799333D01*
X107244770Y-42018440D01*
X101735714Y-42018440D01*
X101736716Y-42015355D01*
X101749225Y-41936373D01*
X101750000Y-41926527D01*
X101750000Y-41218115D01*
X101745525Y-41202876D01*
X101744135Y-41201671D01*
X101736452Y-41200000D01*
X99268116Y-41200000D01*
X99252877Y-41204475D01*
X99251672Y-41205865D01*
X99250001Y-41213548D01*
X99250001Y-41926525D01*
X98750500Y-41926525D01*
X98750500Y-40881885D01*
X99250000Y-40881885D01*
X99254475Y-40897124D01*
X99255865Y-40898329D01*
X99263548Y-40900000D01*
X100331885Y-40900000D01*
X100347124Y-40895525D01*
X100348329Y-40894135D01*
X100350000Y-40886452D01*
X100350000Y-40881885D01*
X100650000Y-40881885D01*
X100654475Y-40897124D01*
X100655865Y-40898329D01*
X100663548Y-40900000D01*
X101731884Y-40900000D01*
X101747123Y-40895525D01*
X101748328Y-40894135D01*
X101749999Y-40886452D01*
X101749999Y-40173475D01*
X101749224Y-40163626D01*
X101736717Y-40084649D01*
X101730662Y-40066014D01*
X101682141Y-39970787D01*
X101670630Y-39954944D01*
X101595056Y-39879370D01*
X101579213Y-39867859D01*
X101483982Y-39819336D01*
X101465355Y-39813284D01*
X101386373Y-39800775D01*
X101376527Y-39800000D01*
X100668115Y-39800000D01*
X100652876Y-39804475D01*
X100651671Y-39805865D01*
X100650000Y-39813548D01*
X100650000Y-40881885D01*
X100350000Y-40881885D01*
X100350000Y-39818116D01*
X100345525Y-39802877D01*
X100344135Y-39801672D01*
X100336452Y-39800001D01*
X99623475Y-39800001D01*
X99613626Y-39800776D01*
X99534649Y-39813283D01*
X99516014Y-39819338D01*
X99420787Y-39867859D01*
X99404944Y-39879370D01*
X99329370Y-39954944D01*
X99317859Y-39970787D01*
X99269336Y-40066018D01*
X99263284Y-40084645D01*
X99250775Y-40163627D01*
X99250000Y-40173473D01*
X99250000Y-40881885D01*
X98750500Y-40881885D01*
X98750500Y-39442500D01*
X98770502Y-39374379D01*
X98824158Y-39327886D01*
X98876500Y-39316500D01*
X118023500Y-39316500D01*
X118091621Y-39336502D01*
G37*
%TD.AperFunction*%
M02*
