%TF.GenerationSoftware,KiCad,Pcbnew,(6.0.5)*%
%TF.CreationDate,2022-05-21T08:56:41+02:00*%
%TF.ProjectId,LoraTrigger,4c6f7261-5472-4696-9767-65722e6b6963,rev?*%
%TF.SameCoordinates,Original*%
%TF.FileFunction,Copper,L1,Top*%
%TF.FilePolarity,Positive*%
%FSLAX46Y46*%
G04 Gerber Fmt 4.6, Leading zero omitted, Abs format (unit mm)*
G04 Created by KiCad (PCBNEW (6.0.5)) date 2022-05-21 08:56:41*
%MOMM*%
%LPD*%
G01*
G04 APERTURE LIST*
G04 Aperture macros list*
%AMRoundRect*
0 Rectangle with rounded corners*
0 $1 Rounding radius*
0 $2 $3 $4 $5 $6 $7 $8 $9 X,Y pos of 4 corners*
0 Add a 4 corners polygon primitive as box body*
4,1,4,$2,$3,$4,$5,$6,$7,$8,$9,$2,$3,0*
0 Add four circle primitives for the rounded corners*
1,1,$1+$1,$2,$3*
1,1,$1+$1,$4,$5*
1,1,$1+$1,$6,$7*
1,1,$1+$1,$8,$9*
0 Add four rect primitives between the rounded corners*
20,1,$1+$1,$2,$3,$4,$5,0*
20,1,$1+$1,$4,$5,$6,$7,0*
20,1,$1+$1,$6,$7,$8,$9,0*
20,1,$1+$1,$8,$9,$2,$3,0*%
G04 Aperture macros list end*
%TA.AperFunction,SMDPad,CuDef*%
%ADD10R,1.200000X1.200000*%
%TD*%
%TA.AperFunction,ComponentPad*%
%ADD11R,1.700000X1.700000*%
%TD*%
%TA.AperFunction,ConnectorPad*%
%ADD12RoundRect,0.375000X-0.375000X-0.625000X0.375000X-0.625000X0.375000X0.625000X-0.375000X0.625000X0*%
%TD*%
%TA.AperFunction,SMDPad,CuDef*%
%ADD13RoundRect,0.250000X-0.750000X-0.250000X0.750000X-0.250000X0.750000X0.250000X-0.750000X0.250000X0*%
%TD*%
%TA.AperFunction,ComponentPad*%
%ADD14C,2.000000*%
%TD*%
%TA.AperFunction,SMDPad,CuDef*%
%ADD15R,0.750000X0.900000*%
%TD*%
%TA.AperFunction,SMDPad,CuDef*%
%ADD16R,0.900000X0.750000*%
%TD*%
%TA.AperFunction,SMDPad,CuDef*%
%ADD17R,0.900000X0.700000*%
%TD*%
%TA.AperFunction,SMDPad,CuDef*%
%ADD18R,1.500000X1.250000*%
%TD*%
%TA.AperFunction,SMDPad,CuDef*%
%ADD19R,0.700000X0.900000*%
%TD*%
%TA.AperFunction,SMDPad,CuDef*%
%ADD20RoundRect,0.150000X0.150000X-0.587500X0.150000X0.587500X-0.150000X0.587500X-0.150000X-0.587500X0*%
%TD*%
%TA.AperFunction,SMDPad,CuDef*%
%ADD21R,0.550000X1.600000*%
%TD*%
%TA.AperFunction,SMDPad,CuDef*%
%ADD22R,1.600000X0.550000*%
%TD*%
%TA.AperFunction,ComponentPad*%
%ADD23O,1.700000X1.700000*%
%TD*%
%TA.AperFunction,SMDPad,CuDef*%
%ADD24R,1.100000X0.300000*%
%TD*%
%TA.AperFunction,ViaPad*%
%ADD25C,0.800000*%
%TD*%
%TA.AperFunction,Conductor*%
%ADD26C,0.250000*%
%TD*%
%TA.AperFunction,Conductor*%
%ADD27C,0.400000*%
%TD*%
G04 APERTURE END LIST*
D10*
X115400000Y-59350000D03*
X115400000Y-57150000D03*
D11*
X116205000Y-80518000D03*
D12*
X100110000Y-81552000D03*
X102650000Y-81552000D03*
X105190000Y-81552000D03*
D13*
X116426000Y-75200000D03*
X100426000Y-77200000D03*
X100426000Y-63200000D03*
X100426000Y-65200000D03*
X100426000Y-67200000D03*
X100426000Y-69200000D03*
X100426000Y-71200000D03*
X100426000Y-73200000D03*
X116426000Y-67200000D03*
X116426000Y-65200000D03*
X116426000Y-63200000D03*
X116426000Y-73200000D03*
X116426000Y-71200000D03*
X100426000Y-75200000D03*
X116426000Y-77200000D03*
X116426000Y-69200000D03*
D14*
X108450000Y-42050000D03*
X108450000Y-79550000D03*
D15*
X101800000Y-57900000D03*
X101800000Y-56300000D03*
X108100000Y-45641421D03*
X108100000Y-44041421D03*
D16*
X109900000Y-50200000D03*
X108300000Y-50200000D03*
D17*
X117100000Y-58950000D03*
X117100000Y-57250000D03*
X106200000Y-48850000D03*
X106200000Y-47150000D03*
X104500000Y-48850000D03*
X104500000Y-47150000D03*
D18*
X106150000Y-40525000D03*
X103650000Y-40525000D03*
D19*
X112050000Y-49800000D03*
X113750000Y-49800000D03*
D20*
X111850000Y-42437500D03*
X113750000Y-42437500D03*
X112800000Y-40562500D03*
D21*
X105600000Y-60650000D03*
X106400000Y-60650000D03*
X107200000Y-60650000D03*
X108000000Y-60650000D03*
X108800000Y-60650000D03*
X109600000Y-60650000D03*
X110400000Y-60650000D03*
X111200000Y-60650000D03*
D22*
X112650000Y-59200000D03*
X112650000Y-58400000D03*
X112650000Y-57600000D03*
X112650000Y-56800000D03*
X112650000Y-56000000D03*
X112650000Y-55200000D03*
X112650000Y-54400000D03*
X112650000Y-53600000D03*
D21*
X111200000Y-52150000D03*
X110400000Y-52150000D03*
X109600000Y-52150000D03*
X108800000Y-52150000D03*
X108000000Y-52150000D03*
X107200000Y-52150000D03*
X106400000Y-52150000D03*
X105600000Y-52150000D03*
D22*
X104150000Y-53600000D03*
X104150000Y-54400000D03*
X104150000Y-55200000D03*
X104150000Y-56000000D03*
X104150000Y-56800000D03*
X104150000Y-57600000D03*
X104150000Y-58400000D03*
X104150000Y-59200000D03*
D11*
X100500000Y-41050000D03*
D23*
X100500000Y-43590000D03*
X100500000Y-46130000D03*
X100500000Y-48670000D03*
X100500000Y-51210000D03*
X100500000Y-53750000D03*
D11*
X116400000Y-41050000D03*
D23*
X116400000Y-43590000D03*
X116400000Y-46130000D03*
X116400000Y-48670000D03*
X116400000Y-51210000D03*
X116400000Y-53750000D03*
D19*
X111950000Y-44200000D03*
X113650000Y-44200000D03*
D24*
X104600000Y-44441421D03*
X104600000Y-45241421D03*
X106400000Y-45241421D03*
X106400000Y-44441421D03*
D20*
X111850000Y-48037500D03*
X113750000Y-48037500D03*
X112800000Y-46162500D03*
D25*
X100900000Y-59100000D03*
X102900000Y-79700000D03*
X102900000Y-72000000D03*
X102724500Y-73398305D03*
X102200000Y-60600000D03*
X102924500Y-62119632D03*
X111250498Y-59200000D03*
X114800000Y-63000000D03*
X110525998Y-58457930D03*
X109800000Y-57700000D03*
X109000000Y-56700000D03*
X108750682Y-63421897D03*
X103024500Y-64167712D03*
X104800701Y-63800701D03*
X114700000Y-67200000D03*
X109437701Y-46837701D03*
X100800000Y-61700000D03*
X114700000Y-48800000D03*
X109300000Y-44000000D03*
X101175500Y-78229014D03*
X114600000Y-75100000D03*
X103700000Y-42100000D03*
X114800000Y-44600000D03*
X117300000Y-56300000D03*
X107500000Y-74700000D03*
X111900000Y-72500000D03*
X110200000Y-45700000D03*
X105400000Y-50500000D03*
X99900000Y-78900000D03*
X103055718Y-47899248D03*
X106900000Y-57400000D03*
X103800000Y-50600000D03*
X108100000Y-57300000D03*
X114900000Y-64300000D03*
X103754018Y-72519286D03*
X101902314Y-79760232D03*
X103174011Y-75300000D03*
X105800000Y-57400000D03*
D26*
X101800000Y-58200000D02*
X100900000Y-59100000D01*
X101800000Y-57900000D02*
X101800000Y-58200000D01*
X102900000Y-56800000D02*
X101800000Y-57900000D01*
X104150000Y-56800000D02*
X102900000Y-56800000D01*
X102000000Y-78700000D02*
X102000000Y-78800000D01*
X102449511Y-73673294D02*
X102724500Y-73398305D01*
X102449511Y-78224911D02*
X102449511Y-73673294D01*
X101901768Y-79760232D02*
X101902314Y-79760232D01*
X100110000Y-81552000D02*
X101901768Y-79760232D01*
X102000000Y-72900000D02*
X102000000Y-78700000D01*
X102900000Y-72000000D02*
X102000000Y-72900000D01*
X100426000Y-77200000D02*
X101175500Y-77949500D01*
X105190000Y-80965400D02*
X102449511Y-78224911D01*
X101175500Y-77949500D02*
X101175500Y-78229014D01*
X102000000Y-78800000D02*
X102900000Y-79700000D01*
X103754018Y-74719993D02*
X103174011Y-75300000D01*
X105190000Y-81552000D02*
X105190000Y-80965400D01*
X103754018Y-72519286D02*
X103754018Y-74719993D01*
X101016812Y-67200000D02*
X100426000Y-67200000D01*
X103749001Y-63827801D02*
X103749001Y-64467811D01*
X104500602Y-63076200D02*
X103749001Y-63827801D01*
X106400000Y-61565698D02*
X104889498Y-63076200D01*
X106400000Y-60650000D02*
X106400000Y-61565698D01*
X101458288Y-64167712D02*
X103024500Y-64167712D01*
X103749001Y-64467811D02*
X101016812Y-67200000D01*
X100426000Y-65200000D02*
X101458288Y-64167712D01*
X104889498Y-63076200D02*
X104500602Y-63076200D01*
X102949022Y-58550978D02*
X102949022Y-62095110D01*
X103100000Y-58400000D02*
X102949022Y-58550978D01*
X104150000Y-58400000D02*
X103100000Y-58400000D01*
X103225978Y-57600000D02*
X102499511Y-58326467D01*
X104150000Y-57600000D02*
X103225978Y-57600000D01*
X102949022Y-62095110D02*
X102924500Y-62119632D01*
X102499511Y-58326467D02*
X102499511Y-60300489D01*
X102499511Y-60300489D02*
X102200000Y-60600000D01*
X108800000Y-53200000D02*
X108800000Y-52150000D01*
X111250498Y-59200000D02*
X111250498Y-55650498D01*
X110525998Y-55725998D02*
X110525998Y-58457930D01*
X108000000Y-52150000D02*
X108000000Y-53200000D01*
X111250498Y-55650498D02*
X108800000Y-53200000D01*
X108000000Y-53200000D02*
X110525998Y-55725998D01*
X115000000Y-63200000D02*
X114800000Y-63000000D01*
X116426000Y-63200000D02*
X115000000Y-63200000D01*
X106400000Y-53074022D02*
X106400000Y-52150000D01*
X109800000Y-56474022D02*
X106400000Y-53074022D01*
X109800000Y-57700000D02*
X109800000Y-56474022D01*
X105600000Y-53300000D02*
X105600000Y-52150000D01*
X109000000Y-56700000D02*
X105600000Y-53300000D01*
X108640846Y-64985154D02*
X108640846Y-63909956D01*
X108640846Y-63909956D02*
X108790846Y-63759956D01*
X108790846Y-63759956D02*
X108790846Y-63462061D01*
X100426000Y-73200000D02*
X108640846Y-64985154D01*
X108790846Y-63462061D02*
X108750682Y-63421897D01*
X101900000Y-69726000D02*
X100426000Y-71200000D01*
X108026181Y-63319088D02*
X101900000Y-69445269D01*
X108800000Y-62347979D02*
X108026181Y-63121798D01*
X108026181Y-63121798D02*
X108026181Y-63319088D01*
X108800000Y-60650000D02*
X108800000Y-62347979D01*
X101900000Y-69445269D02*
X101900000Y-69726000D01*
X108000000Y-61626000D02*
X100426000Y-69200000D01*
X108000000Y-60650000D02*
X108000000Y-61626000D01*
X107200000Y-61401402D02*
X104800701Y-63800701D01*
X107200000Y-60650000D02*
X107200000Y-61401402D01*
X111200000Y-60650000D02*
X111200000Y-61200000D01*
X114700000Y-67200000D02*
X116426000Y-67200000D01*
X114700000Y-75200000D02*
X114600000Y-75100000D01*
X113650000Y-44200000D02*
X114400000Y-44200000D01*
X113750000Y-42437500D02*
X113750000Y-44100000D01*
X108300000Y-47975402D02*
X109437701Y-46837701D01*
X109600000Y-51100000D02*
X109600000Y-52150000D01*
X108100000Y-44041421D02*
X109258579Y-44041421D01*
X113750000Y-44100000D02*
X113650000Y-44200000D01*
X117100000Y-57250000D02*
X117100000Y-56500000D01*
X109258579Y-44041421D02*
X109300000Y-44000000D01*
X113937500Y-48037500D02*
X114700000Y-48800000D01*
X109399511Y-51100000D02*
X109600000Y-51100000D01*
X108100000Y-44041421D02*
X107458579Y-44041421D01*
X100426000Y-62074000D02*
X100800000Y-61700000D01*
X116426000Y-75200000D02*
X114700000Y-75200000D01*
X113750000Y-48037500D02*
X113937500Y-48037500D01*
X108499511Y-50200000D02*
X109399511Y-51100000D01*
X107058579Y-44441421D02*
X106200000Y-44441421D01*
X117100000Y-56500000D02*
X117300000Y-56300000D01*
X107458579Y-44041421D02*
X107058579Y-44441421D01*
X108300000Y-50200000D02*
X108300000Y-47975402D01*
X100426000Y-63200000D02*
X100426000Y-62074000D01*
X103650000Y-42050000D02*
X103700000Y-42100000D01*
X114400000Y-44200000D02*
X114800000Y-44600000D01*
D27*
X103650000Y-40525000D02*
X103650000Y-42050000D01*
D26*
X113750000Y-48037500D02*
X113750000Y-49800000D01*
X108300000Y-50200000D02*
X108499511Y-50200000D01*
X102500000Y-56000000D02*
X104150000Y-56000000D01*
X107441421Y-45641421D02*
X107041421Y-45241421D01*
X110400000Y-50700000D02*
X110400000Y-52150000D01*
X109900000Y-50200000D02*
X110400000Y-50700000D01*
X108100000Y-45641421D02*
X107441421Y-45641421D01*
X110300000Y-52050000D02*
X110400000Y-52150000D01*
X102100000Y-56400000D02*
X102500000Y-56000000D01*
X107041421Y-45241421D02*
X106200000Y-45241421D01*
X104200000Y-44441421D02*
X104800000Y-44441421D01*
X104150000Y-59200000D02*
X105100000Y-59200000D01*
X103055718Y-47899248D02*
X102284966Y-48670000D01*
X103000000Y-45700000D02*
X103000000Y-44700000D01*
X104500000Y-47150000D02*
X104450000Y-47150000D01*
X104500000Y-47150000D02*
X103804966Y-47150000D01*
X102284966Y-48670000D02*
X100500000Y-48670000D01*
X103000000Y-44700000D02*
X103258579Y-44441421D01*
X103258579Y-44441421D02*
X104600000Y-44441421D01*
X103804966Y-47150000D02*
X103055718Y-47899248D01*
X104450000Y-47150000D02*
X103000000Y-45700000D01*
X105100000Y-59200000D02*
X106900000Y-57400000D01*
X106200000Y-47150000D02*
X106100000Y-47150000D01*
X105250000Y-46300000D02*
X104500000Y-46300000D01*
X105350000Y-48000000D02*
X106200000Y-47150000D01*
X103900000Y-45400000D02*
X104058579Y-45241421D01*
X103700000Y-48900000D02*
X103725489Y-48874511D01*
X103800000Y-50600000D02*
X103700000Y-50500000D01*
X104058579Y-45241421D02*
X104800000Y-45241421D01*
X103900000Y-45700000D02*
X103900000Y-45400000D01*
X103725489Y-48175489D02*
X103900978Y-48000000D01*
X103800000Y-50600000D02*
X103190000Y-51210000D01*
X104500000Y-46300000D02*
X103900000Y-45700000D01*
X103725489Y-48874511D02*
X103725489Y-48175489D01*
X106100000Y-47150000D02*
X105250000Y-46300000D01*
X105600000Y-59800000D02*
X108100000Y-57300000D01*
X105600000Y-60650000D02*
X105600000Y-59800000D01*
X103700000Y-50500000D02*
X103700000Y-48900000D01*
X103900978Y-48000000D02*
X105350000Y-48000000D01*
X116600000Y-59350000D02*
X117000000Y-58950000D01*
X115200000Y-59350000D02*
X116600000Y-59350000D01*
X112650000Y-56800000D02*
X114850000Y-56800000D01*
X114850000Y-56800000D02*
X115200000Y-57150000D01*
X116426000Y-77200000D02*
X116205000Y-77421000D01*
X116205000Y-77421000D02*
X116205000Y-80518000D01*
X114900000Y-64300000D02*
X115526000Y-64300000D01*
X115526000Y-64300000D02*
X116426000Y-65200000D01*
X105800000Y-55800000D02*
X105800000Y-57400000D01*
X105200000Y-55200000D02*
X105800000Y-55800000D01*
X104150000Y-55200000D02*
X105200000Y-55200000D01*
X100110000Y-81552000D02*
X100110000Y-80790000D01*
X111950000Y-44200000D02*
X111950000Y-42537500D01*
X111225480Y-44924520D02*
X111950000Y-44200000D01*
X112650000Y-53600000D02*
X112650000Y-51849022D01*
X112650000Y-51849022D02*
X111225480Y-50424502D01*
X111950000Y-42537500D02*
X111850000Y-42437500D01*
X111225480Y-50424502D02*
X111225480Y-44924520D01*
X112050000Y-49800000D02*
X112050000Y-48237500D01*
X113700000Y-54400000D02*
X113774511Y-54325489D01*
X113774511Y-54325489D02*
X113774511Y-51524511D01*
X112050000Y-48237500D02*
X111850000Y-48037500D01*
X112650000Y-54400000D02*
X113700000Y-54400000D01*
X113774511Y-51524511D02*
X112050000Y-49800000D01*
X112650000Y-55200000D02*
X113574022Y-55200000D01*
X113574022Y-55200000D02*
X114224022Y-54550000D01*
X114224022Y-54550000D02*
X114224022Y-50845978D01*
X114224022Y-50845978D02*
X116400000Y-48670000D01*
X115225489Y-52384511D02*
X116400000Y-51210000D01*
X112650000Y-56000000D02*
X113700000Y-56000000D01*
X113700000Y-56000000D02*
X115225489Y-54474511D01*
X115225489Y-54474511D02*
X115225489Y-52384511D01*
X113372500Y-40562500D02*
X116400000Y-43590000D01*
X112800000Y-40562500D02*
X113372500Y-40562500D01*
X112800000Y-46162500D02*
X112832500Y-46130000D01*
X112832500Y-46130000D02*
X116400000Y-46130000D01*
%TA.AperFunction,Conductor*%
G36*
X105207399Y-39336502D02*
G01*
X105253892Y-39390158D01*
X105263996Y-39460432D01*
X105234502Y-39525012D01*
X105196481Y-39554767D01*
X105170788Y-39567859D01*
X105154944Y-39579370D01*
X105079370Y-39654944D01*
X105067859Y-39670787D01*
X105019336Y-39766018D01*
X105013284Y-39784645D01*
X105000775Y-39863627D01*
X105000000Y-39873473D01*
X105000000Y-40356885D01*
X105004475Y-40372124D01*
X105005865Y-40373329D01*
X105013548Y-40375000D01*
X107281884Y-40375000D01*
X107297123Y-40370525D01*
X107298328Y-40369135D01*
X107299999Y-40361452D01*
X107299999Y-39873475D01*
X107299224Y-39863626D01*
X107286717Y-39784649D01*
X107280662Y-39766014D01*
X107232141Y-39670787D01*
X107220630Y-39654944D01*
X107145056Y-39579370D01*
X107129212Y-39567859D01*
X107103519Y-39554767D01*
X107051904Y-39506018D01*
X107034838Y-39437103D01*
X107057739Y-39369902D01*
X107113337Y-39325750D01*
X107160722Y-39316500D01*
X118023500Y-39316500D01*
X118091621Y-39336502D01*
X118138114Y-39390158D01*
X118149500Y-39442500D01*
X118149500Y-56229593D01*
X118129498Y-56297714D01*
X118124808Y-56301778D01*
X118147995Y-56350992D01*
X118149500Y-56370407D01*
X118149500Y-76174000D01*
X118129498Y-76242121D01*
X118075842Y-76288614D01*
X118023500Y-76300000D01*
X113700000Y-76300000D01*
X113700000Y-82273500D01*
X113679998Y-82341621D01*
X113626342Y-82388114D01*
X113574000Y-82399500D01*
X106259849Y-82399500D01*
X106191728Y-82379498D01*
X106145235Y-82325842D01*
X106134927Y-82257055D01*
X106139962Y-82218810D01*
X106139962Y-82218803D01*
X106140500Y-82214720D01*
X106140500Y-80889280D01*
X106125687Y-80776764D01*
X106067698Y-80636767D01*
X105975451Y-80516549D01*
X105855233Y-80424302D01*
X105715236Y-80366313D01*
X105602720Y-80351500D01*
X105088616Y-80351500D01*
X105020495Y-80331498D01*
X104999521Y-80314595D01*
X104203366Y-79518440D01*
X107244770Y-79518440D01*
X107259200Y-79738604D01*
X107260621Y-79744200D01*
X107260622Y-79744205D01*
X107298651Y-79893942D01*
X107313511Y-79952452D01*
X107315928Y-79957694D01*
X107315928Y-79957695D01*
X107354046Y-80040379D01*
X107405883Y-80152821D01*
X107533222Y-80333002D01*
X107691264Y-80486961D01*
X107696060Y-80490166D01*
X107696063Y-80490168D01*
X107809881Y-80566218D01*
X107874717Y-80609540D01*
X107880020Y-80611818D01*
X107880023Y-80611820D01*
X108072129Y-80694355D01*
X108077436Y-80696635D01*
X108157088Y-80714658D01*
X108286995Y-80744054D01*
X108287001Y-80744055D01*
X108292632Y-80745329D01*
X108298403Y-80745556D01*
X108298405Y-80745556D01*
X108366211Y-80748220D01*
X108513098Y-80753991D01*
X108622275Y-80738161D01*
X108725738Y-80723160D01*
X108725743Y-80723159D01*
X108731452Y-80722331D01*
X108736916Y-80720476D01*
X108736921Y-80720475D01*
X108934907Y-80653268D01*
X108934912Y-80653266D01*
X108940379Y-80651410D01*
X109132884Y-80543602D01*
X109165412Y-80516549D01*
X109298086Y-80406204D01*
X109302518Y-80402518D01*
X109344502Y-80352038D01*
X109439908Y-80237326D01*
X109439910Y-80237323D01*
X109443602Y-80232884D01*
X109551410Y-80040379D01*
X109553266Y-80034912D01*
X109553268Y-80034907D01*
X109620475Y-79836921D01*
X109620476Y-79836916D01*
X109622331Y-79831452D01*
X109623159Y-79825743D01*
X109623160Y-79825738D01*
X109653458Y-79616772D01*
X109653991Y-79613098D01*
X109655643Y-79550000D01*
X109635454Y-79330289D01*
X109575565Y-79117936D01*
X109477980Y-78920053D01*
X109398830Y-78814058D01*
X109349420Y-78747891D01*
X109349420Y-78747890D01*
X109345967Y-78743267D01*
X109183949Y-78593499D01*
X108997350Y-78475764D01*
X108792421Y-78394006D01*
X108786761Y-78392880D01*
X108786757Y-78392879D01*
X108581691Y-78352089D01*
X108581688Y-78352089D01*
X108576024Y-78350962D01*
X108570249Y-78350886D01*
X108570245Y-78350886D01*
X108459504Y-78349437D01*
X108355406Y-78348074D01*
X108349709Y-78349053D01*
X108349708Y-78349053D01*
X108143654Y-78384459D01*
X108143653Y-78384459D01*
X108137957Y-78385438D01*
X107930957Y-78461804D01*
X107741341Y-78574614D01*
X107575457Y-78720090D01*
X107438863Y-78893360D01*
X107336131Y-79088620D01*
X107270703Y-79299333D01*
X107244770Y-79518440D01*
X104203366Y-79518440D01*
X102811916Y-78126990D01*
X102777890Y-78064678D01*
X102775011Y-78037895D01*
X102775011Y-75973278D01*
X102795013Y-75905157D01*
X102848669Y-75858664D01*
X102918943Y-75848560D01*
X102949228Y-75856869D01*
X103017249Y-75885044D01*
X103174011Y-75905682D01*
X103182199Y-75904604D01*
X103215492Y-75900221D01*
X103330773Y-75885044D01*
X103476852Y-75824536D01*
X103602293Y-75728282D01*
X103698547Y-75602841D01*
X103759055Y-75456762D01*
X103779693Y-75300000D01*
X103770893Y-75233157D01*
X103781832Y-75163010D01*
X103806720Y-75127617D01*
X103834337Y-75100000D01*
X113994318Y-75100000D01*
X114014956Y-75256762D01*
X114075464Y-75402841D01*
X114080491Y-75409392D01*
X114155221Y-75506782D01*
X114171718Y-75528282D01*
X114297159Y-75624536D01*
X114443238Y-75685044D01*
X114600000Y-75705682D01*
X114608188Y-75704604D01*
X114748574Y-75686122D01*
X114756762Y-75685044D01*
X114902841Y-75624536D01*
X114909394Y-75619508D01*
X114909397Y-75619506D01*
X114997975Y-75551538D01*
X115064195Y-75525937D01*
X115074679Y-75525500D01*
X115135719Y-75525500D01*
X115203840Y-75545502D01*
X115250333Y-75599158D01*
X115254601Y-75609748D01*
X115273366Y-75663184D01*
X115278958Y-75670754D01*
X115278959Y-75670757D01*
X115316613Y-75721736D01*
X115353850Y-75772150D01*
X115361421Y-75777742D01*
X115455243Y-75847041D01*
X115455246Y-75847042D01*
X115462816Y-75852634D01*
X115590631Y-75897519D01*
X115598277Y-75898242D01*
X115598278Y-75898242D01*
X115604248Y-75898806D01*
X115622166Y-75900500D01*
X117229834Y-75900500D01*
X117247752Y-75898806D01*
X117253722Y-75898242D01*
X117253723Y-75898242D01*
X117261369Y-75897519D01*
X117389184Y-75852634D01*
X117396754Y-75847042D01*
X117396757Y-75847041D01*
X117490579Y-75777742D01*
X117498150Y-75772150D01*
X117535387Y-75721736D01*
X117573041Y-75670757D01*
X117573042Y-75670754D01*
X117578634Y-75663184D01*
X117623519Y-75535369D01*
X117626500Y-75503834D01*
X117626500Y-74896166D01*
X117623519Y-74864631D01*
X117578634Y-74736816D01*
X117573042Y-74729246D01*
X117573041Y-74729243D01*
X117503742Y-74635421D01*
X117498150Y-74627850D01*
X117461931Y-74601098D01*
X117396757Y-74552959D01*
X117396754Y-74552958D01*
X117389184Y-74547366D01*
X117261369Y-74502481D01*
X117253723Y-74501758D01*
X117253722Y-74501758D01*
X117247752Y-74501194D01*
X117229834Y-74499500D01*
X115622166Y-74499500D01*
X115604248Y-74501194D01*
X115598278Y-74501758D01*
X115598277Y-74501758D01*
X115590631Y-74502481D01*
X115462816Y-74547366D01*
X115455246Y-74552958D01*
X115455243Y-74552959D01*
X115390069Y-74601098D01*
X115353850Y-74627850D01*
X115348258Y-74635421D01*
X115348255Y-74635424D01*
X115277092Y-74731771D01*
X115220531Y-74774682D01*
X115149749Y-74780202D01*
X115087220Y-74746578D01*
X115075778Y-74733616D01*
X115033305Y-74678264D01*
X115028282Y-74671718D01*
X114902841Y-74575464D01*
X114756762Y-74514956D01*
X114600000Y-74494318D01*
X114443238Y-74514956D01*
X114297159Y-74575464D01*
X114171718Y-74671718D01*
X114075464Y-74797159D01*
X114014956Y-74943238D01*
X113994318Y-75100000D01*
X103834337Y-75100000D01*
X103970233Y-74964104D01*
X103978337Y-74956677D01*
X103998767Y-74939534D01*
X104007212Y-74932448D01*
X104012725Y-74922899D01*
X104026057Y-74899808D01*
X104031963Y-74890537D01*
X104053572Y-74859677D01*
X104056426Y-74849027D01*
X104057903Y-74845859D01*
X104059095Y-74842583D01*
X104064606Y-74833038D01*
X104071148Y-74795935D01*
X104073527Y-74785203D01*
X104076137Y-74775464D01*
X104083282Y-74748800D01*
X104081793Y-74731771D01*
X104079997Y-74711250D01*
X104079518Y-74700269D01*
X104079518Y-73503834D01*
X115225500Y-73503834D01*
X115228481Y-73535369D01*
X115273366Y-73663184D01*
X115278958Y-73670754D01*
X115278959Y-73670757D01*
X115301405Y-73701146D01*
X115353850Y-73772150D01*
X115361421Y-73777742D01*
X115455243Y-73847041D01*
X115455246Y-73847042D01*
X115462816Y-73852634D01*
X115590631Y-73897519D01*
X115598277Y-73898242D01*
X115598278Y-73898242D01*
X115604248Y-73898806D01*
X115622166Y-73900500D01*
X117229834Y-73900500D01*
X117247752Y-73898806D01*
X117253722Y-73898242D01*
X117253723Y-73898242D01*
X117261369Y-73897519D01*
X117389184Y-73852634D01*
X117396754Y-73847042D01*
X117396757Y-73847041D01*
X117490579Y-73777742D01*
X117498150Y-73772150D01*
X117550595Y-73701146D01*
X117573041Y-73670757D01*
X117573042Y-73670754D01*
X117578634Y-73663184D01*
X117623519Y-73535369D01*
X117626500Y-73503834D01*
X117626500Y-72896166D01*
X117623519Y-72864631D01*
X117578634Y-72736816D01*
X117573042Y-72729246D01*
X117573041Y-72729243D01*
X117503742Y-72635421D01*
X117498150Y-72627850D01*
X117440196Y-72585044D01*
X117396757Y-72552959D01*
X117396754Y-72552958D01*
X117389184Y-72547366D01*
X117261369Y-72502481D01*
X117253723Y-72501758D01*
X117253722Y-72501758D01*
X117247752Y-72501194D01*
X117229834Y-72499500D01*
X115622166Y-72499500D01*
X115604248Y-72501194D01*
X115598278Y-72501758D01*
X115598277Y-72501758D01*
X115590631Y-72502481D01*
X115462816Y-72547366D01*
X115455246Y-72552958D01*
X115455243Y-72552959D01*
X115411804Y-72585044D01*
X115353850Y-72627850D01*
X115348258Y-72635421D01*
X115278959Y-72729243D01*
X115278958Y-72729246D01*
X115273366Y-72736816D01*
X115228481Y-72864631D01*
X115225500Y-72896166D01*
X115225500Y-73503834D01*
X104079518Y-73503834D01*
X104079518Y-73088572D01*
X104099520Y-73020451D01*
X104128814Y-72988609D01*
X104175754Y-72952591D01*
X104182300Y-72947568D01*
X104278554Y-72822127D01*
X104339062Y-72676048D01*
X104359700Y-72519286D01*
X104339062Y-72362524D01*
X104278554Y-72216445D01*
X104182300Y-72091004D01*
X104056859Y-71994750D01*
X103910780Y-71934242D01*
X103754018Y-71913604D01*
X103620896Y-71931130D01*
X103550749Y-71920191D01*
X103497650Y-71873063D01*
X103485207Y-71844477D01*
X103485044Y-71843238D01*
X103424536Y-71697159D01*
X103328282Y-71571718D01*
X103239814Y-71503834D01*
X115225500Y-71503834D01*
X115228481Y-71535369D01*
X115273366Y-71663184D01*
X115278958Y-71670754D01*
X115278959Y-71670757D01*
X115298460Y-71697159D01*
X115353850Y-71772150D01*
X115361421Y-71777742D01*
X115455243Y-71847041D01*
X115455246Y-71847042D01*
X115462816Y-71852634D01*
X115590631Y-71897519D01*
X115598277Y-71898242D01*
X115598278Y-71898242D01*
X115604248Y-71898806D01*
X115622166Y-71900500D01*
X117229834Y-71900500D01*
X117247752Y-71898806D01*
X117253722Y-71898242D01*
X117253723Y-71898242D01*
X117261369Y-71897519D01*
X117389184Y-71852634D01*
X117396754Y-71847042D01*
X117396757Y-71847041D01*
X117490579Y-71777742D01*
X117498150Y-71772150D01*
X117553540Y-71697159D01*
X117573041Y-71670757D01*
X117573042Y-71670754D01*
X117578634Y-71663184D01*
X117623519Y-71535369D01*
X117626500Y-71503834D01*
X117626500Y-70896166D01*
X117623519Y-70864631D01*
X117578634Y-70736816D01*
X117573042Y-70729246D01*
X117573041Y-70729243D01*
X117503742Y-70635421D01*
X117498150Y-70627850D01*
X117475330Y-70610995D01*
X117396757Y-70552959D01*
X117396754Y-70552958D01*
X117389184Y-70547366D01*
X117261369Y-70502481D01*
X117253723Y-70501758D01*
X117253722Y-70501758D01*
X117247752Y-70501194D01*
X117229834Y-70499500D01*
X115622166Y-70499500D01*
X115604248Y-70501194D01*
X115598278Y-70501758D01*
X115598277Y-70501758D01*
X115590631Y-70502481D01*
X115462816Y-70547366D01*
X115455246Y-70552958D01*
X115455243Y-70552959D01*
X115376670Y-70610995D01*
X115353850Y-70627850D01*
X115348258Y-70635421D01*
X115278959Y-70729243D01*
X115278958Y-70729246D01*
X115273366Y-70736816D01*
X115228481Y-70864631D01*
X115225500Y-70896166D01*
X115225500Y-71503834D01*
X103239814Y-71503834D01*
X103202841Y-71475464D01*
X103056762Y-71414956D01*
X102969520Y-71403470D01*
X102904594Y-71374749D01*
X102865502Y-71315484D01*
X102864657Y-71244493D01*
X102896872Y-71189454D01*
X104573153Y-69513173D01*
X115026000Y-69513173D01*
X115026193Y-69518099D01*
X115028396Y-69546081D01*
X115030695Y-69558668D01*
X115072506Y-69702585D01*
X115078755Y-69717024D01*
X115154279Y-69844729D01*
X115163926Y-69857165D01*
X115268835Y-69962074D01*
X115281271Y-69971721D01*
X115408976Y-70047245D01*
X115423415Y-70053494D01*
X115567332Y-70095305D01*
X115579919Y-70097604D01*
X115607901Y-70099807D01*
X115612827Y-70100000D01*
X116257885Y-70100000D01*
X116273124Y-70095525D01*
X116274329Y-70094135D01*
X116276000Y-70086452D01*
X116276000Y-70081885D01*
X116576000Y-70081885D01*
X116580475Y-70097124D01*
X116581865Y-70098329D01*
X116589548Y-70100000D01*
X117239173Y-70100000D01*
X117244099Y-70099807D01*
X117272081Y-70097604D01*
X117284668Y-70095305D01*
X117428585Y-70053494D01*
X117443024Y-70047245D01*
X117570729Y-69971721D01*
X117583165Y-69962074D01*
X117688074Y-69857165D01*
X117697721Y-69844729D01*
X117773245Y-69717024D01*
X117779494Y-69702585D01*
X117821305Y-69558668D01*
X117823604Y-69546081D01*
X117825807Y-69518099D01*
X117826000Y-69513173D01*
X117826000Y-69368115D01*
X117821525Y-69352876D01*
X117820135Y-69351671D01*
X117812452Y-69350000D01*
X116594115Y-69350000D01*
X116578876Y-69354475D01*
X116577671Y-69355865D01*
X116576000Y-69363548D01*
X116576000Y-70081885D01*
X116276000Y-70081885D01*
X116276000Y-69368115D01*
X116271525Y-69352876D01*
X116270135Y-69351671D01*
X116262452Y-69350000D01*
X115044115Y-69350000D01*
X115028876Y-69354475D01*
X115027671Y-69355865D01*
X115026000Y-69363548D01*
X115026000Y-69513173D01*
X104573153Y-69513173D01*
X105054441Y-69031885D01*
X115026000Y-69031885D01*
X115030475Y-69047124D01*
X115031865Y-69048329D01*
X115039548Y-69050000D01*
X116257885Y-69050000D01*
X116273124Y-69045525D01*
X116274329Y-69044135D01*
X116276000Y-69036452D01*
X116276000Y-69031885D01*
X116576000Y-69031885D01*
X116580475Y-69047124D01*
X116581865Y-69048329D01*
X116589548Y-69050000D01*
X117807885Y-69050000D01*
X117823124Y-69045525D01*
X117824329Y-69044135D01*
X117826000Y-69036452D01*
X117826000Y-68886828D01*
X117825807Y-68881901D01*
X117823604Y-68853919D01*
X117821305Y-68841332D01*
X117779494Y-68697415D01*
X117773245Y-68682976D01*
X117697721Y-68555271D01*
X117688074Y-68542835D01*
X117583165Y-68437926D01*
X117570729Y-68428279D01*
X117443024Y-68352755D01*
X117428585Y-68346506D01*
X117284668Y-68304695D01*
X117272081Y-68302396D01*
X117244099Y-68300193D01*
X117239172Y-68300000D01*
X116594115Y-68300000D01*
X116578876Y-68304475D01*
X116577671Y-68305865D01*
X116576000Y-68313548D01*
X116576000Y-69031885D01*
X116276000Y-69031885D01*
X116276000Y-68318115D01*
X116271525Y-68302876D01*
X116270135Y-68301671D01*
X116262452Y-68300000D01*
X115612828Y-68300000D01*
X115607901Y-68300193D01*
X115579919Y-68302396D01*
X115567332Y-68304695D01*
X115423415Y-68346506D01*
X115408976Y-68352755D01*
X115281271Y-68428279D01*
X115268835Y-68437926D01*
X115163926Y-68542835D01*
X115154279Y-68555271D01*
X115078755Y-68682976D01*
X115072506Y-68697415D01*
X115030695Y-68841332D01*
X115028396Y-68853919D01*
X115026193Y-68881901D01*
X115026000Y-68886828D01*
X115026000Y-69031885D01*
X105054441Y-69031885D01*
X106886326Y-67200000D01*
X114094318Y-67200000D01*
X114114956Y-67356762D01*
X114175464Y-67502841D01*
X114271718Y-67628282D01*
X114397159Y-67724536D01*
X114543238Y-67785044D01*
X114700000Y-67805682D01*
X114708188Y-67804604D01*
X114848574Y-67786122D01*
X114856762Y-67785044D01*
X115002841Y-67724536D01*
X115009394Y-67719508D01*
X115009397Y-67719506D01*
X115102618Y-67647975D01*
X115168838Y-67622374D01*
X115238387Y-67636639D01*
X115280673Y-67673077D01*
X115318682Y-67724536D01*
X115353850Y-67772150D01*
X115361421Y-67777742D01*
X115455243Y-67847041D01*
X115455246Y-67847042D01*
X115462816Y-67852634D01*
X115590631Y-67897519D01*
X115598277Y-67898242D01*
X115598278Y-67898242D01*
X115604248Y-67898806D01*
X115622166Y-67900500D01*
X117229834Y-67900500D01*
X117247752Y-67898806D01*
X117253722Y-67898242D01*
X117253723Y-67898242D01*
X117261369Y-67897519D01*
X117389184Y-67852634D01*
X117396754Y-67847042D01*
X117396757Y-67847041D01*
X117490579Y-67777742D01*
X117498150Y-67772150D01*
X117510665Y-67755206D01*
X117573041Y-67670757D01*
X117573042Y-67670754D01*
X117578634Y-67663184D01*
X117623519Y-67535369D01*
X117626500Y-67503834D01*
X117626500Y-66896166D01*
X117623519Y-66864631D01*
X117578634Y-66736816D01*
X117573042Y-66729246D01*
X117573041Y-66729243D01*
X117503742Y-66635421D01*
X117498150Y-66627850D01*
X117452752Y-66594318D01*
X117396757Y-66552959D01*
X117396754Y-66552958D01*
X117389184Y-66547366D01*
X117261369Y-66502481D01*
X117253723Y-66501758D01*
X117253722Y-66501758D01*
X117247752Y-66501194D01*
X117229834Y-66499500D01*
X115622166Y-66499500D01*
X115604248Y-66501194D01*
X115598278Y-66501758D01*
X115598277Y-66501758D01*
X115590631Y-66502481D01*
X115462816Y-66547366D01*
X115455246Y-66552958D01*
X115455243Y-66552959D01*
X115399248Y-66594318D01*
X115353850Y-66627850D01*
X115348258Y-66635421D01*
X115280673Y-66726923D01*
X115224112Y-66769833D01*
X115153330Y-66775353D01*
X115102618Y-66752025D01*
X115009397Y-66680494D01*
X115009392Y-66680491D01*
X115002841Y-66675464D01*
X114856762Y-66614956D01*
X114700000Y-66594318D01*
X114543238Y-66614956D01*
X114397159Y-66675464D01*
X114271718Y-66771718D01*
X114175464Y-66897159D01*
X114114956Y-67043238D01*
X114094318Y-67200000D01*
X106886326Y-67200000D01*
X108857061Y-65229265D01*
X108865165Y-65221838D01*
X108885595Y-65204695D01*
X108894040Y-65197609D01*
X108899553Y-65188060D01*
X108912885Y-65164969D01*
X108918791Y-65155698D01*
X108934076Y-65133869D01*
X108940400Y-65124838D01*
X108943254Y-65114188D01*
X108944731Y-65111020D01*
X108945923Y-65107744D01*
X108951434Y-65098199D01*
X108957976Y-65061096D01*
X108960355Y-65050364D01*
X108970110Y-65013961D01*
X108969145Y-65002921D01*
X108966825Y-64976411D01*
X108966346Y-64965430D01*
X108966346Y-64096972D01*
X108986348Y-64028851D01*
X109003251Y-64007877D01*
X109007061Y-64004067D01*
X109015165Y-63996640D01*
X109032056Y-63982467D01*
X109044040Y-63972411D01*
X109050894Y-63960540D01*
X109083308Y-63923578D01*
X109095116Y-63914518D01*
X109178964Y-63850179D01*
X109187966Y-63838448D01*
X109237316Y-63774133D01*
X109275218Y-63724738D01*
X109330563Y-63591124D01*
X109332566Y-63586288D01*
X109335726Y-63578659D01*
X109356364Y-63421897D01*
X109335726Y-63265135D01*
X109275218Y-63119056D01*
X109183863Y-63000000D01*
X114194318Y-63000000D01*
X114214956Y-63156762D01*
X114275464Y-63302841D01*
X114371718Y-63428282D01*
X114497159Y-63524536D01*
X114573650Y-63556220D01*
X114628930Y-63600767D01*
X114651351Y-63668130D01*
X114633793Y-63736922D01*
X114596137Y-63774133D01*
X114597159Y-63775464D01*
X114471718Y-63871718D01*
X114375464Y-63997159D01*
X114314956Y-64143238D01*
X114294318Y-64300000D01*
X114314956Y-64456762D01*
X114375464Y-64602841D01*
X114471718Y-64728282D01*
X114597159Y-64824536D01*
X114676461Y-64857384D01*
X114733992Y-64881214D01*
X114743238Y-64885044D01*
X114900000Y-64905682D01*
X114908188Y-64904604D01*
X115048569Y-64886123D01*
X115048572Y-64886122D01*
X115056762Y-64885044D01*
X115064397Y-64881882D01*
X115066888Y-64881214D01*
X115137865Y-64882904D01*
X115196661Y-64922698D01*
X115224609Y-64987962D01*
X115225500Y-65002921D01*
X115225500Y-65503834D01*
X115228481Y-65535369D01*
X115273366Y-65663184D01*
X115278958Y-65670754D01*
X115278959Y-65670757D01*
X115341335Y-65755206D01*
X115353850Y-65772150D01*
X115361421Y-65777742D01*
X115455243Y-65847041D01*
X115455246Y-65847042D01*
X115462816Y-65852634D01*
X115590631Y-65897519D01*
X115598277Y-65898242D01*
X115598278Y-65898242D01*
X115604248Y-65898806D01*
X115622166Y-65900500D01*
X117229834Y-65900500D01*
X117247752Y-65898806D01*
X117253722Y-65898242D01*
X117253723Y-65898242D01*
X117261369Y-65897519D01*
X117389184Y-65852634D01*
X117396754Y-65847042D01*
X117396757Y-65847041D01*
X117490579Y-65777742D01*
X117498150Y-65772150D01*
X117510665Y-65755206D01*
X117573041Y-65670757D01*
X117573042Y-65670754D01*
X117578634Y-65663184D01*
X117623519Y-65535369D01*
X117626500Y-65503834D01*
X117626500Y-64896166D01*
X117623519Y-64864631D01*
X117578634Y-64736816D01*
X117573042Y-64729246D01*
X117573041Y-64729243D01*
X117503742Y-64635421D01*
X117498150Y-64627850D01*
X117419831Y-64570002D01*
X117396757Y-64552959D01*
X117396754Y-64552958D01*
X117389184Y-64547366D01*
X117261369Y-64502481D01*
X117253723Y-64501758D01*
X117253722Y-64501758D01*
X117247752Y-64501194D01*
X117229834Y-64499500D01*
X116238017Y-64499500D01*
X116169896Y-64479498D01*
X116148921Y-64462595D01*
X115801922Y-64115595D01*
X115767897Y-64053283D01*
X115772962Y-63982467D01*
X115815509Y-63925632D01*
X115882029Y-63900821D01*
X115891018Y-63900500D01*
X117229834Y-63900500D01*
X117247752Y-63898806D01*
X117253722Y-63898242D01*
X117253723Y-63898242D01*
X117261369Y-63897519D01*
X117389184Y-63852634D01*
X117396754Y-63847042D01*
X117396757Y-63847041D01*
X117490579Y-63777742D01*
X117498150Y-63772150D01*
X117517483Y-63745976D01*
X117573041Y-63670757D01*
X117573042Y-63670754D01*
X117578634Y-63663184D01*
X117623519Y-63535369D01*
X117626500Y-63503834D01*
X117626500Y-62896166D01*
X117623519Y-62864631D01*
X117578634Y-62736816D01*
X117573042Y-62729246D01*
X117573041Y-62729243D01*
X117503742Y-62635421D01*
X117498150Y-62627850D01*
X117463687Y-62602395D01*
X117396757Y-62552959D01*
X117396754Y-62552958D01*
X117389184Y-62547366D01*
X117261369Y-62502481D01*
X117253723Y-62501758D01*
X117253722Y-62501758D01*
X117247752Y-62501194D01*
X117229834Y-62499500D01*
X115622166Y-62499500D01*
X115604248Y-62501194D01*
X115598278Y-62501758D01*
X115598277Y-62501758D01*
X115590631Y-62502481D01*
X115462816Y-62547366D01*
X115455246Y-62552957D01*
X115455239Y-62552961D01*
X115400288Y-62593549D01*
X115333610Y-62617932D01*
X115264334Y-62602395D01*
X115236334Y-62581293D01*
X115233305Y-62578264D01*
X115228282Y-62571718D01*
X115102841Y-62475464D01*
X114956762Y-62414956D01*
X114943242Y-62413176D01*
X114808188Y-62395396D01*
X114800000Y-62394318D01*
X114791812Y-62395396D01*
X114656759Y-62413176D01*
X114643238Y-62414956D01*
X114497159Y-62475464D01*
X114371718Y-62571718D01*
X114366695Y-62578264D01*
X114348179Y-62602395D01*
X114275464Y-62697159D01*
X114214956Y-62843238D01*
X114194318Y-63000000D01*
X109183863Y-63000000D01*
X109178964Y-62993615D01*
X109053523Y-62897361D01*
X108985501Y-62869185D01*
X108930221Y-62824638D01*
X108907800Y-62757275D01*
X108925358Y-62688483D01*
X108944625Y-62663682D01*
X109016228Y-62592079D01*
X109024332Y-62584652D01*
X109044750Y-62567519D01*
X109053194Y-62560434D01*
X109058704Y-62550891D01*
X109058707Y-62550887D01*
X109072036Y-62527800D01*
X109077941Y-62518530D01*
X109093232Y-62496692D01*
X109099554Y-62487663D01*
X109102407Y-62477015D01*
X109103886Y-62473844D01*
X109105078Y-62470568D01*
X109110588Y-62461024D01*
X109117134Y-62423903D01*
X109119508Y-62413196D01*
X109129263Y-62376786D01*
X109125979Y-62339248D01*
X109125500Y-62328267D01*
X109125500Y-61768277D01*
X109145502Y-61700156D01*
X109199158Y-61653663D01*
X109276079Y-61644698D01*
X109299179Y-61649293D01*
X109299189Y-61649294D01*
X109305252Y-61650500D01*
X109894748Y-61650500D01*
X109953231Y-61638867D01*
X109957112Y-61636274D01*
X110022370Y-61629257D01*
X110040239Y-61634504D01*
X110046769Y-61638867D01*
X110105252Y-61650500D01*
X110694748Y-61650500D01*
X110753231Y-61638867D01*
X110757112Y-61636274D01*
X110822370Y-61629257D01*
X110840239Y-61634504D01*
X110846769Y-61638867D01*
X110905252Y-61650500D01*
X111494748Y-61650500D01*
X111523917Y-61644698D01*
X111541061Y-61641288D01*
X111541062Y-61641288D01*
X111553231Y-61638867D01*
X111619552Y-61594552D01*
X111648368Y-61551426D01*
X111656974Y-61538547D01*
X111663867Y-61528231D01*
X111675500Y-61469748D01*
X111675500Y-59969748D01*
X114599500Y-59969748D01*
X114611133Y-60028231D01*
X114655448Y-60094552D01*
X114721769Y-60138867D01*
X114733938Y-60141288D01*
X114733939Y-60141288D01*
X114774184Y-60149293D01*
X114780252Y-60150500D01*
X116019748Y-60150500D01*
X116025816Y-60149293D01*
X116066061Y-60141288D01*
X116066062Y-60141288D01*
X116078231Y-60138867D01*
X116144552Y-60094552D01*
X116188867Y-60028231D01*
X116200500Y-59969748D01*
X116200500Y-59801500D01*
X116220502Y-59733379D01*
X116274158Y-59686886D01*
X116326500Y-59675500D01*
X116580290Y-59675500D01*
X116591272Y-59675980D01*
X116617820Y-59678303D01*
X116617822Y-59678303D01*
X116628807Y-59679264D01*
X116665215Y-59669508D01*
X116675942Y-59667130D01*
X116680717Y-59666288D01*
X116713045Y-59660588D01*
X116722590Y-59655077D01*
X116725866Y-59653885D01*
X116729034Y-59652408D01*
X116739684Y-59649554D01*
X116770544Y-59627945D01*
X116779815Y-59622039D01*
X116802906Y-59608707D01*
X116812455Y-59603194D01*
X116836685Y-59574318D01*
X116844111Y-59566215D01*
X116872921Y-59537405D01*
X116935233Y-59503379D01*
X116962016Y-59500500D01*
X117569748Y-59500500D01*
X117575816Y-59499293D01*
X117616061Y-59491288D01*
X117616062Y-59491288D01*
X117628231Y-59488867D01*
X117694552Y-59444552D01*
X117738867Y-59378231D01*
X117743138Y-59356762D01*
X117749293Y-59325816D01*
X117750500Y-59319748D01*
X117750500Y-58580252D01*
X117746697Y-58561133D01*
X117741288Y-58533939D01*
X117741288Y-58533938D01*
X117738867Y-58521769D01*
X117694552Y-58455448D01*
X117628231Y-58411133D01*
X117616062Y-58408712D01*
X117616061Y-58408712D01*
X117575816Y-58400707D01*
X117569748Y-58399500D01*
X116630252Y-58399500D01*
X116624184Y-58400707D01*
X116583939Y-58408712D01*
X116583938Y-58408712D01*
X116571769Y-58411133D01*
X116505448Y-58455448D01*
X116461133Y-58521769D01*
X116458712Y-58533938D01*
X116458712Y-58533939D01*
X116453303Y-58561133D01*
X116449500Y-58580252D01*
X116449500Y-58702760D01*
X116429498Y-58770881D01*
X116375842Y-58817374D01*
X116305568Y-58827478D01*
X116240988Y-58797984D01*
X116202604Y-58738258D01*
X116199921Y-58727341D01*
X116191288Y-58683939D01*
X116191288Y-58683938D01*
X116188867Y-58671769D01*
X116144552Y-58605448D01*
X116078231Y-58561133D01*
X116066062Y-58558712D01*
X116066061Y-58558712D01*
X116025816Y-58550707D01*
X116019748Y-58549500D01*
X114780252Y-58549500D01*
X114774184Y-58550707D01*
X114733939Y-58558712D01*
X114733938Y-58558712D01*
X114721769Y-58561133D01*
X114655448Y-58605448D01*
X114611133Y-58671769D01*
X114608712Y-58683938D01*
X114608712Y-58683939D01*
X114600707Y-58724184D01*
X114599500Y-58730252D01*
X114599500Y-59969748D01*
X111675500Y-59969748D01*
X111675500Y-59830252D01*
X111673863Y-59822023D01*
X111673967Y-59820869D01*
X111673686Y-59818021D01*
X111674226Y-59817968D01*
X111680190Y-59751311D01*
X111723744Y-59695243D01*
X111790696Y-59671623D01*
X111822020Y-59673863D01*
X111830252Y-59675500D01*
X113469748Y-59675500D01*
X113489239Y-59671623D01*
X113516061Y-59666288D01*
X113516062Y-59666288D01*
X113528231Y-59663867D01*
X113594552Y-59619552D01*
X113638867Y-59553231D01*
X113650500Y-59494748D01*
X113650500Y-58905252D01*
X113638867Y-58846769D01*
X113636274Y-58842888D01*
X113629257Y-58777630D01*
X113634504Y-58759761D01*
X113638867Y-58753231D01*
X113650500Y-58694748D01*
X113650500Y-58105252D01*
X113638867Y-58046769D01*
X113636274Y-58042888D01*
X113629257Y-57977630D01*
X113634504Y-57959761D01*
X113638867Y-57953231D01*
X113650500Y-57894748D01*
X113650500Y-57305252D01*
X113649294Y-57299189D01*
X113649293Y-57299179D01*
X113644698Y-57276079D01*
X113651027Y-57205366D01*
X113694582Y-57149299D01*
X113768277Y-57125500D01*
X114473500Y-57125500D01*
X114541621Y-57145502D01*
X114588114Y-57199158D01*
X114599500Y-57251500D01*
X114599500Y-57769748D01*
X114600707Y-57775816D01*
X114603785Y-57791288D01*
X114611133Y-57828231D01*
X114655448Y-57894552D01*
X114721769Y-57938867D01*
X114733938Y-57941288D01*
X114733939Y-57941288D01*
X114774184Y-57949293D01*
X114780252Y-57950500D01*
X116019748Y-57950500D01*
X116025816Y-57949293D01*
X116066061Y-57941288D01*
X116066062Y-57941288D01*
X116078231Y-57938867D01*
X116144552Y-57894552D01*
X116188867Y-57828231D01*
X116196216Y-57791288D01*
X116199293Y-57775816D01*
X116200500Y-57769748D01*
X116200500Y-57647240D01*
X116220502Y-57579119D01*
X116274158Y-57532626D01*
X116344432Y-57522522D01*
X116409012Y-57552016D01*
X116447396Y-57611742D01*
X116450079Y-57622659D01*
X116454969Y-57647240D01*
X116461133Y-57678231D01*
X116505448Y-57744552D01*
X116571769Y-57788867D01*
X116583938Y-57791288D01*
X116583939Y-57791288D01*
X116624184Y-57799293D01*
X116630252Y-57800500D01*
X117569748Y-57800500D01*
X117575816Y-57799293D01*
X117616061Y-57791288D01*
X117616062Y-57791288D01*
X117628231Y-57788867D01*
X117694552Y-57744552D01*
X117738867Y-57678231D01*
X117745032Y-57647240D01*
X117749293Y-57625816D01*
X117750500Y-57619748D01*
X117750500Y-56880252D01*
X117747265Y-56863990D01*
X117741288Y-56833939D01*
X117741288Y-56833938D01*
X117738867Y-56821769D01*
X117735655Y-56816961D01*
X117728556Y-56750933D01*
X117752591Y-56696602D01*
X117819509Y-56609392D01*
X117824536Y-56602841D01*
X117885044Y-56456762D01*
X117897654Y-56360977D01*
X117898578Y-56353961D01*
X117923505Y-56297613D01*
X117902604Y-56265091D01*
X117898578Y-56246039D01*
X117886122Y-56151426D01*
X117885044Y-56143238D01*
X117824536Y-55997159D01*
X117728282Y-55871718D01*
X117699979Y-55850000D01*
X117665408Y-55823473D01*
X117602841Y-55775464D01*
X117456762Y-55714956D01*
X117300000Y-55694318D01*
X117143238Y-55714956D01*
X116997159Y-55775464D01*
X116934592Y-55823473D01*
X116900022Y-55850000D01*
X116871718Y-55871718D01*
X116775464Y-55997159D01*
X116714956Y-56143238D01*
X116694318Y-56300000D01*
X116714956Y-56456762D01*
X116733051Y-56500446D01*
X116743468Y-56525596D01*
X116751057Y-56596186D01*
X116719278Y-56659673D01*
X116658220Y-56695900D01*
X116639412Y-56699207D01*
X116636437Y-56699500D01*
X116630252Y-56699500D01*
X116624186Y-56700707D01*
X116624182Y-56700707D01*
X116583939Y-56708712D01*
X116583938Y-56708712D01*
X116571769Y-56711133D01*
X116505448Y-56755448D01*
X116461133Y-56821769D01*
X116458712Y-56833938D01*
X116458712Y-56833939D01*
X116450079Y-56877341D01*
X116417171Y-56940251D01*
X116355476Y-56975383D01*
X116284582Y-56971583D01*
X116226996Y-56930057D01*
X116201001Y-56863990D01*
X116200500Y-56852760D01*
X116200500Y-56530252D01*
X116194015Y-56497651D01*
X116191288Y-56483939D01*
X116191288Y-56483938D01*
X116188867Y-56471769D01*
X116178840Y-56456762D01*
X116151443Y-56415761D01*
X116144552Y-56405448D01*
X116078231Y-56361133D01*
X116066062Y-56358712D01*
X116066061Y-56358712D01*
X116025816Y-56350707D01*
X116019748Y-56349500D01*
X114780252Y-56349500D01*
X114774184Y-56350707D01*
X114733939Y-56358712D01*
X114733938Y-56358712D01*
X114721769Y-56361133D01*
X114655448Y-56405448D01*
X114648557Y-56415761D01*
X114648553Y-56415765D01*
X114646725Y-56418501D01*
X114641197Y-56423121D01*
X114639778Y-56424540D01*
X114639651Y-56424413D01*
X114592249Y-56464029D01*
X114541960Y-56474500D01*
X113991917Y-56474500D01*
X113923796Y-56454498D01*
X113877303Y-56400842D01*
X113867199Y-56330568D01*
X113896693Y-56265988D01*
X113905769Y-56257054D01*
X113912455Y-56253194D01*
X113936685Y-56224317D01*
X113944111Y-56216215D01*
X115441711Y-54718616D01*
X115449815Y-54711189D01*
X115462183Y-54700811D01*
X115478683Y-54686966D01*
X115484193Y-54677423D01*
X115484196Y-54677419D01*
X115497525Y-54654332D01*
X115503430Y-54645062D01*
X115518721Y-54623224D01*
X115525043Y-54614195D01*
X115527896Y-54603547D01*
X115529992Y-54599053D01*
X115535112Y-54589227D01*
X115535341Y-54588831D01*
X115586758Y-54539873D01*
X115656481Y-54526486D01*
X115726080Y-54555953D01*
X115797564Y-54616791D01*
X115802942Y-54619797D01*
X115802944Y-54619798D01*
X115880326Y-54663045D01*
X115977398Y-54717297D01*
X116050527Y-54741058D01*
X116167471Y-54779056D01*
X116167475Y-54779057D01*
X116173329Y-54780959D01*
X116377894Y-54805351D01*
X116384029Y-54804879D01*
X116384031Y-54804879D01*
X116447437Y-54800000D01*
X116583300Y-54789546D01*
X116589230Y-54787890D01*
X116589232Y-54787890D01*
X116775797Y-54735800D01*
X116775796Y-54735800D01*
X116781725Y-54734145D01*
X116787214Y-54731372D01*
X116787220Y-54731370D01*
X116960116Y-54644033D01*
X116965610Y-54641258D01*
X117018228Y-54600149D01*
X117088777Y-54545030D01*
X117127951Y-54514424D01*
X117137538Y-54503318D01*
X117258540Y-54363134D01*
X117258540Y-54363133D01*
X117262564Y-54358472D01*
X117283387Y-54321818D01*
X117361276Y-54184707D01*
X117364323Y-54179344D01*
X117429351Y-53983863D01*
X117455171Y-53779474D01*
X117455583Y-53750000D01*
X117435480Y-53544970D01*
X117375935Y-53347749D01*
X117279218Y-53165849D01*
X117185420Y-53050842D01*
X117152906Y-53010975D01*
X117152903Y-53010972D01*
X117149011Y-53006200D01*
X117142173Y-53000543D01*
X116995025Y-52878811D01*
X116995021Y-52878809D01*
X116990275Y-52874882D01*
X116809055Y-52776897D01*
X116612254Y-52715977D01*
X116606129Y-52715333D01*
X116606128Y-52715333D01*
X116413498Y-52695087D01*
X116413496Y-52695087D01*
X116407369Y-52694443D01*
X116320529Y-52702346D01*
X116208342Y-52712555D01*
X116208339Y-52712556D01*
X116202203Y-52713114D01*
X116004572Y-52771280D01*
X115822002Y-52866726D01*
X115798259Y-52885816D01*
X115755941Y-52919840D01*
X115690318Y-52946936D01*
X115620464Y-52934252D01*
X115568556Y-52885816D01*
X115550989Y-52821643D01*
X115550989Y-52571528D01*
X115570991Y-52503407D01*
X115587894Y-52482432D01*
X115859123Y-52211204D01*
X115921435Y-52177179D01*
X115987154Y-52180467D01*
X116167471Y-52239056D01*
X116167475Y-52239057D01*
X116173329Y-52240959D01*
X116377894Y-52265351D01*
X116384029Y-52264879D01*
X116384031Y-52264879D01*
X116440039Y-52260569D01*
X116583300Y-52249546D01*
X116589230Y-52247890D01*
X116589232Y-52247890D01*
X116775797Y-52195800D01*
X116775796Y-52195800D01*
X116781725Y-52194145D01*
X116787214Y-52191372D01*
X116787220Y-52191370D01*
X116960116Y-52104033D01*
X116965610Y-52101258D01*
X117127951Y-51974424D01*
X117262564Y-51818472D01*
X117267625Y-51809564D01*
X117361276Y-51644707D01*
X117364323Y-51639344D01*
X117429351Y-51443863D01*
X117455171Y-51239474D01*
X117455390Y-51223806D01*
X117455534Y-51213522D01*
X117455534Y-51213518D01*
X117455583Y-51210000D01*
X117435480Y-51004970D01*
X117375935Y-50807749D01*
X117279218Y-50625849D01*
X117172522Y-50495027D01*
X117152906Y-50470975D01*
X117152903Y-50470972D01*
X117149011Y-50466200D01*
X117136458Y-50455815D01*
X116995025Y-50338811D01*
X116995021Y-50338809D01*
X116990275Y-50334882D01*
X116809055Y-50236897D01*
X116612254Y-50175977D01*
X116606129Y-50175333D01*
X116606128Y-50175333D01*
X116413498Y-50155087D01*
X116413496Y-50155087D01*
X116407369Y-50154443D01*
X116320529Y-50162346D01*
X116208342Y-50172555D01*
X116208339Y-50172556D01*
X116202203Y-50173114D01*
X116004572Y-50231280D01*
X115822002Y-50326726D01*
X115817201Y-50330586D01*
X115817198Y-50330588D01*
X115667658Y-50450821D01*
X115661447Y-50455815D01*
X115529024Y-50613630D01*
X115526056Y-50619028D01*
X115526053Y-50619033D01*
X115463437Y-50732933D01*
X115429776Y-50794162D01*
X115367484Y-50990532D01*
X115366798Y-50996649D01*
X115366797Y-50996653D01*
X115347575Y-51168026D01*
X115344520Y-51195262D01*
X115345375Y-51205448D01*
X115356242Y-51334848D01*
X115361759Y-51400553D01*
X115363458Y-51406478D01*
X115401534Y-51539264D01*
X115418544Y-51598586D01*
X115421361Y-51604067D01*
X115421537Y-51604410D01*
X115421575Y-51604608D01*
X115423630Y-51609799D01*
X115422644Y-51610190D01*
X115434888Y-51674140D01*
X115408420Y-51740019D01*
X115398569Y-51751104D01*
X115009268Y-52140406D01*
X115001164Y-52147832D01*
X114972295Y-52172056D01*
X114966782Y-52181605D01*
X114953450Y-52204696D01*
X114947544Y-52213967D01*
X114925935Y-52244827D01*
X114923081Y-52255477D01*
X114921604Y-52258645D01*
X114920412Y-52261921D01*
X114914901Y-52271466D01*
X114908951Y-52305210D01*
X114908359Y-52308569D01*
X114905981Y-52319296D01*
X114896225Y-52355704D01*
X114897186Y-52366689D01*
X114897186Y-52366691D01*
X114899509Y-52393239D01*
X114899989Y-52404221D01*
X114899989Y-54287494D01*
X114879987Y-54355615D01*
X114863084Y-54376589D01*
X114764617Y-54475056D01*
X114702305Y-54509082D01*
X114631490Y-54504017D01*
X114574654Y-54461470D01*
X114549843Y-54394950D01*
X114549522Y-54385961D01*
X114549522Y-51032994D01*
X114569524Y-50964873D01*
X114586427Y-50943899D01*
X115859122Y-49671204D01*
X115921434Y-49637178D01*
X115987151Y-49640466D01*
X116173329Y-49700959D01*
X116377894Y-49725351D01*
X116384029Y-49724879D01*
X116384031Y-49724879D01*
X116440039Y-49720569D01*
X116583300Y-49709546D01*
X116589230Y-49707890D01*
X116589232Y-49707890D01*
X116775797Y-49655800D01*
X116775796Y-49655800D01*
X116781725Y-49654145D01*
X116787214Y-49651372D01*
X116787220Y-49651370D01*
X116960116Y-49564033D01*
X116965610Y-49561258D01*
X117127951Y-49434424D01*
X117133603Y-49427877D01*
X117258540Y-49283134D01*
X117258540Y-49283133D01*
X117262564Y-49278472D01*
X117283387Y-49241818D01*
X117333295Y-49153963D01*
X117364323Y-49099344D01*
X117429351Y-48903863D01*
X117455171Y-48699474D01*
X117455583Y-48670000D01*
X117435480Y-48464970D01*
X117375935Y-48267749D01*
X117279218Y-48085849D01*
X117156960Y-47935946D01*
X117152906Y-47930975D01*
X117152903Y-47930972D01*
X117149011Y-47926200D01*
X117129661Y-47910192D01*
X116995025Y-47798811D01*
X116995021Y-47798809D01*
X116990275Y-47794882D01*
X116809055Y-47696897D01*
X116612254Y-47635977D01*
X116606129Y-47635333D01*
X116606128Y-47635333D01*
X116413498Y-47615087D01*
X116413496Y-47615087D01*
X116407369Y-47614443D01*
X116320529Y-47622346D01*
X116208342Y-47632555D01*
X116208339Y-47632556D01*
X116202203Y-47633114D01*
X116004572Y-47691280D01*
X115999107Y-47694137D01*
X115920584Y-47735188D01*
X115822002Y-47786726D01*
X115817201Y-47790586D01*
X115817198Y-47790588D01*
X115675051Y-47904877D01*
X115661447Y-47915815D01*
X115529024Y-48073630D01*
X115526056Y-48079028D01*
X115526053Y-48079033D01*
X115448496Y-48220110D01*
X115429776Y-48254162D01*
X115390408Y-48378268D01*
X115388240Y-48385101D01*
X115348577Y-48443985D01*
X115283375Y-48472078D01*
X115213335Y-48460461D01*
X115168176Y-48423707D01*
X115133309Y-48378268D01*
X115133305Y-48378264D01*
X115128282Y-48371718D01*
X115002841Y-48275464D01*
X114856762Y-48214956D01*
X114700000Y-48194318D01*
X114633157Y-48203118D01*
X114563010Y-48192179D01*
X114527617Y-48167291D01*
X114287405Y-47927079D01*
X114253379Y-47864767D01*
X114250500Y-47837984D01*
X114250500Y-47416782D01*
X114241871Y-47358162D01*
X114241784Y-47357574D01*
X114241784Y-47357573D01*
X114240358Y-47347888D01*
X114188932Y-47243145D01*
X114115677Y-47170018D01*
X114113721Y-47168065D01*
X114113720Y-47168065D01*
X114106350Y-47160707D01*
X114001518Y-47109464D01*
X113971027Y-47105016D01*
X113937744Y-47100160D01*
X113937740Y-47100160D01*
X113933218Y-47099500D01*
X113566782Y-47099500D01*
X113562232Y-47100170D01*
X113562229Y-47100170D01*
X113507574Y-47108216D01*
X113507573Y-47108216D01*
X113497888Y-47109642D01*
X113485346Y-47115800D01*
X113402493Y-47156478D01*
X113402491Y-47156479D01*
X113393145Y-47161068D01*
X113310707Y-47243650D01*
X113306134Y-47253006D01*
X113306133Y-47253007D01*
X113297335Y-47271006D01*
X113259464Y-47348482D01*
X113249500Y-47416782D01*
X113249500Y-48658218D01*
X113259642Y-48727112D01*
X113311068Y-48831855D01*
X113318438Y-48839212D01*
X113387518Y-48908172D01*
X113421597Y-48970455D01*
X113424500Y-48997345D01*
X113424500Y-49037293D01*
X113404498Y-49105414D01*
X113350842Y-49151907D01*
X113345295Y-49153698D01*
X113345405Y-49153963D01*
X113333939Y-49158712D01*
X113321769Y-49161133D01*
X113255448Y-49205448D01*
X113211133Y-49271769D01*
X113199500Y-49330252D01*
X113199500Y-50184984D01*
X113179498Y-50253105D01*
X113125842Y-50299598D01*
X113055568Y-50309702D01*
X112990988Y-50280208D01*
X112984405Y-50274079D01*
X112637405Y-49927079D01*
X112603379Y-49864767D01*
X112600500Y-49837984D01*
X112600500Y-49330252D01*
X112588867Y-49271769D01*
X112544552Y-49205448D01*
X112478231Y-49161133D01*
X112466061Y-49158712D01*
X112454595Y-49153963D01*
X112456218Y-49150044D01*
X112414007Y-49127963D01*
X112378877Y-49066267D01*
X112375500Y-49037293D01*
X112375500Y-48257210D01*
X112375980Y-48246228D01*
X112378303Y-48219680D01*
X112378303Y-48219678D01*
X112379264Y-48208693D01*
X112369508Y-48172285D01*
X112367130Y-48161558D01*
X112366538Y-48158199D01*
X112360588Y-48124455D01*
X112357320Y-48118794D01*
X112350500Y-48080119D01*
X112350500Y-47416782D01*
X112341871Y-47358162D01*
X112341784Y-47357574D01*
X112341784Y-47357573D01*
X112340358Y-47347888D01*
X112288932Y-47243145D01*
X112215677Y-47170018D01*
X112213721Y-47168065D01*
X112213720Y-47168065D01*
X112206350Y-47160707D01*
X112101518Y-47109464D01*
X112071027Y-47105016D01*
X112037744Y-47100160D01*
X112037740Y-47100160D01*
X112033218Y-47099500D01*
X111676980Y-47099500D01*
X111608859Y-47079498D01*
X111562366Y-47025842D01*
X111550980Y-46973500D01*
X111550980Y-46783218D01*
X112299500Y-46783218D01*
X112300170Y-46787768D01*
X112300170Y-46787771D01*
X112308216Y-46842426D01*
X112309642Y-46852112D01*
X112361068Y-46956855D01*
X112368438Y-46964212D01*
X112430176Y-47025842D01*
X112443650Y-47039293D01*
X112548482Y-47090536D01*
X112578973Y-47094984D01*
X112612256Y-47099840D01*
X112612260Y-47099840D01*
X112616782Y-47100500D01*
X112983218Y-47100500D01*
X112987768Y-47099830D01*
X112987771Y-47099830D01*
X113042426Y-47091784D01*
X113042427Y-47091784D01*
X113052112Y-47090358D01*
X113146804Y-47043867D01*
X113147507Y-47043522D01*
X113147509Y-47043521D01*
X113156855Y-47038932D01*
X113239293Y-46956350D01*
X113290536Y-46851518D01*
X113300500Y-46783218D01*
X113300500Y-46581500D01*
X113320502Y-46513379D01*
X113374158Y-46466886D01*
X113426500Y-46455500D01*
X115309211Y-46455500D01*
X115377332Y-46475502D01*
X115421278Y-46523906D01*
X115501982Y-46680939D01*
X115512712Y-46701818D01*
X115640677Y-46863270D01*
X115645370Y-46867264D01*
X115645371Y-46867265D01*
X115785208Y-46986275D01*
X115797564Y-46996791D01*
X115802942Y-46999797D01*
X115802944Y-46999798D01*
X115859779Y-47031562D01*
X115977398Y-47097297D01*
X116072238Y-47128113D01*
X116167471Y-47159056D01*
X116167475Y-47159057D01*
X116173329Y-47160959D01*
X116377894Y-47185351D01*
X116384029Y-47184879D01*
X116384031Y-47184879D01*
X116440039Y-47180569D01*
X116583300Y-47169546D01*
X116589230Y-47167890D01*
X116589232Y-47167890D01*
X116775797Y-47115800D01*
X116775796Y-47115800D01*
X116781725Y-47114145D01*
X116787214Y-47111372D01*
X116787220Y-47111370D01*
X116944473Y-47031935D01*
X116965610Y-47021258D01*
X116990142Y-47002092D01*
X117123101Y-46898213D01*
X117127951Y-46894424D01*
X117143923Y-46875921D01*
X117258540Y-46743134D01*
X117258540Y-46743133D01*
X117262564Y-46738472D01*
X117283387Y-46701818D01*
X117330987Y-46618026D01*
X117364323Y-46559344D01*
X117429351Y-46363863D01*
X117455171Y-46159474D01*
X117455583Y-46130000D01*
X117435480Y-45924970D01*
X117375935Y-45727749D01*
X117279218Y-45545849D01*
X117203995Y-45453617D01*
X117152906Y-45390975D01*
X117152903Y-45390972D01*
X117149011Y-45386200D01*
X117142173Y-45380543D01*
X116995025Y-45258811D01*
X116995021Y-45258809D01*
X116990275Y-45254882D01*
X116809055Y-45156897D01*
X116612254Y-45095977D01*
X116606129Y-45095333D01*
X116606128Y-45095333D01*
X116413498Y-45075087D01*
X116413496Y-45075087D01*
X116407369Y-45074443D01*
X116320529Y-45082346D01*
X116208342Y-45092555D01*
X116208339Y-45092556D01*
X116202203Y-45093114D01*
X116004572Y-45151280D01*
X115822002Y-45246726D01*
X115817201Y-45250586D01*
X115817198Y-45250588D01*
X115670358Y-45368650D01*
X115661447Y-45375815D01*
X115529024Y-45533630D01*
X115526056Y-45539028D01*
X115526053Y-45539033D01*
X115449381Y-45678500D01*
X115429776Y-45714162D01*
X115427914Y-45720031D01*
X115425485Y-45725699D01*
X115423458Y-45724830D01*
X115389342Y-45775481D01*
X115324140Y-45803575D01*
X115308901Y-45804500D01*
X113426500Y-45804500D01*
X113358379Y-45784498D01*
X113311886Y-45730842D01*
X113300500Y-45678500D01*
X113300500Y-45541782D01*
X113294763Y-45502807D01*
X113291784Y-45482574D01*
X113291784Y-45482573D01*
X113290358Y-45472888D01*
X113247797Y-45386200D01*
X113243522Y-45377493D01*
X113243521Y-45377491D01*
X113238932Y-45368145D01*
X113156350Y-45285707D01*
X113051518Y-45234464D01*
X113017190Y-45229456D01*
X112987744Y-45225160D01*
X112987740Y-45225160D01*
X112983218Y-45224500D01*
X112616782Y-45224500D01*
X112612232Y-45225170D01*
X112612229Y-45225170D01*
X112557574Y-45233216D01*
X112557573Y-45233216D01*
X112547888Y-45234642D01*
X112529095Y-45243869D01*
X112452493Y-45281478D01*
X112452491Y-45281479D01*
X112443145Y-45286068D01*
X112360707Y-45368650D01*
X112356134Y-45378006D01*
X112356133Y-45378007D01*
X112354049Y-45382271D01*
X112309464Y-45473482D01*
X112299500Y-45541782D01*
X112299500Y-46783218D01*
X111550980Y-46783218D01*
X111550980Y-45111536D01*
X111570982Y-45043415D01*
X111587885Y-45022441D01*
X111722921Y-44887405D01*
X111785233Y-44853379D01*
X111812016Y-44850500D01*
X112319748Y-44850500D01*
X112329411Y-44848578D01*
X112366061Y-44841288D01*
X112366062Y-44841288D01*
X112378231Y-44838867D01*
X112444552Y-44794552D01*
X112488867Y-44728231D01*
X112491451Y-44715243D01*
X112499293Y-44675816D01*
X112500500Y-44669748D01*
X112500500Y-43730252D01*
X112495435Y-43704789D01*
X112491288Y-43683939D01*
X112491288Y-43683938D01*
X112488867Y-43671769D01*
X112444552Y-43605448D01*
X112378231Y-43561133D01*
X112366061Y-43558712D01*
X112354595Y-43553963D01*
X112356218Y-43550044D01*
X112314007Y-43527963D01*
X112278877Y-43466267D01*
X112275500Y-43437293D01*
X112275500Y-43288075D01*
X112293069Y-43233196D01*
X112289293Y-43231350D01*
X112293867Y-43221993D01*
X112340536Y-43126518D01*
X112350500Y-43058218D01*
X112350500Y-41816782D01*
X112348735Y-41804789D01*
X112341784Y-41757574D01*
X112341784Y-41757573D01*
X112340358Y-41747888D01*
X112311985Y-41690099D01*
X112293522Y-41652493D01*
X112293521Y-41652491D01*
X112288932Y-41643145D01*
X112206350Y-41560707D01*
X112196527Y-41555905D01*
X112157270Y-41536716D01*
X112101518Y-41509464D01*
X112071027Y-41505016D01*
X112037744Y-41500160D01*
X112037740Y-41500160D01*
X112033218Y-41499500D01*
X111666782Y-41499500D01*
X111662232Y-41500170D01*
X111662229Y-41500170D01*
X111607574Y-41508216D01*
X111607573Y-41508216D01*
X111597888Y-41509642D01*
X111555071Y-41530664D01*
X111502493Y-41556478D01*
X111502491Y-41556479D01*
X111493145Y-41561068D01*
X111410707Y-41643650D01*
X111359464Y-41748482D01*
X111358052Y-41758162D01*
X111351250Y-41804789D01*
X111349500Y-41816782D01*
X111349500Y-43058218D01*
X111350170Y-43062768D01*
X111350170Y-43062771D01*
X111358216Y-43117426D01*
X111359642Y-43127112D01*
X111378810Y-43166152D01*
X111395344Y-43199828D01*
X111411068Y-43231855D01*
X111493650Y-43314293D01*
X111524501Y-43329373D01*
X111531796Y-43332939D01*
X111584212Y-43380825D01*
X111602419Y-43449448D01*
X111580634Y-43517020D01*
X111527923Y-43559909D01*
X111521769Y-43561133D01*
X111455448Y-43605448D01*
X111411133Y-43671769D01*
X111408712Y-43683938D01*
X111408712Y-43683939D01*
X111404565Y-43704789D01*
X111399500Y-43730252D01*
X111399500Y-44237984D01*
X111379498Y-44306105D01*
X111362595Y-44327079D01*
X111009265Y-44680409D01*
X111001161Y-44687836D01*
X110972286Y-44712065D01*
X110966773Y-44721614D01*
X110953441Y-44744705D01*
X110947535Y-44753976D01*
X110925926Y-44784836D01*
X110923072Y-44795486D01*
X110921595Y-44798654D01*
X110920403Y-44801930D01*
X110914892Y-44811475D01*
X110908942Y-44845219D01*
X110908350Y-44848578D01*
X110905972Y-44859305D01*
X110896216Y-44895713D01*
X110897177Y-44906698D01*
X110897177Y-44906700D01*
X110899500Y-44933248D01*
X110899980Y-44944230D01*
X110899980Y-49507830D01*
X110879978Y-49575951D01*
X110826322Y-49622444D01*
X110756048Y-49632548D01*
X110691468Y-49603054D01*
X110672046Y-49581893D01*
X110670630Y-49579944D01*
X110595056Y-49504370D01*
X110579213Y-49492859D01*
X110483982Y-49444336D01*
X110465355Y-49438284D01*
X110386373Y-49425775D01*
X110376527Y-49425000D01*
X110068115Y-49425000D01*
X110052876Y-49429475D01*
X110051671Y-49430865D01*
X110050000Y-49438548D01*
X110050000Y-50224000D01*
X110029998Y-50292121D01*
X109976342Y-50338614D01*
X109924000Y-50350000D01*
X109876000Y-50350000D01*
X109807879Y-50329998D01*
X109761386Y-50276342D01*
X109750000Y-50224000D01*
X109750000Y-49443116D01*
X109745525Y-49427877D01*
X109744135Y-49426672D01*
X109736452Y-49425001D01*
X109423475Y-49425001D01*
X109413626Y-49425776D01*
X109334649Y-49438283D01*
X109316014Y-49444338D01*
X109220787Y-49492859D01*
X109204944Y-49504370D01*
X109129370Y-49579944D01*
X109117859Y-49595787D01*
X109091485Y-49647549D01*
X109042737Y-49699164D01*
X108973822Y-49716230D01*
X108906620Y-49693329D01*
X108898709Y-49686669D01*
X108894552Y-49680448D01*
X108828231Y-49636133D01*
X108816062Y-49633712D01*
X108816061Y-49633712D01*
X108775816Y-49625707D01*
X108769748Y-49624500D01*
X108751500Y-49624500D01*
X108683379Y-49604498D01*
X108636886Y-49550842D01*
X108625500Y-49498500D01*
X108625500Y-48162419D01*
X108645502Y-48094298D01*
X108662405Y-48073323D01*
X109265320Y-47470409D01*
X109327632Y-47436384D01*
X109370859Y-47434583D01*
X109437701Y-47443383D01*
X109445889Y-47442305D01*
X109586275Y-47423823D01*
X109594463Y-47422745D01*
X109740542Y-47362237D01*
X109865983Y-47265983D01*
X109962237Y-47140542D01*
X110022745Y-46994463D01*
X110043383Y-46837701D01*
X110022745Y-46680939D01*
X109962237Y-46534860D01*
X109865983Y-46409419D01*
X109740542Y-46313165D01*
X109594463Y-46252657D01*
X109437701Y-46232019D01*
X109280939Y-46252657D01*
X109134860Y-46313165D01*
X109128309Y-46318192D01*
X109128304Y-46318195D01*
X109044779Y-46382286D01*
X108978559Y-46407887D01*
X108909010Y-46393622D01*
X108858214Y-46344021D01*
X108842298Y-46274832D01*
X108853121Y-46235006D01*
X108852599Y-46234836D01*
X108861716Y-46206776D01*
X108874225Y-46127794D01*
X108875000Y-46117948D01*
X108875000Y-45809536D01*
X108870525Y-45794297D01*
X108869135Y-45793092D01*
X108861452Y-45791421D01*
X108268115Y-45791421D01*
X108252876Y-45795896D01*
X108251671Y-45797286D01*
X108250000Y-45804969D01*
X108250000Y-46473305D01*
X108254475Y-46488544D01*
X108255865Y-46489749D01*
X108263548Y-46491420D01*
X108501525Y-46491420D01*
X108511374Y-46490645D01*
X108590351Y-46478138D01*
X108608986Y-46472083D01*
X108704210Y-46423564D01*
X108707624Y-46421083D01*
X108712478Y-46419351D01*
X108713045Y-46419062D01*
X108713082Y-46419135D01*
X108774491Y-46397222D01*
X108843643Y-46413300D01*
X108893125Y-46464212D01*
X108907227Y-46533794D01*
X108898098Y-46571234D01*
X108858944Y-46665761D01*
X108852657Y-46680939D01*
X108832019Y-46837701D01*
X108840819Y-46904542D01*
X108829880Y-46974689D01*
X108804993Y-47010082D01*
X108083779Y-47731297D01*
X108075675Y-47738723D01*
X108046806Y-47762947D01*
X108041293Y-47772496D01*
X108027961Y-47795587D01*
X108022055Y-47804858D01*
X108000446Y-47835718D01*
X107997592Y-47846368D01*
X107996115Y-47849536D01*
X107994923Y-47852812D01*
X107989412Y-47862357D01*
X107984351Y-47891060D01*
X107982870Y-47899460D01*
X107980492Y-47910187D01*
X107970736Y-47946595D01*
X107971697Y-47957580D01*
X107971697Y-47957582D01*
X107974020Y-47984130D01*
X107974500Y-47995112D01*
X107974500Y-49498500D01*
X107954498Y-49566621D01*
X107900842Y-49613114D01*
X107848500Y-49624500D01*
X107830252Y-49624500D01*
X107824184Y-49625707D01*
X107783939Y-49633712D01*
X107783938Y-49633712D01*
X107771769Y-49636133D01*
X107705448Y-49680448D01*
X107661133Y-49746769D01*
X107649500Y-49805252D01*
X107649500Y-50594748D01*
X107650707Y-50600816D01*
X107656769Y-50631290D01*
X107661133Y-50653231D01*
X107705448Y-50719552D01*
X107771769Y-50763867D01*
X107783938Y-50766288D01*
X107783939Y-50766288D01*
X107814582Y-50772383D01*
X107830252Y-50775500D01*
X108562494Y-50775500D01*
X108630615Y-50795502D01*
X108651589Y-50812405D01*
X108773589Y-50934405D01*
X108807615Y-50996717D01*
X108802550Y-51067532D01*
X108760003Y-51124368D01*
X108693483Y-51149179D01*
X108684494Y-51149500D01*
X108505252Y-51149500D01*
X108446769Y-51161133D01*
X108442888Y-51163726D01*
X108377630Y-51170743D01*
X108359761Y-51165496D01*
X108353231Y-51161133D01*
X108294748Y-51149500D01*
X107705252Y-51149500D01*
X107646769Y-51161133D01*
X107642888Y-51163726D01*
X107577630Y-51170743D01*
X107559761Y-51165496D01*
X107553231Y-51161133D01*
X107494748Y-51149500D01*
X106905252Y-51149500D01*
X106846769Y-51161133D01*
X106842888Y-51163726D01*
X106777630Y-51170743D01*
X106759761Y-51165496D01*
X106753231Y-51161133D01*
X106694748Y-51149500D01*
X106105252Y-51149500D01*
X106046769Y-51161133D01*
X106042888Y-51163726D01*
X105977630Y-51170743D01*
X105959761Y-51165496D01*
X105953231Y-51161133D01*
X105894748Y-51149500D01*
X105305252Y-51149500D01*
X105299184Y-51150707D01*
X105258939Y-51158712D01*
X105258938Y-51158712D01*
X105246769Y-51161133D01*
X105180448Y-51205448D01*
X105136133Y-51271769D01*
X105133712Y-51283938D01*
X105133712Y-51283939D01*
X105129417Y-51305534D01*
X105124500Y-51330252D01*
X105124500Y-52969748D01*
X105126137Y-52977977D01*
X105126033Y-52979131D01*
X105126314Y-52981979D01*
X105125774Y-52982032D01*
X105119810Y-53048689D01*
X105076256Y-53104757D01*
X105009304Y-53128377D01*
X104977980Y-53126137D01*
X104969748Y-53124500D01*
X103330252Y-53124500D01*
X103324184Y-53125707D01*
X103283939Y-53133712D01*
X103283938Y-53133712D01*
X103271769Y-53136133D01*
X103261453Y-53143026D01*
X103252658Y-53148903D01*
X103205448Y-53180448D01*
X103161133Y-53246769D01*
X103158712Y-53258938D01*
X103158712Y-53258939D01*
X103156387Y-53270630D01*
X103149500Y-53305252D01*
X103149500Y-53894748D01*
X103161133Y-53953231D01*
X103163726Y-53957112D01*
X103170743Y-54022370D01*
X103165496Y-54040239D01*
X103161133Y-54046769D01*
X103149500Y-54105252D01*
X103149500Y-54694748D01*
X103161133Y-54753231D01*
X103163726Y-54757112D01*
X103170743Y-54822370D01*
X103165496Y-54840239D01*
X103161133Y-54846769D01*
X103149500Y-54905252D01*
X103149500Y-55307799D01*
X103129498Y-55375920D01*
X103110564Y-55395968D01*
X103111955Y-55397359D01*
X103029370Y-55479944D01*
X103017859Y-55495787D01*
X102969336Y-55591018D01*
X102963284Y-55609645D01*
X102950775Y-55688627D01*
X102950000Y-55698473D01*
X102950000Y-55831885D01*
X102954475Y-55847124D01*
X102955865Y-55848329D01*
X102963548Y-55850000D01*
X103774000Y-55850000D01*
X103842121Y-55870002D01*
X103888614Y-55923658D01*
X103900000Y-55976000D01*
X103900000Y-56024000D01*
X103879998Y-56092121D01*
X103826342Y-56138614D01*
X103774000Y-56150000D01*
X102968116Y-56150000D01*
X102952877Y-56154475D01*
X102951672Y-56155865D01*
X102950001Y-56163548D01*
X102950001Y-56301525D01*
X102950776Y-56311379D01*
X102954001Y-56331742D01*
X102944900Y-56402153D01*
X102899176Y-56456466D01*
X102862164Y-56473155D01*
X102834790Y-56480490D01*
X102824058Y-56482870D01*
X102820699Y-56483462D01*
X102786955Y-56489412D01*
X102777409Y-56494923D01*
X102772761Y-56496615D01*
X102762279Y-56499920D01*
X102760316Y-56500446D01*
X102759326Y-56496753D01*
X102709083Y-56504394D01*
X102644265Y-56475427D01*
X102605397Y-56416015D01*
X102600000Y-56379535D01*
X102600000Y-54156800D01*
X101800000Y-54156800D01*
X101800000Y-55324001D01*
X101779998Y-55392122D01*
X101726342Y-55438615D01*
X101674000Y-55450001D01*
X101398475Y-55450001D01*
X101388626Y-55450776D01*
X101309649Y-55463283D01*
X101291014Y-55469338D01*
X101195787Y-55517859D01*
X101179944Y-55529370D01*
X101104370Y-55604944D01*
X101092859Y-55620787D01*
X101044336Y-55716018D01*
X101038284Y-55734645D01*
X101025775Y-55813627D01*
X101025000Y-55823473D01*
X101025000Y-56131885D01*
X101029475Y-56147124D01*
X101030865Y-56148329D01*
X101038548Y-56150000D01*
X101674000Y-56150000D01*
X101742121Y-56170002D01*
X101788614Y-56223658D01*
X101800000Y-56276000D01*
X101800000Y-56324000D01*
X101779998Y-56392121D01*
X101726342Y-56438614D01*
X101674000Y-56450000D01*
X101043116Y-56450000D01*
X101027877Y-56454475D01*
X101026672Y-56455865D01*
X101025001Y-56463548D01*
X101025001Y-56776525D01*
X101025776Y-56786374D01*
X101038283Y-56865351D01*
X101044338Y-56883986D01*
X101092859Y-56979213D01*
X101104370Y-56995056D01*
X101179944Y-57070630D01*
X101195787Y-57082141D01*
X101247549Y-57108515D01*
X101299164Y-57157263D01*
X101316230Y-57226178D01*
X101293329Y-57293380D01*
X101286669Y-57301291D01*
X101280448Y-57305448D01*
X101236133Y-57371769D01*
X101233712Y-57383938D01*
X101233712Y-57383939D01*
X101227145Y-57416955D01*
X101224500Y-57430252D01*
X101224500Y-58262982D01*
X101204498Y-58331103D01*
X101187596Y-58352077D01*
X101128541Y-58411133D01*
X101072383Y-58467291D01*
X101010071Y-58501316D01*
X100966843Y-58503118D01*
X100900000Y-58494318D01*
X100743238Y-58514956D01*
X100597159Y-58575464D01*
X100471718Y-58671718D01*
X100466695Y-58678264D01*
X100449390Y-58700816D01*
X100375464Y-58797159D01*
X100314956Y-58943238D01*
X100294318Y-59100000D01*
X100314956Y-59256762D01*
X100375464Y-59402841D01*
X100399684Y-59434405D01*
X100452563Y-59503318D01*
X100471718Y-59528282D01*
X100597159Y-59624536D01*
X100743238Y-59685044D01*
X100900000Y-59705682D01*
X100908188Y-59704604D01*
X101048574Y-59686122D01*
X101056762Y-59685044D01*
X101202841Y-59624536D01*
X101328282Y-59528282D01*
X101347438Y-59503318D01*
X101400316Y-59434405D01*
X101424536Y-59402841D01*
X101485044Y-59256762D01*
X101505682Y-59100000D01*
X101496882Y-59033158D01*
X101507821Y-58963011D01*
X101532709Y-58927618D01*
X101584905Y-58875422D01*
X101647217Y-58841396D01*
X101718032Y-58846461D01*
X101774868Y-58889008D01*
X101799679Y-58955528D01*
X101800000Y-58964517D01*
X101800000Y-60092769D01*
X101779998Y-60160890D01*
X101771442Y-60171506D01*
X101771718Y-60171718D01*
X101675464Y-60297159D01*
X101614956Y-60443238D01*
X101594318Y-60600000D01*
X101614956Y-60756762D01*
X101675464Y-60902841D01*
X101771718Y-61028282D01*
X101897159Y-61124536D01*
X102043238Y-61185044D01*
X102200000Y-61205682D01*
X102208188Y-61204604D01*
X102348574Y-61186122D01*
X102356762Y-61185044D01*
X102364389Y-61181885D01*
X102364392Y-61181884D01*
X102449304Y-61146712D01*
X102519894Y-61139123D01*
X102583381Y-61170902D01*
X102619608Y-61231961D01*
X102623522Y-61263121D01*
X102623522Y-61531530D01*
X102603520Y-61599651D01*
X102574225Y-61631493D01*
X102502767Y-61686324D01*
X102502764Y-61686327D01*
X102496218Y-61691350D01*
X102399964Y-61816791D01*
X102339456Y-61962870D01*
X102318818Y-62119632D01*
X102339456Y-62276394D01*
X102399964Y-62422473D01*
X102496218Y-62547914D01*
X102621659Y-62644168D01*
X102767738Y-62704676D01*
X102924500Y-62725314D01*
X102932688Y-62724236D01*
X103073074Y-62705754D01*
X103081262Y-62704676D01*
X103227341Y-62644168D01*
X103352782Y-62547914D01*
X103449036Y-62422473D01*
X103509544Y-62276394D01*
X103530182Y-62119632D01*
X103509544Y-61962870D01*
X103449036Y-61816791D01*
X103352782Y-61691350D01*
X103346236Y-61686327D01*
X103346232Y-61686323D01*
X103323818Y-61669124D01*
X103281951Y-61611786D01*
X103274522Y-61569162D01*
X103274522Y-59801500D01*
X103294524Y-59733379D01*
X103348180Y-59686886D01*
X103400522Y-59675500D01*
X104969748Y-59675500D01*
X104977977Y-59673863D01*
X104979131Y-59673967D01*
X104981979Y-59673686D01*
X104982032Y-59674226D01*
X105048689Y-59680190D01*
X105104757Y-59723744D01*
X105128377Y-59790696D01*
X105126137Y-59822020D01*
X105124500Y-59830252D01*
X105124500Y-61469748D01*
X105136133Y-61528231D01*
X105143026Y-61538547D01*
X105151632Y-61551426D01*
X105180448Y-61594552D01*
X105246769Y-61638867D01*
X105258938Y-61641288D01*
X105258939Y-61641288D01*
X105276083Y-61644698D01*
X105305252Y-61650500D01*
X105550681Y-61650500D01*
X105618802Y-61670502D01*
X105665295Y-61724158D01*
X105675399Y-61794432D01*
X105645905Y-61859012D01*
X105639788Y-61865583D01*
X104791576Y-62713796D01*
X104729265Y-62747820D01*
X104702482Y-62750700D01*
X104520312Y-62750700D01*
X104509330Y-62750220D01*
X104482777Y-62747897D01*
X104482772Y-62747897D01*
X104471795Y-62746937D01*
X104435385Y-62756692D01*
X104424678Y-62759066D01*
X104387557Y-62765612D01*
X104378013Y-62771122D01*
X104374737Y-62772314D01*
X104371566Y-62773793D01*
X104360918Y-62776646D01*
X104351889Y-62782968D01*
X104330051Y-62798259D01*
X104320781Y-62804164D01*
X104297694Y-62817493D01*
X104297690Y-62817496D01*
X104288147Y-62823006D01*
X104281062Y-62831450D01*
X104263927Y-62851870D01*
X104256502Y-62859973D01*
X103532779Y-63583697D01*
X103524675Y-63591123D01*
X103495807Y-63615346D01*
X103492141Y-63621695D01*
X103434924Y-63659761D01*
X103363936Y-63660887D01*
X103334513Y-63648562D01*
X103333896Y-63648206D01*
X103327341Y-63643176D01*
X103193140Y-63587588D01*
X103188891Y-63585828D01*
X103181262Y-63582668D01*
X103150811Y-63578659D01*
X103032688Y-63563108D01*
X103024500Y-63562030D01*
X103016312Y-63563108D01*
X102898190Y-63578659D01*
X102867738Y-63582668D01*
X102860109Y-63585828D01*
X102855860Y-63587588D01*
X102721659Y-63643176D01*
X102663091Y-63688117D01*
X102606828Y-63731289D01*
X102596218Y-63739430D01*
X102591195Y-63745976D01*
X102555177Y-63792916D01*
X102497839Y-63834783D01*
X102455214Y-63842212D01*
X101691545Y-63842212D01*
X101623424Y-63822210D01*
X101576931Y-63768554D01*
X101566827Y-63698280D01*
X101577962Y-63664094D01*
X101578634Y-63663184D01*
X101623519Y-63535369D01*
X101626500Y-63503834D01*
X101626500Y-62896166D01*
X101623519Y-62864631D01*
X101578634Y-62736816D01*
X101573042Y-62729246D01*
X101573041Y-62729243D01*
X101503742Y-62635421D01*
X101498150Y-62627850D01*
X101463687Y-62602395D01*
X101396757Y-62552959D01*
X101396754Y-62552958D01*
X101389184Y-62547366D01*
X101261369Y-62502481D01*
X101253723Y-62501758D01*
X101253722Y-62501758D01*
X101247752Y-62501194D01*
X101229834Y-62499500D01*
X101072464Y-62499500D01*
X101004343Y-62479498D01*
X100957850Y-62425842D01*
X100947746Y-62355568D01*
X100977240Y-62290988D01*
X101024246Y-62257091D01*
X101041230Y-62250056D01*
X101102841Y-62224536D01*
X101228282Y-62128282D01*
X101324536Y-62002841D01*
X101385044Y-61856762D01*
X101405682Y-61700000D01*
X101385044Y-61543238D01*
X101324536Y-61397159D01*
X101228282Y-61271718D01*
X101102841Y-61175464D01*
X100956762Y-61114956D01*
X100800000Y-61094318D01*
X100643238Y-61114956D01*
X100497159Y-61175464D01*
X100371718Y-61271718D01*
X100275464Y-61397159D01*
X100214956Y-61543238D01*
X100194318Y-61700000D01*
X100195396Y-61708188D01*
X100195396Y-61708190D01*
X100202886Y-61765085D01*
X100191946Y-61835233D01*
X100177782Y-61857370D01*
X100172806Y-61861545D01*
X100167293Y-61871094D01*
X100153961Y-61894185D01*
X100148055Y-61903456D01*
X100126446Y-61934316D01*
X100123592Y-61944966D01*
X100122115Y-61948134D01*
X100120923Y-61951410D01*
X100115412Y-61960955D01*
X100109462Y-61994699D01*
X100108870Y-61998058D01*
X100106492Y-62008785D01*
X100096736Y-62045193D01*
X100097697Y-62056178D01*
X100097697Y-62056180D01*
X100100020Y-62082728D01*
X100100500Y-62093710D01*
X100100500Y-62373500D01*
X100080498Y-62441621D01*
X100026842Y-62488114D01*
X99974500Y-62499500D01*
X99622166Y-62499500D01*
X99604248Y-62501194D01*
X99598278Y-62501758D01*
X99598277Y-62501758D01*
X99590631Y-62502481D01*
X99462816Y-62547366D01*
X99455246Y-62552958D01*
X99455243Y-62552959D01*
X99388313Y-62602395D01*
X99353850Y-62627850D01*
X99348258Y-62635421D01*
X99278959Y-62729243D01*
X99278958Y-62729246D01*
X99273366Y-62736816D01*
X99228481Y-62864631D01*
X99225500Y-62896166D01*
X99225500Y-63503834D01*
X99228481Y-63535369D01*
X99273366Y-63663184D01*
X99278958Y-63670754D01*
X99278959Y-63670757D01*
X99334517Y-63745976D01*
X99353850Y-63772150D01*
X99361421Y-63777742D01*
X99455243Y-63847041D01*
X99455246Y-63847042D01*
X99462816Y-63852634D01*
X99590631Y-63897519D01*
X99598277Y-63898242D01*
X99598278Y-63898242D01*
X99604248Y-63898806D01*
X99622166Y-63900500D01*
X100960984Y-63900500D01*
X101029105Y-63920502D01*
X101075598Y-63974158D01*
X101085702Y-64044432D01*
X101056208Y-64109012D01*
X101050079Y-64115595D01*
X100703079Y-64462595D01*
X100640767Y-64496621D01*
X100613984Y-64499500D01*
X99622166Y-64499500D01*
X99604248Y-64501194D01*
X99598278Y-64501758D01*
X99598277Y-64501758D01*
X99590631Y-64502481D01*
X99462816Y-64547366D01*
X99455246Y-64552958D01*
X99455243Y-64552959D01*
X99432169Y-64570002D01*
X99353850Y-64627850D01*
X99348258Y-64635421D01*
X99278959Y-64729243D01*
X99278958Y-64729246D01*
X99273366Y-64736816D01*
X99228481Y-64864631D01*
X99225500Y-64896166D01*
X99225500Y-65503834D01*
X99228481Y-65535369D01*
X99273366Y-65663184D01*
X99278958Y-65670754D01*
X99278959Y-65670757D01*
X99341335Y-65755206D01*
X99353850Y-65772150D01*
X99361421Y-65777742D01*
X99455243Y-65847041D01*
X99455246Y-65847042D01*
X99462816Y-65852634D01*
X99590631Y-65897519D01*
X99598277Y-65898242D01*
X99598278Y-65898242D01*
X99604248Y-65898806D01*
X99622166Y-65900500D01*
X101229834Y-65900500D01*
X101247752Y-65898806D01*
X101253722Y-65898242D01*
X101253723Y-65898242D01*
X101261369Y-65897519D01*
X101389184Y-65852634D01*
X101396754Y-65847042D01*
X101396757Y-65847041D01*
X101490579Y-65777742D01*
X101498150Y-65772150D01*
X101510665Y-65755206D01*
X101573041Y-65670757D01*
X101573042Y-65670754D01*
X101578634Y-65663184D01*
X101623519Y-65535369D01*
X101626500Y-65503834D01*
X101626500Y-64896166D01*
X101623519Y-64864631D01*
X101578634Y-64736816D01*
X101547062Y-64694071D01*
X101522680Y-64627393D01*
X101538217Y-64558117D01*
X101588741Y-64508239D01*
X101648414Y-64493212D01*
X102455214Y-64493212D01*
X102523335Y-64513214D01*
X102555177Y-64542508D01*
X102596218Y-64595994D01*
X102721659Y-64692248D01*
X102789682Y-64720424D01*
X102844962Y-64764973D01*
X102867383Y-64832336D01*
X102849824Y-64901128D01*
X102830558Y-64925928D01*
X101293891Y-66462595D01*
X101231579Y-66496621D01*
X101204796Y-66499500D01*
X99622166Y-66499500D01*
X99604248Y-66501194D01*
X99598278Y-66501758D01*
X99598277Y-66501758D01*
X99590631Y-66502481D01*
X99462816Y-66547366D01*
X99455246Y-66552958D01*
X99455243Y-66552959D01*
X99399248Y-66594318D01*
X99353850Y-66627850D01*
X99348258Y-66635421D01*
X99278959Y-66729243D01*
X99278958Y-66729246D01*
X99273366Y-66736816D01*
X99228481Y-66864631D01*
X99225500Y-66896166D01*
X99225500Y-67503834D01*
X99228481Y-67535369D01*
X99273366Y-67663184D01*
X99278958Y-67670754D01*
X99278959Y-67670757D01*
X99341335Y-67755206D01*
X99353850Y-67772150D01*
X99361421Y-67777742D01*
X99455243Y-67847041D01*
X99455246Y-67847042D01*
X99462816Y-67852634D01*
X99590631Y-67897519D01*
X99598277Y-67898242D01*
X99598278Y-67898242D01*
X99604248Y-67898806D01*
X99622166Y-67900500D01*
X100960984Y-67900500D01*
X101029105Y-67920502D01*
X101075598Y-67974158D01*
X101085702Y-68044432D01*
X101056208Y-68109012D01*
X101050079Y-68115595D01*
X100703079Y-68462595D01*
X100640767Y-68496621D01*
X100613984Y-68499500D01*
X99622166Y-68499500D01*
X99604248Y-68501194D01*
X99598278Y-68501758D01*
X99598277Y-68501758D01*
X99590631Y-68502481D01*
X99462816Y-68547366D01*
X99455246Y-68552958D01*
X99455243Y-68552959D01*
X99376670Y-68610995D01*
X99353850Y-68627850D01*
X99348258Y-68635421D01*
X99278959Y-68729243D01*
X99278958Y-68729246D01*
X99273366Y-68736816D01*
X99228481Y-68864631D01*
X99225500Y-68896166D01*
X99225500Y-69503834D01*
X99228481Y-69535369D01*
X99273366Y-69663184D01*
X99278958Y-69670754D01*
X99278959Y-69670757D01*
X99302468Y-69702585D01*
X99353850Y-69772150D01*
X99361421Y-69777742D01*
X99455243Y-69847041D01*
X99455246Y-69847042D01*
X99462816Y-69852634D01*
X99590631Y-69897519D01*
X99598277Y-69898242D01*
X99598278Y-69898242D01*
X99604248Y-69898806D01*
X99622166Y-69900500D01*
X100960984Y-69900500D01*
X101029105Y-69920502D01*
X101075598Y-69974158D01*
X101085702Y-70044432D01*
X101056208Y-70109012D01*
X101050079Y-70115595D01*
X100703079Y-70462595D01*
X100640767Y-70496621D01*
X100613984Y-70499500D01*
X99622166Y-70499500D01*
X99604248Y-70501194D01*
X99598278Y-70501758D01*
X99598277Y-70501758D01*
X99590631Y-70502481D01*
X99462816Y-70547366D01*
X99455246Y-70552958D01*
X99455243Y-70552959D01*
X99376670Y-70610995D01*
X99353850Y-70627850D01*
X99348258Y-70635421D01*
X99278959Y-70729243D01*
X99278958Y-70729246D01*
X99273366Y-70736816D01*
X99228481Y-70864631D01*
X99225500Y-70896166D01*
X99225500Y-71503834D01*
X99228481Y-71535369D01*
X99273366Y-71663184D01*
X99278958Y-71670754D01*
X99278959Y-71670757D01*
X99298460Y-71697159D01*
X99353850Y-71772150D01*
X99361421Y-71777742D01*
X99455243Y-71847041D01*
X99455246Y-71847042D01*
X99462816Y-71852634D01*
X99590631Y-71897519D01*
X99598277Y-71898242D01*
X99598278Y-71898242D01*
X99604248Y-71898806D01*
X99622166Y-71900500D01*
X100960984Y-71900500D01*
X101029105Y-71920502D01*
X101075598Y-71974158D01*
X101085702Y-72044432D01*
X101056208Y-72109012D01*
X101050079Y-72115595D01*
X100703079Y-72462595D01*
X100640767Y-72496621D01*
X100613984Y-72499500D01*
X99622166Y-72499500D01*
X99604248Y-72501194D01*
X99598278Y-72501758D01*
X99598277Y-72501758D01*
X99590631Y-72502481D01*
X99462816Y-72547366D01*
X99455246Y-72552958D01*
X99455243Y-72552959D01*
X99411804Y-72585044D01*
X99353850Y-72627850D01*
X99348258Y-72635421D01*
X99278959Y-72729243D01*
X99278958Y-72729246D01*
X99273366Y-72736816D01*
X99228481Y-72864631D01*
X99225500Y-72896166D01*
X99225500Y-73503834D01*
X99228481Y-73535369D01*
X99273366Y-73663184D01*
X99278958Y-73670754D01*
X99278959Y-73670757D01*
X99301405Y-73701146D01*
X99353850Y-73772150D01*
X99361421Y-73777742D01*
X99455243Y-73847041D01*
X99455246Y-73847042D01*
X99462816Y-73852634D01*
X99590631Y-73897519D01*
X99598277Y-73898242D01*
X99598278Y-73898242D01*
X99604248Y-73898806D01*
X99622166Y-73900500D01*
X101229834Y-73900500D01*
X101247752Y-73898806D01*
X101253722Y-73898242D01*
X101253723Y-73898242D01*
X101261369Y-73897519D01*
X101389184Y-73852634D01*
X101396754Y-73847042D01*
X101396757Y-73847041D01*
X101442698Y-73813108D01*
X101473641Y-73790253D01*
X101540318Y-73765870D01*
X101609594Y-73781406D01*
X101659473Y-73831930D01*
X101674500Y-73891604D01*
X101674500Y-74508396D01*
X101654498Y-74576517D01*
X101600842Y-74623010D01*
X101530568Y-74633114D01*
X101473641Y-74609748D01*
X101428651Y-74576517D01*
X101396757Y-74552959D01*
X101396754Y-74552958D01*
X101389184Y-74547366D01*
X101261369Y-74502481D01*
X101253723Y-74501758D01*
X101253722Y-74501758D01*
X101247752Y-74501194D01*
X101229834Y-74499500D01*
X99622166Y-74499500D01*
X99604248Y-74501194D01*
X99598278Y-74501758D01*
X99598277Y-74501758D01*
X99590631Y-74502481D01*
X99462816Y-74547366D01*
X99455246Y-74552958D01*
X99455243Y-74552959D01*
X99390069Y-74601098D01*
X99353850Y-74627850D01*
X99348258Y-74635421D01*
X99278959Y-74729243D01*
X99278958Y-74729246D01*
X99273366Y-74736816D01*
X99228481Y-74864631D01*
X99225500Y-74896166D01*
X99225500Y-75503834D01*
X99228481Y-75535369D01*
X99273366Y-75663184D01*
X99278958Y-75670754D01*
X99278959Y-75670757D01*
X99316613Y-75721736D01*
X99353850Y-75772150D01*
X99361421Y-75777742D01*
X99455243Y-75847041D01*
X99455246Y-75847042D01*
X99462816Y-75852634D01*
X99590631Y-75897519D01*
X99598277Y-75898242D01*
X99598278Y-75898242D01*
X99604248Y-75898806D01*
X99622166Y-75900500D01*
X101229834Y-75900500D01*
X101247752Y-75898806D01*
X101253722Y-75898242D01*
X101253723Y-75898242D01*
X101261369Y-75897519D01*
X101389184Y-75852634D01*
X101396754Y-75847042D01*
X101396757Y-75847041D01*
X101437702Y-75816798D01*
X101473641Y-75790253D01*
X101540318Y-75765870D01*
X101609594Y-75781406D01*
X101659473Y-75831930D01*
X101674500Y-75891604D01*
X101674500Y-76508396D01*
X101654498Y-76576517D01*
X101600842Y-76623010D01*
X101530568Y-76633114D01*
X101473641Y-76609748D01*
X101428651Y-76576517D01*
X101396757Y-76552959D01*
X101396754Y-76552958D01*
X101389184Y-76547366D01*
X101261369Y-76502481D01*
X101253723Y-76501758D01*
X101253722Y-76501758D01*
X101247752Y-76501194D01*
X101229834Y-76499500D01*
X99622166Y-76499500D01*
X99604248Y-76501194D01*
X99598278Y-76501758D01*
X99598277Y-76501758D01*
X99590631Y-76502481D01*
X99462816Y-76547366D01*
X99455246Y-76552958D01*
X99455243Y-76552959D01*
X99378359Y-76609747D01*
X99353850Y-76627850D01*
X99348258Y-76635421D01*
X99278959Y-76729243D01*
X99278958Y-76729246D01*
X99273366Y-76736816D01*
X99228481Y-76864631D01*
X99225500Y-76896166D01*
X99225500Y-77503834D01*
X99228481Y-77535369D01*
X99273366Y-77663184D01*
X99278958Y-77670754D01*
X99278959Y-77670757D01*
X99329113Y-77738659D01*
X99353850Y-77772150D01*
X99361421Y-77777742D01*
X99455243Y-77847041D01*
X99455246Y-77847042D01*
X99462816Y-77852634D01*
X99590631Y-77897519D01*
X99598277Y-77898242D01*
X99598278Y-77898242D01*
X99604248Y-77898806D01*
X99622166Y-77900500D01*
X100473386Y-77900500D01*
X100541507Y-77920502D01*
X100588000Y-77974158D01*
X100598104Y-78044432D01*
X100595093Y-78059109D01*
X100593615Y-78064626D01*
X100590456Y-78072252D01*
X100589379Y-78080436D01*
X100589378Y-78080438D01*
X100572838Y-78206073D01*
X100569818Y-78229014D01*
X100590456Y-78385776D01*
X100650964Y-78531855D01*
X100747218Y-78657296D01*
X100872659Y-78753550D01*
X101018738Y-78814058D01*
X101175500Y-78834696D01*
X101183688Y-78833618D01*
X101324074Y-78815136D01*
X101332262Y-78814058D01*
X101400517Y-78785786D01*
X101470715Y-78756709D01*
X101470716Y-78756708D01*
X101478341Y-78753550D01*
X101484887Y-78748527D01*
X101485663Y-78748079D01*
X101554659Y-78731342D01*
X101621750Y-78754564D01*
X101665636Y-78810372D01*
X101670073Y-78828986D01*
X101670736Y-78828808D01*
X101680491Y-78865210D01*
X101682870Y-78875942D01*
X101689412Y-78913045D01*
X101694923Y-78922590D01*
X101696115Y-78925866D01*
X101697592Y-78929034D01*
X101700446Y-78939684D01*
X101706770Y-78948715D01*
X101722055Y-78970544D01*
X101727961Y-78979815D01*
X101746805Y-79012454D01*
X101744944Y-79013528D01*
X101767673Y-79065464D01*
X101756456Y-79135569D01*
X101709117Y-79188480D01*
X101690906Y-79197823D01*
X101599473Y-79235696D01*
X101474032Y-79331950D01*
X101377778Y-79457391D01*
X101317270Y-79603470D01*
X101296632Y-79760232D01*
X101297710Y-79768420D01*
X101297710Y-79768422D01*
X101305368Y-79826592D01*
X101294428Y-79896741D01*
X101269541Y-79932133D01*
X100836278Y-80365396D01*
X100773966Y-80399422D01*
X100698966Y-80392710D01*
X100642869Y-80369474D01*
X100642864Y-80369473D01*
X100635236Y-80366313D01*
X100522720Y-80351500D01*
X99697280Y-80351500D01*
X99584764Y-80366313D01*
X99444767Y-80424302D01*
X99324549Y-80516549D01*
X99232302Y-80636767D01*
X99174313Y-80776764D01*
X99159500Y-80889280D01*
X99159500Y-82214720D01*
X99160038Y-82218803D01*
X99160038Y-82218810D01*
X99165073Y-82257055D01*
X99154133Y-82327203D01*
X99107005Y-82380302D01*
X99040151Y-82399500D01*
X98876500Y-82399500D01*
X98808379Y-82379498D01*
X98761886Y-82325842D01*
X98750500Y-82273500D01*
X98750500Y-53735262D01*
X99444520Y-53735262D01*
X99445036Y-53741406D01*
X99457913Y-53894748D01*
X99461759Y-53940553D01*
X99463458Y-53946478D01*
X99510760Y-54111439D01*
X99518544Y-54138586D01*
X99521359Y-54144063D01*
X99521360Y-54144066D01*
X99542247Y-54184707D01*
X99612712Y-54321818D01*
X99740677Y-54483270D01*
X99745370Y-54487264D01*
X99745371Y-54487265D01*
X99878010Y-54600149D01*
X99897564Y-54616791D01*
X99902942Y-54619797D01*
X99902944Y-54619798D01*
X99980326Y-54663045D01*
X100077398Y-54717297D01*
X100150527Y-54741058D01*
X100267471Y-54779056D01*
X100267475Y-54779057D01*
X100273329Y-54780959D01*
X100477894Y-54805351D01*
X100484029Y-54804879D01*
X100484031Y-54804879D01*
X100547437Y-54800000D01*
X100683300Y-54789546D01*
X100689230Y-54787890D01*
X100689232Y-54787890D01*
X100875797Y-54735800D01*
X100875796Y-54735800D01*
X100881725Y-54734145D01*
X100887214Y-54731372D01*
X100887220Y-54731370D01*
X101060116Y-54644033D01*
X101065610Y-54641258D01*
X101118228Y-54600149D01*
X101188777Y-54545030D01*
X101227951Y-54514424D01*
X101237538Y-54503318D01*
X101358540Y-54363134D01*
X101358540Y-54363133D01*
X101362564Y-54358472D01*
X101383387Y-54321818D01*
X101461276Y-54184707D01*
X101464323Y-54179344D01*
X101529351Y-53983863D01*
X101555171Y-53779474D01*
X101555583Y-53750000D01*
X101535480Y-53544970D01*
X101475935Y-53347749D01*
X101379218Y-53165849D01*
X101285420Y-53050842D01*
X101252906Y-53010975D01*
X101252903Y-53010972D01*
X101249011Y-53006200D01*
X101242173Y-53000543D01*
X101095025Y-52878811D01*
X101095021Y-52878809D01*
X101090275Y-52874882D01*
X100909055Y-52776897D01*
X100712254Y-52715977D01*
X100706129Y-52715333D01*
X100706128Y-52715333D01*
X100513498Y-52695087D01*
X100513496Y-52695087D01*
X100507369Y-52694443D01*
X100420529Y-52702346D01*
X100308342Y-52712555D01*
X100308339Y-52712556D01*
X100302203Y-52713114D01*
X100104572Y-52771280D01*
X99922002Y-52866726D01*
X99917201Y-52870586D01*
X99917198Y-52870588D01*
X99778590Y-52982032D01*
X99761447Y-52995815D01*
X99629024Y-53153630D01*
X99626056Y-53159028D01*
X99626053Y-53159033D01*
X99549005Y-53299184D01*
X99529776Y-53334162D01*
X99467484Y-53530532D01*
X99466798Y-53536649D01*
X99466797Y-53536653D01*
X99457679Y-53617943D01*
X99444520Y-53735262D01*
X98750500Y-53735262D01*
X98750500Y-51195262D01*
X99444520Y-51195262D01*
X99445375Y-51205448D01*
X99456242Y-51334848D01*
X99461759Y-51400553D01*
X99463458Y-51406478D01*
X99501534Y-51539264D01*
X99518544Y-51598586D01*
X99521359Y-51604063D01*
X99521360Y-51604066D01*
X99589153Y-51735977D01*
X99612712Y-51781818D01*
X99740677Y-51943270D01*
X99897564Y-52076791D01*
X100077398Y-52177297D01*
X100161723Y-52204696D01*
X100267471Y-52239056D01*
X100267475Y-52239057D01*
X100273329Y-52240959D01*
X100477894Y-52265351D01*
X100484029Y-52264879D01*
X100484031Y-52264879D01*
X100540039Y-52260569D01*
X100683300Y-52249546D01*
X100689230Y-52247890D01*
X100689232Y-52247890D01*
X100875797Y-52195800D01*
X100875796Y-52195800D01*
X100881725Y-52194145D01*
X100887214Y-52191372D01*
X100887220Y-52191370D01*
X101060116Y-52104033D01*
X101065610Y-52101258D01*
X101227951Y-51974424D01*
X101362564Y-51818472D01*
X101367625Y-51809564D01*
X101461276Y-51644707D01*
X101464323Y-51639344D01*
X101529351Y-51443863D01*
X101555171Y-51239474D01*
X101555390Y-51223806D01*
X101555534Y-51213522D01*
X101555534Y-51213518D01*
X101555583Y-51210000D01*
X101535480Y-51004970D01*
X101475935Y-50807749D01*
X101379218Y-50625849D01*
X101272522Y-50495027D01*
X101252906Y-50470975D01*
X101252903Y-50470972D01*
X101249011Y-50466200D01*
X101236458Y-50455815D01*
X101095025Y-50338811D01*
X101095021Y-50338809D01*
X101090275Y-50334882D01*
X100909055Y-50236897D01*
X100712254Y-50175977D01*
X100706129Y-50175333D01*
X100706128Y-50175333D01*
X100513498Y-50155087D01*
X100513496Y-50155087D01*
X100507369Y-50154443D01*
X100420529Y-50162346D01*
X100308342Y-50172555D01*
X100308339Y-50172556D01*
X100302203Y-50173114D01*
X100104572Y-50231280D01*
X99922002Y-50326726D01*
X99917201Y-50330586D01*
X99917198Y-50330588D01*
X99767658Y-50450821D01*
X99761447Y-50455815D01*
X99629024Y-50613630D01*
X99626056Y-50619028D01*
X99626053Y-50619033D01*
X99563437Y-50732933D01*
X99529776Y-50794162D01*
X99467484Y-50990532D01*
X99466798Y-50996649D01*
X99466797Y-50996653D01*
X99447575Y-51168026D01*
X99444520Y-51195262D01*
X98750500Y-51195262D01*
X98750500Y-48655262D01*
X99444520Y-48655262D01*
X99445036Y-48661406D01*
X99459596Y-48834790D01*
X99461759Y-48860553D01*
X99463458Y-48866478D01*
X99505630Y-49013548D01*
X99518544Y-49058586D01*
X99521359Y-49064063D01*
X99521360Y-49064066D01*
X99605755Y-49228282D01*
X99612712Y-49241818D01*
X99740677Y-49403270D01*
X99745370Y-49407264D01*
X99745371Y-49407265D01*
X99782129Y-49438548D01*
X99897564Y-49536791D01*
X100077398Y-49637297D01*
X100140743Y-49657879D01*
X100267471Y-49699056D01*
X100267475Y-49699057D01*
X100273329Y-49700959D01*
X100477894Y-49725351D01*
X100484029Y-49724879D01*
X100484031Y-49724879D01*
X100540039Y-49720569D01*
X100683300Y-49709546D01*
X100689230Y-49707890D01*
X100689232Y-49707890D01*
X100875797Y-49655800D01*
X100875796Y-49655800D01*
X100881725Y-49654145D01*
X100887214Y-49651372D01*
X100887220Y-49651370D01*
X101060116Y-49564033D01*
X101065610Y-49561258D01*
X101227951Y-49434424D01*
X101233603Y-49427877D01*
X101358540Y-49283134D01*
X101358540Y-49283133D01*
X101362564Y-49278472D01*
X101383387Y-49241818D01*
X101433295Y-49153963D01*
X101464323Y-49099344D01*
X101470184Y-49081726D01*
X101510666Y-49023403D01*
X101576254Y-48996224D01*
X101589741Y-48995500D01*
X102265256Y-48995500D01*
X102276238Y-48995980D01*
X102302786Y-48998303D01*
X102302788Y-48998303D01*
X102313773Y-48999264D01*
X102350181Y-48989508D01*
X102360908Y-48987130D01*
X102364267Y-48986538D01*
X102398011Y-48980588D01*
X102407556Y-48975077D01*
X102410832Y-48973885D01*
X102414000Y-48972408D01*
X102424650Y-48969554D01*
X102455510Y-48947945D01*
X102464781Y-48942039D01*
X102487872Y-48928707D01*
X102497421Y-48923194D01*
X102521651Y-48894317D01*
X102529077Y-48886215D01*
X102883335Y-48531957D01*
X102945647Y-48497931D01*
X102988875Y-48496130D01*
X103055718Y-48504930D01*
X103063906Y-48503852D01*
X103204292Y-48485370D01*
X103212480Y-48484292D01*
X103220107Y-48481133D01*
X103220110Y-48481132D01*
X103225773Y-48478786D01*
X103296363Y-48471198D01*
X103359850Y-48502979D01*
X103396076Y-48564038D01*
X103399989Y-48595196D01*
X103399989Y-48741275D01*
X103393044Y-48780664D01*
X103389412Y-48786955D01*
X103383558Y-48820159D01*
X103382870Y-48824058D01*
X103380492Y-48834785D01*
X103370736Y-48871193D01*
X103371697Y-48882178D01*
X103371697Y-48882180D01*
X103374020Y-48908728D01*
X103374500Y-48919710D01*
X103374500Y-50125321D01*
X103354498Y-50193442D01*
X103348462Y-50202025D01*
X103280494Y-50290603D01*
X103280492Y-50290606D01*
X103275464Y-50297159D01*
X103214956Y-50443238D01*
X103194318Y-50600000D01*
X103203029Y-50666163D01*
X103203118Y-50666842D01*
X103192179Y-50736990D01*
X103167291Y-50772383D01*
X102939702Y-50999972D01*
X102936545Y-51004481D01*
X102936543Y-51004483D01*
X102909849Y-51042606D01*
X102890446Y-51070316D01*
X102860736Y-51181193D01*
X102861697Y-51192178D01*
X102861697Y-51192180D01*
X102869780Y-51284563D01*
X102870741Y-51295545D01*
X102919253Y-51399580D01*
X103000420Y-51480747D01*
X103104454Y-51529259D01*
X103115435Y-51530220D01*
X103115436Y-51530220D01*
X103207819Y-51538303D01*
X103207821Y-51538303D01*
X103218807Y-51539264D01*
X103329684Y-51509554D01*
X103364169Y-51485407D01*
X103395517Y-51463457D01*
X103395519Y-51463455D01*
X103400028Y-51460298D01*
X103627617Y-51232709D01*
X103689929Y-51198683D01*
X103733157Y-51196882D01*
X103800000Y-51205682D01*
X103808188Y-51204604D01*
X103832480Y-51201406D01*
X103901009Y-51192384D01*
X103948574Y-51186122D01*
X103956762Y-51185044D01*
X104102841Y-51124536D01*
X104228282Y-51028282D01*
X104324536Y-50902841D01*
X104385044Y-50756762D01*
X104391301Y-50709239D01*
X104404604Y-50608188D01*
X104405682Y-50600000D01*
X104385044Y-50443238D01*
X104324536Y-50297159D01*
X104228282Y-50171718D01*
X104102841Y-50075464D01*
X104095212Y-50072304D01*
X104088499Y-50068428D01*
X104039506Y-50017045D01*
X104025500Y-49959309D01*
X104025500Y-49726000D01*
X104045502Y-49657879D01*
X104099158Y-49611386D01*
X104151500Y-49600000D01*
X104331885Y-49600000D01*
X104347124Y-49595525D01*
X104348329Y-49594135D01*
X104350000Y-49586452D01*
X104350000Y-49581884D01*
X104650000Y-49581884D01*
X104654475Y-49597123D01*
X104655865Y-49598328D01*
X104663548Y-49599999D01*
X104976525Y-49599999D01*
X104986374Y-49599224D01*
X105065351Y-49586717D01*
X105083986Y-49580662D01*
X105179213Y-49532141D01*
X105195056Y-49520630D01*
X105260905Y-49454781D01*
X105323217Y-49420755D01*
X105394032Y-49425820D01*
X105439095Y-49454781D01*
X105504944Y-49520630D01*
X105520787Y-49532141D01*
X105616018Y-49580664D01*
X105634645Y-49586716D01*
X105713627Y-49599225D01*
X105723473Y-49600000D01*
X106031885Y-49600000D01*
X106047124Y-49595525D01*
X106048329Y-49594135D01*
X106050000Y-49586452D01*
X106050000Y-49581884D01*
X106350000Y-49581884D01*
X106354475Y-49597123D01*
X106355865Y-49598328D01*
X106363548Y-49599999D01*
X106676525Y-49599999D01*
X106686374Y-49599224D01*
X106765351Y-49586717D01*
X106783986Y-49580662D01*
X106879213Y-49532141D01*
X106895056Y-49520630D01*
X106970630Y-49445056D01*
X106982141Y-49429213D01*
X107030664Y-49333982D01*
X107036716Y-49315355D01*
X107049225Y-49236373D01*
X107050000Y-49226527D01*
X107050000Y-49018115D01*
X107045525Y-49002876D01*
X107044135Y-49001671D01*
X107036452Y-49000000D01*
X106368115Y-49000000D01*
X106352876Y-49004475D01*
X106351671Y-49005865D01*
X106350000Y-49013548D01*
X106350000Y-49581884D01*
X106050000Y-49581884D01*
X106050000Y-49018115D01*
X106045525Y-49002876D01*
X106044135Y-49001671D01*
X106036452Y-49000000D01*
X104668115Y-49000000D01*
X104652876Y-49004475D01*
X104651671Y-49005865D01*
X104650000Y-49013548D01*
X104650000Y-49581884D01*
X104350000Y-49581884D01*
X104350000Y-48826000D01*
X104370002Y-48757879D01*
X104423658Y-48711386D01*
X104476000Y-48700000D01*
X106031885Y-48700000D01*
X106047124Y-48695525D01*
X106048329Y-48694135D01*
X106050000Y-48686452D01*
X106050000Y-48681885D01*
X106350000Y-48681885D01*
X106354475Y-48697124D01*
X106355865Y-48698329D01*
X106363548Y-48700000D01*
X107031884Y-48700000D01*
X107047123Y-48695525D01*
X107048328Y-48694135D01*
X107049999Y-48686452D01*
X107049999Y-48473475D01*
X107049224Y-48463626D01*
X107036717Y-48384649D01*
X107030662Y-48366014D01*
X106982141Y-48270787D01*
X106970630Y-48254944D01*
X106895056Y-48179370D01*
X106879213Y-48167859D01*
X106783982Y-48119336D01*
X106765355Y-48113284D01*
X106686373Y-48100775D01*
X106676527Y-48100000D01*
X106368115Y-48100000D01*
X106352876Y-48104475D01*
X106351671Y-48105865D01*
X106350000Y-48113548D01*
X106350000Y-48681885D01*
X106050000Y-48681885D01*
X106050000Y-48118116D01*
X106045525Y-48102877D01*
X106044135Y-48101672D01*
X106036452Y-48100001D01*
X106014515Y-48100001D01*
X105946394Y-48079999D01*
X105899901Y-48026343D01*
X105889797Y-47956069D01*
X105919291Y-47891489D01*
X105925420Y-47884906D01*
X106072921Y-47737405D01*
X106135233Y-47703379D01*
X106162016Y-47700500D01*
X106669748Y-47700500D01*
X106675816Y-47699293D01*
X106716061Y-47691288D01*
X106716062Y-47691288D01*
X106728231Y-47688867D01*
X106794552Y-47644552D01*
X106838867Y-47578231D01*
X106842871Y-47558105D01*
X106849293Y-47525816D01*
X106850500Y-47519748D01*
X106850500Y-46780252D01*
X106843117Y-46743134D01*
X106841288Y-46733939D01*
X106841288Y-46733938D01*
X106838867Y-46721769D01*
X106794552Y-46655448D01*
X106728231Y-46611133D01*
X106716062Y-46608712D01*
X106716061Y-46608712D01*
X106675816Y-46600707D01*
X106669748Y-46599500D01*
X106062016Y-46599500D01*
X105993895Y-46579498D01*
X105972921Y-46562595D01*
X105566842Y-46156516D01*
X105532816Y-46094204D01*
X105537881Y-46023389D01*
X105580428Y-45966553D01*
X105646948Y-45941742D01*
X105655937Y-45941421D01*
X107199001Y-45941421D01*
X107267122Y-45961423D01*
X107313615Y-46015079D01*
X107325001Y-46067421D01*
X107325001Y-46117946D01*
X107325776Y-46127795D01*
X107338283Y-46206772D01*
X107344338Y-46225407D01*
X107392859Y-46320634D01*
X107404370Y-46336477D01*
X107479944Y-46412051D01*
X107495787Y-46423562D01*
X107591018Y-46472085D01*
X107609645Y-46478137D01*
X107688627Y-46490646D01*
X107698473Y-46491421D01*
X107931885Y-46491421D01*
X107947124Y-46486946D01*
X107948329Y-46485556D01*
X107950000Y-46477873D01*
X107950000Y-45617421D01*
X107970002Y-45549300D01*
X108023658Y-45502807D01*
X108076000Y-45491421D01*
X108856884Y-45491421D01*
X108872123Y-45486946D01*
X108873328Y-45485556D01*
X108874999Y-45477873D01*
X108874999Y-45164896D01*
X108874224Y-45155047D01*
X108861717Y-45076070D01*
X108855662Y-45057435D01*
X108807141Y-44962208D01*
X108795630Y-44946365D01*
X108720056Y-44870791D01*
X108704213Y-44859280D01*
X108652451Y-44832906D01*
X108600836Y-44784158D01*
X108583770Y-44715243D01*
X108606671Y-44648041D01*
X108613331Y-44640130D01*
X108619552Y-44635973D01*
X108663867Y-44569652D01*
X108666907Y-44554372D01*
X108675500Y-44511169D01*
X108677238Y-44511515D01*
X108700677Y-44453481D01*
X108758635Y-44412476D01*
X108829561Y-44409315D01*
X108876185Y-44431710D01*
X108990603Y-44519506D01*
X108990606Y-44519508D01*
X108997159Y-44524536D01*
X109143238Y-44585044D01*
X109151426Y-44586122D01*
X109194646Y-44591812D01*
X109300000Y-44605682D01*
X109308188Y-44604604D01*
X109448574Y-44586122D01*
X109456762Y-44585044D01*
X109602841Y-44524536D01*
X109728282Y-44428282D01*
X109824536Y-44302841D01*
X109885044Y-44156762D01*
X109887501Y-44138103D01*
X109904604Y-44008188D01*
X109905682Y-44000000D01*
X109885044Y-43843238D01*
X109824536Y-43697159D01*
X109748873Y-43598553D01*
X109733305Y-43578264D01*
X109728282Y-43571718D01*
X109602841Y-43475464D01*
X109456762Y-43414956D01*
X109448574Y-43413878D01*
X109343898Y-43400097D01*
X109278971Y-43371374D01*
X109239880Y-43312109D01*
X109239035Y-43241118D01*
X109276705Y-43180939D01*
X109287178Y-43172596D01*
X109315205Y-43152605D01*
X109323606Y-43141904D01*
X109316619Y-43128751D01*
X108462812Y-42274944D01*
X108448868Y-42267330D01*
X108447035Y-42267461D01*
X108440420Y-42271712D01*
X107584465Y-43127667D01*
X107577206Y-43140960D01*
X107584350Y-43151020D01*
X107640268Y-43197444D01*
X107642462Y-43198981D01*
X107643139Y-43199828D01*
X107644241Y-43200743D01*
X107644052Y-43200971D01*
X107686786Y-43254441D01*
X107694089Y-43325061D01*
X107662054Y-43388419D01*
X107640185Y-43406953D01*
X107590763Y-43439976D01*
X107590761Y-43439978D01*
X107580448Y-43446869D01*
X107536133Y-43513190D01*
X107524500Y-43571673D01*
X107524500Y-43590335D01*
X107504498Y-43658456D01*
X107450842Y-43704949D01*
X107429358Y-43710612D01*
X107429772Y-43712158D01*
X107393383Y-43721909D01*
X107382648Y-43724289D01*
X107375087Y-43725622D01*
X107345534Y-43730833D01*
X107335986Y-43736345D01*
X107332709Y-43737538D01*
X107329541Y-43739015D01*
X107318895Y-43741868D01*
X107309866Y-43748190D01*
X107288032Y-43763478D01*
X107278764Y-43769382D01*
X107246124Y-43788227D01*
X107239041Y-43796668D01*
X107239040Y-43796669D01*
X107221899Y-43817097D01*
X107214473Y-43825200D01*
X107135157Y-43904516D01*
X107072845Y-43938542D01*
X107046062Y-43941421D01*
X103700000Y-43941421D01*
X103700000Y-43989921D01*
X103679998Y-44058042D01*
X103626342Y-44104535D01*
X103574000Y-44115921D01*
X103278289Y-44115921D01*
X103267307Y-44115441D01*
X103240759Y-44113118D01*
X103240757Y-44113118D01*
X103229772Y-44112157D01*
X103193364Y-44121913D01*
X103182637Y-44124291D01*
X103179278Y-44124883D01*
X103145534Y-44130833D01*
X103135989Y-44136344D01*
X103132713Y-44137536D01*
X103129545Y-44139013D01*
X103118895Y-44141867D01*
X103109864Y-44148191D01*
X103088035Y-44163476D01*
X103078764Y-44169382D01*
X103059116Y-44180726D01*
X103046124Y-44188227D01*
X103031934Y-44205138D01*
X103021894Y-44217103D01*
X103014468Y-44225206D01*
X102783785Y-44455889D01*
X102775681Y-44463316D01*
X102746806Y-44487545D01*
X102741293Y-44497094D01*
X102727961Y-44520185D01*
X102722055Y-44529456D01*
X102700446Y-44560316D01*
X102697592Y-44570966D01*
X102696115Y-44574134D01*
X102694923Y-44577410D01*
X102689412Y-44586955D01*
X102683752Y-44619056D01*
X102682870Y-44624058D01*
X102680492Y-44634785D01*
X102670736Y-44671193D01*
X102671697Y-44682178D01*
X102671697Y-44682180D01*
X102674020Y-44708728D01*
X102674500Y-44719710D01*
X102674500Y-45680290D01*
X102674020Y-45691272D01*
X102672490Y-45708765D01*
X102670736Y-45728807D01*
X102673590Y-45739456D01*
X102680491Y-45765210D01*
X102682870Y-45775942D01*
X102689412Y-45813045D01*
X102694923Y-45822590D01*
X102696115Y-45825866D01*
X102697592Y-45829034D01*
X102700446Y-45839684D01*
X102706770Y-45848715D01*
X102722055Y-45870544D01*
X102727961Y-45879815D01*
X102741293Y-45902906D01*
X102746806Y-45912455D01*
X102755251Y-45919541D01*
X102775682Y-45936685D01*
X102783785Y-45944111D01*
X103576557Y-46736883D01*
X103610583Y-46799195D01*
X103605518Y-46870010D01*
X103583985Y-46906967D01*
X103568272Y-46925693D01*
X103560855Y-46933785D01*
X103228101Y-47266539D01*
X103165789Y-47300565D01*
X103122561Y-47302366D01*
X103055718Y-47293566D01*
X102898956Y-47314204D01*
X102752877Y-47374712D01*
X102627436Y-47470966D01*
X102531182Y-47596407D01*
X102470674Y-47742486D01*
X102450036Y-47899248D01*
X102451114Y-47907436D01*
X102458836Y-47966090D01*
X102447897Y-48036238D01*
X102423009Y-48071631D01*
X102187045Y-48307595D01*
X102124733Y-48341621D01*
X102097950Y-48344500D01*
X101591269Y-48344500D01*
X101523148Y-48324498D01*
X101476008Y-48267991D01*
X101475935Y-48267749D01*
X101379218Y-48085849D01*
X101256960Y-47935946D01*
X101252906Y-47930975D01*
X101252903Y-47930972D01*
X101249011Y-47926200D01*
X101229661Y-47910192D01*
X101095025Y-47798811D01*
X101095021Y-47798809D01*
X101090275Y-47794882D01*
X100909055Y-47696897D01*
X100712254Y-47635977D01*
X100706129Y-47635333D01*
X100706128Y-47635333D01*
X100513498Y-47615087D01*
X100513496Y-47615087D01*
X100507369Y-47614443D01*
X100420529Y-47622346D01*
X100308342Y-47632555D01*
X100308339Y-47632556D01*
X100302203Y-47633114D01*
X100104572Y-47691280D01*
X100099107Y-47694137D01*
X100020584Y-47735188D01*
X99922002Y-47786726D01*
X99917201Y-47790586D01*
X99917198Y-47790588D01*
X99775051Y-47904877D01*
X99761447Y-47915815D01*
X99629024Y-48073630D01*
X99626056Y-48079028D01*
X99626053Y-48079033D01*
X99548496Y-48220110D01*
X99529776Y-48254162D01*
X99467484Y-48450532D01*
X99466798Y-48456649D01*
X99466797Y-48456653D01*
X99463697Y-48484292D01*
X99444520Y-48655262D01*
X98750500Y-48655262D01*
X98750500Y-43756273D01*
X99259772Y-43756273D01*
X99263809Y-43802411D01*
X99265710Y-43813197D01*
X99319474Y-44013848D01*
X99323220Y-44024140D01*
X99411007Y-44212400D01*
X99416490Y-44221896D01*
X99535628Y-44392043D01*
X99542684Y-44400451D01*
X99689549Y-44547316D01*
X99697957Y-44554372D01*
X99868104Y-44673510D01*
X99877599Y-44678993D01*
X100065860Y-44766780D01*
X100076152Y-44770526D01*
X100276796Y-44824288D01*
X100287592Y-44826192D01*
X100384011Y-44834627D01*
X100450130Y-44860490D01*
X100491769Y-44917994D01*
X100495710Y-44988881D01*
X100460701Y-45050646D01*
X100397857Y-45083678D01*
X100384450Y-45085629D01*
X100367731Y-45087151D01*
X100302203Y-45093114D01*
X100104572Y-45151280D01*
X99922002Y-45246726D01*
X99917201Y-45250586D01*
X99917198Y-45250588D01*
X99770358Y-45368650D01*
X99761447Y-45375815D01*
X99629024Y-45533630D01*
X99626056Y-45539028D01*
X99626053Y-45539033D01*
X99549381Y-45678500D01*
X99529776Y-45714162D01*
X99467484Y-45910532D01*
X99466798Y-45916649D01*
X99466797Y-45916653D01*
X99449886Y-46067421D01*
X99444520Y-46115262D01*
X99445036Y-46121406D01*
X99461139Y-46313165D01*
X99461759Y-46320553D01*
X99463458Y-46326478D01*
X99510755Y-46491421D01*
X99518544Y-46518586D01*
X99521359Y-46524063D01*
X99521360Y-46524066D01*
X99606190Y-46689127D01*
X99612712Y-46701818D01*
X99740677Y-46863270D01*
X99745370Y-46867264D01*
X99745371Y-46867265D01*
X99885208Y-46986275D01*
X99897564Y-46996791D01*
X99902942Y-46999797D01*
X99902944Y-46999798D01*
X99959779Y-47031562D01*
X100077398Y-47097297D01*
X100172238Y-47128113D01*
X100267471Y-47159056D01*
X100267475Y-47159057D01*
X100273329Y-47160959D01*
X100477894Y-47185351D01*
X100484029Y-47184879D01*
X100484031Y-47184879D01*
X100540039Y-47180569D01*
X100683300Y-47169546D01*
X100689230Y-47167890D01*
X100689232Y-47167890D01*
X100875797Y-47115800D01*
X100875796Y-47115800D01*
X100881725Y-47114145D01*
X100887214Y-47111372D01*
X100887220Y-47111370D01*
X101044473Y-47031935D01*
X101065610Y-47021258D01*
X101090142Y-47002092D01*
X101223101Y-46898213D01*
X101227951Y-46894424D01*
X101243923Y-46875921D01*
X101358540Y-46743134D01*
X101358540Y-46743133D01*
X101362564Y-46738472D01*
X101383387Y-46701818D01*
X101430987Y-46618026D01*
X101464323Y-46559344D01*
X101529351Y-46363863D01*
X101555171Y-46159474D01*
X101555583Y-46130000D01*
X101535480Y-45924970D01*
X101475935Y-45727749D01*
X101379218Y-45545849D01*
X101303995Y-45453617D01*
X101252906Y-45390975D01*
X101252903Y-45390972D01*
X101249011Y-45386200D01*
X101242173Y-45380543D01*
X101095025Y-45258811D01*
X101095021Y-45258809D01*
X101090275Y-45254882D01*
X100909055Y-45156897D01*
X100712254Y-45095977D01*
X100706129Y-45095333D01*
X100706128Y-45095333D01*
X100657560Y-45090228D01*
X100612912Y-45085536D01*
X100547255Y-45058523D01*
X100506625Y-45000301D01*
X100503922Y-44929356D01*
X100540004Y-44868212D01*
X100603415Y-44836282D01*
X100615100Y-44834705D01*
X100712409Y-44826191D01*
X100723204Y-44824288D01*
X100923848Y-44770526D01*
X100934140Y-44766780D01*
X101122401Y-44678993D01*
X101131896Y-44673510D01*
X101302043Y-44554372D01*
X101310451Y-44547316D01*
X101457316Y-44400451D01*
X101464372Y-44392043D01*
X101583510Y-44221896D01*
X101588993Y-44212400D01*
X101676780Y-44024140D01*
X101680526Y-44013848D01*
X101734290Y-43813197D01*
X101736191Y-43802411D01*
X101740073Y-43758048D01*
X101737069Y-43743099D01*
X101725317Y-43740000D01*
X99276463Y-43740000D01*
X99261835Y-43744295D01*
X99259772Y-43756273D01*
X98750500Y-43756273D01*
X98750500Y-43421952D01*
X99259927Y-43421952D01*
X99262931Y-43436901D01*
X99274683Y-43440000D01*
X101723537Y-43440000D01*
X101738165Y-43435705D01*
X101740228Y-43423727D01*
X101736191Y-43377589D01*
X101734290Y-43366803D01*
X101680526Y-43166152D01*
X101676780Y-43155860D01*
X101588993Y-42967600D01*
X101583510Y-42958104D01*
X101464372Y-42787957D01*
X101457316Y-42779549D01*
X101310451Y-42632684D01*
X101302043Y-42625628D01*
X101131896Y-42506490D01*
X101122401Y-42501007D01*
X100934140Y-42413220D01*
X100923848Y-42409474D01*
X100723204Y-42355712D01*
X100712409Y-42353809D01*
X100691977Y-42352021D01*
X100625859Y-42326157D01*
X100584220Y-42268654D01*
X100580279Y-42197767D01*
X100615288Y-42136002D01*
X100678133Y-42102970D01*
X100702959Y-42100500D01*
X101369748Y-42100500D01*
X101375816Y-42099293D01*
X101416061Y-42091288D01*
X101416062Y-42091288D01*
X101428231Y-42088867D01*
X101494552Y-42044552D01*
X101538867Y-41978231D01*
X101550500Y-41919748D01*
X101550500Y-41169748D01*
X102699500Y-41169748D01*
X102700707Y-41175816D01*
X102706408Y-41204475D01*
X102711133Y-41228231D01*
X102755448Y-41294552D01*
X102821769Y-41338867D01*
X102833938Y-41341288D01*
X102833939Y-41341288D01*
X102862621Y-41346993D01*
X102880252Y-41350500D01*
X103123500Y-41350500D01*
X103191621Y-41370502D01*
X103238114Y-41424158D01*
X103249500Y-41476500D01*
X103249500Y-41657901D01*
X103229498Y-41726022D01*
X103223463Y-41734605D01*
X103219558Y-41739694D01*
X103175464Y-41797159D01*
X103114956Y-41943238D01*
X103094318Y-42100000D01*
X103114956Y-42256762D01*
X103118116Y-42264391D01*
X103122487Y-42274944D01*
X103175464Y-42402841D01*
X103271718Y-42528282D01*
X103397159Y-42624536D01*
X103543238Y-42685044D01*
X103551426Y-42686122D01*
X103621619Y-42695363D01*
X103700000Y-42705682D01*
X103708188Y-42704604D01*
X103848574Y-42686122D01*
X103856762Y-42685044D01*
X104002841Y-42624536D01*
X104128282Y-42528282D01*
X104224536Y-42402841D01*
X104277513Y-42274944D01*
X104281884Y-42264391D01*
X104285044Y-42256762D01*
X104305682Y-42100000D01*
X104285044Y-41943238D01*
X104224536Y-41797159D01*
X104128282Y-41671718D01*
X104099796Y-41649860D01*
X104057929Y-41592522D01*
X104050500Y-41549897D01*
X104050500Y-41476500D01*
X104070502Y-41408379D01*
X104124158Y-41361886D01*
X104176500Y-41350500D01*
X104419748Y-41350500D01*
X104437379Y-41346993D01*
X104466061Y-41341288D01*
X104466062Y-41341288D01*
X104478231Y-41338867D01*
X104544552Y-41294552D01*
X104588867Y-41228231D01*
X104593593Y-41204475D01*
X104599152Y-41176525D01*
X105000001Y-41176525D01*
X105000776Y-41186374D01*
X105013283Y-41265351D01*
X105019338Y-41283986D01*
X105067859Y-41379213D01*
X105079370Y-41395056D01*
X105154944Y-41470630D01*
X105170787Y-41482141D01*
X105266018Y-41530664D01*
X105284645Y-41536716D01*
X105363627Y-41549225D01*
X105373473Y-41550000D01*
X105981885Y-41550000D01*
X105997124Y-41545525D01*
X105998329Y-41544135D01*
X106000000Y-41536452D01*
X106000000Y-41531884D01*
X106300000Y-41531884D01*
X106304475Y-41547123D01*
X106305865Y-41548328D01*
X106313548Y-41549999D01*
X106926525Y-41549999D01*
X106936378Y-41549224D01*
X106951658Y-41546804D01*
X107022068Y-41555905D01*
X107076381Y-41601628D01*
X107097352Y-41669457D01*
X107092782Y-41704925D01*
X107071467Y-41781783D01*
X107069536Y-41791904D01*
X107046169Y-42010546D01*
X107045918Y-42020834D01*
X107058575Y-42240341D01*
X107060011Y-42250562D01*
X107108349Y-42465050D01*
X107111428Y-42474878D01*
X107194153Y-42678605D01*
X107198796Y-42687796D01*
X107313688Y-42875282D01*
X107319764Y-42883584D01*
X107347135Y-42915182D01*
X107360219Y-42923593D01*
X107370192Y-42917676D01*
X108225056Y-42062812D01*
X108231434Y-42051132D01*
X108667330Y-42051132D01*
X108667461Y-42052965D01*
X108671712Y-42059580D01*
X109529073Y-42916941D01*
X109541083Y-42923500D01*
X109552823Y-42914532D01*
X109651129Y-42777723D01*
X109656440Y-42768885D01*
X109753854Y-42571782D01*
X109757653Y-42562187D01*
X109821568Y-42351821D01*
X109823747Y-42341740D01*
X109852684Y-42121945D01*
X109853203Y-42115272D01*
X109854716Y-42053365D01*
X109854522Y-42046646D01*
X109836359Y-41825721D01*
X109834674Y-41815541D01*
X109781111Y-41602300D01*
X109777786Y-41592534D01*
X109690118Y-41390911D01*
X109685240Y-41381814D01*
X109565818Y-41197214D01*
X109559526Y-41189044D01*
X109554358Y-41183364D01*
X109554118Y-41183218D01*
X112299500Y-41183218D01*
X112300170Y-41187768D01*
X112300170Y-41187771D01*
X112308216Y-41242426D01*
X112309642Y-41252112D01*
X112361068Y-41356855D01*
X112399336Y-41395056D01*
X112428489Y-41424158D01*
X112443650Y-41439293D01*
X112548482Y-41490536D01*
X112578973Y-41494984D01*
X112612256Y-41499840D01*
X112612260Y-41499840D01*
X112616782Y-41500500D01*
X112983218Y-41500500D01*
X112987768Y-41499830D01*
X112987771Y-41499830D01*
X113042426Y-41491784D01*
X113042427Y-41491784D01*
X113052112Y-41490358D01*
X113146804Y-41443867D01*
X113147507Y-41443522D01*
X113147509Y-41443521D01*
X113156855Y-41438932D01*
X113198273Y-41397442D01*
X113231935Y-41363721D01*
X113231935Y-41363720D01*
X113239293Y-41356350D01*
X113246656Y-41341288D01*
X113266132Y-41301443D01*
X113290536Y-41251518D01*
X113293843Y-41228850D01*
X113323469Y-41164330D01*
X113383275Y-41126070D01*
X113454271Y-41126217D01*
X113507618Y-41157944D01*
X113635692Y-41286018D01*
X113669718Y-41348330D01*
X113664653Y-41419145D01*
X113622106Y-41475981D01*
X113564948Y-41499770D01*
X113507574Y-41508216D01*
X113507573Y-41508216D01*
X113497888Y-41509642D01*
X113455071Y-41530664D01*
X113402493Y-41556478D01*
X113402491Y-41556479D01*
X113393145Y-41561068D01*
X113310707Y-41643650D01*
X113259464Y-41748482D01*
X113258052Y-41758162D01*
X113251250Y-41804789D01*
X113249500Y-41816782D01*
X113249500Y-43058218D01*
X113250170Y-43062768D01*
X113250170Y-43062771D01*
X113258216Y-43117426D01*
X113259642Y-43127112D01*
X113278810Y-43166152D01*
X113295344Y-43199828D01*
X113311068Y-43231855D01*
X113340962Y-43261697D01*
X113387518Y-43308172D01*
X113421597Y-43370455D01*
X113424500Y-43397345D01*
X113424500Y-43423500D01*
X113404498Y-43491621D01*
X113350842Y-43538114D01*
X113298500Y-43549500D01*
X113280252Y-43549500D01*
X113274184Y-43550707D01*
X113233939Y-43558712D01*
X113233938Y-43558712D01*
X113221769Y-43561133D01*
X113155448Y-43605448D01*
X113111133Y-43671769D01*
X113108712Y-43683938D01*
X113108712Y-43683939D01*
X113104565Y-43704789D01*
X113099500Y-43730252D01*
X113099500Y-44669748D01*
X113100707Y-44675816D01*
X113108550Y-44715243D01*
X113111133Y-44728231D01*
X113155448Y-44794552D01*
X113221769Y-44838867D01*
X113233938Y-44841288D01*
X113233939Y-44841288D01*
X113270589Y-44848578D01*
X113280252Y-44850500D01*
X114019748Y-44850500D01*
X114029411Y-44848578D01*
X114066061Y-44841288D01*
X114066062Y-44841288D01*
X114078231Y-44838867D01*
X114088547Y-44831974D01*
X114100017Y-44827223D01*
X114100995Y-44829585D01*
X114152053Y-44813599D01*
X114220520Y-44832383D01*
X114267990Y-44888167D01*
X114268175Y-44888060D01*
X114268757Y-44889068D01*
X114270709Y-44891362D01*
X114275464Y-44902841D01*
X114371718Y-45028282D01*
X114497159Y-45124536D01*
X114643238Y-45185044D01*
X114800000Y-45205682D01*
X114808188Y-45204604D01*
X114948574Y-45186122D01*
X114956762Y-45185044D01*
X115102841Y-45124536D01*
X115228282Y-45028282D01*
X115324536Y-44902841D01*
X115385044Y-44756762D01*
X115405682Y-44600000D01*
X115385044Y-44443238D01*
X115363839Y-44392043D01*
X115346384Y-44349904D01*
X115338795Y-44279314D01*
X115353735Y-44249467D01*
X115324028Y-44250844D01*
X115262588Y-44215268D01*
X115253926Y-44205138D01*
X115233305Y-44178264D01*
X115228282Y-44171718D01*
X115221657Y-44166634D01*
X115109392Y-44080491D01*
X115102841Y-44075464D01*
X114956762Y-44014956D01*
X114800000Y-43994318D01*
X114791812Y-43995396D01*
X114735548Y-44002803D01*
X114665399Y-43991863D01*
X114622582Y-43958874D01*
X114619543Y-43955253D01*
X114619542Y-43955252D01*
X114612455Y-43946806D01*
X114598141Y-43938542D01*
X114579815Y-43927961D01*
X114570544Y-43922055D01*
X114548715Y-43906770D01*
X114539684Y-43900446D01*
X114529034Y-43897592D01*
X114525866Y-43896115D01*
X114522590Y-43894923D01*
X114513045Y-43889412D01*
X114479301Y-43883462D01*
X114475942Y-43882870D01*
X114465215Y-43880492D01*
X114428807Y-43870736D01*
X114417822Y-43871697D01*
X114417820Y-43871697D01*
X114391272Y-43874020D01*
X114380290Y-43874500D01*
X114326500Y-43874500D01*
X114258379Y-43854498D01*
X114211886Y-43800842D01*
X114200500Y-43748500D01*
X114200500Y-43730252D01*
X114195435Y-43704789D01*
X114191288Y-43683939D01*
X114191288Y-43683938D01*
X114188867Y-43671769D01*
X114144552Y-43605448D01*
X114134239Y-43598557D01*
X114134235Y-43598553D01*
X114131499Y-43596725D01*
X114126879Y-43591197D01*
X114125460Y-43589778D01*
X114125587Y-43589651D01*
X114085971Y-43542249D01*
X114075500Y-43491960D01*
X114075500Y-43397468D01*
X114095502Y-43329347D01*
X114112327Y-43308450D01*
X114113840Y-43306935D01*
X114189293Y-43231350D01*
X114240536Y-43126518D01*
X114250500Y-43058218D01*
X114250500Y-42205016D01*
X114270502Y-42136895D01*
X114324158Y-42090402D01*
X114394432Y-42080298D01*
X114459012Y-42109792D01*
X114465595Y-42115921D01*
X115398257Y-43048583D01*
X115432283Y-43110895D01*
X115429264Y-43175776D01*
X115385439Y-43313932D01*
X115367484Y-43370532D01*
X115366798Y-43376649D01*
X115366797Y-43376653D01*
X115351482Y-43513190D01*
X115344520Y-43575262D01*
X115345036Y-43581406D01*
X115358354Y-43740000D01*
X115361759Y-43780553D01*
X115366380Y-43796669D01*
X115412892Y-43958874D01*
X115418544Y-43978586D01*
X115442247Y-44024707D01*
X115465956Y-44070840D01*
X115479303Y-44140570D01*
X115463168Y-44180726D01*
X115502584Y-44182134D01*
X115561538Y-44223421D01*
X115582182Y-44249467D01*
X115636849Y-44318441D01*
X115636852Y-44318444D01*
X115640677Y-44323270D01*
X115645370Y-44327264D01*
X115645371Y-44327265D01*
X115731365Y-44400451D01*
X115797564Y-44456791D01*
X115977398Y-44557297D01*
X116047172Y-44579968D01*
X116167471Y-44619056D01*
X116167475Y-44619057D01*
X116173329Y-44620959D01*
X116377894Y-44645351D01*
X116384029Y-44644879D01*
X116384031Y-44644879D01*
X116440039Y-44640569D01*
X116583300Y-44629546D01*
X116589230Y-44627890D01*
X116589232Y-44627890D01*
X116718449Y-44591812D01*
X116781725Y-44574145D01*
X116787214Y-44571372D01*
X116787220Y-44571370D01*
X116934260Y-44497094D01*
X116965610Y-44481258D01*
X117003794Y-44451426D01*
X117069039Y-44400451D01*
X117127951Y-44354424D01*
X117151555Y-44327079D01*
X117258540Y-44203134D01*
X117258540Y-44203133D01*
X117262564Y-44198472D01*
X117277763Y-44171718D01*
X117309732Y-44115441D01*
X117364323Y-44019344D01*
X117429351Y-43823863D01*
X117455171Y-43619474D01*
X117455390Y-43603806D01*
X117455534Y-43593522D01*
X117455534Y-43593518D01*
X117455583Y-43590000D01*
X117435480Y-43384970D01*
X117375935Y-43187749D01*
X117279218Y-43005849D01*
X117172730Y-42875282D01*
X117152906Y-42850975D01*
X117152903Y-42850972D01*
X117149011Y-42846200D01*
X117144262Y-42842271D01*
X116995025Y-42718811D01*
X116995021Y-42718809D01*
X116990275Y-42714882D01*
X116809055Y-42616897D01*
X116612254Y-42555977D01*
X116606131Y-42555334D01*
X116606129Y-42555333D01*
X116567843Y-42551309D01*
X116502186Y-42524295D01*
X116461557Y-42466073D01*
X116458854Y-42395128D01*
X116494937Y-42333984D01*
X116558348Y-42302054D01*
X116581014Y-42299999D01*
X117276525Y-42299999D01*
X117286374Y-42299224D01*
X117365351Y-42286717D01*
X117383986Y-42280662D01*
X117479213Y-42232141D01*
X117495056Y-42220630D01*
X117570630Y-42145056D01*
X117582141Y-42129213D01*
X117630664Y-42033982D01*
X117636716Y-42015355D01*
X117649225Y-41936373D01*
X117650000Y-41926527D01*
X117650000Y-41218115D01*
X117645525Y-41202876D01*
X117644135Y-41201671D01*
X117636452Y-41200000D01*
X115168116Y-41200000D01*
X115152877Y-41204475D01*
X115151672Y-41205865D01*
X115150001Y-41213548D01*
X115150001Y-41575485D01*
X115129999Y-41643606D01*
X115076343Y-41690099D01*
X115006069Y-41700203D01*
X114941489Y-41670709D01*
X114934906Y-41664580D01*
X114152211Y-40881885D01*
X115150000Y-40881885D01*
X115154475Y-40897124D01*
X115155865Y-40898329D01*
X115163548Y-40900000D01*
X116231885Y-40900000D01*
X116247124Y-40895525D01*
X116248329Y-40894135D01*
X116250000Y-40886452D01*
X116250000Y-40881885D01*
X116550000Y-40881885D01*
X116554475Y-40897124D01*
X116555865Y-40898329D01*
X116563548Y-40900000D01*
X117631884Y-40900000D01*
X117647123Y-40895525D01*
X117648328Y-40894135D01*
X117649999Y-40886452D01*
X117649999Y-40173475D01*
X117649224Y-40163626D01*
X117636717Y-40084649D01*
X117630662Y-40066014D01*
X117582141Y-39970787D01*
X117570630Y-39954944D01*
X117495056Y-39879370D01*
X117479213Y-39867859D01*
X117383982Y-39819336D01*
X117365355Y-39813284D01*
X117286373Y-39800775D01*
X117276527Y-39800000D01*
X116568115Y-39800000D01*
X116552876Y-39804475D01*
X116551671Y-39805865D01*
X116550000Y-39813548D01*
X116550000Y-40881885D01*
X116250000Y-40881885D01*
X116250000Y-39818116D01*
X116245525Y-39802877D01*
X116244135Y-39801672D01*
X116236452Y-39800001D01*
X115523475Y-39800001D01*
X115513626Y-39800776D01*
X115434649Y-39813283D01*
X115416014Y-39819338D01*
X115320787Y-39867859D01*
X115304944Y-39879370D01*
X115229370Y-39954944D01*
X115217859Y-39970787D01*
X115169336Y-40066018D01*
X115163284Y-40084645D01*
X115150775Y-40163627D01*
X115150000Y-40173473D01*
X115150000Y-40881885D01*
X114152211Y-40881885D01*
X113616611Y-40346285D01*
X113609184Y-40338181D01*
X113592041Y-40317751D01*
X113592042Y-40317751D01*
X113584955Y-40309306D01*
X113575406Y-40303793D01*
X113552315Y-40290461D01*
X113543044Y-40284555D01*
X113521215Y-40269270D01*
X113512184Y-40262946D01*
X113501534Y-40260092D01*
X113498366Y-40258615D01*
X113495090Y-40257423D01*
X113485545Y-40251912D01*
X113451801Y-40245962D01*
X113448442Y-40245370D01*
X113437715Y-40242992D01*
X113401308Y-40233236D01*
X113401889Y-40231070D01*
X113349402Y-40210540D01*
X113307762Y-40153038D01*
X113300500Y-40110881D01*
X113300500Y-39941782D01*
X113291871Y-39883162D01*
X113291784Y-39882574D01*
X113291784Y-39882573D01*
X113290358Y-39872888D01*
X113256769Y-39804475D01*
X113243522Y-39777493D01*
X113243521Y-39777491D01*
X113238932Y-39768145D01*
X113156350Y-39685707D01*
X113051518Y-39634464D01*
X113021027Y-39630016D01*
X112987744Y-39625160D01*
X112987740Y-39625160D01*
X112983218Y-39624500D01*
X112616782Y-39624500D01*
X112612232Y-39625170D01*
X112612229Y-39625170D01*
X112557574Y-39633216D01*
X112557573Y-39633216D01*
X112547888Y-39634642D01*
X112497992Y-39659140D01*
X112452493Y-39681478D01*
X112452491Y-39681479D01*
X112443145Y-39686068D01*
X112360707Y-39768650D01*
X112356134Y-39778006D01*
X112356133Y-39778007D01*
X112345383Y-39800000D01*
X112309464Y-39873482D01*
X112299500Y-39941782D01*
X112299500Y-41183218D01*
X109554118Y-41183218D01*
X109540793Y-41175105D01*
X109540538Y-41175111D01*
X109531523Y-41180609D01*
X108674944Y-42037188D01*
X108667330Y-42051132D01*
X108231434Y-42051132D01*
X108232670Y-42048868D01*
X108232539Y-42047035D01*
X108228288Y-42040420D01*
X107369268Y-41181400D01*
X107365613Y-41179404D01*
X107315412Y-41129201D01*
X107300000Y-41068817D01*
X107300000Y-40959500D01*
X107577218Y-40959500D01*
X107583964Y-40971832D01*
X108437188Y-41825056D01*
X108451132Y-41832670D01*
X108452965Y-41832539D01*
X108459580Y-41828288D01*
X109315471Y-40972397D01*
X109322492Y-40959540D01*
X109314719Y-40948873D01*
X109231460Y-40883118D01*
X109222876Y-40877415D01*
X109030393Y-40771158D01*
X109020981Y-40766928D01*
X108813725Y-40693534D01*
X108803755Y-40690900D01*
X108587293Y-40652344D01*
X108577039Y-40651374D01*
X108357176Y-40648687D01*
X108346891Y-40649407D01*
X108129553Y-40682664D01*
X108119526Y-40685053D01*
X107910538Y-40753360D01*
X107901029Y-40757357D01*
X107706009Y-40858879D01*
X107697274Y-40864380D01*
X107585672Y-40948174D01*
X107577218Y-40959500D01*
X107300000Y-40959500D01*
X107300000Y-40693115D01*
X107295525Y-40677876D01*
X107294135Y-40676671D01*
X107286452Y-40675000D01*
X106318115Y-40675000D01*
X106302876Y-40679475D01*
X106301671Y-40680865D01*
X106300000Y-40688548D01*
X106300000Y-41531884D01*
X106000000Y-41531884D01*
X106000000Y-40693115D01*
X105995525Y-40677876D01*
X105994135Y-40676671D01*
X105986452Y-40675000D01*
X105018116Y-40675000D01*
X105002877Y-40679475D01*
X105001672Y-40680865D01*
X105000001Y-40688548D01*
X105000001Y-41176525D01*
X104599152Y-41176525D01*
X104599293Y-41175816D01*
X104600500Y-41169748D01*
X104600500Y-39880252D01*
X104588867Y-39821769D01*
X104544552Y-39755448D01*
X104478231Y-39711133D01*
X104466062Y-39708712D01*
X104466061Y-39708712D01*
X104425816Y-39700707D01*
X104419748Y-39699500D01*
X102880252Y-39699500D01*
X102874184Y-39700707D01*
X102833939Y-39708712D01*
X102833938Y-39708712D01*
X102821769Y-39711133D01*
X102755448Y-39755448D01*
X102711133Y-39821769D01*
X102699500Y-39880252D01*
X102699500Y-41169748D01*
X101550500Y-41169748D01*
X101550500Y-40180252D01*
X101538867Y-40121769D01*
X101494552Y-40055448D01*
X101428231Y-40011133D01*
X101416062Y-40008712D01*
X101416061Y-40008712D01*
X101375816Y-40000707D01*
X101369748Y-39999500D01*
X99630252Y-39999500D01*
X99624184Y-40000707D01*
X99583939Y-40008712D01*
X99583938Y-40008712D01*
X99571769Y-40011133D01*
X99505448Y-40055448D01*
X99461133Y-40121769D01*
X99449500Y-40180252D01*
X99449500Y-41919748D01*
X99461133Y-41978231D01*
X99505448Y-42044552D01*
X99571769Y-42088867D01*
X99583938Y-42091288D01*
X99583939Y-42091288D01*
X99624184Y-42099293D01*
X99630252Y-42100500D01*
X100297041Y-42100500D01*
X100365162Y-42120502D01*
X100411655Y-42174158D01*
X100421759Y-42244432D01*
X100392265Y-42309012D01*
X100332539Y-42347396D01*
X100308023Y-42352021D01*
X100287591Y-42353809D01*
X100276796Y-42355712D01*
X100076152Y-42409474D01*
X100065860Y-42413220D01*
X99877600Y-42501007D01*
X99868104Y-42506490D01*
X99697957Y-42625628D01*
X99689549Y-42632684D01*
X99542684Y-42779549D01*
X99535628Y-42787957D01*
X99416490Y-42958104D01*
X99411007Y-42967600D01*
X99323220Y-43155860D01*
X99319474Y-43166152D01*
X99265710Y-43366803D01*
X99263809Y-43377589D01*
X99259927Y-43421952D01*
X98750500Y-43421952D01*
X98750500Y-39442500D01*
X98770502Y-39374379D01*
X98824158Y-39327886D01*
X98876500Y-39316500D01*
X105139278Y-39316500D01*
X105207399Y-39336502D01*
G37*
%TD.AperFunction*%
%TA.AperFunction,Conductor*%
G36*
X110492121Y-52020002D02*
G01*
X110538614Y-52073658D01*
X110550000Y-52126000D01*
X110550000Y-53331884D01*
X110554475Y-53347123D01*
X110555865Y-53348328D01*
X110563548Y-53349999D01*
X110701525Y-53349999D01*
X110711374Y-53349224D01*
X110790351Y-53336717D01*
X110808986Y-53330662D01*
X110904213Y-53282141D01*
X110920056Y-53270630D01*
X111002641Y-53188045D01*
X111005380Y-53190784D01*
X111046489Y-53159085D01*
X111092201Y-53150500D01*
X111494748Y-53150500D01*
X111502977Y-53148863D01*
X111504131Y-53148967D01*
X111506979Y-53148686D01*
X111507032Y-53149226D01*
X111573689Y-53155190D01*
X111629757Y-53198744D01*
X111653377Y-53265696D01*
X111651137Y-53297020D01*
X111649500Y-53305252D01*
X111649500Y-53894748D01*
X111661133Y-53953231D01*
X111663726Y-53957112D01*
X111670743Y-54022370D01*
X111665496Y-54040239D01*
X111661133Y-54046769D01*
X111649500Y-54105252D01*
X111649500Y-54694748D01*
X111661133Y-54753231D01*
X111663726Y-54757112D01*
X111670743Y-54822370D01*
X111665496Y-54840239D01*
X111661133Y-54846769D01*
X111649500Y-54905252D01*
X111649500Y-55284984D01*
X111629498Y-55353105D01*
X111575842Y-55399598D01*
X111505568Y-55409702D01*
X111440988Y-55380208D01*
X111434405Y-55374079D01*
X109425921Y-53365595D01*
X109391895Y-53303283D01*
X109396960Y-53232468D01*
X109439507Y-53175632D01*
X109506027Y-53150821D01*
X109515016Y-53150500D01*
X109707799Y-53150500D01*
X109775920Y-53170502D01*
X109795968Y-53189436D01*
X109797359Y-53188045D01*
X109879944Y-53270630D01*
X109895787Y-53282141D01*
X109991018Y-53330664D01*
X110009645Y-53336716D01*
X110088627Y-53349225D01*
X110098473Y-53350000D01*
X110231885Y-53350000D01*
X110247124Y-53345525D01*
X110248329Y-53344135D01*
X110250000Y-53336452D01*
X110250000Y-52126000D01*
X110270002Y-52057879D01*
X110323658Y-52011386D01*
X110376000Y-52000000D01*
X110424000Y-52000000D01*
X110492121Y-52020002D01*
G37*
%TD.AperFunction*%
M02*
