%TF.GenerationSoftware,KiCad,Pcbnew,(6.0.0)*%
%TF.CreationDate,2022-02-13T23:40:39+01:00*%
%TF.ProjectId,LoraTrigger,4c6f7261-5472-4696-9767-65722e6b6963,rev?*%
%TF.SameCoordinates,Original*%
%TF.FileFunction,Copper,L1,Top*%
%TF.FilePolarity,Positive*%
%FSLAX46Y46*%
G04 Gerber Fmt 4.6, Leading zero omitted, Abs format (unit mm)*
G04 Created by KiCad (PCBNEW (6.0.0)) date 2022-02-13 23:40:39*
%MOMM*%
%LPD*%
G01*
G04 APERTURE LIST*
G04 Aperture macros list*
%AMRoundRect*
0 Rectangle with rounded corners*
0 $1 Rounding radius*
0 $2 $3 $4 $5 $6 $7 $8 $9 X,Y pos of 4 corners*
0 Add a 4 corners polygon primitive as box body*
4,1,4,$2,$3,$4,$5,$6,$7,$8,$9,$2,$3,0*
0 Add four circle primitives for the rounded corners*
1,1,$1+$1,$2,$3*
1,1,$1+$1,$4,$5*
1,1,$1+$1,$6,$7*
1,1,$1+$1,$8,$9*
0 Add four rect primitives between the rounded corners*
20,1,$1+$1,$2,$3,$4,$5,0*
20,1,$1+$1,$4,$5,$6,$7,0*
20,1,$1+$1,$6,$7,$8,$9,0*
20,1,$1+$1,$8,$9,$2,$3,0*%
G04 Aperture macros list end*
%TA.AperFunction,SMDPad,CuDef*%
%ADD10RoundRect,0.320754X0.529246X0.579246X-0.529246X0.579246X-0.529246X-0.579246X0.529246X-0.579246X0*%
%TD*%
%TA.AperFunction,SMDPad,CuDef*%
%ADD11R,1.498600X0.698500*%
%TD*%
%TA.AperFunction,SMDPad,CuDef*%
%ADD12RoundRect,0.150000X-0.150000X0.587500X-0.150000X-0.587500X0.150000X-0.587500X0.150000X0.587500X0*%
%TD*%
%TA.AperFunction,SMDPad,CuDef*%
%ADD13R,1.200000X1.200000*%
%TD*%
%TA.AperFunction,SMDPad,CuDef*%
%ADD14R,0.700000X0.900000*%
%TD*%
%TA.AperFunction,SMDPad,CuDef*%
%ADD15R,0.900000X0.700000*%
%TD*%
%TA.AperFunction,SMDPad,CuDef*%
%ADD16R,0.750000X0.900000*%
%TD*%
%TA.AperFunction,SMDPad,CuDef*%
%ADD17R,1.000000X3.000000*%
%TD*%
%TA.AperFunction,ConnectorPad*%
%ADD18C,0.784860*%
%TD*%
%TA.AperFunction,SMDPad,CuDef*%
%ADD19R,1.100000X0.300000*%
%TD*%
%TA.AperFunction,SMDPad,CuDef*%
%ADD20R,1.200000X0.800000*%
%TD*%
%TA.AperFunction,ViaPad*%
%ADD21C,0.800000*%
%TD*%
%TA.AperFunction,Conductor*%
%ADD22C,0.250000*%
%TD*%
%TA.AperFunction,Conductor*%
%ADD23C,0.200000*%
%TD*%
G04 APERTURE END LIST*
D10*
X105762500Y-60400000D03*
X102637500Y-60400000D03*
D11*
X115242760Y-80054490D03*
X115242760Y-78954670D03*
X115242760Y-77854850D03*
X115242760Y-76755030D03*
X115242760Y-75655210D03*
X115242760Y-74555390D03*
X115242760Y-73455570D03*
X115242760Y-72355750D03*
X101244820Y-72355750D03*
X101244820Y-73455570D03*
X101244820Y-74555390D03*
X101244820Y-75655210D03*
X101244820Y-76755030D03*
X101244820Y-77854850D03*
X101244820Y-78954670D03*
X101244820Y-80054490D03*
D12*
X115150000Y-66462500D03*
X113250000Y-66462500D03*
X114200000Y-68337500D03*
D13*
X100700000Y-56800000D03*
X102900000Y-56800000D03*
D14*
X103050000Y-58400000D03*
X101350000Y-58400000D03*
D15*
X111100000Y-68350000D03*
X111100000Y-66650000D03*
X109400000Y-68350000D03*
X109400000Y-66650000D03*
D16*
X117200000Y-79300000D03*
X117200000Y-80900000D03*
D14*
X115050000Y-70100000D03*
X113350000Y-70100000D03*
D17*
X108690000Y-57980000D03*
X108690000Y-63020000D03*
X111230000Y-57980000D03*
X111230000Y-63020000D03*
X113770000Y-57980000D03*
X113770000Y-63020000D03*
X116310000Y-57980000D03*
X116310000Y-63020000D03*
D18*
X104870000Y-67665000D03*
X104870000Y-68935000D03*
X103600000Y-67665000D03*
X103600000Y-68935000D03*
X102330000Y-67665000D03*
X102330000Y-68935000D03*
D19*
X103200000Y-63900000D03*
X103200000Y-63100000D03*
X101400000Y-63100000D03*
X101400000Y-63900000D03*
D16*
X117200000Y-75300000D03*
X117200000Y-73700000D03*
D20*
X117200000Y-76700000D03*
X117200000Y-77900000D03*
D16*
X99900000Y-62600000D03*
X99900000Y-64200000D03*
D21*
X100100000Y-60400000D03*
X101000000Y-61200000D03*
X117000000Y-60300000D03*
X116000000Y-81600000D03*
X100500000Y-65400000D03*
X117500000Y-72400000D03*
X100500000Y-59400000D03*
X109400000Y-60900000D03*
X100300000Y-71100000D03*
X102400000Y-65800000D03*
X100000000Y-81100000D03*
X104900000Y-56000000D03*
X105000000Y-57600000D03*
X111850000Y-70450000D03*
X110050978Y-70450000D03*
X105000000Y-63900000D03*
X107210694Y-64892500D03*
X100400000Y-58200000D03*
X99800000Y-76800000D03*
D22*
X102237500Y-60000000D02*
X100500000Y-60000000D01*
X100500000Y-60000000D02*
X100100000Y-60400000D01*
X102637500Y-60400000D02*
X102237500Y-60000000D01*
X101800000Y-60400000D02*
X101000000Y-61200000D01*
X102637500Y-60400000D02*
X101800000Y-60400000D01*
X115542760Y-78954670D02*
X114543460Y-78954670D01*
X111874511Y-69274511D02*
X111874511Y-67424511D01*
X114543460Y-78954670D02*
X112600000Y-77011210D01*
X112150489Y-77661519D02*
X112150489Y-70750489D01*
X112600000Y-77011210D02*
X112600000Y-70000000D01*
X115542760Y-80054490D02*
X114543460Y-80054490D01*
X112600000Y-70000000D02*
X111874511Y-69274511D01*
X111874511Y-67424511D02*
X111100000Y-66650000D01*
X114543460Y-80054490D02*
X112150489Y-77661519D01*
X112150489Y-70750489D02*
X111850000Y-70450000D01*
X113770000Y-59930000D02*
X113770000Y-57980000D01*
X112945489Y-60754511D02*
X113770000Y-59930000D01*
X113250000Y-66462500D02*
X112945489Y-66157989D01*
X112945489Y-66157989D02*
X112945489Y-60754511D01*
X115050000Y-66562500D02*
X115150000Y-66462500D01*
X115050000Y-70100000D02*
X115050000Y-66562500D01*
X114168949Y-74480879D02*
X114168949Y-70981051D01*
X114168949Y-70981051D02*
X115050000Y-70100000D01*
X115242760Y-74555390D02*
X114243460Y-74555390D01*
X114243460Y-74555390D02*
X114168949Y-74480879D01*
X117000000Y-73700000D02*
X117500000Y-73200000D01*
X117000000Y-58670000D02*
X117000000Y-60300000D01*
X101350000Y-58550000D02*
X100500000Y-59400000D01*
X99900000Y-64200000D02*
X100100000Y-64200000D01*
X102430000Y-65830000D02*
X102400000Y-65800000D01*
X100083340Y-71316660D02*
X100300000Y-71100000D01*
X108690000Y-61610000D02*
X109400000Y-60900000D01*
X100100000Y-64200000D02*
X100400000Y-63900000D01*
X101350000Y-58400000D02*
X101350000Y-58550000D01*
X99900000Y-64800000D02*
X100500000Y-65400000D01*
X101244820Y-73455570D02*
X100245520Y-73455570D01*
X99900000Y-64200000D02*
X99900000Y-64800000D01*
X117500000Y-73200000D02*
X117500000Y-72400000D01*
X116310000Y-57980000D02*
X117000000Y-58670000D01*
X117000000Y-81400000D02*
X116800000Y-81600000D01*
X100083340Y-73293390D02*
X100083340Y-71316660D01*
X100400000Y-63900000D02*
X101400000Y-63900000D01*
X116800000Y-81600000D02*
X116000000Y-81600000D01*
X117000000Y-80900000D02*
X117000000Y-81400000D01*
X100245520Y-73455570D02*
X100083340Y-73293390D01*
X108690000Y-63020000D02*
X108690000Y-61610000D01*
X102430000Y-67665000D02*
X102430000Y-65830000D01*
X109400000Y-68400000D02*
X109400000Y-69000000D01*
X99900000Y-62600000D02*
X100400000Y-63100000D01*
X109400000Y-68350000D02*
X109400000Y-68400000D01*
X100400000Y-63100000D02*
X101400000Y-63100000D01*
X111100000Y-68350000D02*
X111100000Y-68900000D01*
X115242760Y-73455570D02*
X116242060Y-73455570D01*
X116242060Y-73455570D02*
X116316571Y-73381059D01*
X116316571Y-73381059D02*
X116316571Y-63026571D01*
X116316571Y-63026571D02*
X116310000Y-63020000D01*
X106486194Y-61939080D02*
X108690000Y-59735274D01*
X110050978Y-70450000D02*
X108050000Y-68449022D01*
X108690000Y-59735274D02*
X108690000Y-57980000D01*
X107350490Y-65986194D02*
X106486194Y-65986194D01*
X108050000Y-68449022D02*
X108050000Y-66650000D01*
X108050000Y-66650000D02*
X108014296Y-66650000D01*
X105786194Y-65986194D02*
X103700000Y-63900000D01*
X106486194Y-65986194D02*
X105786194Y-65986194D01*
X109400000Y-66650000D02*
X108050000Y-66650000D01*
X108014296Y-66650000D02*
X107350490Y-65986194D01*
X103700000Y-63900000D02*
X103200000Y-63900000D01*
X106486194Y-65986194D02*
X106486194Y-61939080D01*
X105000000Y-63900000D02*
X104200000Y-63100000D01*
X111230000Y-58980000D02*
X110110000Y-60100000D01*
X104200000Y-63100000D02*
X103200000Y-63100000D01*
X110110000Y-60100000D02*
X108960978Y-60100000D01*
X111230000Y-57980000D02*
X111230000Y-58980000D01*
X109242500Y-64892500D02*
X107210694Y-64892500D01*
X107185026Y-64866832D02*
X107210694Y-64892500D01*
X108960978Y-60100000D02*
X107185026Y-61875952D01*
X111100000Y-66650000D02*
X111000000Y-66650000D01*
X107185026Y-61875952D02*
X107185026Y-64866832D01*
X111000000Y-66650000D02*
X109242500Y-64892500D01*
X102900000Y-56800000D02*
X102900000Y-58250000D01*
X102900000Y-58250000D02*
X103050000Y-58400000D01*
X100400000Y-57100000D02*
X100700000Y-56800000D01*
X99844970Y-76755030D02*
X99800000Y-76800000D01*
X101244820Y-76755030D02*
X99844970Y-76755030D01*
X100400000Y-58200000D02*
X100400000Y-57100000D01*
X115242760Y-72355750D02*
X115824501Y-71774009D01*
X115824501Y-71774009D02*
X115824501Y-65074501D01*
X115824501Y-65074501D02*
X113770000Y-63020000D01*
X102544120Y-75655210D02*
X102618631Y-75580699D01*
X102618631Y-69618981D02*
X102430000Y-69430350D01*
X102430000Y-69430350D02*
X102430000Y-68935000D01*
X102618631Y-75580699D02*
X102618631Y-69618981D01*
X101544820Y-75655210D02*
X102544120Y-75655210D01*
D23*
X103081059Y-69481059D02*
X102981059Y-69381059D01*
X102494120Y-77854850D02*
X103081059Y-77267911D01*
X101544820Y-77854850D02*
X102494120Y-77854850D01*
X103081059Y-77267911D02*
X103081059Y-69481059D01*
X102981059Y-68383941D02*
X103700000Y-67665000D01*
X102981059Y-69381059D02*
X102981059Y-68383941D01*
D22*
X103550489Y-77948301D02*
X103550489Y-69084511D01*
X102544120Y-78954670D02*
X103550489Y-77948301D01*
X103550489Y-69084511D02*
X103700000Y-68935000D01*
X101544820Y-78954670D02*
X102544120Y-78954670D01*
X102544120Y-80054490D02*
X104000000Y-78598610D01*
X104000000Y-69905000D02*
X104970000Y-68935000D01*
X104000000Y-78598610D02*
X104000000Y-69905000D01*
X101544820Y-80054490D02*
X102544120Y-80054490D01*
X117000000Y-79300000D02*
X117000000Y-77900000D01*
X116954850Y-77854850D02*
X117000000Y-77900000D01*
X115242760Y-77854850D02*
X116954850Y-77854850D01*
X117000000Y-76700000D02*
X117000000Y-75300000D01*
X116944970Y-76755030D02*
X117000000Y-76700000D01*
X115242760Y-76755030D02*
X116944970Y-76755030D01*
%TA.AperFunction,Conductor*%
G36*
X118092121Y-55320002D02*
G01*
X118138614Y-55373658D01*
X118150000Y-55426000D01*
X118150000Y-71890769D01*
X118129998Y-71958890D01*
X118076342Y-72005383D01*
X118006068Y-72015487D01*
X117941488Y-71985993D01*
X117934905Y-71979864D01*
X117933305Y-71978264D01*
X117928282Y-71971718D01*
X117802841Y-71875464D01*
X117656762Y-71814956D01*
X117500000Y-71794318D01*
X117343238Y-71814956D01*
X117197159Y-71875464D01*
X117071718Y-71971718D01*
X116975464Y-72097159D01*
X116914956Y-72243238D01*
X116894318Y-72400000D01*
X116914956Y-72556762D01*
X116975464Y-72702841D01*
X117071718Y-72828282D01*
X117078264Y-72833305D01*
X117079364Y-72834405D01*
X117113390Y-72896717D01*
X117108325Y-72967532D01*
X117065778Y-73024368D01*
X116999258Y-73049179D01*
X116990269Y-73049500D01*
X116805252Y-73049500D01*
X116792649Y-73052007D01*
X116721936Y-73045677D01*
X116665869Y-73002121D01*
X116642071Y-72928427D01*
X116642071Y-64846500D01*
X116662073Y-64778379D01*
X116715729Y-64731886D01*
X116768071Y-64720500D01*
X116829748Y-64720500D01*
X116845383Y-64717390D01*
X116876061Y-64711288D01*
X116876062Y-64711288D01*
X116888231Y-64708867D01*
X116954552Y-64664552D01*
X116998867Y-64598231D01*
X117010500Y-64539748D01*
X117010500Y-61500252D01*
X116998867Y-61441769D01*
X116954552Y-61375448D01*
X116888231Y-61331133D01*
X116876062Y-61328712D01*
X116876061Y-61328712D01*
X116835816Y-61320707D01*
X116829748Y-61319500D01*
X115790252Y-61319500D01*
X115784184Y-61320707D01*
X115743939Y-61328712D01*
X115743938Y-61328712D01*
X115731769Y-61331133D01*
X115665448Y-61375448D01*
X115621133Y-61441769D01*
X115609500Y-61500252D01*
X115609500Y-64094983D01*
X115589498Y-64163104D01*
X115535842Y-64209597D01*
X115465568Y-64219701D01*
X115400988Y-64190207D01*
X115394417Y-64184090D01*
X114507404Y-63297078D01*
X114473380Y-63234767D01*
X114470500Y-63207984D01*
X114470500Y-61500252D01*
X114458867Y-61441769D01*
X114414552Y-61375448D01*
X114348231Y-61331133D01*
X114336062Y-61328712D01*
X114336061Y-61328712D01*
X114295816Y-61320707D01*
X114289748Y-61319500D01*
X113396989Y-61319500D01*
X113328868Y-61299498D01*
X113282375Y-61245842D01*
X113270989Y-61193500D01*
X113270989Y-60941527D01*
X113290991Y-60873406D01*
X113307894Y-60852432D01*
X113986215Y-60174111D01*
X113994319Y-60166684D01*
X114014749Y-60149541D01*
X114023194Y-60142455D01*
X114028707Y-60132906D01*
X114042039Y-60109815D01*
X114047945Y-60100544D01*
X114063230Y-60078715D01*
X114069554Y-60069684D01*
X114072408Y-60059034D01*
X114073885Y-60055866D01*
X114075077Y-60052590D01*
X114080588Y-60043045D01*
X114087130Y-60005942D01*
X114089509Y-59995210D01*
X114090742Y-59990608D01*
X114099264Y-59958807D01*
X114095979Y-59921257D01*
X114095500Y-59910276D01*
X114095500Y-59806500D01*
X114115502Y-59738379D01*
X114169158Y-59691886D01*
X114221500Y-59680500D01*
X114289748Y-59680500D01*
X114296208Y-59679215D01*
X114336061Y-59671288D01*
X114336062Y-59671288D01*
X114348231Y-59668867D01*
X114414552Y-59624552D01*
X114458867Y-59558231D01*
X114470500Y-59499748D01*
X115609500Y-59499748D01*
X115621133Y-59558231D01*
X115665448Y-59624552D01*
X115731769Y-59668867D01*
X115743938Y-59671288D01*
X115743939Y-59671288D01*
X115783792Y-59679215D01*
X115790252Y-59680500D01*
X116462942Y-59680500D01*
X116531063Y-59700502D01*
X116577556Y-59754158D01*
X116587660Y-59824432D01*
X116562904Y-59883204D01*
X116480494Y-59990603D01*
X116480492Y-59990606D01*
X116475464Y-59997159D01*
X116414956Y-60143238D01*
X116413878Y-60151426D01*
X116404637Y-60221619D01*
X116394318Y-60300000D01*
X116414956Y-60456762D01*
X116475464Y-60602841D01*
X116571718Y-60728282D01*
X116578264Y-60733305D01*
X116591209Y-60743238D01*
X116697159Y-60824536D01*
X116843238Y-60885044D01*
X117000000Y-60905682D01*
X117008188Y-60904604D01*
X117148574Y-60886122D01*
X117156762Y-60885044D01*
X117302841Y-60824536D01*
X117408791Y-60743238D01*
X117421736Y-60733305D01*
X117428282Y-60728282D01*
X117524536Y-60602841D01*
X117585044Y-60456762D01*
X117605682Y-60300000D01*
X117595363Y-60221619D01*
X117586122Y-60151426D01*
X117585044Y-60143238D01*
X117524536Y-59997159D01*
X117441552Y-59889012D01*
X117433305Y-59878264D01*
X117428282Y-59871718D01*
X117374796Y-59830677D01*
X117332929Y-59773339D01*
X117325500Y-59730714D01*
X117325500Y-58689710D01*
X117325980Y-58678728D01*
X117328303Y-58652175D01*
X117328303Y-58652170D01*
X117329263Y-58641193D01*
X117319508Y-58604783D01*
X117317133Y-58594072D01*
X117312501Y-58567806D01*
X117310588Y-58556955D01*
X117305078Y-58547411D01*
X117303886Y-58544135D01*
X117302407Y-58540964D01*
X117299554Y-58530316D01*
X117277940Y-58499448D01*
X117272036Y-58490179D01*
X117258707Y-58467092D01*
X117258704Y-58467088D01*
X117253194Y-58457545D01*
X117224324Y-58433320D01*
X117216221Y-58425894D01*
X117047405Y-58257078D01*
X117013379Y-58194766D01*
X117010500Y-58167983D01*
X117010500Y-56460252D01*
X116998867Y-56401769D01*
X116954552Y-56335448D01*
X116888231Y-56291133D01*
X116876062Y-56288712D01*
X116876061Y-56288712D01*
X116835816Y-56280707D01*
X116829748Y-56279500D01*
X115790252Y-56279500D01*
X115784184Y-56280707D01*
X115743939Y-56288712D01*
X115743938Y-56288712D01*
X115731769Y-56291133D01*
X115665448Y-56335448D01*
X115621133Y-56401769D01*
X115609500Y-56460252D01*
X115609500Y-59499748D01*
X114470500Y-59499748D01*
X114470500Y-56460252D01*
X114458867Y-56401769D01*
X114414552Y-56335448D01*
X114348231Y-56291133D01*
X114336062Y-56288712D01*
X114336061Y-56288712D01*
X114295816Y-56280707D01*
X114289748Y-56279500D01*
X113250252Y-56279500D01*
X113244184Y-56280707D01*
X113203939Y-56288712D01*
X113203938Y-56288712D01*
X113191769Y-56291133D01*
X113125448Y-56335448D01*
X113081133Y-56401769D01*
X113069500Y-56460252D01*
X113069500Y-59499748D01*
X113081133Y-59558231D01*
X113125448Y-59624552D01*
X113191769Y-59668867D01*
X113203938Y-59671288D01*
X113203939Y-59671288D01*
X113243792Y-59679215D01*
X113250252Y-59680500D01*
X113256439Y-59680500D01*
X113262602Y-59681107D01*
X113262446Y-59682691D01*
X113323105Y-59700502D01*
X113369598Y-59754158D01*
X113379702Y-59824432D01*
X113350208Y-59889012D01*
X113344079Y-59895595D01*
X112729274Y-60510400D01*
X112721170Y-60517827D01*
X112692295Y-60542056D01*
X112686782Y-60551605D01*
X112673450Y-60574696D01*
X112667544Y-60583967D01*
X112645935Y-60614827D01*
X112643081Y-60625477D01*
X112641604Y-60628645D01*
X112640412Y-60631921D01*
X112634901Y-60641466D01*
X112632119Y-60657247D01*
X112628359Y-60678569D01*
X112625981Y-60689296D01*
X112616225Y-60725704D01*
X112617186Y-60736689D01*
X112617186Y-60736691D01*
X112619509Y-60763239D01*
X112619989Y-60774221D01*
X112619989Y-66138279D01*
X112619509Y-66149261D01*
X112616225Y-66186796D01*
X112625588Y-66221736D01*
X112625980Y-66223199D01*
X112628359Y-66233931D01*
X112628951Y-66237290D01*
X112634901Y-66271034D01*
X112640412Y-66280579D01*
X112641604Y-66283855D01*
X112643081Y-66287023D01*
X112645935Y-66297673D01*
X112652259Y-66306704D01*
X112667544Y-66328533D01*
X112673450Y-66337804D01*
X112686782Y-66360895D01*
X112692295Y-66370444D01*
X112700739Y-66377529D01*
X112704494Y-66380680D01*
X112743819Y-66439791D01*
X112749500Y-66477200D01*
X112749500Y-67083218D01*
X112750170Y-67087768D01*
X112750170Y-67087771D01*
X112754994Y-67120539D01*
X112759642Y-67152112D01*
X112775443Y-67184295D01*
X112804527Y-67243532D01*
X112811068Y-67256855D01*
X112893650Y-67339293D01*
X112903006Y-67343866D01*
X112903007Y-67343867D01*
X112923709Y-67353986D01*
X112998482Y-67390536D01*
X113028973Y-67394984D01*
X113062256Y-67399840D01*
X113062260Y-67399840D01*
X113066782Y-67400500D01*
X113411396Y-67400500D01*
X113479517Y-67420502D01*
X113526010Y-67474158D01*
X113536114Y-67544432D01*
X113528548Y-67572885D01*
X113513833Y-67610050D01*
X113509881Y-67625612D01*
X113500456Y-67703502D01*
X113500000Y-67711057D01*
X113500000Y-68169385D01*
X113504475Y-68184624D01*
X113505865Y-68185829D01*
X113513548Y-68187500D01*
X114031885Y-68187500D01*
X114047124Y-68183025D01*
X114048329Y-68181635D01*
X114050000Y-68173952D01*
X114050000Y-67218115D01*
X114045525Y-67202876D01*
X114044135Y-67201671D01*
X114036452Y-67200000D01*
X114011057Y-67200000D01*
X114003502Y-67200456D01*
X113925607Y-67209882D01*
X113906839Y-67214648D01*
X113835891Y-67212029D01*
X113777621Y-67171468D01*
X113750531Y-67105843D01*
X113750188Y-67085359D01*
X113750500Y-67083218D01*
X113750500Y-65841782D01*
X113741871Y-65783162D01*
X113741784Y-65782574D01*
X113741784Y-65782573D01*
X113740358Y-65772888D01*
X113711522Y-65714155D01*
X113693522Y-65677493D01*
X113693521Y-65677491D01*
X113688932Y-65668145D01*
X113606350Y-65585707D01*
X113501518Y-65534464D01*
X113471027Y-65530016D01*
X113437744Y-65525160D01*
X113437740Y-65525160D01*
X113433218Y-65524500D01*
X113396989Y-65524500D01*
X113328868Y-65504498D01*
X113282375Y-65450842D01*
X113270989Y-65398500D01*
X113270989Y-64846500D01*
X113290991Y-64778379D01*
X113344647Y-64731886D01*
X113396989Y-64720500D01*
X114289748Y-64720500D01*
X114305383Y-64717390D01*
X114336061Y-64711288D01*
X114336062Y-64711288D01*
X114348231Y-64708867D01*
X114414552Y-64664552D01*
X114458867Y-64598231D01*
X114470500Y-64539748D01*
X114470500Y-64485016D01*
X114490502Y-64416895D01*
X114544158Y-64370402D01*
X114614432Y-64360298D01*
X114679012Y-64389792D01*
X114685579Y-64395905D01*
X115462098Y-65172425D01*
X115496122Y-65234735D01*
X115499001Y-65261518D01*
X115499001Y-65402970D01*
X115478999Y-65471091D01*
X115425343Y-65517584D01*
X115354813Y-65527650D01*
X115344782Y-65526187D01*
X115333218Y-65524500D01*
X114966782Y-65524500D01*
X114962232Y-65525170D01*
X114962229Y-65525170D01*
X114907574Y-65533216D01*
X114907573Y-65533216D01*
X114897888Y-65534642D01*
X114869512Y-65548574D01*
X114802493Y-65581478D01*
X114802491Y-65581479D01*
X114793145Y-65586068D01*
X114785787Y-65593438D01*
X114785788Y-65593438D01*
X114722407Y-65656930D01*
X114710707Y-65668650D01*
X114659464Y-65773482D01*
X114658052Y-65783162D01*
X114650737Y-65833305D01*
X114649500Y-65841782D01*
X114649500Y-67083218D01*
X114649650Y-67084236D01*
X114634867Y-67152731D01*
X114584747Y-67203015D01*
X114515397Y-67218219D01*
X114493169Y-67214650D01*
X114474391Y-67209882D01*
X114396498Y-67200456D01*
X114388943Y-67200000D01*
X114368115Y-67200000D01*
X114352876Y-67204475D01*
X114351671Y-67205865D01*
X114350000Y-67213548D01*
X114350000Y-69456885D01*
X114354475Y-69472124D01*
X114355865Y-69473329D01*
X114363548Y-69475000D01*
X114376850Y-69475000D01*
X114444971Y-69495002D01*
X114491464Y-69548658D01*
X114499529Y-69617845D01*
X114501314Y-69618021D01*
X114500707Y-69624184D01*
X114499500Y-69630252D01*
X114499500Y-70137983D01*
X114479498Y-70206104D01*
X114462595Y-70227078D01*
X114315095Y-70374578D01*
X114252783Y-70408604D01*
X114181968Y-70403539D01*
X114125132Y-70360992D01*
X114100321Y-70294472D01*
X114100000Y-70285483D01*
X114100000Y-70268115D01*
X114095525Y-70252876D01*
X114094135Y-70251671D01*
X114086452Y-70250000D01*
X113518115Y-70250000D01*
X113502876Y-70254475D01*
X113501671Y-70255865D01*
X113500000Y-70263548D01*
X113500000Y-70931884D01*
X113504475Y-70947123D01*
X113505865Y-70948328D01*
X113513548Y-70949999D01*
X113717449Y-70949999D01*
X113785570Y-70970001D01*
X113832063Y-71023657D01*
X113843449Y-71075999D01*
X113843449Y-74461169D01*
X113842969Y-74472151D01*
X113839685Y-74509686D01*
X113842539Y-74520335D01*
X113849440Y-74546089D01*
X113851819Y-74556821D01*
X113858361Y-74593924D01*
X113863872Y-74603469D01*
X113865064Y-74606745D01*
X113866541Y-74609913D01*
X113869395Y-74620563D01*
X113875719Y-74629594D01*
X113891004Y-74651423D01*
X113896910Y-74660694D01*
X113910242Y-74683785D01*
X113915755Y-74693334D01*
X113924200Y-74700420D01*
X113944623Y-74717557D01*
X113952728Y-74724985D01*
X113999366Y-74771624D01*
X114006791Y-74779727D01*
X114031005Y-74808584D01*
X114058025Y-74824184D01*
X114063644Y-74827428D01*
X114072912Y-74833332D01*
X114103776Y-74854943D01*
X114114422Y-74857796D01*
X114117590Y-74859273D01*
X114120867Y-74860466D01*
X114130415Y-74865978D01*
X114159968Y-74871189D01*
X114167529Y-74872522D01*
X114178263Y-74874902D01*
X114213340Y-74884301D01*
X114273962Y-74921253D01*
X114293854Y-74960713D01*
X114297423Y-74959235D01*
X114302172Y-74970700D01*
X114304593Y-74982871D01*
X114311487Y-74993188D01*
X114311488Y-74993191D01*
X114339623Y-75035297D01*
X114360839Y-75103049D01*
X114339623Y-75175303D01*
X114311488Y-75217409D01*
X114311487Y-75217412D01*
X114304593Y-75227729D01*
X114292960Y-75286212D01*
X114292960Y-76024208D01*
X114294167Y-76030276D01*
X114300231Y-76060760D01*
X114304593Y-76082691D01*
X114311487Y-76093008D01*
X114311488Y-76093011D01*
X114339623Y-76135117D01*
X114360839Y-76202869D01*
X114339623Y-76275123D01*
X114311488Y-76317229D01*
X114311487Y-76317232D01*
X114304593Y-76327549D01*
X114292960Y-76386032D01*
X114292960Y-77124028D01*
X114304593Y-77182511D01*
X114311487Y-77192828D01*
X114311488Y-77192831D01*
X114339623Y-77234937D01*
X114360839Y-77302689D01*
X114339623Y-77374943D01*
X114311488Y-77417049D01*
X114311487Y-77417052D01*
X114304593Y-77427369D01*
X114292960Y-77485852D01*
X114292960Y-77939653D01*
X114272958Y-78007774D01*
X114219302Y-78054267D01*
X114149028Y-78064371D01*
X114084448Y-78034877D01*
X114077865Y-78028748D01*
X112962405Y-76913289D01*
X112928380Y-76850977D01*
X112925500Y-76824194D01*
X112925500Y-71076000D01*
X112945502Y-71007879D01*
X112999158Y-70961386D01*
X113051500Y-70950000D01*
X113181885Y-70950000D01*
X113197124Y-70945525D01*
X113198329Y-70944135D01*
X113200000Y-70936452D01*
X113200000Y-69931885D01*
X113500000Y-69931885D01*
X113504475Y-69947124D01*
X113505865Y-69948329D01*
X113513548Y-69950000D01*
X114081884Y-69950000D01*
X114097123Y-69945525D01*
X114098328Y-69944135D01*
X114099999Y-69936452D01*
X114099999Y-69623475D01*
X114099224Y-69613626D01*
X114086716Y-69534648D01*
X114083881Y-69525923D01*
X114052165Y-69463677D01*
X114050000Y-69440420D01*
X114050000Y-68505615D01*
X114045525Y-68490376D01*
X114044135Y-68489171D01*
X114036452Y-68487500D01*
X113518115Y-68487500D01*
X113502876Y-68491975D01*
X113501671Y-68493365D01*
X113500000Y-68501048D01*
X113500000Y-68963943D01*
X113500456Y-68971498D01*
X113509881Y-69049388D01*
X113513835Y-69064956D01*
X113533749Y-69115255D01*
X113540228Y-69185955D01*
X113511822Y-69244150D01*
X113501671Y-69255865D01*
X113500000Y-69263548D01*
X113500000Y-69931885D01*
X113200000Y-69931885D01*
X113200000Y-69268116D01*
X113195525Y-69252877D01*
X113194135Y-69251672D01*
X113186452Y-69250001D01*
X112973475Y-69250001D01*
X112963626Y-69250776D01*
X112884649Y-69263283D01*
X112866014Y-69269338D01*
X112770787Y-69317859D01*
X112754944Y-69329370D01*
X112679373Y-69404941D01*
X112675987Y-69409601D01*
X112619763Y-69452953D01*
X112549027Y-69459027D01*
X112484958Y-69424632D01*
X112236916Y-69176590D01*
X112202890Y-69114278D01*
X112200011Y-69087495D01*
X112200011Y-68918363D01*
X112220013Y-68850242D01*
X112273669Y-68803749D01*
X112283721Y-68800000D01*
X112300000Y-68800000D01*
X112300000Y-67800000D01*
X112292206Y-67800000D01*
X112288911Y-67797144D01*
X112236915Y-67768753D01*
X112202890Y-67706441D01*
X112200011Y-67679658D01*
X112200011Y-67444221D01*
X112200491Y-67433239D01*
X112202814Y-67406691D01*
X112202814Y-67406689D01*
X112203775Y-67395704D01*
X112194019Y-67359296D01*
X112191641Y-67348569D01*
X112188664Y-67331686D01*
X112185099Y-67311466D01*
X112179588Y-67301921D01*
X112178396Y-67298645D01*
X112176919Y-67295477D01*
X112174065Y-67284827D01*
X112152456Y-67253967D01*
X112146550Y-67244696D01*
X112133218Y-67221605D01*
X112127705Y-67212056D01*
X112098828Y-67187826D01*
X112090726Y-67180400D01*
X111787405Y-66877079D01*
X111753379Y-66814767D01*
X111750500Y-66787984D01*
X111750500Y-66280252D01*
X111746667Y-66260981D01*
X111741288Y-66233939D01*
X111741288Y-66233938D01*
X111738867Y-66221769D01*
X111694552Y-66155448D01*
X111628231Y-66111133D01*
X111616062Y-66108712D01*
X111616061Y-66108712D01*
X111575816Y-66100707D01*
X111569748Y-66099500D01*
X110962017Y-66099500D01*
X110893896Y-66079498D01*
X110872922Y-66062595D01*
X109486610Y-64676284D01*
X109479183Y-64668180D01*
X109475307Y-64663561D01*
X109454955Y-64639306D01*
X109445408Y-64633794D01*
X109436963Y-64626708D01*
X109439458Y-64623734D01*
X109404521Y-64587111D01*
X109394670Y-64546525D01*
X110330001Y-64546525D01*
X110330776Y-64556374D01*
X110343283Y-64635351D01*
X110349338Y-64653986D01*
X110397859Y-64749213D01*
X110409370Y-64765056D01*
X110484944Y-64840630D01*
X110500787Y-64852141D01*
X110596018Y-64900664D01*
X110614645Y-64906716D01*
X110693627Y-64919225D01*
X110703473Y-64920000D01*
X111061885Y-64920000D01*
X111077124Y-64915525D01*
X111078329Y-64914135D01*
X111080000Y-64906452D01*
X111080000Y-64901884D01*
X111380000Y-64901884D01*
X111384475Y-64917123D01*
X111385865Y-64918328D01*
X111393548Y-64919999D01*
X111756525Y-64919999D01*
X111766374Y-64919224D01*
X111845351Y-64906717D01*
X111863986Y-64900662D01*
X111959213Y-64852141D01*
X111975056Y-64840630D01*
X112050630Y-64765056D01*
X112062141Y-64749213D01*
X112110664Y-64653982D01*
X112116716Y-64635355D01*
X112129225Y-64556373D01*
X112130000Y-64546527D01*
X112130000Y-63188115D01*
X112125525Y-63172876D01*
X112124135Y-63171671D01*
X112116452Y-63170000D01*
X111398115Y-63170000D01*
X111382876Y-63174475D01*
X111381671Y-63175865D01*
X111380000Y-63183548D01*
X111380000Y-64901884D01*
X111080000Y-64901884D01*
X111080000Y-63188115D01*
X111075525Y-63172876D01*
X111074135Y-63171671D01*
X111066452Y-63170000D01*
X110348116Y-63170000D01*
X110332877Y-63174475D01*
X110331672Y-63175865D01*
X110330001Y-63183548D01*
X110330001Y-64546525D01*
X109394670Y-64546525D01*
X109390500Y-64529347D01*
X109390500Y-62851885D01*
X110330000Y-62851885D01*
X110334475Y-62867124D01*
X110335865Y-62868329D01*
X110343548Y-62870000D01*
X111061885Y-62870000D01*
X111077124Y-62865525D01*
X111078329Y-62864135D01*
X111080000Y-62856452D01*
X111080000Y-62851885D01*
X111380000Y-62851885D01*
X111384475Y-62867124D01*
X111385865Y-62868329D01*
X111393548Y-62870000D01*
X112111884Y-62870000D01*
X112127123Y-62865525D01*
X112128328Y-62864135D01*
X112129999Y-62856452D01*
X112129999Y-61493475D01*
X112129224Y-61483626D01*
X112116717Y-61404649D01*
X112110662Y-61386014D01*
X112062141Y-61290787D01*
X112050630Y-61274944D01*
X111975056Y-61199370D01*
X111959213Y-61187859D01*
X111863982Y-61139336D01*
X111845355Y-61133284D01*
X111766373Y-61120775D01*
X111756527Y-61120000D01*
X111398115Y-61120000D01*
X111382876Y-61124475D01*
X111381671Y-61125865D01*
X111380000Y-61133548D01*
X111380000Y-62851885D01*
X111080000Y-62851885D01*
X111080000Y-61138116D01*
X111075525Y-61122877D01*
X111074135Y-61121672D01*
X111066452Y-61120001D01*
X110703475Y-61120001D01*
X110693626Y-61120776D01*
X110614649Y-61133283D01*
X110596014Y-61139338D01*
X110500787Y-61187859D01*
X110484944Y-61199370D01*
X110409370Y-61274944D01*
X110397859Y-61290787D01*
X110349336Y-61386018D01*
X110343284Y-61404645D01*
X110330775Y-61483627D01*
X110330000Y-61493473D01*
X110330000Y-62851885D01*
X109390500Y-62851885D01*
X109390500Y-61617432D01*
X109410502Y-61549311D01*
X109464158Y-61502818D01*
X109500053Y-61492510D01*
X109548574Y-61486122D01*
X109556762Y-61485044D01*
X109702841Y-61424536D01*
X109807205Y-61344455D01*
X109821736Y-61333305D01*
X109828282Y-61328282D01*
X109834095Y-61320707D01*
X109919509Y-61209392D01*
X109924536Y-61202841D01*
X109985044Y-61056762D01*
X110005682Y-60900000D01*
X109985044Y-60743238D01*
X109947385Y-60652320D01*
X109925596Y-60599718D01*
X109918007Y-60529128D01*
X109949786Y-60465641D01*
X110010844Y-60429414D01*
X110042005Y-60425500D01*
X110090290Y-60425500D01*
X110101272Y-60425980D01*
X110127820Y-60428303D01*
X110127822Y-60428303D01*
X110138807Y-60429264D01*
X110175215Y-60419508D01*
X110185942Y-60417130D01*
X110189301Y-60416538D01*
X110223045Y-60410588D01*
X110232590Y-60405077D01*
X110235866Y-60403885D01*
X110239034Y-60402408D01*
X110249684Y-60399554D01*
X110280544Y-60377945D01*
X110289815Y-60372039D01*
X110312910Y-60358705D01*
X110312911Y-60358704D01*
X110322455Y-60353194D01*
X110346685Y-60324319D01*
X110354110Y-60316217D01*
X110952922Y-59717405D01*
X111015234Y-59683379D01*
X111042017Y-59680500D01*
X111749748Y-59680500D01*
X111756208Y-59679215D01*
X111796061Y-59671288D01*
X111796062Y-59671288D01*
X111808231Y-59668867D01*
X111874552Y-59624552D01*
X111918867Y-59558231D01*
X111930500Y-59499748D01*
X111930500Y-56460252D01*
X111918867Y-56401769D01*
X111874552Y-56335448D01*
X111808231Y-56291133D01*
X111796062Y-56288712D01*
X111796061Y-56288712D01*
X111755816Y-56280707D01*
X111749748Y-56279500D01*
X110710252Y-56279500D01*
X110704184Y-56280707D01*
X110663939Y-56288712D01*
X110663938Y-56288712D01*
X110651769Y-56291133D01*
X110585448Y-56335448D01*
X110541133Y-56401769D01*
X110529500Y-56460252D01*
X110529500Y-59167982D01*
X110509498Y-59236103D01*
X110492596Y-59257077D01*
X110012079Y-59737595D01*
X109949766Y-59771620D01*
X109922983Y-59774500D01*
X109470090Y-59774500D01*
X109401969Y-59754498D01*
X109355476Y-59700842D01*
X109345372Y-59630568D01*
X109365326Y-59578496D01*
X109371974Y-59568547D01*
X109378867Y-59558231D01*
X109390500Y-59499748D01*
X109390500Y-56460252D01*
X109378867Y-56401769D01*
X109334552Y-56335448D01*
X109268231Y-56291133D01*
X109256062Y-56288712D01*
X109256061Y-56288712D01*
X109215816Y-56280707D01*
X109209748Y-56279500D01*
X108170252Y-56279500D01*
X108164184Y-56280707D01*
X108123939Y-56288712D01*
X108123938Y-56288712D01*
X108111769Y-56291133D01*
X108045448Y-56335448D01*
X108001133Y-56401769D01*
X107989500Y-56460252D01*
X107989500Y-59499748D01*
X108001133Y-59558231D01*
X108045448Y-59624552D01*
X108055761Y-59631443D01*
X108055764Y-59631446D01*
X108094600Y-59657396D01*
X108140127Y-59711873D01*
X108148974Y-59782316D01*
X108113694Y-59851253D01*
X107227593Y-60737355D01*
X107165283Y-60771378D01*
X107094468Y-60766314D01*
X107037632Y-60723767D01*
X107012821Y-60657247D01*
X107012500Y-60648258D01*
X107012500Y-60568115D01*
X107008025Y-60552876D01*
X107006635Y-60551671D01*
X106998952Y-60550000D01*
X105930615Y-60550000D01*
X105915376Y-60554475D01*
X105914171Y-60555865D01*
X105912500Y-60563548D01*
X105912500Y-61681884D01*
X105916975Y-61697123D01*
X105918365Y-61698328D01*
X105926048Y-61699999D01*
X106047669Y-61699999D01*
X106115790Y-61720001D01*
X106162283Y-61773657D01*
X106171754Y-61847882D01*
X106169063Y-61863141D01*
X106166686Y-61873865D01*
X106156930Y-61910273D01*
X106157891Y-61921258D01*
X106157891Y-61921260D01*
X106160214Y-61947808D01*
X106160694Y-61958790D01*
X106160694Y-65534694D01*
X106140692Y-65602815D01*
X106087036Y-65649308D01*
X106034694Y-65660694D01*
X105973210Y-65660694D01*
X105905089Y-65640692D01*
X105884115Y-65623789D01*
X104973897Y-64713571D01*
X104939871Y-64651259D01*
X104944936Y-64580444D01*
X104987483Y-64523608D01*
X105046546Y-64499554D01*
X105156762Y-64485044D01*
X105302841Y-64424536D01*
X105428282Y-64328282D01*
X105524536Y-64202841D01*
X105585044Y-64056762D01*
X105605682Y-63900000D01*
X105585044Y-63743238D01*
X105524536Y-63597159D01*
X105428282Y-63471718D01*
X105302841Y-63375464D01*
X105156762Y-63314956D01*
X105000000Y-63294318D01*
X104933157Y-63303118D01*
X104863010Y-63292179D01*
X104827617Y-63267291D01*
X104444111Y-62883785D01*
X104436684Y-62875681D01*
X104419541Y-62855251D01*
X104419542Y-62855251D01*
X104412455Y-62846806D01*
X104402906Y-62841293D01*
X104379815Y-62827961D01*
X104370544Y-62822055D01*
X104348715Y-62806770D01*
X104339684Y-62800446D01*
X104329034Y-62797592D01*
X104325866Y-62796115D01*
X104322590Y-62794923D01*
X104313045Y-62789412D01*
X104279301Y-62783462D01*
X104275942Y-62782870D01*
X104265215Y-62780492D01*
X104228807Y-62770736D01*
X104217822Y-62771697D01*
X104217820Y-62771697D01*
X104191272Y-62774020D01*
X104180290Y-62774500D01*
X103879238Y-62774500D01*
X103835095Y-62765720D01*
X103828231Y-62761133D01*
X103769748Y-62749500D01*
X103726000Y-62749500D01*
X103657879Y-62729498D01*
X103611386Y-62675842D01*
X103600000Y-62623500D01*
X103600000Y-62400000D01*
X100800999Y-62400000D01*
X100732878Y-62379998D01*
X100686385Y-62326342D01*
X100674999Y-62274000D01*
X100674999Y-62123475D01*
X100674224Y-62113626D01*
X100661717Y-62034649D01*
X100655662Y-62016014D01*
X100611371Y-61929089D01*
X100598267Y-61859312D01*
X100624967Y-61793528D01*
X100682994Y-61752621D01*
X100753926Y-61749580D01*
X100771856Y-61755477D01*
X100835608Y-61781884D01*
X100835611Y-61781885D01*
X100843238Y-61785044D01*
X101000000Y-61805682D01*
X101008188Y-61804604D01*
X101148574Y-61786122D01*
X101156762Y-61785044D01*
X101302841Y-61724536D01*
X101428282Y-61628282D01*
X101436608Y-61617432D01*
X101519509Y-61509392D01*
X101524536Y-61502841D01*
X101527695Y-61495213D01*
X101527698Y-61495209D01*
X101560425Y-61416197D01*
X101604973Y-61360915D01*
X101672336Y-61338494D01*
X101741127Y-61356052D01*
X101753011Y-61364050D01*
X101849963Y-61437640D01*
X101891130Y-61453939D01*
X101975218Y-61487232D01*
X101975220Y-61487233D01*
X101982748Y-61490213D01*
X102067755Y-61500500D01*
X102637124Y-61500500D01*
X103207244Y-61500499D01*
X103211002Y-61500044D01*
X103211007Y-61500044D01*
X103284219Y-61491185D01*
X103292252Y-61490213D01*
X103299775Y-61487235D01*
X103299777Y-61487234D01*
X103383870Y-61453939D01*
X103425037Y-61437640D01*
X103538794Y-61351294D01*
X103625140Y-61237537D01*
X103666312Y-61133548D01*
X103674732Y-61112282D01*
X103674733Y-61112280D01*
X103677713Y-61104752D01*
X103687501Y-61023871D01*
X104512501Y-61023871D01*
X104512839Y-61030391D01*
X104522217Y-61120785D01*
X104525108Y-61134177D01*
X104573800Y-61280123D01*
X104579974Y-61293302D01*
X104660705Y-61423763D01*
X104669741Y-61435163D01*
X104778324Y-61543556D01*
X104789735Y-61552568D01*
X104920344Y-61633076D01*
X104933525Y-61639223D01*
X105079568Y-61687664D01*
X105092944Y-61690531D01*
X105182162Y-61699672D01*
X105188578Y-61700000D01*
X105594385Y-61700000D01*
X105609624Y-61695525D01*
X105610829Y-61694135D01*
X105612500Y-61686452D01*
X105612500Y-60568115D01*
X105608025Y-60552876D01*
X105606635Y-60551671D01*
X105598952Y-60550000D01*
X104530616Y-60550000D01*
X104515377Y-60554475D01*
X104514172Y-60555865D01*
X104512501Y-60563548D01*
X104512501Y-61023871D01*
X103687501Y-61023871D01*
X103688000Y-61019745D01*
X103687999Y-60231885D01*
X104512500Y-60231885D01*
X104516975Y-60247124D01*
X104518365Y-60248329D01*
X104526048Y-60250000D01*
X105594385Y-60250000D01*
X105609624Y-60245525D01*
X105610829Y-60244135D01*
X105612500Y-60236452D01*
X105612500Y-60231885D01*
X105912500Y-60231885D01*
X105916975Y-60247124D01*
X105918365Y-60248329D01*
X105926048Y-60250000D01*
X106994384Y-60250000D01*
X107009623Y-60245525D01*
X107010828Y-60244135D01*
X107012499Y-60236452D01*
X107012499Y-59776129D01*
X107012161Y-59769609D01*
X107002783Y-59679215D01*
X106999892Y-59665823D01*
X106951200Y-59519877D01*
X106945026Y-59506698D01*
X106864295Y-59376237D01*
X106855259Y-59364837D01*
X106746676Y-59256444D01*
X106735265Y-59247432D01*
X106604656Y-59166924D01*
X106591475Y-59160777D01*
X106445432Y-59112336D01*
X106432056Y-59109469D01*
X106342838Y-59100328D01*
X106336421Y-59100000D01*
X105930615Y-59100000D01*
X105915376Y-59104475D01*
X105914171Y-59105865D01*
X105912500Y-59113548D01*
X105912500Y-60231885D01*
X105612500Y-60231885D01*
X105612500Y-59118116D01*
X105608025Y-59102877D01*
X105606635Y-59101672D01*
X105598952Y-59100001D01*
X105188629Y-59100001D01*
X105182109Y-59100339D01*
X105091715Y-59109717D01*
X105078323Y-59112608D01*
X104932377Y-59161300D01*
X104919198Y-59167474D01*
X104788737Y-59248205D01*
X104777337Y-59257241D01*
X104668944Y-59365824D01*
X104659932Y-59377235D01*
X104579424Y-59507844D01*
X104573277Y-59521025D01*
X104524836Y-59667068D01*
X104521969Y-59680444D01*
X104512828Y-59769662D01*
X104512500Y-59776079D01*
X104512500Y-60231885D01*
X103687999Y-60231885D01*
X103687999Y-59780256D01*
X103684883Y-59754498D01*
X103678685Y-59703281D01*
X103677713Y-59695248D01*
X103672742Y-59682691D01*
X103652451Y-59631443D01*
X103625140Y-59562463D01*
X103538794Y-59448706D01*
X103425037Y-59362360D01*
X103347536Y-59331675D01*
X103299782Y-59312768D01*
X103299780Y-59312767D01*
X103292252Y-59309787D01*
X103224491Y-59301587D01*
X103159266Y-59273546D01*
X103119556Y-59214694D01*
X103117968Y-59143715D01*
X103155006Y-59083145D01*
X103218911Y-59052215D01*
X103239628Y-59050500D01*
X103419748Y-59050500D01*
X103425816Y-59049293D01*
X103466061Y-59041288D01*
X103466062Y-59041288D01*
X103478231Y-59038867D01*
X103544552Y-58994552D01*
X103588867Y-58928231D01*
X103591640Y-58914293D01*
X103599293Y-58875816D01*
X103600500Y-58869748D01*
X103600500Y-57930252D01*
X103595435Y-57904789D01*
X103591288Y-57883939D01*
X103591288Y-57883938D01*
X103588867Y-57871769D01*
X103544552Y-57805448D01*
X103534239Y-57798557D01*
X103530338Y-57794656D01*
X103496312Y-57732344D01*
X103501377Y-57661529D01*
X103543924Y-57604693D01*
X103568220Y-57590858D01*
X103578231Y-57588867D01*
X103588548Y-57581974D01*
X103588549Y-57581973D01*
X103634239Y-57551443D01*
X103644552Y-57544552D01*
X103688867Y-57478231D01*
X103700500Y-57419748D01*
X103700500Y-56180252D01*
X103688867Y-56121769D01*
X103644552Y-56055448D01*
X103578231Y-56011133D01*
X103566062Y-56008712D01*
X103566061Y-56008712D01*
X103525816Y-56000707D01*
X103519748Y-55999500D01*
X102280252Y-55999500D01*
X102274184Y-56000707D01*
X102233939Y-56008712D01*
X102233938Y-56008712D01*
X102221769Y-56011133D01*
X102155448Y-56055448D01*
X102111133Y-56121769D01*
X102099500Y-56180252D01*
X102099500Y-57419748D01*
X102111133Y-57478231D01*
X102155448Y-57544552D01*
X102221769Y-57588867D01*
X102233938Y-57591288D01*
X102233939Y-57591288D01*
X102274184Y-57599293D01*
X102280252Y-57600500D01*
X102448500Y-57600500D01*
X102516621Y-57620502D01*
X102563114Y-57674158D01*
X102574500Y-57726500D01*
X102574500Y-57738712D01*
X102553265Y-57808715D01*
X102511133Y-57871769D01*
X102508712Y-57883938D01*
X102508712Y-57883939D01*
X102504565Y-57904789D01*
X102499500Y-57930252D01*
X102499500Y-58869748D01*
X102500707Y-58875816D01*
X102508361Y-58914293D01*
X102511133Y-58928231D01*
X102555448Y-58994552D01*
X102621769Y-59038867D01*
X102677344Y-59049922D01*
X102740253Y-59082828D01*
X102775386Y-59144522D01*
X102771586Y-59215417D01*
X102730061Y-59273004D01*
X102663995Y-59298998D01*
X102652763Y-59299500D01*
X102075500Y-59299501D01*
X102067756Y-59299501D01*
X102063998Y-59299956D01*
X102063993Y-59299956D01*
X101990789Y-59308814D01*
X101982748Y-59309787D01*
X101975225Y-59312765D01*
X101975223Y-59312766D01*
X101925715Y-59332368D01*
X101849963Y-59362360D01*
X101736206Y-59448706D01*
X101649860Y-59562463D01*
X101637024Y-59594884D01*
X101593349Y-59650858D01*
X101519872Y-59674500D01*
X101213219Y-59674500D01*
X101145098Y-59654498D01*
X101098605Y-59600842D01*
X101088297Y-59532054D01*
X101104604Y-59408188D01*
X101105682Y-59400000D01*
X101096882Y-59333157D01*
X101107821Y-59263010D01*
X101132709Y-59227617D01*
X101272921Y-59087405D01*
X101335233Y-59053379D01*
X101362016Y-59050500D01*
X101719748Y-59050500D01*
X101725816Y-59049293D01*
X101766061Y-59041288D01*
X101766062Y-59041288D01*
X101778231Y-59038867D01*
X101844552Y-58994552D01*
X101888867Y-58928231D01*
X101891640Y-58914293D01*
X101899293Y-58875816D01*
X101900500Y-58869748D01*
X101900500Y-57930252D01*
X101895435Y-57904789D01*
X101891288Y-57883939D01*
X101891288Y-57883938D01*
X101888867Y-57871769D01*
X101844552Y-57805448D01*
X101778231Y-57761133D01*
X101766062Y-57758712D01*
X101766061Y-57758712D01*
X101725816Y-57750707D01*
X101719748Y-57749500D01*
X101540372Y-57749500D01*
X101472251Y-57729498D01*
X101425758Y-57675842D01*
X101415654Y-57605568D01*
X101443067Y-57545544D01*
X101444552Y-57544552D01*
X101488867Y-57478231D01*
X101500500Y-57419748D01*
X101500500Y-56180252D01*
X101488867Y-56121769D01*
X101444552Y-56055448D01*
X101378231Y-56011133D01*
X101366062Y-56008712D01*
X101366061Y-56008712D01*
X101325816Y-56000707D01*
X101319748Y-55999500D01*
X100080252Y-55999500D01*
X100074184Y-56000707D01*
X100033939Y-56008712D01*
X100033938Y-56008712D01*
X100021769Y-56011133D01*
X99955448Y-56055448D01*
X99911133Y-56121769D01*
X99899500Y-56180252D01*
X99899500Y-57419748D01*
X99911133Y-57478231D01*
X99955448Y-57544552D01*
X99965761Y-57551443D01*
X99965763Y-57551445D01*
X99976193Y-57558414D01*
X100021721Y-57612891D01*
X100030569Y-57683334D01*
X99999928Y-57747378D01*
X99982893Y-57763143D01*
X99971718Y-57771718D01*
X99875464Y-57897159D01*
X99814956Y-58043238D01*
X99794318Y-58200000D01*
X99814956Y-58356762D01*
X99875464Y-58502841D01*
X99971718Y-58628282D01*
X100097159Y-58724536D01*
X100104261Y-58727478D01*
X100153073Y-58778669D01*
X100166511Y-58848382D01*
X100140125Y-58914293D01*
X100117784Y-58936370D01*
X100078267Y-58966692D01*
X100078264Y-58966695D01*
X100071718Y-58971718D01*
X99975464Y-59097159D01*
X99914956Y-59243238D01*
X99894318Y-59400000D01*
X99914956Y-59556762D01*
X99918115Y-59564389D01*
X99918116Y-59564392D01*
X99962165Y-59670735D01*
X99969754Y-59741325D01*
X99937975Y-59804812D01*
X99893975Y-59835362D01*
X99797159Y-59875464D01*
X99671718Y-59971718D01*
X99575464Y-60097159D01*
X99514956Y-60243238D01*
X99494318Y-60400000D01*
X99514956Y-60556762D01*
X99575464Y-60702841D01*
X99671718Y-60828282D01*
X99797159Y-60924536D01*
X99943238Y-60985044D01*
X99951426Y-60986122D01*
X99968099Y-60988317D01*
X100100000Y-61005682D01*
X100108188Y-61004604D01*
X100256762Y-60985044D01*
X100257003Y-60986873D01*
X100317666Y-60988317D01*
X100376461Y-61028112D01*
X100404408Y-61093377D01*
X100404221Y-61124779D01*
X100394318Y-61200000D01*
X100414956Y-61356762D01*
X100475464Y-61502841D01*
X100480491Y-61509392D01*
X100522922Y-61564690D01*
X100548522Y-61630911D01*
X100534257Y-61700460D01*
X100484656Y-61751255D01*
X100415466Y-61767171D01*
X100400234Y-61764291D01*
X100400148Y-61764835D01*
X100311373Y-61750775D01*
X100301527Y-61750000D01*
X100068115Y-61750000D01*
X100052876Y-61754475D01*
X100051671Y-61755865D01*
X100050000Y-61763548D01*
X100050000Y-62274000D01*
X100029998Y-62342121D01*
X99976342Y-62388614D01*
X99924000Y-62400000D01*
X99876000Y-62400000D01*
X99807879Y-62379998D01*
X99761386Y-62326342D01*
X99750000Y-62274000D01*
X99750000Y-61768116D01*
X99745525Y-61752877D01*
X99744135Y-61751672D01*
X99736452Y-61750001D01*
X99498475Y-61750001D01*
X99488626Y-61750776D01*
X99409649Y-61763283D01*
X99391014Y-61769338D01*
X99295787Y-61817859D01*
X99279944Y-61829370D01*
X99204370Y-61904944D01*
X99192859Y-61920787D01*
X99144336Y-62016018D01*
X99138284Y-62034645D01*
X99125775Y-62113627D01*
X99125000Y-62123473D01*
X99125000Y-62431885D01*
X99129475Y-62447124D01*
X99130865Y-62448329D01*
X99138548Y-62450000D01*
X99474000Y-62450000D01*
X99542121Y-62470002D01*
X99588614Y-62523658D01*
X99600000Y-62576000D01*
X99600000Y-62624000D01*
X99579998Y-62692121D01*
X99526342Y-62738614D01*
X99474000Y-62750000D01*
X99143116Y-62750000D01*
X99127877Y-62754475D01*
X99126672Y-62755865D01*
X99125001Y-62763548D01*
X99125001Y-63076525D01*
X99125776Y-63086374D01*
X99138283Y-63165351D01*
X99144338Y-63183986D01*
X99192859Y-63279213D01*
X99204370Y-63295056D01*
X99279944Y-63370630D01*
X99295787Y-63382141D01*
X99347549Y-63408515D01*
X99399164Y-63457263D01*
X99416230Y-63526178D01*
X99393329Y-63593380D01*
X99386669Y-63601291D01*
X99380448Y-63605448D01*
X99336133Y-63671769D01*
X99324500Y-63730252D01*
X99324500Y-64669748D01*
X99336133Y-64728231D01*
X99380448Y-64794552D01*
X99446769Y-64838867D01*
X99504041Y-64850259D01*
X99566950Y-64883167D01*
X99588608Y-64913508D01*
X99589412Y-64913044D01*
X99589412Y-64913045D01*
X99590432Y-64914812D01*
X99592838Y-64919433D01*
X99593638Y-64920554D01*
X99593778Y-64920854D01*
X99594561Y-64922742D01*
X99595503Y-64924553D01*
X99597592Y-64929033D01*
X99600446Y-64939684D01*
X99606770Y-64948715D01*
X99622055Y-64970544D01*
X99627961Y-64979815D01*
X99641293Y-65002906D01*
X99646806Y-65012455D01*
X99655251Y-65019541D01*
X99675682Y-65036685D01*
X99683785Y-65044111D01*
X99867291Y-65227617D01*
X99901317Y-65289929D01*
X99903118Y-65333157D01*
X99894318Y-65400000D01*
X99914956Y-65556762D01*
X99975464Y-65702841D01*
X99998606Y-65733000D01*
X100050017Y-65800000D01*
X100071718Y-65828282D01*
X100197159Y-65924536D01*
X100343238Y-65985044D01*
X100500000Y-66005682D01*
X100508188Y-66004604D01*
X100648574Y-65986122D01*
X100656762Y-65985044D01*
X100802841Y-65924536D01*
X100928282Y-65828282D01*
X100949984Y-65800000D01*
X101001394Y-65733000D01*
X101024536Y-65702841D01*
X101085044Y-65556762D01*
X101105682Y-65400000D01*
X101085044Y-65243238D01*
X101024536Y-65097159D01*
X100928282Y-64971718D01*
X100802841Y-64875464D01*
X100656762Y-64814956D01*
X100583998Y-64805376D01*
X100519072Y-64776655D01*
X100479980Y-64717390D01*
X100475312Y-64670696D01*
X100475500Y-64669748D01*
X100475500Y-64526000D01*
X100495502Y-64457879D01*
X100549158Y-64411386D01*
X100601500Y-64400000D01*
X103600000Y-64400000D01*
X103600000Y-64394681D01*
X103632129Y-64385247D01*
X103703125Y-64385247D01*
X103756722Y-64417048D01*
X105542083Y-66202409D01*
X105549510Y-66210513D01*
X105573739Y-66239388D01*
X105583288Y-66244901D01*
X105606379Y-66258233D01*
X105615650Y-66264139D01*
X105646510Y-66285748D01*
X105657160Y-66288602D01*
X105660328Y-66290079D01*
X105663604Y-66291271D01*
X105673149Y-66296782D01*
X105706893Y-66302732D01*
X105710252Y-66303324D01*
X105720979Y-66305702D01*
X105757387Y-66315458D01*
X105768363Y-66314498D01*
X105768366Y-66314498D01*
X105794937Y-66312173D01*
X105805918Y-66311694D01*
X107163473Y-66311694D01*
X107231594Y-66331696D01*
X107252569Y-66348599D01*
X107687596Y-66783627D01*
X107721621Y-66845939D01*
X107724500Y-66872722D01*
X107724500Y-68429312D01*
X107724020Y-68440294D01*
X107722944Y-68452597D01*
X107720736Y-68477829D01*
X107726958Y-68501048D01*
X107730491Y-68514232D01*
X107732870Y-68524964D01*
X107739412Y-68562067D01*
X107744923Y-68571612D01*
X107746115Y-68574888D01*
X107747592Y-68578056D01*
X107750446Y-68588706D01*
X107756770Y-68597737D01*
X107772055Y-68619566D01*
X107777961Y-68628837D01*
X107791293Y-68651928D01*
X107796806Y-68661477D01*
X107805251Y-68668563D01*
X107825682Y-68685707D01*
X107833785Y-68693133D01*
X109418269Y-70277618D01*
X109452295Y-70339930D01*
X109454096Y-70383158D01*
X109445296Y-70450000D01*
X109465934Y-70606762D01*
X109526442Y-70752841D01*
X109622696Y-70878282D01*
X109748137Y-70974536D01*
X109894216Y-71035044D01*
X110050978Y-71055682D01*
X110059166Y-71054604D01*
X110199552Y-71036122D01*
X110207740Y-71035044D01*
X110353819Y-70974536D01*
X110479260Y-70878282D01*
X110575514Y-70752841D01*
X110636022Y-70606762D01*
X110656660Y-70450000D01*
X110636022Y-70293238D01*
X110575514Y-70147159D01*
X110479260Y-70021718D01*
X110353819Y-69925464D01*
X110207740Y-69864956D01*
X110185895Y-69862080D01*
X110059166Y-69845396D01*
X110050978Y-69844318D01*
X109984137Y-69853118D01*
X109913990Y-69842179D01*
X109878597Y-69817292D01*
X109280383Y-69219078D01*
X109246358Y-69156766D01*
X109246357Y-69103201D01*
X109250000Y-69086453D01*
X109250000Y-68926000D01*
X109270002Y-68857879D01*
X109323658Y-68811386D01*
X109376000Y-68800000D01*
X109424000Y-68800000D01*
X109492121Y-68820002D01*
X109538614Y-68873658D01*
X109550000Y-68926000D01*
X109550000Y-69081884D01*
X109554475Y-69097123D01*
X109555865Y-69098328D01*
X109563548Y-69099999D01*
X109876525Y-69099999D01*
X109886374Y-69099224D01*
X109965351Y-69086717D01*
X109983986Y-69080662D01*
X110079213Y-69032141D01*
X110095056Y-69020630D01*
X110160905Y-68954781D01*
X110223217Y-68920755D01*
X110294032Y-68925820D01*
X110339095Y-68954781D01*
X110404944Y-69020630D01*
X110420787Y-69032141D01*
X110516018Y-69080664D01*
X110534645Y-69086716D01*
X110613627Y-69099225D01*
X110623473Y-69100000D01*
X110931885Y-69100000D01*
X110947124Y-69095525D01*
X110948329Y-69094135D01*
X110950000Y-69086452D01*
X110950000Y-68926000D01*
X110970002Y-68857879D01*
X111023658Y-68811386D01*
X111076000Y-68800000D01*
X111124000Y-68800000D01*
X111192121Y-68820002D01*
X111238614Y-68873658D01*
X111250000Y-68926000D01*
X111250000Y-69081884D01*
X111254475Y-69097123D01*
X111255865Y-69098328D01*
X111263548Y-69099999D01*
X111423011Y-69099999D01*
X111491132Y-69120001D01*
X111537625Y-69173657D01*
X111549011Y-69225999D01*
X111549011Y-69254801D01*
X111548531Y-69265783D01*
X111545247Y-69303318D01*
X111549603Y-69319573D01*
X111555002Y-69339721D01*
X111557381Y-69350453D01*
X111563923Y-69387556D01*
X111569434Y-69397101D01*
X111570626Y-69400377D01*
X111572103Y-69403545D01*
X111574957Y-69414195D01*
X111593874Y-69441211D01*
X111596566Y-69445055D01*
X111602472Y-69454326D01*
X111611410Y-69469806D01*
X111621317Y-69486966D01*
X111629762Y-69494052D01*
X111650186Y-69511190D01*
X111658291Y-69518617D01*
X111787736Y-69648063D01*
X111821761Y-69710375D01*
X111816695Y-69781191D01*
X111774149Y-69838026D01*
X111715084Y-69862080D01*
X111693238Y-69864956D01*
X111547159Y-69925464D01*
X111421718Y-70021718D01*
X111325464Y-70147159D01*
X111264956Y-70293238D01*
X111244318Y-70450000D01*
X111264956Y-70606762D01*
X111325464Y-70752841D01*
X111421718Y-70878282D01*
X111547159Y-70974536D01*
X111693238Y-71035044D01*
X111715434Y-71037966D01*
X111780361Y-71066687D01*
X111819454Y-71125952D01*
X111824989Y-71162888D01*
X111824989Y-77641809D01*
X111824509Y-77652791D01*
X111821225Y-77690326D01*
X111824079Y-77700975D01*
X111830980Y-77726729D01*
X111833359Y-77737461D01*
X111839901Y-77774564D01*
X111845412Y-77784109D01*
X111846604Y-77787385D01*
X111848081Y-77790553D01*
X111850935Y-77801203D01*
X111857259Y-77810234D01*
X111872544Y-77832063D01*
X111878450Y-77841334D01*
X111891782Y-77864425D01*
X111897295Y-77873974D01*
X111905740Y-77881060D01*
X111926171Y-77898204D01*
X111934274Y-77905630D01*
X114256055Y-80227411D01*
X114290081Y-80289723D01*
X114292960Y-80316506D01*
X114292960Y-80423488D01*
X114294167Y-80429556D01*
X114300231Y-80460040D01*
X114304593Y-80481971D01*
X114348908Y-80548292D01*
X114415229Y-80592607D01*
X114427398Y-80595028D01*
X114427399Y-80595028D01*
X114467644Y-80603033D01*
X114473712Y-80604240D01*
X116011808Y-80604240D01*
X116017876Y-80603033D01*
X116058121Y-80595028D01*
X116058122Y-80595028D01*
X116070291Y-80592607D01*
X116136612Y-80548292D01*
X116180927Y-80481971D01*
X116185290Y-80460040D01*
X116191353Y-80429556D01*
X116192560Y-80423488D01*
X116192560Y-79685492D01*
X116186561Y-79655332D01*
X116183348Y-79639179D01*
X116183348Y-79639178D01*
X116180927Y-79627009D01*
X116174033Y-79616692D01*
X116174032Y-79616689D01*
X116145897Y-79574583D01*
X116124681Y-79506831D01*
X116145897Y-79434577D01*
X116174032Y-79392471D01*
X116174033Y-79392468D01*
X116180927Y-79382151D01*
X116185290Y-79360220D01*
X116191353Y-79329736D01*
X116192560Y-79323668D01*
X116192560Y-78585672D01*
X116186561Y-78555512D01*
X116183348Y-78539359D01*
X116183348Y-78539358D01*
X116180927Y-78527189D01*
X116174033Y-78516872D01*
X116174032Y-78516869D01*
X116145897Y-78474763D01*
X116124681Y-78407011D01*
X116145896Y-78334758D01*
X116174624Y-78291764D01*
X116229101Y-78246236D01*
X116299545Y-78237389D01*
X116363588Y-78268030D01*
X116400900Y-78328432D01*
X116402968Y-78337183D01*
X116411133Y-78378231D01*
X116455448Y-78444552D01*
X116521769Y-78488867D01*
X116533938Y-78491288D01*
X116533939Y-78491288D01*
X116573082Y-78499074D01*
X116635992Y-78531982D01*
X116671123Y-78593677D01*
X116674500Y-78622653D01*
X116674500Y-78676128D01*
X116653266Y-78746129D01*
X116636133Y-78771769D01*
X116624500Y-78830252D01*
X116624500Y-79769748D01*
X116636133Y-79828231D01*
X116680448Y-79894552D01*
X116746769Y-79938867D01*
X116758938Y-79941288D01*
X116758939Y-79941288D01*
X116799184Y-79949293D01*
X116805252Y-79950500D01*
X117594748Y-79950500D01*
X117600816Y-79949293D01*
X117641061Y-79941288D01*
X117641062Y-79941288D01*
X117653231Y-79938867D01*
X117719552Y-79894552D01*
X117763867Y-79828231D01*
X117775500Y-79769748D01*
X117775500Y-78830252D01*
X117773093Y-78818150D01*
X117766288Y-78783939D01*
X117766288Y-78783938D01*
X117763867Y-78771769D01*
X117723700Y-78711655D01*
X117719552Y-78705448D01*
X117720420Y-78704868D01*
X117692251Y-78653283D01*
X117697316Y-78582468D01*
X117739863Y-78525632D01*
X117806383Y-78500821D01*
X117812531Y-78500601D01*
X117813557Y-78500500D01*
X117819748Y-78500500D01*
X117826917Y-78499074D01*
X117866061Y-78491288D01*
X117866062Y-78491288D01*
X117878231Y-78488867D01*
X117936712Y-78449791D01*
X117936715Y-78449789D01*
X117944552Y-78444552D01*
X117945021Y-78445253D01*
X117997217Y-78416751D01*
X118068032Y-78421816D01*
X118124868Y-78464363D01*
X118149679Y-78530883D01*
X118150000Y-78539872D01*
X118150000Y-82274000D01*
X118129998Y-82342121D01*
X118076342Y-82388614D01*
X118024000Y-82400000D01*
X116271257Y-82400000D01*
X116203136Y-82379998D01*
X116156643Y-82326342D01*
X116146539Y-82256068D01*
X116176033Y-82191488D01*
X116223039Y-82157591D01*
X116302841Y-82124536D01*
X116428282Y-82028282D01*
X116469323Y-81974796D01*
X116526661Y-81932929D01*
X116569286Y-81925500D01*
X116780290Y-81925500D01*
X116791272Y-81925980D01*
X116817820Y-81928303D01*
X116817822Y-81928303D01*
X116828807Y-81929264D01*
X116865215Y-81919508D01*
X116875942Y-81917130D01*
X116879301Y-81916538D01*
X116913045Y-81910588D01*
X116922590Y-81905077D01*
X116925866Y-81903885D01*
X116929034Y-81902408D01*
X116939684Y-81899554D01*
X116970544Y-81877945D01*
X116979815Y-81872039D01*
X117002906Y-81858707D01*
X117012455Y-81853194D01*
X117036685Y-81824317D01*
X117044111Y-81816215D01*
X117216215Y-81644111D01*
X117224319Y-81636684D01*
X117244752Y-81619539D01*
X117244753Y-81619538D01*
X117253194Y-81612455D01*
X117258704Y-81602911D01*
X117264914Y-81595510D01*
X117324023Y-81556183D01*
X117361436Y-81550500D01*
X117594748Y-81550500D01*
X117600816Y-81549293D01*
X117641061Y-81541288D01*
X117641062Y-81541288D01*
X117653231Y-81538867D01*
X117719552Y-81494552D01*
X117748368Y-81451426D01*
X117756974Y-81438547D01*
X117763867Y-81428231D01*
X117775500Y-81369748D01*
X117775500Y-80430252D01*
X117763867Y-80371769D01*
X117719552Y-80305448D01*
X117653231Y-80261133D01*
X117641062Y-80258712D01*
X117641061Y-80258712D01*
X117600816Y-80250707D01*
X117594748Y-80249500D01*
X116805252Y-80249500D01*
X116799184Y-80250707D01*
X116758939Y-80258712D01*
X116758938Y-80258712D01*
X116746769Y-80261133D01*
X116680448Y-80305448D01*
X116636133Y-80371769D01*
X116624500Y-80430252D01*
X116624500Y-81066778D01*
X116604498Y-81134899D01*
X116550842Y-81181392D01*
X116480568Y-81191496D01*
X116421796Y-81166741D01*
X116309392Y-81080491D01*
X116302841Y-81075464D01*
X116156762Y-81014956D01*
X116000000Y-80994318D01*
X115843238Y-81014956D01*
X115697159Y-81075464D01*
X115571718Y-81171718D01*
X115475464Y-81297159D01*
X115414956Y-81443238D01*
X115394318Y-81600000D01*
X115414956Y-81756762D01*
X115475464Y-81902841D01*
X115571718Y-82028282D01*
X115697159Y-82124536D01*
X115776961Y-82157591D01*
X115832242Y-82202139D01*
X115854663Y-82269503D01*
X115837105Y-82338294D01*
X115785143Y-82386672D01*
X115728743Y-82400000D01*
X98926000Y-82400000D01*
X98857879Y-82379998D01*
X98811386Y-82326342D01*
X98800000Y-82274000D01*
X98800000Y-76800000D01*
X99194318Y-76800000D01*
X99214956Y-76956762D01*
X99275464Y-77102841D01*
X99371718Y-77228282D01*
X99378264Y-77233305D01*
X99398499Y-77248832D01*
X99497159Y-77324536D01*
X99643238Y-77385044D01*
X99800000Y-77405682D01*
X99808188Y-77404604D01*
X99948574Y-77386122D01*
X99956762Y-77385044D01*
X100102841Y-77324536D01*
X100109393Y-77319509D01*
X100115654Y-77315894D01*
X100184650Y-77299157D01*
X100251741Y-77322378D01*
X100295628Y-77378186D01*
X100302232Y-77449595D01*
X100295020Y-77485852D01*
X100295020Y-78223848D01*
X100306653Y-78282331D01*
X100313547Y-78292648D01*
X100313548Y-78292651D01*
X100341683Y-78334757D01*
X100362899Y-78402509D01*
X100341683Y-78474763D01*
X100313548Y-78516869D01*
X100313547Y-78516872D01*
X100306653Y-78527189D01*
X100304232Y-78539358D01*
X100304232Y-78539359D01*
X100301019Y-78555512D01*
X100295020Y-78585672D01*
X100295020Y-79323668D01*
X100296227Y-79329736D01*
X100302291Y-79360220D01*
X100306653Y-79382151D01*
X100313547Y-79392468D01*
X100313548Y-79392471D01*
X100341683Y-79434577D01*
X100362899Y-79502329D01*
X100341683Y-79574583D01*
X100313548Y-79616689D01*
X100313547Y-79616692D01*
X100306653Y-79627009D01*
X100304232Y-79639178D01*
X100304232Y-79639179D01*
X100301019Y-79655332D01*
X100295020Y-79685492D01*
X100295020Y-80423488D01*
X100296227Y-80429556D01*
X100302291Y-80460040D01*
X100306653Y-80481971D01*
X100350968Y-80548292D01*
X100417289Y-80592607D01*
X100429458Y-80595028D01*
X100429459Y-80595028D01*
X100469704Y-80603033D01*
X100475772Y-80604240D01*
X102013868Y-80604240D01*
X102019936Y-80603033D01*
X102060181Y-80595028D01*
X102060182Y-80595028D01*
X102072351Y-80592607D01*
X102138672Y-80548292D01*
X102182987Y-80481971D01*
X102185408Y-80469801D01*
X102190157Y-80458335D01*
X102194272Y-80460040D01*
X102216038Y-80418466D01*
X102277746Y-80383357D01*
X102306678Y-80379990D01*
X102524410Y-80379990D01*
X102535392Y-80380470D01*
X102561940Y-80382793D01*
X102561942Y-80382793D01*
X102572927Y-80383754D01*
X102609335Y-80373998D01*
X102620062Y-80371620D01*
X102623421Y-80371028D01*
X102657165Y-80365078D01*
X102666710Y-80359567D01*
X102669986Y-80358375D01*
X102673154Y-80356898D01*
X102683804Y-80354044D01*
X102714664Y-80332435D01*
X102723935Y-80326529D01*
X102747026Y-80313197D01*
X102756575Y-80307684D01*
X102780805Y-80278807D01*
X102788231Y-80270705D01*
X104216222Y-78842715D01*
X104224326Y-78835288D01*
X104244750Y-78818150D01*
X104253194Y-78811065D01*
X104258704Y-78801522D01*
X104258707Y-78801518D01*
X104272036Y-78778431D01*
X104277941Y-78769161D01*
X104293232Y-78747323D01*
X104299554Y-78738294D01*
X104302407Y-78727646D01*
X104303886Y-78724475D01*
X104305078Y-78721199D01*
X104310588Y-78711655D01*
X104317134Y-78674534D01*
X104319508Y-78663827D01*
X104329263Y-78627417D01*
X104327667Y-78609168D01*
X104325979Y-78589879D01*
X104325500Y-78578898D01*
X104325500Y-70092017D01*
X104345502Y-70023896D01*
X104362405Y-70002921D01*
X104881112Y-69484215D01*
X104943424Y-69450190D01*
X104953758Y-69448389D01*
X105005729Y-69441547D01*
X105132208Y-69389158D01*
X105145383Y-69379049D01*
X105234268Y-69310844D01*
X105240818Y-69305818D01*
X105273253Y-69263548D01*
X105319130Y-69203761D01*
X105319131Y-69203759D01*
X105324158Y-69197208D01*
X105358509Y-69114278D01*
X105373387Y-69078359D01*
X105373388Y-69078356D01*
X105376547Y-69070729D01*
X105394416Y-68935000D01*
X105393338Y-68926812D01*
X105393338Y-68918554D01*
X105395836Y-68918554D01*
X105404826Y-68860877D01*
X105451949Y-68807774D01*
X105520301Y-68788578D01*
X105588181Y-68809383D01*
X105600393Y-68818544D01*
X105724089Y-68923632D01*
X105746352Y-68935000D01*
X105872194Y-68999259D01*
X105872199Y-68999261D01*
X105878711Y-69002586D01*
X105885816Y-69004325D01*
X105885820Y-69004326D01*
X105940101Y-69017608D01*
X106047348Y-69043851D01*
X106052950Y-69044199D01*
X106052953Y-69044199D01*
X106056354Y-69044410D01*
X106056363Y-69044410D01*
X106058293Y-69044530D01*
X106183478Y-69044530D01*
X106275059Y-69033853D01*
X106305173Y-69030342D01*
X106305174Y-69030342D01*
X106312445Y-69029494D01*
X106319322Y-69026998D01*
X106319325Y-69026997D01*
X106468761Y-68972754D01*
X106475640Y-68970257D01*
X106620830Y-68875066D01*
X106740227Y-68749027D01*
X106827427Y-68598902D01*
X106830805Y-68587751D01*
X106859812Y-68491975D01*
X106877752Y-68432743D01*
X106878238Y-68424922D01*
X106883874Y-68334057D01*
X106888502Y-68259463D01*
X106885418Y-68241511D01*
X106875129Y-68181635D01*
X106859101Y-68088357D01*
X106827077Y-68013097D01*
X106793992Y-67935342D01*
X106793991Y-67935340D01*
X106791125Y-67928605D01*
X106688222Y-67788775D01*
X106555911Y-67676368D01*
X106500405Y-67648025D01*
X106407806Y-67600741D01*
X106407801Y-67600739D01*
X106401289Y-67597414D01*
X106394184Y-67595675D01*
X106394180Y-67595674D01*
X106301529Y-67573003D01*
X106232652Y-67556149D01*
X106227050Y-67555801D01*
X106227047Y-67555801D01*
X106223646Y-67555590D01*
X106223637Y-67555590D01*
X106221707Y-67555470D01*
X106096522Y-67555470D01*
X106004941Y-67566147D01*
X105974827Y-67569658D01*
X105974826Y-67569658D01*
X105967555Y-67570506D01*
X105960678Y-67573002D01*
X105960675Y-67573003D01*
X105819374Y-67624293D01*
X105748517Y-67628734D01*
X105686506Y-67594161D01*
X105653031Y-67531552D01*
X105651168Y-67519898D01*
X105648412Y-67495326D01*
X105645310Y-67481673D01*
X105591480Y-67327094D01*
X105585425Y-67314457D01*
X105536283Y-67235813D01*
X105525743Y-67226443D01*
X105516695Y-67230437D01*
X104438575Y-68308557D01*
X104431815Y-68320937D01*
X104438260Y-68329546D01*
X104488098Y-68362159D01*
X104534147Y-68416196D01*
X104543671Y-68486551D01*
X104513647Y-68550887D01*
X104508201Y-68556687D01*
X104505732Y-68559156D01*
X104499182Y-68564182D01*
X104494156Y-68570732D01*
X104431852Y-68651928D01*
X104415842Y-68672792D01*
X104389648Y-68736031D01*
X104368763Y-68786452D01*
X104363453Y-68799271D01*
X104362375Y-68807459D01*
X104359922Y-68826092D01*
X104331200Y-68891019D01*
X104271935Y-68930111D01*
X104200943Y-68930956D01*
X104140764Y-68893286D01*
X104110078Y-68826092D01*
X104107625Y-68807459D01*
X104106547Y-68799271D01*
X104101238Y-68786452D01*
X104080352Y-68736031D01*
X104054158Y-68672792D01*
X104038149Y-68651928D01*
X103975844Y-68570732D01*
X103970818Y-68564182D01*
X103950560Y-68548637D01*
X103868761Y-68485870D01*
X103868759Y-68485869D01*
X103862208Y-68480842D01*
X103794018Y-68452597D01*
X103743359Y-68431613D01*
X103743356Y-68431612D01*
X103735729Y-68428453D01*
X103708908Y-68424922D01*
X103643981Y-68396200D01*
X103604889Y-68336935D01*
X103604044Y-68265943D01*
X103641714Y-68205764D01*
X103708908Y-68175078D01*
X103727541Y-68172625D01*
X103735729Y-68171547D01*
X103743356Y-68168388D01*
X103743359Y-68168387D01*
X103821760Y-68135912D01*
X103862208Y-68119158D01*
X103892949Y-68095570D01*
X103964268Y-68040844D01*
X103970818Y-68035818D01*
X103975844Y-68029268D01*
X103979485Y-68025627D01*
X104041797Y-67991601D01*
X104112612Y-67996666D01*
X104169448Y-68039213D01*
X104176356Y-68049451D01*
X104203582Y-68094407D01*
X104213989Y-68103922D01*
X104222607Y-68100261D01*
X104645056Y-67677812D01*
X104652670Y-67663868D01*
X104652539Y-67662035D01*
X104648288Y-67655420D01*
X104226366Y-67233498D01*
X104213986Y-67226738D01*
X104205615Y-67233005D01*
X104173617Y-67282657D01*
X104119903Y-67329082D01*
X104049617Y-67339098D01*
X103985073Y-67309524D01*
X103978610Y-67303498D01*
X103975844Y-67300732D01*
X103970818Y-67294182D01*
X103912532Y-67249457D01*
X103868761Y-67215870D01*
X103868759Y-67215869D01*
X103862208Y-67210842D01*
X103798969Y-67184648D01*
X103743359Y-67161613D01*
X103743356Y-67161612D01*
X103735729Y-67158453D01*
X103600000Y-67140584D01*
X103464271Y-67158453D01*
X103456644Y-67161612D01*
X103456641Y-67161613D01*
X103401031Y-67184648D01*
X103337792Y-67210842D01*
X103331241Y-67215869D01*
X103331239Y-67215870D01*
X103287468Y-67249457D01*
X103229182Y-67294182D01*
X103224156Y-67300732D01*
X103152377Y-67394276D01*
X103145842Y-67402792D01*
X103133231Y-67433239D01*
X103107532Y-67495282D01*
X103093453Y-67529271D01*
X103092375Y-67537459D01*
X103089922Y-67556092D01*
X103061200Y-67621019D01*
X103001935Y-67660111D01*
X102930943Y-67660956D01*
X102870764Y-67623286D01*
X102840078Y-67556092D01*
X102837625Y-67537459D01*
X102836547Y-67529271D01*
X102822469Y-67495282D01*
X102796769Y-67433239D01*
X102784158Y-67402792D01*
X102779130Y-67396239D01*
X102775001Y-67389087D01*
X102777093Y-67387879D01*
X102755937Y-67333151D01*
X102755500Y-67322672D01*
X102755500Y-67009138D01*
X104431275Y-67009138D01*
X104435100Y-67017968D01*
X104857188Y-67440056D01*
X104871132Y-67447670D01*
X104872965Y-67447539D01*
X104879580Y-67443288D01*
X105301605Y-67021263D01*
X105308365Y-67008883D01*
X105302271Y-67000743D01*
X105225527Y-66952039D01*
X105212934Y-66945897D01*
X105058731Y-66890987D01*
X105045106Y-66887791D01*
X104882560Y-66868409D01*
X104868563Y-66868311D01*
X104705761Y-66885423D01*
X104692097Y-66888428D01*
X104537135Y-66941180D01*
X104524465Y-66947142D01*
X104440718Y-66998663D01*
X104431275Y-67009138D01*
X102755500Y-67009138D01*
X102755500Y-66346265D01*
X102775502Y-66278144D01*
X102804796Y-66246303D01*
X102828282Y-66228282D01*
X102841196Y-66211453D01*
X102893126Y-66143775D01*
X102924536Y-66102841D01*
X102985044Y-65956762D01*
X103005682Y-65800000D01*
X102987419Y-65661279D01*
X102986122Y-65651426D01*
X102985044Y-65643238D01*
X102924536Y-65497159D01*
X102852262Y-65402970D01*
X102833305Y-65378264D01*
X102828282Y-65371718D01*
X102702841Y-65275464D01*
X102556762Y-65214956D01*
X102400000Y-65194318D01*
X102243238Y-65214956D01*
X102097159Y-65275464D01*
X101971718Y-65371718D01*
X101966695Y-65378264D01*
X101947738Y-65402970D01*
X101875464Y-65497159D01*
X101814956Y-65643238D01*
X101813878Y-65651426D01*
X101812581Y-65661279D01*
X101794318Y-65800000D01*
X101814956Y-65956762D01*
X101875464Y-66102841D01*
X101971718Y-66228282D01*
X101978264Y-66233305D01*
X102055204Y-66292343D01*
X102097071Y-66349681D01*
X102104500Y-66392306D01*
X102104500Y-67120539D01*
X102084498Y-67188660D01*
X102055207Y-67220499D01*
X101998161Y-67264272D01*
X101931944Y-67289872D01*
X101862395Y-67275608D01*
X101811598Y-67226007D01*
X101797279Y-67185647D01*
X101779114Y-67079932D01*
X101779113Y-67079929D01*
X101777874Y-67072718D01*
X101775008Y-67065982D01*
X101712881Y-66919975D01*
X101712880Y-66919973D01*
X101710014Y-66913238D01*
X101607287Y-66773647D01*
X101475201Y-66661432D01*
X101320843Y-66582613D01*
X101313737Y-66580874D01*
X101313734Y-66580873D01*
X101227724Y-66559827D01*
X101152493Y-66541418D01*
X101146891Y-66541070D01*
X101146888Y-66541070D01*
X101143503Y-66540860D01*
X101143494Y-66540860D01*
X101141564Y-66540740D01*
X101016600Y-66540740D01*
X100924041Y-66551531D01*
X100895121Y-66554903D01*
X100895120Y-66554903D01*
X100887849Y-66555751D01*
X100880972Y-66558247D01*
X100880969Y-66558248D01*
X100806625Y-66585234D01*
X100724933Y-66614887D01*
X100579990Y-66709915D01*
X100460797Y-66835739D01*
X100373746Y-66985608D01*
X100371625Y-66992612D01*
X100371623Y-66992616D01*
X100345565Y-67078654D01*
X100323507Y-67151484D01*
X100312775Y-67324468D01*
X100314015Y-67331684D01*
X100314015Y-67331686D01*
X100339788Y-67481673D01*
X100342126Y-67495282D01*
X100344992Y-67502016D01*
X100344992Y-67502018D01*
X100396593Y-67623286D01*
X100409986Y-67654762D01*
X100512713Y-67794353D01*
X100644799Y-67906568D01*
X100799157Y-67985387D01*
X100806263Y-67987126D01*
X100806266Y-67987127D01*
X100886345Y-68006722D01*
X100967507Y-68026582D01*
X100973109Y-68026930D01*
X100973112Y-68026930D01*
X100976497Y-68027140D01*
X100976506Y-68027140D01*
X100978436Y-68027260D01*
X101103400Y-68027260D01*
X101195959Y-68016469D01*
X101224879Y-68013097D01*
X101224880Y-68013097D01*
X101232151Y-68012249D01*
X101239028Y-68009753D01*
X101239031Y-68009752D01*
X101388188Y-67955610D01*
X101395067Y-67953113D01*
X101540010Y-67858085D01*
X101620190Y-67773444D01*
X101681557Y-67737746D01*
X101752484Y-67740893D01*
X101810450Y-67781887D01*
X101828071Y-67811879D01*
X101845010Y-67852772D01*
X101875842Y-67927208D01*
X101880869Y-67933759D01*
X101880870Y-67933761D01*
X101897636Y-67955610D01*
X101959182Y-68035818D01*
X101965732Y-68040844D01*
X102037052Y-68095570D01*
X102067792Y-68119158D01*
X102108240Y-68135912D01*
X102186641Y-68168387D01*
X102186644Y-68168388D01*
X102194271Y-68171547D01*
X102202459Y-68172625D01*
X102221092Y-68175078D01*
X102286019Y-68203800D01*
X102325111Y-68263065D01*
X102325956Y-68334057D01*
X102288286Y-68394236D01*
X102221092Y-68424922D01*
X102194271Y-68428453D01*
X102186644Y-68431612D01*
X102186641Y-68431613D01*
X102135982Y-68452597D01*
X102067792Y-68480842D01*
X102061241Y-68485869D01*
X102061239Y-68485870D01*
X101979440Y-68548637D01*
X101959182Y-68564182D01*
X101954156Y-68570732D01*
X101891852Y-68651928D01*
X101875842Y-68672792D01*
X101846887Y-68742696D01*
X101829398Y-68784918D01*
X101784850Y-68840199D01*
X101717486Y-68862620D01*
X101648695Y-68845062D01*
X101617102Y-68816448D01*
X101616619Y-68816898D01*
X101611629Y-68811546D01*
X101607287Y-68805647D01*
X101475201Y-68693432D01*
X101320843Y-68614613D01*
X101313737Y-68612874D01*
X101313734Y-68612873D01*
X101228010Y-68591897D01*
X101152493Y-68573418D01*
X101146891Y-68573070D01*
X101146888Y-68573070D01*
X101143503Y-68572860D01*
X101143494Y-68572860D01*
X101141564Y-68572740D01*
X101016600Y-68572740D01*
X100924041Y-68583531D01*
X100895121Y-68586903D01*
X100895120Y-68586903D01*
X100887849Y-68587751D01*
X100880972Y-68590247D01*
X100880969Y-68590248D01*
X100731812Y-68644390D01*
X100724933Y-68646887D01*
X100579990Y-68741915D01*
X100460797Y-68867739D01*
X100373746Y-69017608D01*
X100371625Y-69024612D01*
X100371623Y-69024616D01*
X100342734Y-69120001D01*
X100323507Y-69183484D01*
X100312775Y-69356468D01*
X100314015Y-69363684D01*
X100314015Y-69363686D01*
X100339969Y-69514726D01*
X100342126Y-69527282D01*
X100344992Y-69534016D01*
X100344992Y-69534018D01*
X100404752Y-69674461D01*
X100409986Y-69686762D01*
X100512713Y-69826353D01*
X100644799Y-69938568D01*
X100799157Y-70017387D01*
X100806263Y-70019126D01*
X100806266Y-70019127D01*
X100886345Y-70038722D01*
X100967507Y-70058582D01*
X100973109Y-70058930D01*
X100973112Y-70058930D01*
X100976497Y-70059140D01*
X100976506Y-70059140D01*
X100978436Y-70059260D01*
X101103400Y-70059260D01*
X101195959Y-70048469D01*
X101224879Y-70045097D01*
X101224880Y-70045097D01*
X101232151Y-70044249D01*
X101239028Y-70041753D01*
X101239031Y-70041752D01*
X101388188Y-69987610D01*
X101395067Y-69985113D01*
X101540010Y-69890085D01*
X101659203Y-69764261D01*
X101711363Y-69674461D01*
X101742578Y-69620721D01*
X101742579Y-69620720D01*
X101746254Y-69614392D01*
X101748977Y-69605404D01*
X101793270Y-69459157D01*
X101796493Y-69448516D01*
X101797679Y-69429404D01*
X101821862Y-69362653D01*
X101878295Y-69319573D01*
X101949060Y-69313842D01*
X102000140Y-69337247D01*
X102054618Y-69379049D01*
X102096485Y-69436387D01*
X102100950Y-69456715D01*
X102100736Y-69459157D01*
X102105629Y-69477417D01*
X102110491Y-69495560D01*
X102112870Y-69506292D01*
X102119412Y-69543395D01*
X102124923Y-69552940D01*
X102126115Y-69556216D01*
X102127592Y-69559384D01*
X102130446Y-69570034D01*
X102136770Y-69579065D01*
X102152055Y-69600894D01*
X102157961Y-69610165D01*
X102162497Y-69618021D01*
X102176806Y-69642805D01*
X102185251Y-69649891D01*
X102205682Y-69667035D01*
X102213785Y-69674461D01*
X102256226Y-69716902D01*
X102290252Y-69779214D01*
X102293131Y-69805997D01*
X102293131Y-71506033D01*
X102273129Y-71574154D01*
X102219473Y-71620647D01*
X102149199Y-71630751D01*
X102128197Y-71625867D01*
X102109474Y-71619784D01*
X102030493Y-71607275D01*
X102020647Y-71606500D01*
X101412935Y-71606500D01*
X101397696Y-71610975D01*
X101396491Y-71612365D01*
X101394820Y-71620048D01*
X101394820Y-72379750D01*
X101374818Y-72447871D01*
X101321162Y-72494364D01*
X101268820Y-72505750D01*
X101220820Y-72505750D01*
X101152699Y-72485748D01*
X101106206Y-72432092D01*
X101094820Y-72379750D01*
X101094820Y-71624616D01*
X101090345Y-71609377D01*
X101088955Y-71608172D01*
X101081272Y-71606501D01*
X100923765Y-71606501D01*
X100855644Y-71586499D01*
X100809151Y-71532843D01*
X100799047Y-71462569D01*
X100817841Y-71417967D01*
X100815379Y-71416546D01*
X100819509Y-71409393D01*
X100824536Y-71402841D01*
X100885044Y-71256762D01*
X100905682Y-71100000D01*
X100885044Y-70943238D01*
X100824536Y-70797159D01*
X100728282Y-70671718D01*
X100602841Y-70575464D01*
X100456762Y-70514956D01*
X100300000Y-70494318D01*
X100143238Y-70514956D01*
X99997159Y-70575464D01*
X99871718Y-70671718D01*
X99775464Y-70797159D01*
X99714956Y-70943238D01*
X99694318Y-71100000D01*
X99714956Y-71256762D01*
X99718116Y-71264391D01*
X99748249Y-71337138D01*
X99757840Y-71385356D01*
X99757840Y-73273680D01*
X99757360Y-73284662D01*
X99754076Y-73322197D01*
X99756930Y-73332846D01*
X99763831Y-73358600D01*
X99766210Y-73369332D01*
X99772752Y-73406435D01*
X99778263Y-73415980D01*
X99779455Y-73419256D01*
X99780932Y-73422424D01*
X99783786Y-73433074D01*
X99790110Y-73442105D01*
X99805395Y-73463934D01*
X99811301Y-73473205D01*
X99824633Y-73496296D01*
X99830146Y-73505845D01*
X99838591Y-73512931D01*
X99859015Y-73530069D01*
X99867120Y-73537496D01*
X100001421Y-73671798D01*
X100008847Y-73679901D01*
X100033065Y-73708764D01*
X100042608Y-73714274D01*
X100042612Y-73714277D01*
X100065699Y-73727606D01*
X100074968Y-73733510D01*
X100105836Y-73755124D01*
X100116484Y-73757977D01*
X100119655Y-73759456D01*
X100122931Y-73760648D01*
X100132475Y-73766158D01*
X100169596Y-73772704D01*
X100180308Y-73775079D01*
X100215398Y-73784481D01*
X100276020Y-73821431D01*
X100295914Y-73860893D01*
X100299483Y-73859415D01*
X100304232Y-73870880D01*
X100306653Y-73883051D01*
X100313547Y-73893368D01*
X100313548Y-73893371D01*
X100341683Y-73935477D01*
X100362899Y-74003229D01*
X100341683Y-74075483D01*
X100313548Y-74117589D01*
X100313547Y-74117592D01*
X100306653Y-74127909D01*
X100295020Y-74186392D01*
X100295020Y-74924388D01*
X100296227Y-74930456D01*
X100301952Y-74959235D01*
X100306653Y-74982871D01*
X100313547Y-74993188D01*
X100313548Y-74993191D01*
X100341683Y-75035297D01*
X100362899Y-75103049D01*
X100341683Y-75175303D01*
X100313548Y-75217409D01*
X100313547Y-75217412D01*
X100306653Y-75227729D01*
X100295020Y-75286212D01*
X100295020Y-76024208D01*
X100296227Y-76030276D01*
X100302291Y-76060760D01*
X100306653Y-76082691D01*
X100313547Y-76093008D01*
X100313548Y-76093011D01*
X100341683Y-76135117D01*
X100362899Y-76202869D01*
X100341685Y-76275121D01*
X100338257Y-76280252D01*
X100335322Y-76284644D01*
X100280845Y-76330172D01*
X100210402Y-76339021D01*
X100153852Y-76314606D01*
X100152279Y-76313399D01*
X100102841Y-76275464D01*
X99956762Y-76214956D01*
X99800000Y-76194318D01*
X99643238Y-76214956D01*
X99497159Y-76275464D01*
X99371718Y-76371718D01*
X99366695Y-76378264D01*
X99355987Y-76392219D01*
X99275464Y-76497159D01*
X99214956Y-76643238D01*
X99194318Y-76800000D01*
X98800000Y-76800000D01*
X98800000Y-55426000D01*
X98820002Y-55357879D01*
X98873658Y-55311386D01*
X98926000Y-55300000D01*
X118024000Y-55300000D01*
X118092121Y-55320002D01*
G37*
%TD.AperFunction*%
M02*
