%TF.GenerationSoftware,KiCad,Pcbnew,(6.0.0)*%
%TF.CreationDate,2022-02-13T23:40:39+01:00*%
%TF.ProjectId,LoraTrigger,4c6f7261-5472-4696-9767-65722e6b6963,rev?*%
%TF.SameCoordinates,Original*%
%TF.FileFunction,Legend,Top*%
%TF.FilePolarity,Positive*%
%FSLAX46Y46*%
G04 Gerber Fmt 4.6, Leading zero omitted, Abs format (unit mm)*
G04 Created by KiCad (PCBNEW (6.0.0)) date 2022-02-13 23:40:39*
%MOMM*%
%LPD*%
G01*
G04 APERTURE LIST*
G04 Aperture macros list*
%AMRoundRect*
0 Rectangle with rounded corners*
0 $1 Rounding radius*
0 $2 $3 $4 $5 $6 $7 $8 $9 X,Y pos of 4 corners*
0 Add a 4 corners polygon primitive as box body*
4,1,4,$2,$3,$4,$5,$6,$7,$8,$9,$2,$3,0*
0 Add four circle primitives for the rounded corners*
1,1,$1+$1,$2,$3*
1,1,$1+$1,$4,$5*
1,1,$1+$1,$6,$7*
1,1,$1+$1,$8,$9*
0 Add four rect primitives between the rounded corners*
20,1,$1+$1,$2,$3,$4,$5,0*
20,1,$1+$1,$4,$5,$6,$7,0*
20,1,$1+$1,$6,$7,$8,$9,0*
20,1,$1+$1,$8,$9,$2,$3,0*%
G04 Aperture macros list end*
%ADD10C,0.100000*%
%ADD11C,0.120000*%
%ADD12C,0.985520*%
%ADD13C,0.988060*%
%ADD14RoundRect,0.320754X0.529246X0.579246X-0.529246X0.579246X-0.529246X-0.579246X0.529246X-0.579246X0*%
%ADD15R,1.498600X0.698500*%
%ADD16RoundRect,0.150000X-0.150000X0.587500X-0.150000X-0.587500X0.150000X-0.587500X0.150000X0.587500X0*%
%ADD17R,1.200000X1.200000*%
%ADD18R,0.700000X0.900000*%
%ADD19R,0.900000X0.700000*%
%ADD20R,0.750000X0.900000*%
%ADD21R,1.000000X3.000000*%
%ADD22C,0.784860*%
%ADD23R,1.100000X0.300000*%
%ADD24R,1.200000X0.800000*%
G04 APERTURE END LIST*
D10*
X103241421Y-64500000D02*
G75*
G03*
X103241421Y-64500000I-141421J0D01*
G01*
X115766666Y-55550000D02*
X115700000Y-55516666D01*
X115600000Y-55516666D01*
X115500000Y-55550000D01*
X115433333Y-55616666D01*
X115400000Y-55683333D01*
X115366666Y-55816666D01*
X115366666Y-55916666D01*
X115400000Y-56050000D01*
X115433333Y-56116666D01*
X115500000Y-56183333D01*
X115600000Y-56216666D01*
X115666666Y-56216666D01*
X115766666Y-56183333D01*
X115800000Y-56150000D01*
X115800000Y-55916666D01*
X115666666Y-55916666D01*
X116100000Y-56216666D02*
X116100000Y-55516666D01*
X116500000Y-56216666D01*
X116500000Y-55516666D01*
X116833333Y-56216666D02*
X116833333Y-55516666D01*
X117000000Y-55516666D01*
X117100000Y-55550000D01*
X117166666Y-55616666D01*
X117200000Y-55683333D01*
X117233333Y-55816666D01*
X117233333Y-55916666D01*
X117200000Y-56050000D01*
X117166666Y-56116666D01*
X117100000Y-56183333D01*
X117000000Y-56216666D01*
X116833333Y-56216666D01*
X117571428Y-39742857D02*
X118028571Y-39742857D01*
X117800000Y-39971428D02*
X117800000Y-39514285D01*
X110628571Y-64771428D02*
X110828571Y-65371428D01*
X111028571Y-64771428D01*
X111228571Y-65142857D02*
X111685714Y-65142857D01*
X111457142Y-65371428D02*
X111457142Y-64914285D01*
X101671428Y-56671428D02*
X102128571Y-56842857D01*
X101671428Y-57014285D01*
X105942857Y-76688428D02*
X105942857Y-76088428D01*
X106171428Y-76088428D01*
X106228571Y-76117000D01*
X106257142Y-76145571D01*
X106285714Y-76202714D01*
X106285714Y-76288428D01*
X106257142Y-76345571D01*
X106228571Y-76374142D01*
X106171428Y-76402714D01*
X105942857Y-76402714D01*
X106628571Y-76688428D02*
X106571428Y-76659857D01*
X106542857Y-76631285D01*
X106514285Y-76574142D01*
X106514285Y-76402714D01*
X106542857Y-76345571D01*
X106571428Y-76317000D01*
X106628571Y-76288428D01*
X106714285Y-76288428D01*
X106771428Y-76317000D01*
X106800000Y-76345571D01*
X106828571Y-76402714D01*
X106828571Y-76574142D01*
X106800000Y-76631285D01*
X106771428Y-76659857D01*
X106714285Y-76688428D01*
X106628571Y-76688428D01*
X107085714Y-76688428D02*
X107085714Y-76288428D01*
X107085714Y-76345571D02*
X107114285Y-76317000D01*
X107171428Y-76288428D01*
X107257142Y-76288428D01*
X107314285Y-76317000D01*
X107342857Y-76374142D01*
X107342857Y-76688428D01*
X107342857Y-76374142D02*
X107371428Y-76317000D01*
X107428571Y-76288428D01*
X107514285Y-76288428D01*
X107571428Y-76317000D01*
X107600000Y-76374142D01*
X107600000Y-76688428D01*
X107885714Y-76288428D02*
X107885714Y-76888428D01*
X107885714Y-76317000D02*
X107942857Y-76288428D01*
X108057142Y-76288428D01*
X108114285Y-76317000D01*
X108142857Y-76345571D01*
X108171428Y-76402714D01*
X108171428Y-76574142D01*
X108142857Y-76631285D01*
X108114285Y-76659857D01*
X108057142Y-76688428D01*
X107942857Y-76688428D01*
X107885714Y-76659857D01*
X108657142Y-76659857D02*
X108600000Y-76688428D01*
X108485714Y-76688428D01*
X108428571Y-76659857D01*
X108400000Y-76602714D01*
X108400000Y-76374142D01*
X108428571Y-76317000D01*
X108485714Y-76288428D01*
X108600000Y-76288428D01*
X108657142Y-76317000D01*
X108685714Y-76374142D01*
X108685714Y-76431285D01*
X108400000Y-76488428D01*
X109028571Y-76688428D02*
X108971428Y-76659857D01*
X108942857Y-76602714D01*
X108942857Y-76088428D01*
X109742857Y-76688428D02*
X109714285Y-76688428D01*
X109657142Y-76659857D01*
X109571428Y-76574142D01*
X109428571Y-76402714D01*
X109371428Y-76317000D01*
X109342857Y-76231285D01*
X109342857Y-76174142D01*
X109371428Y-76117000D01*
X109428571Y-76088428D01*
X109457142Y-76088428D01*
X109514285Y-76117000D01*
X109542857Y-76174142D01*
X109542857Y-76202714D01*
X109514285Y-76259857D01*
X109485714Y-76288428D01*
X109314285Y-76402714D01*
X109285714Y-76431285D01*
X109257142Y-76488428D01*
X109257142Y-76574142D01*
X109285714Y-76631285D01*
X109314285Y-76659857D01*
X109371428Y-76688428D01*
X109457142Y-76688428D01*
X109514285Y-76659857D01*
X109542857Y-76631285D01*
X109628571Y-76517000D01*
X109657142Y-76431285D01*
X109657142Y-76374142D01*
X110000000Y-76688428D02*
X110000000Y-76088428D01*
X110228571Y-76088428D01*
X110285714Y-76117000D01*
X110314285Y-76145571D01*
X110342857Y-76202714D01*
X110342857Y-76288428D01*
X110314285Y-76345571D01*
X110285714Y-76374142D01*
X110228571Y-76402714D01*
X110000000Y-76402714D01*
X110600000Y-76688428D02*
X110600000Y-76288428D01*
X110600000Y-76088428D02*
X110571428Y-76117000D01*
X110600000Y-76145571D01*
X110628571Y-76117000D01*
X110600000Y-76088428D01*
X110600000Y-76145571D01*
X110971428Y-76688428D02*
X110914285Y-76659857D01*
X110885714Y-76602714D01*
X110885714Y-76088428D01*
X111114285Y-76288428D02*
X111342857Y-76288428D01*
X111200000Y-76088428D02*
X111200000Y-76602714D01*
X111228571Y-76659857D01*
X111285714Y-76688428D01*
X111342857Y-76688428D01*
X106128571Y-77340142D02*
X106328571Y-77340142D01*
X106414285Y-77654428D02*
X106128571Y-77654428D01*
X106128571Y-77054428D01*
X106414285Y-77054428D01*
X106671428Y-77254428D02*
X106671428Y-77654428D01*
X106671428Y-77311571D02*
X106700000Y-77283000D01*
X106757142Y-77254428D01*
X106842857Y-77254428D01*
X106900000Y-77283000D01*
X106928571Y-77340142D01*
X106928571Y-77654428D01*
X107471428Y-77254428D02*
X107471428Y-77740142D01*
X107442857Y-77797285D01*
X107414285Y-77825857D01*
X107357142Y-77854428D01*
X107271428Y-77854428D01*
X107214285Y-77825857D01*
X107471428Y-77625857D02*
X107414285Y-77654428D01*
X107300000Y-77654428D01*
X107242857Y-77625857D01*
X107214285Y-77597285D01*
X107185714Y-77540142D01*
X107185714Y-77368714D01*
X107214285Y-77311571D01*
X107242857Y-77283000D01*
X107300000Y-77254428D01*
X107414285Y-77254428D01*
X107471428Y-77283000D01*
X107757142Y-77654428D02*
X107757142Y-77254428D01*
X107757142Y-77054428D02*
X107728571Y-77083000D01*
X107757142Y-77111571D01*
X107785714Y-77083000D01*
X107757142Y-77054428D01*
X107757142Y-77111571D01*
X108042857Y-77254428D02*
X108042857Y-77654428D01*
X108042857Y-77311571D02*
X108071428Y-77283000D01*
X108128571Y-77254428D01*
X108214285Y-77254428D01*
X108271428Y-77283000D01*
X108300000Y-77340142D01*
X108300000Y-77654428D01*
X108814285Y-77625857D02*
X108757142Y-77654428D01*
X108642857Y-77654428D01*
X108585714Y-77625857D01*
X108557142Y-77568714D01*
X108557142Y-77340142D01*
X108585714Y-77283000D01*
X108642857Y-77254428D01*
X108757142Y-77254428D01*
X108814285Y-77283000D01*
X108842857Y-77340142D01*
X108842857Y-77397285D01*
X108557142Y-77454428D01*
X109328571Y-77625857D02*
X109271428Y-77654428D01*
X109157142Y-77654428D01*
X109100000Y-77625857D01*
X109071428Y-77568714D01*
X109071428Y-77340142D01*
X109100000Y-77283000D01*
X109157142Y-77254428D01*
X109271428Y-77254428D01*
X109328571Y-77283000D01*
X109357142Y-77340142D01*
X109357142Y-77397285D01*
X109071428Y-77454428D01*
X109614285Y-77654428D02*
X109614285Y-77254428D01*
X109614285Y-77368714D02*
X109642857Y-77311571D01*
X109671428Y-77283000D01*
X109728571Y-77254428D01*
X109785714Y-77254428D01*
X109985714Y-77654428D02*
X109985714Y-77254428D01*
X109985714Y-77054428D02*
X109957142Y-77083000D01*
X109985714Y-77111571D01*
X110014285Y-77083000D01*
X109985714Y-77054428D01*
X109985714Y-77111571D01*
X110271428Y-77254428D02*
X110271428Y-77654428D01*
X110271428Y-77311571D02*
X110300000Y-77283000D01*
X110357142Y-77254428D01*
X110442857Y-77254428D01*
X110500000Y-77283000D01*
X110528571Y-77340142D01*
X110528571Y-77654428D01*
X111071428Y-77254428D02*
X111071428Y-77740142D01*
X111042857Y-77797285D01*
X111014285Y-77825857D01*
X110957142Y-77854428D01*
X110871428Y-77854428D01*
X110814285Y-77825857D01*
X111071428Y-77625857D02*
X111014285Y-77654428D01*
X110900000Y-77654428D01*
X110842857Y-77625857D01*
X110814285Y-77597285D01*
X110785714Y-77540142D01*
X110785714Y-77368714D01*
X110814285Y-77311571D01*
X110842857Y-77283000D01*
X110900000Y-77254428D01*
X111014285Y-77254428D01*
X111071428Y-77283000D01*
X108242857Y-64800000D02*
X108185714Y-64771428D01*
X108100000Y-64771428D01*
X108014285Y-64800000D01*
X107957142Y-64857142D01*
X107928571Y-64914285D01*
X107900000Y-65028571D01*
X107900000Y-65114285D01*
X107928571Y-65228571D01*
X107957142Y-65285714D01*
X108014285Y-65342857D01*
X108100000Y-65371428D01*
X108157142Y-65371428D01*
X108242857Y-65342857D01*
X108271428Y-65314285D01*
X108271428Y-65114285D01*
X108157142Y-65114285D01*
X108528571Y-65371428D02*
X108528571Y-64771428D01*
X108871428Y-65371428D01*
X108871428Y-64771428D01*
X109157142Y-65371428D02*
X109157142Y-64771428D01*
X109300000Y-64771428D01*
X109385714Y-64800000D01*
X109442857Y-64857142D01*
X109471428Y-64914285D01*
X109500000Y-65028571D01*
X109500000Y-65114285D01*
X109471428Y-65228571D01*
X109442857Y-65285714D01*
X109385714Y-65342857D01*
X109300000Y-65371428D01*
X109157142Y-65371428D01*
X115857142Y-65371428D02*
X115857142Y-64771428D01*
X116085714Y-64771428D01*
X116142857Y-64800000D01*
X116171428Y-64828571D01*
X116200000Y-64885714D01*
X116200000Y-64971428D01*
X116171428Y-65028571D01*
X116142857Y-65057142D01*
X116085714Y-65085714D01*
X115857142Y-65085714D01*
X116428571Y-64828571D02*
X116457142Y-64800000D01*
X116514285Y-64771428D01*
X116657142Y-64771428D01*
X116714285Y-64800000D01*
X116742857Y-64828571D01*
X116771428Y-64885714D01*
X116771428Y-64942857D01*
X116742857Y-65028571D01*
X116400000Y-65371428D01*
X116771428Y-65371428D01*
X110366666Y-56183333D02*
X110466666Y-56216666D01*
X110633333Y-56216666D01*
X110700000Y-56183333D01*
X110733333Y-56150000D01*
X110766666Y-56083333D01*
X110766666Y-56016666D01*
X110733333Y-55950000D01*
X110700000Y-55916666D01*
X110633333Y-55883333D01*
X110500000Y-55850000D01*
X110433333Y-55816666D01*
X110400000Y-55783333D01*
X110366666Y-55716666D01*
X110366666Y-55650000D01*
X110400000Y-55583333D01*
X110433333Y-55550000D01*
X110500000Y-55516666D01*
X110666666Y-55516666D01*
X110766666Y-55550000D01*
X111466666Y-56150000D02*
X111433333Y-56183333D01*
X111333333Y-56216666D01*
X111266666Y-56216666D01*
X111166666Y-56183333D01*
X111100000Y-56116666D01*
X111066666Y-56050000D01*
X111033333Y-55916666D01*
X111033333Y-55816666D01*
X111066666Y-55683333D01*
X111100000Y-55616666D01*
X111166666Y-55550000D01*
X111266666Y-55516666D01*
X111333333Y-55516666D01*
X111433333Y-55550000D01*
X111466666Y-55583333D01*
X112100000Y-56216666D02*
X111766666Y-56216666D01*
X111766666Y-55516666D01*
X113357142Y-65371428D02*
X113357142Y-64771428D01*
X113585714Y-64771428D01*
X113642857Y-64800000D01*
X113671428Y-64828571D01*
X113700000Y-64885714D01*
X113700000Y-64971428D01*
X113671428Y-65028571D01*
X113642857Y-65057142D01*
X113585714Y-65085714D01*
X113357142Y-65085714D01*
X113900000Y-64771428D02*
X114271428Y-64771428D01*
X114071428Y-65000000D01*
X114157142Y-65000000D01*
X114214285Y-65028571D01*
X114242857Y-65057142D01*
X114271428Y-65114285D01*
X114271428Y-65257142D01*
X114242857Y-65314285D01*
X114214285Y-65342857D01*
X114157142Y-65371428D01*
X113985714Y-65371428D01*
X113928571Y-65342857D01*
X113900000Y-65314285D01*
X113233333Y-55516666D02*
X113466666Y-56216666D01*
X113700000Y-55516666D01*
X113900000Y-55583333D02*
X113933333Y-55550000D01*
X114000000Y-55516666D01*
X114166666Y-55516666D01*
X114233333Y-55550000D01*
X114266666Y-55583333D01*
X114300000Y-55650000D01*
X114300000Y-55716666D01*
X114266666Y-55816666D01*
X113866666Y-56216666D01*
X114300000Y-56216666D01*
X107850000Y-56183333D02*
X107950000Y-56216666D01*
X108116666Y-56216666D01*
X108183333Y-56183333D01*
X108216666Y-56150000D01*
X108250000Y-56083333D01*
X108250000Y-56016666D01*
X108216666Y-55950000D01*
X108183333Y-55916666D01*
X108116666Y-55883333D01*
X107983333Y-55850000D01*
X107916666Y-55816666D01*
X107883333Y-55783333D01*
X107850000Y-55716666D01*
X107850000Y-55650000D01*
X107883333Y-55583333D01*
X107916666Y-55550000D01*
X107983333Y-55516666D01*
X108150000Y-55516666D01*
X108250000Y-55550000D01*
X108550000Y-56216666D02*
X108550000Y-55516666D01*
X108716666Y-55516666D01*
X108816666Y-55550000D01*
X108883333Y-55616666D01*
X108916666Y-55683333D01*
X108950000Y-55816666D01*
X108950000Y-55916666D01*
X108916666Y-56050000D01*
X108883333Y-56116666D01*
X108816666Y-56183333D01*
X108716666Y-56216666D01*
X108550000Y-56216666D01*
X109216666Y-56016666D02*
X109550000Y-56016666D01*
X109150000Y-56216666D02*
X109383333Y-55516666D01*
X109616666Y-56216666D01*
X104200000Y-62114285D02*
X104171428Y-62142857D01*
X104085714Y-62171428D01*
X104028571Y-62171428D01*
X103942857Y-62142857D01*
X103885714Y-62085714D01*
X103857142Y-62028571D01*
X103828571Y-61914285D01*
X103828571Y-61828571D01*
X103857142Y-61714285D01*
X103885714Y-61657142D01*
X103942857Y-61600000D01*
X104028571Y-61571428D01*
X104085714Y-61571428D01*
X104171428Y-61600000D01*
X104200000Y-61628571D01*
X104714285Y-61771428D02*
X104714285Y-62171428D01*
X104571428Y-61542857D02*
X104428571Y-61971428D01*
X104800000Y-61971428D01*
X116342857Y-67728571D02*
X116285714Y-67700000D01*
X116228571Y-67642857D01*
X116142857Y-67557142D01*
X116085714Y-67528571D01*
X116028571Y-67528571D01*
X116057142Y-67671428D02*
X116000000Y-67642857D01*
X115942857Y-67585714D01*
X115914285Y-67471428D01*
X115914285Y-67271428D01*
X115942857Y-67157142D01*
X116000000Y-67100000D01*
X116057142Y-67071428D01*
X116171428Y-67071428D01*
X116228571Y-67100000D01*
X116285714Y-67157142D01*
X116314285Y-67271428D01*
X116314285Y-67471428D01*
X116285714Y-67585714D01*
X116228571Y-67642857D01*
X116171428Y-67671428D01*
X116057142Y-67671428D01*
X116885714Y-67671428D02*
X116542857Y-67671428D01*
X116714285Y-67671428D02*
X116714285Y-67071428D01*
X116657142Y-67157142D01*
X116600000Y-67214285D01*
X116542857Y-67242857D01*
X103707142Y-57071428D02*
X103707142Y-56471428D01*
X103850000Y-56471428D01*
X103935714Y-56500000D01*
X103992857Y-56557142D01*
X104021428Y-56614285D01*
X104050000Y-56728571D01*
X104050000Y-56814285D01*
X104021428Y-56928571D01*
X103992857Y-56985714D01*
X103935714Y-57042857D01*
X103850000Y-57071428D01*
X103707142Y-57071428D01*
X104621428Y-57071428D02*
X104278571Y-57071428D01*
X104450000Y-57071428D02*
X104450000Y-56471428D01*
X104392857Y-56557142D01*
X104335714Y-56614285D01*
X104278571Y-56642857D01*
X104100000Y-58671428D02*
X103900000Y-58385714D01*
X103757142Y-58671428D02*
X103757142Y-58071428D01*
X103985714Y-58071428D01*
X104042857Y-58100000D01*
X104071428Y-58128571D01*
X104100000Y-58185714D01*
X104100000Y-58271428D01*
X104071428Y-58328571D01*
X104042857Y-58357142D01*
X103985714Y-58385714D01*
X103757142Y-58385714D01*
X104300000Y-58071428D02*
X104671428Y-58071428D01*
X104471428Y-58300000D01*
X104557142Y-58300000D01*
X104614285Y-58328571D01*
X104642857Y-58357142D01*
X104671428Y-58414285D01*
X104671428Y-58557142D01*
X104642857Y-58614285D01*
X104614285Y-58642857D01*
X104557142Y-58671428D01*
X104385714Y-58671428D01*
X104328571Y-58642857D01*
X104300000Y-58614285D01*
X111000000Y-69671428D02*
X110800000Y-69385714D01*
X110657142Y-69671428D02*
X110657142Y-69071428D01*
X110885714Y-69071428D01*
X110942857Y-69100000D01*
X110971428Y-69128571D01*
X111000000Y-69185714D01*
X111000000Y-69271428D01*
X110971428Y-69328571D01*
X110942857Y-69357142D01*
X110885714Y-69385714D01*
X110657142Y-69385714D01*
X111571428Y-69671428D02*
X111228571Y-69671428D01*
X111400000Y-69671428D02*
X111400000Y-69071428D01*
X111342857Y-69157142D01*
X111285714Y-69214285D01*
X111228571Y-69242857D01*
X109300000Y-69671428D02*
X109100000Y-69385714D01*
X108957142Y-69671428D02*
X108957142Y-69071428D01*
X109185714Y-69071428D01*
X109242857Y-69100000D01*
X109271428Y-69128571D01*
X109300000Y-69185714D01*
X109300000Y-69271428D01*
X109271428Y-69328571D01*
X109242857Y-69357142D01*
X109185714Y-69385714D01*
X108957142Y-69385714D01*
X109528571Y-69128571D02*
X109557142Y-69100000D01*
X109614285Y-69071428D01*
X109757142Y-69071428D01*
X109814285Y-69100000D01*
X109842857Y-69128571D01*
X109871428Y-69185714D01*
X109871428Y-69242857D01*
X109842857Y-69328571D01*
X109500000Y-69671428D01*
X109871428Y-69671428D01*
X116000000Y-70371428D02*
X115800000Y-70085714D01*
X115657142Y-70371428D02*
X115657142Y-69771428D01*
X115885714Y-69771428D01*
X115942857Y-69800000D01*
X115971428Y-69828571D01*
X116000000Y-69885714D01*
X116000000Y-69971428D01*
X115971428Y-70028571D01*
X115942857Y-70057142D01*
X115885714Y-70085714D01*
X115657142Y-70085714D01*
X116514285Y-69971428D02*
X116514285Y-70371428D01*
X116371428Y-69742857D02*
X116228571Y-70171428D01*
X116600000Y-70171428D01*
X106600000Y-58071428D02*
X106600000Y-58500000D01*
X106571428Y-58585714D01*
X106514285Y-58642857D01*
X106428571Y-58671428D01*
X106371428Y-58671428D01*
X107200000Y-58671428D02*
X106857142Y-58671428D01*
X107028571Y-58671428D02*
X107028571Y-58071428D01*
X106971428Y-58157142D01*
X106914285Y-58214285D01*
X106857142Y-58242857D01*
X101842857Y-61671428D02*
X101842857Y-62157142D01*
X101871428Y-62214285D01*
X101900000Y-62242857D01*
X101957142Y-62271428D01*
X102071428Y-62271428D01*
X102128571Y-62242857D01*
X102157142Y-62214285D01*
X102185714Y-62157142D01*
X102185714Y-61671428D01*
X102728571Y-61871428D02*
X102728571Y-62271428D01*
X102585714Y-61642857D02*
X102442857Y-62071428D01*
X102814285Y-62071428D01*
X99800000Y-61714285D02*
X99771428Y-61742857D01*
X99685714Y-61771428D01*
X99628571Y-61771428D01*
X99542857Y-61742857D01*
X99485714Y-61685714D01*
X99457142Y-61628571D01*
X99428571Y-61514285D01*
X99428571Y-61428571D01*
X99457142Y-61314285D01*
X99485714Y-61257142D01*
X99542857Y-61200000D01*
X99628571Y-61171428D01*
X99685714Y-61171428D01*
X99771428Y-61200000D01*
X99800000Y-61228571D01*
X100371428Y-61771428D02*
X100028571Y-61771428D01*
X100200000Y-61771428D02*
X100200000Y-61171428D01*
X100142857Y-61257142D01*
X100085714Y-61314285D01*
X100028571Y-61342857D01*
D11*
X104911252Y-61310000D02*
X103488748Y-61310000D01*
X104911252Y-59490000D02*
X103488748Y-59490000D01*
D10*
X101242280Y-71845210D02*
X101242280Y-71263550D01*
X101247360Y-82055930D02*
X101247360Y-80979050D01*
X102644360Y-71255930D02*
X115242760Y-71255930D01*
X102644360Y-71255930D02*
X102644360Y-71255930D01*
X115242760Y-80854590D02*
X116240980Y-80854590D01*
X101244820Y-71255930D02*
X115242760Y-71255930D01*
X115242760Y-71106070D02*
X115242760Y-71255930D01*
X115242760Y-71509930D02*
X115242760Y-71405790D01*
X115242760Y-71255930D02*
X115242760Y-71255930D01*
X115242760Y-71255930D02*
X102644360Y-71255930D01*
X115242760Y-71405790D02*
X115242760Y-71255930D01*
X116040320Y-71255930D02*
X115242760Y-71255930D01*
X115247840Y-71258470D02*
X115247840Y-71776630D01*
X115242760Y-71405790D02*
G75*
G03*
X115242760Y-71106070I0J149860D01*
G01*
X115242760Y-71106070D02*
G75*
G03*
X115242760Y-71405790I0J-149860D01*
G01*
D11*
X112640000Y-67400000D02*
X112640000Y-68050000D01*
X112640000Y-67400000D02*
X112640000Y-66750000D01*
X115760000Y-67400000D02*
X115760000Y-68050000D01*
X115760000Y-67400000D02*
X115760000Y-65725000D01*
D10*
X103600000Y-56100000D02*
X100800000Y-56100000D01*
X103600000Y-57500000D02*
X103600000Y-56100000D01*
X103600000Y-57500000D02*
X100800000Y-57500000D01*
X102700000Y-59080000D02*
X101700000Y-59080000D01*
X101700000Y-57720000D02*
X102700000Y-57720000D01*
X111780000Y-67000000D02*
X111780000Y-68000000D01*
X110420000Y-68000000D02*
X110420000Y-67000000D01*
X108720000Y-68000000D02*
X108720000Y-67000000D01*
X110080000Y-67000000D02*
X110080000Y-68000000D01*
X116600000Y-80450000D02*
X116600000Y-79750000D01*
X117800000Y-79750000D02*
X117800000Y-80450000D01*
X113700000Y-69420000D02*
X114700000Y-69420000D01*
X114700000Y-70780000D02*
X113700000Y-70780000D01*
X111990000Y-57900000D02*
X113010000Y-57900000D01*
X109450000Y-57900000D02*
X110470000Y-57900000D01*
X114530000Y-63100000D02*
X115550000Y-63100000D01*
X109450000Y-63100000D02*
X110470000Y-63100000D01*
X117070000Y-57900000D02*
X117640000Y-57900000D01*
X107360000Y-63100000D02*
X107360000Y-57900000D01*
X107360000Y-57900000D02*
X107930000Y-57900000D01*
X111990000Y-63100000D02*
X113010000Y-63100000D01*
X117070000Y-63100000D02*
X117640000Y-63100000D01*
X117640000Y-63100000D02*
X117640000Y-57900000D01*
X114530000Y-57900000D02*
X115550000Y-57900000D01*
X107930000Y-57900000D02*
X107930000Y-56540000D01*
X107360000Y-63100000D02*
X107930000Y-63100000D01*
X106863900Y-69023900D02*
X105682800Y-70205000D01*
X100996500Y-66395000D02*
X105682800Y-66395000D01*
X106863900Y-67576100D02*
X105682800Y-66395000D01*
X100044000Y-69252500D02*
X100044000Y-67347500D01*
X100996500Y-70205000D02*
X105682800Y-70205000D01*
X100996500Y-66395000D02*
G75*
G03*
X100044000Y-67347500I1J-952501D01*
G01*
X106863900Y-69023900D02*
G75*
G03*
X106863900Y-67576100I-723901J723900D01*
G01*
X100044000Y-69252500D02*
G75*
G03*
X100996500Y-70205000I952501J1D01*
G01*
X103000000Y-63600000D02*
X103000000Y-63400000D01*
X102600000Y-62700000D02*
X102000000Y-62700000D01*
X102600000Y-64300000D02*
X102000000Y-64300000D01*
X101600000Y-63600000D02*
X101600000Y-63400000D01*
X116600000Y-74850000D02*
X116600000Y-74150000D01*
X117800000Y-74150000D02*
X117800000Y-74850000D01*
X117900000Y-77200000D02*
X117900000Y-77400000D01*
X116500000Y-77200000D02*
X116500000Y-77400000D01*
X99300000Y-63750000D02*
X99300000Y-63050000D01*
X100500000Y-63050000D02*
X100500000Y-63750000D01*
D12*
X101060000Y-69316000D03*
X101060000Y-67284000D03*
D13*
X106140000Y-68300000D03*
%LPC*%
D14*
X105762500Y-60400000D03*
X102637500Y-60400000D03*
D15*
X115242760Y-80054490D03*
X115242760Y-78954670D03*
X115242760Y-77854850D03*
X115242760Y-76755030D03*
X115242760Y-75655210D03*
X115242760Y-74555390D03*
X115242760Y-73455570D03*
X115242760Y-72355750D03*
X101244820Y-72355750D03*
X101244820Y-73455570D03*
X101244820Y-74555390D03*
X101244820Y-75655210D03*
X101244820Y-76755030D03*
X101244820Y-77854850D03*
X101244820Y-78954670D03*
X101244820Y-80054490D03*
D16*
X115150000Y-66462500D03*
X113250000Y-66462500D03*
X114200000Y-68337500D03*
D17*
X100700000Y-56800000D03*
X102900000Y-56800000D03*
D18*
X103050000Y-58400000D03*
X101350000Y-58400000D03*
D19*
X111100000Y-68350000D03*
X111100000Y-66650000D03*
X109400000Y-68350000D03*
X109400000Y-66650000D03*
D20*
X117200000Y-79300000D03*
X117200000Y-80900000D03*
D18*
X115050000Y-70100000D03*
X113350000Y-70100000D03*
D21*
X108690000Y-57980000D03*
X108690000Y-63020000D03*
X111230000Y-57980000D03*
X111230000Y-63020000D03*
X113770000Y-57980000D03*
X113770000Y-63020000D03*
X116310000Y-57980000D03*
X116310000Y-63020000D03*
D12*
X101060000Y-69316000D03*
X101060000Y-67284000D03*
D13*
X106140000Y-68300000D03*
D22*
X104870000Y-67665000D03*
X104870000Y-68935000D03*
X103600000Y-67665000D03*
X103600000Y-68935000D03*
X102330000Y-67665000D03*
X102330000Y-68935000D03*
D23*
X103200000Y-63900000D03*
X103200000Y-63100000D03*
X101400000Y-63100000D03*
X101400000Y-63900000D03*
D20*
X117200000Y-75300000D03*
X117200000Y-73700000D03*
D24*
X117200000Y-76700000D03*
X117200000Y-77900000D03*
D20*
X99900000Y-62600000D03*
X99900000Y-64200000D03*
M02*
