M48
; DRILL file {KiCad (6.0.0)} date Sun Jan  9 20:16:52 2022
; FORMAT={-:-/ absolute / inch / decimal}
; #@! TF.CreationDate,2022-01-09T20:16:52+01:00
; #@! TF.GenerationSoftware,Kicad,Pcbnew,(6.0.0)
; #@! TF.FileFunction,Plated,1,2,PTH
FMAT,2
INCH
; #@! TA.AperFunction,Plated,PTH,ViaDrill
T1C0.0157
; #@! TA.AperFunction,Plated,PTH,ComponentDrill
T2C0.0394
; #@! TA.AperFunction,Plated,PTH,ComponentDrill
T3C0.0512
%
G90
G05
T1
X3.9331Y-3.1063
X3.9685Y-2.4291
X4.0108Y-3.0558
X4.0197Y-2.3346
X4.0394Y-2.5236
X4.0551Y-2.8465
X4.0573Y-1.8858
X4.0827Y-1.6575
X4.0836Y-2.9943
X4.0866Y-1.9921
X4.1212Y-2.9826
X4.126Y-2.5118
X4.1417Y-3.1102
X4.1496Y-1.9882
X4.1654Y-2.2598
X4.2087Y-2.2598
X4.2323Y-2.9409
X4.2559Y-2.2559
X4.2864Y-2.5031
X4.3031Y-1.7323
X4.3086Y-1.844
X4.3386Y-1.7992
X4.4055Y-2.8543
X4.4291Y-2.3898
X4.4409Y-2.4724
X4.4567Y-2.4252
X4.4882Y-2.3898
X4.5118Y-2.9567
X4.5157Y-1.9213
X4.5157Y-2.6457
X4.5197Y-1.7559
X4.5236Y-2.5315
X4.5827Y-2.437
X4.6181Y-2.2165
T2
X3.9567Y-1.6161
X3.9567Y-1.7161
X3.9567Y-1.8161
X3.9567Y-1.9161
X3.9567Y-2.0161
X3.9567Y-2.1161
X4.575Y-3.17
X4.5827Y-1.6161
X4.5827Y-1.7161
X4.5827Y-1.8161
X4.5827Y-1.9161
X4.5827Y-2.0161
X4.5827Y-2.1161
T3
X4.2697Y-1.6555
X4.2697Y-3.1319
T0
M30
