%TF.GenerationSoftware,KiCad,Pcbnew,(6.0.0)*%
%TF.CreationDate,2022-01-09T21:33:39+01:00*%
%TF.ProjectId,LoraTrigger,4c6f7261-5472-4696-9767-65722e6b6963,rev?*%
%TF.SameCoordinates,Original*%
%TF.FileFunction,Copper,L1,Top*%
%TF.FilePolarity,Positive*%
%FSLAX46Y46*%
G04 Gerber Fmt 4.6, Leading zero omitted, Abs format (unit mm)*
G04 Created by KiCad (PCBNEW (6.0.0)) date 2022-01-09 21:33:39*
%MOMM*%
%LPD*%
G01*
G04 APERTURE LIST*
G04 Aperture macros list*
%AMRoundRect*
0 Rectangle with rounded corners*
0 $1 Rounding radius*
0 $2 $3 $4 $5 $6 $7 $8 $9 X,Y pos of 4 corners*
0 Add a 4 corners polygon primitive as box body*
4,1,4,$2,$3,$4,$5,$6,$7,$8,$9,$2,$3,0*
0 Add four circle primitives for the rounded corners*
1,1,$1+$1,$2,$3*
1,1,$1+$1,$4,$5*
1,1,$1+$1,$6,$7*
1,1,$1+$1,$8,$9*
0 Add four rect primitives between the rounded corners*
20,1,$1+$1,$2,$3,$4,$5,0*
20,1,$1+$1,$4,$5,$6,$7,0*
20,1,$1+$1,$6,$7,$8,$9,0*
20,1,$1+$1,$8,$9,$2,$3,0*%
G04 Aperture macros list end*
%TA.AperFunction,SMDPad,CuDef*%
%ADD10R,1.200000X1.200000*%
%TD*%
%TA.AperFunction,ComponentPad*%
%ADD11R,1.700000X1.700000*%
%TD*%
%TA.AperFunction,ConnectorPad*%
%ADD12RoundRect,0.375000X-0.375000X-0.625000X0.375000X-0.625000X0.375000X0.625000X-0.375000X0.625000X0*%
%TD*%
%TA.AperFunction,SMDPad,CuDef*%
%ADD13RoundRect,0.250000X-0.750000X-0.250000X0.750000X-0.250000X0.750000X0.250000X-0.750000X0.250000X0*%
%TD*%
%TA.AperFunction,ComponentPad*%
%ADD14C,2.000000*%
%TD*%
%TA.AperFunction,SMDPad,CuDef*%
%ADD15R,0.750000X0.900000*%
%TD*%
%TA.AperFunction,SMDPad,CuDef*%
%ADD16R,0.900000X0.750000*%
%TD*%
%TA.AperFunction,SMDPad,CuDef*%
%ADD17R,0.900000X0.700000*%
%TD*%
%TA.AperFunction,SMDPad,CuDef*%
%ADD18R,1.500000X1.250000*%
%TD*%
%TA.AperFunction,SMDPad,CuDef*%
%ADD19R,0.700000X0.900000*%
%TD*%
%TA.AperFunction,SMDPad,CuDef*%
%ADD20RoundRect,0.150000X0.150000X-0.587500X0.150000X0.587500X-0.150000X0.587500X-0.150000X-0.587500X0*%
%TD*%
%TA.AperFunction,SMDPad,CuDef*%
%ADD21R,0.550000X1.600000*%
%TD*%
%TA.AperFunction,SMDPad,CuDef*%
%ADD22R,1.600000X0.550000*%
%TD*%
%TA.AperFunction,ComponentPad*%
%ADD23O,1.700000X1.700000*%
%TD*%
%TA.AperFunction,SMDPad,CuDef*%
%ADD24R,0.700000X0.300000*%
%TD*%
%TA.AperFunction,ViaPad*%
%ADD25C,0.800000*%
%TD*%
%TA.AperFunction,Conductor*%
%ADD26C,0.250000*%
%TD*%
%TA.AperFunction,Conductor*%
%ADD27C,0.400000*%
%TD*%
G04 APERTURE END LIST*
D10*
X115400000Y-59350000D03*
X115400000Y-57150000D03*
D11*
X116205000Y-80518000D03*
D12*
X100110000Y-81552000D03*
X102650000Y-81552000D03*
X105190000Y-81552000D03*
D13*
X116426000Y-75200000D03*
X100426000Y-77200000D03*
X100426000Y-63200000D03*
X100426000Y-65200000D03*
X100426000Y-67200000D03*
X100426000Y-69200000D03*
X100426000Y-71200000D03*
X100426000Y-73200000D03*
X116426000Y-67200000D03*
X116426000Y-65200000D03*
X116426000Y-63200000D03*
X116426000Y-73200000D03*
X116426000Y-71200000D03*
X100426000Y-75200000D03*
X116426000Y-77200000D03*
X116426000Y-69200000D03*
D14*
X108450000Y-42050000D03*
X108450000Y-79550000D03*
D15*
X102100000Y-56400000D03*
X102100000Y-58000000D03*
X108100000Y-45641421D03*
X108100000Y-44041421D03*
D16*
X109900000Y-50200000D03*
X108300000Y-50200000D03*
D17*
X117100000Y-58950000D03*
X117100000Y-57250000D03*
X106200000Y-48850000D03*
X106200000Y-47150000D03*
X104500000Y-48850000D03*
X104500000Y-47150000D03*
D18*
X106150000Y-40525000D03*
X103650000Y-40525000D03*
D19*
X112050000Y-49800000D03*
X113750000Y-49800000D03*
D20*
X111850000Y-42437500D03*
X113750000Y-42437500D03*
X112800000Y-40562500D03*
D21*
X105600000Y-60650000D03*
X106400000Y-60650000D03*
X107200000Y-60650000D03*
X108000000Y-60650000D03*
X108800000Y-60650000D03*
X109600000Y-60650000D03*
X110400000Y-60650000D03*
X111200000Y-60650000D03*
D22*
X112650000Y-59200000D03*
X112650000Y-58400000D03*
X112650000Y-57600000D03*
X112650000Y-56800000D03*
X112650000Y-56000000D03*
X112650000Y-55200000D03*
X112650000Y-54400000D03*
X112650000Y-53600000D03*
D21*
X111200000Y-52150000D03*
X110400000Y-52150000D03*
X109600000Y-52150000D03*
X108800000Y-52150000D03*
X108000000Y-52150000D03*
X107200000Y-52150000D03*
X106400000Y-52150000D03*
X105600000Y-52150000D03*
D22*
X104150000Y-53600000D03*
X104150000Y-54400000D03*
X104150000Y-55200000D03*
X104150000Y-56000000D03*
X104150000Y-56800000D03*
X104150000Y-57600000D03*
X104150000Y-58400000D03*
X104150000Y-59200000D03*
D11*
X100500000Y-41050000D03*
D23*
X100500000Y-43590000D03*
X100500000Y-46130000D03*
X100500000Y-48670000D03*
X100500000Y-51210000D03*
X100500000Y-53750000D03*
D11*
X116400000Y-41050000D03*
D23*
X116400000Y-43590000D03*
X116400000Y-46130000D03*
X116400000Y-48670000D03*
X116400000Y-51210000D03*
X116400000Y-53750000D03*
D19*
X111950000Y-44200000D03*
X113650000Y-44200000D03*
D24*
X104800000Y-44441421D03*
X104800000Y-45241421D03*
X106200000Y-45241421D03*
X106200000Y-44441421D03*
D20*
X111850000Y-48037500D03*
X113750000Y-48037500D03*
X112800000Y-46162500D03*
D25*
X112500000Y-60700000D03*
X108875500Y-63579307D03*
X102600000Y-64100000D03*
X104800701Y-63800701D03*
X112800000Y-62800000D03*
X114700000Y-67200000D03*
X109437701Y-46837701D03*
X100800000Y-61700000D03*
X102100000Y-59300000D03*
X114700000Y-48800000D03*
X109300000Y-44000000D03*
X101875500Y-77618230D03*
X114600000Y-75100000D03*
X103700000Y-42100000D03*
X114800000Y-44600000D03*
X117300000Y-56300000D03*
X107500000Y-74700000D03*
X111900000Y-72500000D03*
X110200000Y-45700000D03*
X105400000Y-50500000D03*
X99900000Y-78900000D03*
X103055718Y-47899248D03*
X106900000Y-57400000D03*
X103800000Y-50600000D03*
X108100000Y-57300000D03*
X103724500Y-76054246D03*
X116400000Y-61900000D03*
X114000000Y-60700000D03*
X113200000Y-61600000D03*
X114900000Y-64300000D03*
X105200000Y-79000000D03*
X104679236Y-75758471D03*
X103000000Y-72300000D03*
X105800000Y-57400000D03*
D26*
X112650000Y-59200000D02*
X112650000Y-60550000D01*
X108875500Y-64860204D02*
X108875500Y-63579307D01*
X100426000Y-73200000D02*
X100535704Y-73200000D01*
X112650000Y-60550000D02*
X112500000Y-60700000D01*
X100535704Y-73200000D02*
X108875500Y-64860204D01*
X101900000Y-71200000D02*
X100426000Y-71200000D01*
X108800000Y-62630207D02*
X108150999Y-63279208D01*
X108800000Y-60650000D02*
X108800000Y-62630207D01*
X108150999Y-64949001D02*
X101900000Y-71200000D01*
X108150999Y-63279208D02*
X108150999Y-64949001D01*
X108000000Y-61626000D02*
X100426000Y-69200000D01*
X108000000Y-60650000D02*
X108000000Y-61626000D01*
X104889498Y-63076200D02*
X104500602Y-63076200D01*
X104076200Y-64023800D02*
X100900000Y-67200000D01*
X104500602Y-63076200D02*
X104076200Y-63500602D01*
X106400000Y-61565698D02*
X104889498Y-63076200D01*
X104076200Y-63500602D02*
X104076200Y-64023800D01*
X100900000Y-67200000D02*
X100426000Y-67200000D01*
X106400000Y-60650000D02*
X106400000Y-61565698D01*
X107200000Y-61401402D02*
X104800701Y-63800701D01*
X101526000Y-64100000D02*
X100426000Y-65200000D01*
X102600000Y-64100000D02*
X101526000Y-64100000D01*
X107200000Y-60650000D02*
X107200000Y-61401402D01*
X111200000Y-61200000D02*
X112800000Y-62800000D01*
X111200000Y-60650000D02*
X111200000Y-61200000D01*
X114700000Y-67200000D02*
X116426000Y-67200000D01*
X114700000Y-75200000D02*
X114600000Y-75100000D01*
X113650000Y-44200000D02*
X114400000Y-44200000D01*
X113750000Y-42437500D02*
X113750000Y-44100000D01*
X101457270Y-77200000D02*
X101875500Y-77618230D01*
X108300000Y-47975402D02*
X109437701Y-46837701D01*
X109600000Y-51100000D02*
X109600000Y-52150000D01*
X108100000Y-44041421D02*
X109258579Y-44041421D01*
X113750000Y-44100000D02*
X113650000Y-44200000D01*
X117100000Y-57250000D02*
X117100000Y-56500000D01*
X102100000Y-58000000D02*
X102100000Y-59300000D01*
X109258579Y-44041421D02*
X109300000Y-44000000D01*
X113937500Y-48037500D02*
X114700000Y-48800000D01*
X109399511Y-51100000D02*
X109600000Y-51100000D01*
X108100000Y-44041421D02*
X107458579Y-44041421D01*
X100426000Y-77200000D02*
X101457270Y-77200000D01*
X100426000Y-62074000D02*
X100800000Y-61700000D01*
X116426000Y-75200000D02*
X114700000Y-75200000D01*
X113750000Y-48037500D02*
X113937500Y-48037500D01*
X108499511Y-50200000D02*
X109399511Y-51100000D01*
X107058579Y-44441421D02*
X106200000Y-44441421D01*
X117100000Y-56500000D02*
X117300000Y-56300000D01*
X107458579Y-44041421D02*
X107058579Y-44441421D01*
X108300000Y-50200000D02*
X108300000Y-47975402D01*
X100426000Y-63200000D02*
X100426000Y-62074000D01*
X103650000Y-42050000D02*
X103700000Y-42100000D01*
X114400000Y-44200000D02*
X114800000Y-44600000D01*
D27*
X103650000Y-40525000D02*
X103650000Y-42050000D01*
D26*
X102100000Y-58000000D02*
X103300000Y-56800000D01*
X103300000Y-56800000D02*
X104150000Y-56800000D01*
X113750000Y-48037500D02*
X113750000Y-49800000D01*
X108300000Y-50200000D02*
X108499511Y-50200000D01*
X102500000Y-56000000D02*
X104150000Y-56000000D01*
X107441421Y-45641421D02*
X107041421Y-45241421D01*
X110400000Y-50700000D02*
X110400000Y-52150000D01*
X109900000Y-50200000D02*
X110400000Y-50700000D01*
X108100000Y-45641421D02*
X107441421Y-45641421D01*
X110300000Y-52050000D02*
X110400000Y-52150000D01*
X102100000Y-56400000D02*
X102500000Y-56000000D01*
X107041421Y-45241421D02*
X106200000Y-45241421D01*
X104200000Y-44441421D02*
X104800000Y-44441421D01*
X104150000Y-59200000D02*
X105100000Y-59200000D01*
X103055718Y-47899248D02*
X102284966Y-48670000D01*
X104500000Y-47150000D02*
X103804966Y-47150000D01*
X102284966Y-48670000D02*
X100500000Y-48670000D01*
X103450489Y-45190932D02*
X104200000Y-44441421D01*
X104500000Y-47150000D02*
X103450489Y-46100489D01*
X103804966Y-47150000D02*
X103055718Y-47899248D01*
X103450489Y-46100489D02*
X103450489Y-45190932D01*
X105100000Y-59200000D02*
X106900000Y-57400000D01*
X106200000Y-47150000D02*
X106100000Y-47150000D01*
X103190000Y-51210000D02*
X100500000Y-51210000D01*
X105250000Y-46300000D02*
X104500000Y-46300000D01*
X105350000Y-48000000D02*
X106200000Y-47150000D01*
X103900000Y-45400000D02*
X104058579Y-45241421D01*
X103700000Y-48900000D02*
X103725489Y-48874511D01*
X103800000Y-50600000D02*
X103700000Y-50500000D01*
X104058579Y-45241421D02*
X104800000Y-45241421D01*
X103900000Y-45700000D02*
X103900000Y-45400000D01*
X103725489Y-48175489D02*
X103900978Y-48000000D01*
X103800000Y-50600000D02*
X103190000Y-51210000D01*
X104500000Y-46300000D02*
X103900000Y-45700000D01*
X103725489Y-48874511D02*
X103725489Y-48175489D01*
X106100000Y-47150000D02*
X105250000Y-46300000D01*
X105600000Y-59800000D02*
X108100000Y-57300000D01*
X105600000Y-60650000D02*
X105600000Y-59800000D01*
X103700000Y-50500000D02*
X103700000Y-48900000D01*
X103900978Y-48000000D02*
X105350000Y-48000000D01*
X116600000Y-59350000D02*
X117000000Y-58950000D01*
X115200000Y-59350000D02*
X116600000Y-59350000D01*
X112650000Y-56800000D02*
X114850000Y-56800000D01*
X114850000Y-56800000D02*
X115200000Y-57150000D01*
X116426000Y-77200000D02*
X116205000Y-77421000D01*
X116205000Y-77421000D02*
X116205000Y-80518000D01*
X109600000Y-66975400D02*
X103724500Y-72850900D01*
X109600000Y-60650000D02*
X109600000Y-66975400D01*
X103724500Y-72850900D02*
X103724500Y-76054246D01*
X113960704Y-58150978D02*
X114224022Y-58414296D01*
X114224022Y-60475978D02*
X114000000Y-60700000D01*
X116400000Y-63174000D02*
X116426000Y-63200000D01*
X114224022Y-58414296D02*
X114224022Y-60475978D01*
X113574022Y-57600000D02*
X113774511Y-57800489D01*
X113774511Y-58150978D02*
X113960704Y-58150978D01*
X113774511Y-57800489D02*
X113774511Y-58150978D01*
X116400000Y-61900000D02*
X116400000Y-63174000D01*
X112650000Y-57600000D02*
X113574022Y-57600000D01*
X113275499Y-60399901D02*
X113275499Y-61524501D01*
X114900000Y-64300000D02*
X115526000Y-64300000D01*
X113774511Y-59900889D02*
X113275499Y-60399901D01*
X113275499Y-61524501D02*
X113200000Y-61600000D01*
X112650000Y-58400000D02*
X112850489Y-58600489D01*
X112850489Y-58600489D02*
X113774511Y-58600489D01*
X115526000Y-64300000D02*
X116426000Y-65200000D01*
X113774511Y-58600489D02*
X113774511Y-59900889D01*
X110400000Y-60650000D02*
X110400000Y-70037707D01*
X105200000Y-79000000D02*
X105200000Y-81542000D01*
X110400000Y-70037707D02*
X104679236Y-75758471D01*
X105200000Y-81542000D02*
X105190000Y-81552000D01*
X100110000Y-80790000D02*
X103000000Y-77900000D01*
X105800000Y-55800000D02*
X105800000Y-57400000D01*
X105200000Y-55200000D02*
X105800000Y-55800000D01*
X104150000Y-55200000D02*
X105200000Y-55200000D01*
X103000000Y-77900000D02*
X103000000Y-72300000D01*
X100110000Y-81552000D02*
X100110000Y-80790000D01*
X111950000Y-44200000D02*
X111950000Y-42537500D01*
X111225480Y-44924520D02*
X111950000Y-44200000D01*
X112650000Y-53600000D02*
X112650000Y-51849022D01*
X112650000Y-51849022D02*
X111225480Y-50424502D01*
X111950000Y-42537500D02*
X111850000Y-42437500D01*
X111225480Y-50424502D02*
X111225480Y-44924520D01*
X112050000Y-49800000D02*
X112050000Y-48237500D01*
X113700000Y-54400000D02*
X113774511Y-54325489D01*
X113774511Y-54325489D02*
X113774511Y-51524511D01*
X112050000Y-48237500D02*
X111850000Y-48037500D01*
X112650000Y-54400000D02*
X113700000Y-54400000D01*
X113774511Y-51524511D02*
X112050000Y-49800000D01*
X112650000Y-55200000D02*
X113574022Y-55200000D01*
X113574022Y-55200000D02*
X114224022Y-54550000D01*
X114224022Y-54550000D02*
X114224022Y-50845978D01*
X114224022Y-50845978D02*
X116400000Y-48670000D01*
X115225489Y-52384511D02*
X116400000Y-51210000D01*
X112650000Y-56000000D02*
X113700000Y-56000000D01*
X113700000Y-56000000D02*
X115225489Y-54474511D01*
X115225489Y-54474511D02*
X115225489Y-52384511D01*
X113372500Y-40562500D02*
X116400000Y-43590000D01*
X112800000Y-40562500D02*
X113372500Y-40562500D01*
X112800000Y-46162500D02*
X112832500Y-46130000D01*
X112832500Y-46130000D02*
X116400000Y-46130000D01*
%TA.AperFunction,Conductor*%
G36*
X105208380Y-39336002D02*
G01*
X105254873Y-39389658D01*
X105264977Y-39459932D01*
X105235483Y-39524512D01*
X105197463Y-39554266D01*
X105170790Y-39567857D01*
X105154944Y-39579370D01*
X105079370Y-39654944D01*
X105067859Y-39670787D01*
X105019336Y-39766018D01*
X105013284Y-39784645D01*
X105000775Y-39863627D01*
X105000000Y-39873473D01*
X105000000Y-40356885D01*
X105004475Y-40372124D01*
X105005865Y-40373329D01*
X105013548Y-40375000D01*
X107281884Y-40375000D01*
X107297123Y-40370525D01*
X107298328Y-40369135D01*
X107299999Y-40361452D01*
X107299999Y-39873475D01*
X107299224Y-39863626D01*
X107286717Y-39784649D01*
X107280662Y-39766014D01*
X107232141Y-39670787D01*
X107220630Y-39654944D01*
X107145056Y-39579370D01*
X107129210Y-39567857D01*
X107102537Y-39554266D01*
X107050923Y-39505518D01*
X107033857Y-39436603D01*
X107056758Y-39369402D01*
X107112356Y-39325250D01*
X107159741Y-39316000D01*
X118024000Y-39316000D01*
X118092121Y-39336002D01*
X118138614Y-39389658D01*
X118150000Y-39442000D01*
X118150000Y-56233391D01*
X118129998Y-56301512D01*
X118127849Y-56303374D01*
X118148495Y-56347194D01*
X118150000Y-56366609D01*
X118150000Y-76074000D01*
X118129998Y-76142121D01*
X118076342Y-76188614D01*
X118024000Y-76200000D01*
X110700000Y-76200000D01*
X110700000Y-82274000D01*
X110679998Y-82342121D01*
X110626342Y-82388614D01*
X110574000Y-82400000D01*
X106259783Y-82400000D01*
X106191662Y-82379998D01*
X106145169Y-82326342D01*
X106134861Y-82257554D01*
X106139962Y-82218807D01*
X106139962Y-82218806D01*
X106140500Y-82214720D01*
X106140500Y-80889280D01*
X106125687Y-80776764D01*
X106067698Y-80636767D01*
X105975451Y-80516549D01*
X105855233Y-80424302D01*
X105715236Y-80366313D01*
X105635054Y-80355757D01*
X105570127Y-80327035D01*
X105531035Y-80267770D01*
X105525500Y-80230835D01*
X105525500Y-79569286D01*
X105540430Y-79518440D01*
X107244770Y-79518440D01*
X107259200Y-79738604D01*
X107260621Y-79744200D01*
X107260622Y-79744205D01*
X107312090Y-79946857D01*
X107313511Y-79952452D01*
X107315928Y-79957694D01*
X107315928Y-79957695D01*
X107354046Y-80040379D01*
X107405883Y-80152821D01*
X107533222Y-80333002D01*
X107691264Y-80486961D01*
X107696060Y-80490166D01*
X107696063Y-80490168D01*
X107780261Y-80546427D01*
X107874717Y-80609540D01*
X107880020Y-80611818D01*
X107880023Y-80611820D01*
X108072129Y-80694355D01*
X108077436Y-80696635D01*
X108157088Y-80714658D01*
X108286995Y-80744054D01*
X108287001Y-80744055D01*
X108292632Y-80745329D01*
X108298403Y-80745556D01*
X108298405Y-80745556D01*
X108366211Y-80748220D01*
X108513098Y-80753991D01*
X108622275Y-80738161D01*
X108725738Y-80723160D01*
X108725743Y-80723159D01*
X108731452Y-80722331D01*
X108736916Y-80720476D01*
X108736921Y-80720475D01*
X108934907Y-80653268D01*
X108934912Y-80653266D01*
X108940379Y-80651410D01*
X109132884Y-80543602D01*
X109165412Y-80516549D01*
X109298086Y-80406204D01*
X109302518Y-80402518D01*
X109344502Y-80352038D01*
X109439908Y-80237326D01*
X109439910Y-80237323D01*
X109443602Y-80232884D01*
X109551410Y-80040379D01*
X109553266Y-80034912D01*
X109553268Y-80034907D01*
X109620475Y-79836921D01*
X109620476Y-79836916D01*
X109622331Y-79831452D01*
X109623159Y-79825743D01*
X109623160Y-79825738D01*
X109653458Y-79616772D01*
X109653991Y-79613098D01*
X109655643Y-79550000D01*
X109635454Y-79330289D01*
X109575565Y-79117936D01*
X109477980Y-78920053D01*
X109345967Y-78743267D01*
X109183949Y-78593499D01*
X108997350Y-78475764D01*
X108792421Y-78394006D01*
X108786761Y-78392880D01*
X108786757Y-78392879D01*
X108581691Y-78352089D01*
X108581688Y-78352089D01*
X108576024Y-78350962D01*
X108570249Y-78350886D01*
X108570245Y-78350886D01*
X108459504Y-78349437D01*
X108355406Y-78348074D01*
X108349709Y-78349053D01*
X108349708Y-78349053D01*
X108143654Y-78384459D01*
X108143653Y-78384459D01*
X108137957Y-78385438D01*
X107930957Y-78461804D01*
X107925996Y-78464756D01*
X107925995Y-78464756D01*
X107754652Y-78566695D01*
X107741341Y-78574614D01*
X107575457Y-78720090D01*
X107438863Y-78893360D01*
X107336131Y-79088620D01*
X107270703Y-79299333D01*
X107244770Y-79518440D01*
X105540430Y-79518440D01*
X105545502Y-79501165D01*
X105574796Y-79469323D01*
X105621736Y-79433305D01*
X105628282Y-79428282D01*
X105724536Y-79302841D01*
X105785044Y-79156762D01*
X105805682Y-79000000D01*
X105785044Y-78843238D01*
X105724536Y-78697159D01*
X105628282Y-78571718D01*
X105502841Y-78475464D01*
X105356762Y-78414956D01*
X105200000Y-78394318D01*
X105043238Y-78414956D01*
X104897159Y-78475464D01*
X104771718Y-78571718D01*
X104675464Y-78697159D01*
X104614956Y-78843238D01*
X104594318Y-79000000D01*
X104614956Y-79156762D01*
X104675464Y-79302841D01*
X104771718Y-79428282D01*
X104778264Y-79433305D01*
X104825204Y-79469323D01*
X104867071Y-79526661D01*
X104874500Y-79569286D01*
X104874500Y-80228202D01*
X104854498Y-80296323D01*
X104800842Y-80342816D01*
X104764947Y-80353124D01*
X104664764Y-80366313D01*
X104524767Y-80424302D01*
X104404549Y-80516549D01*
X104312302Y-80636767D01*
X104254313Y-80776764D01*
X104239500Y-80889280D01*
X104239500Y-82214720D01*
X104240038Y-82218806D01*
X104240038Y-82218807D01*
X104245139Y-82257554D01*
X104234199Y-82327703D01*
X104187071Y-82380801D01*
X104120217Y-82400000D01*
X103719783Y-82400000D01*
X103651662Y-82379998D01*
X103605169Y-82326342D01*
X103594861Y-82257554D01*
X103599962Y-82218807D01*
X103599962Y-82218806D01*
X103600500Y-82214720D01*
X103600500Y-80889280D01*
X103585687Y-80776764D01*
X103527698Y-80636767D01*
X103435451Y-80516549D01*
X103315233Y-80424302D01*
X103175236Y-80366313D01*
X103167048Y-80365235D01*
X103066807Y-80352038D01*
X103066806Y-80352038D01*
X103062720Y-80351500D01*
X102237280Y-80351500D01*
X102233194Y-80352038D01*
X102233193Y-80352038D01*
X102132952Y-80365235D01*
X102124764Y-80366313D01*
X101984767Y-80424302D01*
X101864549Y-80516549D01*
X101772302Y-80636767D01*
X101714313Y-80776764D01*
X101699500Y-80889280D01*
X101699500Y-82214720D01*
X101700038Y-82218806D01*
X101700038Y-82218807D01*
X101705139Y-82257554D01*
X101694199Y-82327703D01*
X101647071Y-82380801D01*
X101580217Y-82400000D01*
X101179783Y-82400000D01*
X101111662Y-82379998D01*
X101065169Y-82326342D01*
X101054861Y-82257554D01*
X101059962Y-82218807D01*
X101059962Y-82218806D01*
X101060500Y-82214720D01*
X101060500Y-80889280D01*
X101045687Y-80776764D01*
X100987698Y-80636767D01*
X100940281Y-80574973D01*
X100914682Y-80508757D01*
X100928946Y-80439208D01*
X100951150Y-80409177D01*
X103216222Y-78144105D01*
X103224326Y-78136678D01*
X103244750Y-78119540D01*
X103253194Y-78112455D01*
X103258704Y-78102912D01*
X103258707Y-78102908D01*
X103272036Y-78079821D01*
X103277941Y-78070551D01*
X103293232Y-78048713D01*
X103299554Y-78039684D01*
X103302407Y-78029036D01*
X103303886Y-78025865D01*
X103305078Y-78022589D01*
X103310588Y-78013045D01*
X103317134Y-77975924D01*
X103319508Y-77965217D01*
X103329263Y-77928807D01*
X103327730Y-77911278D01*
X103325979Y-77891269D01*
X103325500Y-77880288D01*
X103325500Y-76727524D01*
X103345502Y-76659403D01*
X103399158Y-76612910D01*
X103469432Y-76602806D01*
X103499717Y-76611115D01*
X103567738Y-76639290D01*
X103724500Y-76659928D01*
X103732688Y-76658850D01*
X103873074Y-76640368D01*
X103881262Y-76639290D01*
X104027341Y-76578782D01*
X104152782Y-76482528D01*
X104249036Y-76357087D01*
X104252025Y-76349871D01*
X104303256Y-76301019D01*
X104372969Y-76287580D01*
X104409213Y-76296601D01*
X104522474Y-76343515D01*
X104679236Y-76364153D01*
X104687424Y-76363075D01*
X104827810Y-76344593D01*
X104835998Y-76343515D01*
X104982077Y-76283007D01*
X105107518Y-76186753D01*
X105203772Y-76061312D01*
X105264280Y-75915233D01*
X105284918Y-75758471D01*
X105276118Y-75691628D01*
X105287057Y-75621481D01*
X105311945Y-75586088D01*
X105798033Y-75100000D01*
X113994318Y-75100000D01*
X114014956Y-75256762D01*
X114075464Y-75402841D01*
X114080491Y-75409392D01*
X114155221Y-75506782D01*
X114171718Y-75528282D01*
X114297159Y-75624536D01*
X114443238Y-75685044D01*
X114600000Y-75705682D01*
X114608188Y-75704604D01*
X114748574Y-75686122D01*
X114756762Y-75685044D01*
X114902841Y-75624536D01*
X114909394Y-75619508D01*
X114909397Y-75619506D01*
X114997975Y-75551538D01*
X115064195Y-75525937D01*
X115074679Y-75525500D01*
X115135719Y-75525500D01*
X115203840Y-75545502D01*
X115250333Y-75599158D01*
X115254601Y-75609748D01*
X115273366Y-75663184D01*
X115278958Y-75670754D01*
X115278959Y-75670757D01*
X115337699Y-75750283D01*
X115353850Y-75772150D01*
X115361421Y-75777742D01*
X115455243Y-75847041D01*
X115455246Y-75847042D01*
X115462816Y-75852634D01*
X115590631Y-75897519D01*
X115598277Y-75898242D01*
X115598278Y-75898242D01*
X115604248Y-75898806D01*
X115622166Y-75900500D01*
X117229834Y-75900500D01*
X117247752Y-75898806D01*
X117253722Y-75898242D01*
X117253723Y-75898242D01*
X117261369Y-75897519D01*
X117389184Y-75852634D01*
X117396754Y-75847042D01*
X117396757Y-75847041D01*
X117490579Y-75777742D01*
X117498150Y-75772150D01*
X117514301Y-75750283D01*
X117573041Y-75670757D01*
X117573042Y-75670754D01*
X117578634Y-75663184D01*
X117623519Y-75535369D01*
X117626500Y-75503834D01*
X117626500Y-74896166D01*
X117623519Y-74864631D01*
X117578634Y-74736816D01*
X117573042Y-74729246D01*
X117573041Y-74729243D01*
X117503742Y-74635421D01*
X117498150Y-74627850D01*
X117481206Y-74615335D01*
X117396757Y-74552959D01*
X117396754Y-74552958D01*
X117389184Y-74547366D01*
X117261369Y-74502481D01*
X117253723Y-74501758D01*
X117253722Y-74501758D01*
X117247752Y-74501194D01*
X117229834Y-74499500D01*
X115622166Y-74499500D01*
X115604248Y-74501194D01*
X115598278Y-74501758D01*
X115598277Y-74501758D01*
X115590631Y-74502481D01*
X115462816Y-74547366D01*
X115455246Y-74552958D01*
X115455243Y-74552959D01*
X115370794Y-74615335D01*
X115353850Y-74627850D01*
X115348258Y-74635421D01*
X115348255Y-74635424D01*
X115277092Y-74731771D01*
X115220531Y-74774682D01*
X115149749Y-74780202D01*
X115087220Y-74746578D01*
X115075778Y-74733616D01*
X115033305Y-74678264D01*
X115028282Y-74671718D01*
X114902841Y-74575464D01*
X114756762Y-74514956D01*
X114600000Y-74494318D01*
X114443238Y-74514956D01*
X114297159Y-74575464D01*
X114171718Y-74671718D01*
X114075464Y-74797159D01*
X114014956Y-74943238D01*
X113994318Y-75100000D01*
X105798033Y-75100000D01*
X107394199Y-73503834D01*
X115225500Y-73503834D01*
X115228481Y-73535369D01*
X115273366Y-73663184D01*
X115278958Y-73670754D01*
X115278959Y-73670757D01*
X115341335Y-73755206D01*
X115353850Y-73772150D01*
X115361421Y-73777742D01*
X115455243Y-73847041D01*
X115455246Y-73847042D01*
X115462816Y-73852634D01*
X115590631Y-73897519D01*
X115598277Y-73898242D01*
X115598278Y-73898242D01*
X115604248Y-73898806D01*
X115622166Y-73900500D01*
X117229834Y-73900500D01*
X117247752Y-73898806D01*
X117253722Y-73898242D01*
X117253723Y-73898242D01*
X117261369Y-73897519D01*
X117389184Y-73852634D01*
X117396754Y-73847042D01*
X117396757Y-73847041D01*
X117490579Y-73777742D01*
X117498150Y-73772150D01*
X117510665Y-73755206D01*
X117573041Y-73670757D01*
X117573042Y-73670754D01*
X117578634Y-73663184D01*
X117623519Y-73535369D01*
X117626500Y-73503834D01*
X117626500Y-72896166D01*
X117623519Y-72864631D01*
X117578634Y-72736816D01*
X117573042Y-72729246D01*
X117573041Y-72729243D01*
X117503742Y-72635421D01*
X117498150Y-72627850D01*
X117435855Y-72581838D01*
X117396757Y-72552959D01*
X117396754Y-72552958D01*
X117389184Y-72547366D01*
X117261369Y-72502481D01*
X117253723Y-72501758D01*
X117253722Y-72501758D01*
X117247752Y-72501194D01*
X117229834Y-72499500D01*
X115622166Y-72499500D01*
X115604248Y-72501194D01*
X115598278Y-72501758D01*
X115598277Y-72501758D01*
X115590631Y-72502481D01*
X115462816Y-72547366D01*
X115455246Y-72552958D01*
X115455243Y-72552959D01*
X115416145Y-72581838D01*
X115353850Y-72627850D01*
X115348258Y-72635421D01*
X115278959Y-72729243D01*
X115278958Y-72729246D01*
X115273366Y-72736816D01*
X115228481Y-72864631D01*
X115225500Y-72896166D01*
X115225500Y-73503834D01*
X107394199Y-73503834D01*
X109394199Y-71503834D01*
X115225500Y-71503834D01*
X115228481Y-71535369D01*
X115273366Y-71663184D01*
X115278958Y-71670754D01*
X115278959Y-71670757D01*
X115313940Y-71718117D01*
X115353850Y-71772150D01*
X115361421Y-71777742D01*
X115455243Y-71847041D01*
X115455246Y-71847042D01*
X115462816Y-71852634D01*
X115590631Y-71897519D01*
X115598277Y-71898242D01*
X115598278Y-71898242D01*
X115604248Y-71898806D01*
X115622166Y-71900500D01*
X117229834Y-71900500D01*
X117247752Y-71898806D01*
X117253722Y-71898242D01*
X117253723Y-71898242D01*
X117261369Y-71897519D01*
X117389184Y-71852634D01*
X117396754Y-71847042D01*
X117396757Y-71847041D01*
X117490579Y-71777742D01*
X117498150Y-71772150D01*
X117538060Y-71718117D01*
X117573041Y-71670757D01*
X117573042Y-71670754D01*
X117578634Y-71663184D01*
X117623519Y-71535369D01*
X117626500Y-71503834D01*
X117626500Y-70896166D01*
X117623519Y-70864631D01*
X117578634Y-70736816D01*
X117573042Y-70729246D01*
X117573041Y-70729243D01*
X117503742Y-70635421D01*
X117498150Y-70627850D01*
X117481206Y-70615335D01*
X117396757Y-70552959D01*
X117396754Y-70552958D01*
X117389184Y-70547366D01*
X117261369Y-70502481D01*
X117253723Y-70501758D01*
X117253722Y-70501758D01*
X117247752Y-70501194D01*
X117229834Y-70499500D01*
X115622166Y-70499500D01*
X115604248Y-70501194D01*
X115598278Y-70501758D01*
X115598277Y-70501758D01*
X115590631Y-70502481D01*
X115462816Y-70547366D01*
X115455246Y-70552958D01*
X115455243Y-70552959D01*
X115370794Y-70615335D01*
X115353850Y-70627850D01*
X115348258Y-70635421D01*
X115278959Y-70729243D01*
X115278958Y-70729246D01*
X115273366Y-70736816D01*
X115228481Y-70864631D01*
X115225500Y-70896166D01*
X115225500Y-71503834D01*
X109394199Y-71503834D01*
X110616215Y-70281818D01*
X110624319Y-70274391D01*
X110644749Y-70257248D01*
X110653194Y-70250162D01*
X110658707Y-70240613D01*
X110672039Y-70217522D01*
X110677945Y-70208251D01*
X110693230Y-70186422D01*
X110699554Y-70177391D01*
X110702408Y-70166741D01*
X110703885Y-70163573D01*
X110705077Y-70160297D01*
X110710588Y-70150752D01*
X110717130Y-70113649D01*
X110719509Y-70102917D01*
X110720291Y-70100000D01*
X110729264Y-70066514D01*
X110725980Y-70028979D01*
X110725500Y-70017997D01*
X110725500Y-69513173D01*
X115026000Y-69513173D01*
X115026193Y-69518099D01*
X115028396Y-69546081D01*
X115030695Y-69558668D01*
X115072506Y-69702585D01*
X115078755Y-69717024D01*
X115154279Y-69844729D01*
X115163926Y-69857165D01*
X115268835Y-69962074D01*
X115281271Y-69971721D01*
X115408976Y-70047245D01*
X115423415Y-70053494D01*
X115567332Y-70095305D01*
X115579919Y-70097604D01*
X115607901Y-70099807D01*
X115612827Y-70100000D01*
X116257885Y-70100000D01*
X116273124Y-70095525D01*
X116274329Y-70094135D01*
X116276000Y-70086452D01*
X116276000Y-70081885D01*
X116576000Y-70081885D01*
X116580475Y-70097124D01*
X116581865Y-70098329D01*
X116589548Y-70100000D01*
X117239173Y-70100000D01*
X117244099Y-70099807D01*
X117272081Y-70097604D01*
X117284668Y-70095305D01*
X117428585Y-70053494D01*
X117443024Y-70047245D01*
X117570729Y-69971721D01*
X117583165Y-69962074D01*
X117688074Y-69857165D01*
X117697721Y-69844729D01*
X117773245Y-69717024D01*
X117779494Y-69702585D01*
X117821305Y-69558668D01*
X117823604Y-69546081D01*
X117825807Y-69518099D01*
X117826000Y-69513173D01*
X117826000Y-69368115D01*
X117821525Y-69352876D01*
X117820135Y-69351671D01*
X117812452Y-69350000D01*
X116594115Y-69350000D01*
X116578876Y-69354475D01*
X116577671Y-69355865D01*
X116576000Y-69363548D01*
X116576000Y-70081885D01*
X116276000Y-70081885D01*
X116276000Y-69368115D01*
X116271525Y-69352876D01*
X116270135Y-69351671D01*
X116262452Y-69350000D01*
X115044115Y-69350000D01*
X115028876Y-69354475D01*
X115027671Y-69355865D01*
X115026000Y-69363548D01*
X115026000Y-69513173D01*
X110725500Y-69513173D01*
X110725500Y-69031885D01*
X115026000Y-69031885D01*
X115030475Y-69047124D01*
X115031865Y-69048329D01*
X115039548Y-69050000D01*
X116257885Y-69050000D01*
X116273124Y-69045525D01*
X116274329Y-69044135D01*
X116276000Y-69036452D01*
X116276000Y-69031885D01*
X116576000Y-69031885D01*
X116580475Y-69047124D01*
X116581865Y-69048329D01*
X116589548Y-69050000D01*
X117807885Y-69050000D01*
X117823124Y-69045525D01*
X117824329Y-69044135D01*
X117826000Y-69036452D01*
X117826000Y-68886828D01*
X117825807Y-68881901D01*
X117823604Y-68853919D01*
X117821305Y-68841332D01*
X117779494Y-68697415D01*
X117773245Y-68682976D01*
X117697721Y-68555271D01*
X117688074Y-68542835D01*
X117583165Y-68437926D01*
X117570729Y-68428279D01*
X117443024Y-68352755D01*
X117428585Y-68346506D01*
X117284668Y-68304695D01*
X117272081Y-68302396D01*
X117244099Y-68300193D01*
X117239172Y-68300000D01*
X116594115Y-68300000D01*
X116578876Y-68304475D01*
X116577671Y-68305865D01*
X116576000Y-68313548D01*
X116576000Y-69031885D01*
X116276000Y-69031885D01*
X116276000Y-68318115D01*
X116271525Y-68302876D01*
X116270135Y-68301671D01*
X116262452Y-68300000D01*
X115612828Y-68300000D01*
X115607901Y-68300193D01*
X115579919Y-68302396D01*
X115567332Y-68304695D01*
X115423415Y-68346506D01*
X115408976Y-68352755D01*
X115281271Y-68428279D01*
X115268835Y-68437926D01*
X115163926Y-68542835D01*
X115154279Y-68555271D01*
X115078755Y-68682976D01*
X115072506Y-68697415D01*
X115030695Y-68841332D01*
X115028396Y-68853919D01*
X115026193Y-68881901D01*
X115026000Y-68886828D01*
X115026000Y-69031885D01*
X110725500Y-69031885D01*
X110725500Y-67200000D01*
X114094318Y-67200000D01*
X114114956Y-67356762D01*
X114175464Y-67502841D01*
X114271718Y-67628282D01*
X114397159Y-67724536D01*
X114543238Y-67785044D01*
X114700000Y-67805682D01*
X114708188Y-67804604D01*
X114848574Y-67786122D01*
X114856762Y-67785044D01*
X115002841Y-67724536D01*
X115009394Y-67719508D01*
X115009397Y-67719506D01*
X115102618Y-67647975D01*
X115168838Y-67622374D01*
X115238387Y-67636639D01*
X115280673Y-67673077D01*
X115318682Y-67724536D01*
X115353850Y-67772150D01*
X115361421Y-67777742D01*
X115455243Y-67847041D01*
X115455246Y-67847042D01*
X115462816Y-67852634D01*
X115590631Y-67897519D01*
X115598277Y-67898242D01*
X115598278Y-67898242D01*
X115604248Y-67898806D01*
X115622166Y-67900500D01*
X117229834Y-67900500D01*
X117247752Y-67898806D01*
X117253722Y-67898242D01*
X117253723Y-67898242D01*
X117261369Y-67897519D01*
X117389184Y-67852634D01*
X117396754Y-67847042D01*
X117396757Y-67847041D01*
X117490579Y-67777742D01*
X117498150Y-67772150D01*
X117510665Y-67755206D01*
X117573041Y-67670757D01*
X117573042Y-67670754D01*
X117578634Y-67663184D01*
X117623519Y-67535369D01*
X117626500Y-67503834D01*
X117626500Y-66896166D01*
X117623519Y-66864631D01*
X117578634Y-66736816D01*
X117573042Y-66729246D01*
X117573041Y-66729243D01*
X117503742Y-66635421D01*
X117498150Y-66627850D01*
X117452752Y-66594318D01*
X117396757Y-66552959D01*
X117396754Y-66552958D01*
X117389184Y-66547366D01*
X117261369Y-66502481D01*
X117253723Y-66501758D01*
X117253722Y-66501758D01*
X117247752Y-66501194D01*
X117229834Y-66499500D01*
X115622166Y-66499500D01*
X115604248Y-66501194D01*
X115598278Y-66501758D01*
X115598277Y-66501758D01*
X115590631Y-66502481D01*
X115462816Y-66547366D01*
X115455246Y-66552958D01*
X115455243Y-66552959D01*
X115399248Y-66594318D01*
X115353850Y-66627850D01*
X115348258Y-66635421D01*
X115280673Y-66726923D01*
X115224112Y-66769833D01*
X115153330Y-66775353D01*
X115102618Y-66752025D01*
X115009397Y-66680494D01*
X115009392Y-66680491D01*
X115002841Y-66675464D01*
X114856762Y-66614956D01*
X114700000Y-66594318D01*
X114543238Y-66614956D01*
X114397159Y-66675464D01*
X114271718Y-66771718D01*
X114175464Y-66897159D01*
X114114956Y-67043238D01*
X114094318Y-67200000D01*
X110725500Y-67200000D01*
X110725500Y-64300000D01*
X114294318Y-64300000D01*
X114314956Y-64456762D01*
X114375464Y-64602841D01*
X114471718Y-64728282D01*
X114597159Y-64824536D01*
X114648944Y-64845986D01*
X114733992Y-64881214D01*
X114743238Y-64885044D01*
X114751426Y-64886122D01*
X114805326Y-64893218D01*
X114900000Y-64905682D01*
X114908188Y-64904604D01*
X115048569Y-64886123D01*
X115048572Y-64886122D01*
X115056762Y-64885044D01*
X115064397Y-64881882D01*
X115066888Y-64881214D01*
X115137865Y-64882904D01*
X115196661Y-64922698D01*
X115224609Y-64987962D01*
X115225500Y-65002921D01*
X115225500Y-65503834D01*
X115228481Y-65535369D01*
X115273366Y-65663184D01*
X115278958Y-65670754D01*
X115278959Y-65670757D01*
X115341335Y-65755206D01*
X115353850Y-65772150D01*
X115361421Y-65777742D01*
X115455243Y-65847041D01*
X115455246Y-65847042D01*
X115462816Y-65852634D01*
X115590631Y-65897519D01*
X115598277Y-65898242D01*
X115598278Y-65898242D01*
X115604248Y-65898806D01*
X115622166Y-65900500D01*
X117229834Y-65900500D01*
X117247752Y-65898806D01*
X117253722Y-65898242D01*
X117253723Y-65898242D01*
X117261369Y-65897519D01*
X117389184Y-65852634D01*
X117396754Y-65847042D01*
X117396757Y-65847041D01*
X117490579Y-65777742D01*
X117498150Y-65772150D01*
X117510665Y-65755206D01*
X117573041Y-65670757D01*
X117573042Y-65670754D01*
X117578634Y-65663184D01*
X117623519Y-65535369D01*
X117626500Y-65503834D01*
X117626500Y-64896166D01*
X117623519Y-64864631D01*
X117578634Y-64736816D01*
X117573042Y-64729246D01*
X117573041Y-64729243D01*
X117503742Y-64635421D01*
X117498150Y-64627850D01*
X117453961Y-64595211D01*
X117396757Y-64552959D01*
X117396754Y-64552958D01*
X117389184Y-64547366D01*
X117261369Y-64502481D01*
X117253723Y-64501758D01*
X117253722Y-64501758D01*
X117247752Y-64501194D01*
X117229834Y-64499500D01*
X116238017Y-64499500D01*
X116169896Y-64479498D01*
X116148921Y-64462595D01*
X115975611Y-64289284D01*
X115801922Y-64115595D01*
X115767897Y-64053283D01*
X115772962Y-63982467D01*
X115815509Y-63925632D01*
X115882029Y-63900821D01*
X115891018Y-63900500D01*
X117229834Y-63900500D01*
X117247752Y-63898806D01*
X117253722Y-63898242D01*
X117253723Y-63898242D01*
X117261369Y-63897519D01*
X117389184Y-63852634D01*
X117396754Y-63847042D01*
X117396757Y-63847041D01*
X117490579Y-63777742D01*
X117498150Y-63772150D01*
X117538060Y-63718117D01*
X117573041Y-63670757D01*
X117573042Y-63670754D01*
X117578634Y-63663184D01*
X117623519Y-63535369D01*
X117626500Y-63503834D01*
X117626500Y-62896166D01*
X117623519Y-62864631D01*
X117578634Y-62736816D01*
X117573042Y-62729246D01*
X117573041Y-62729243D01*
X117503742Y-62635421D01*
X117498150Y-62627850D01*
X117481206Y-62615335D01*
X117396757Y-62552959D01*
X117396754Y-62552958D01*
X117389184Y-62547366D01*
X117261369Y-62502481D01*
X117253723Y-62501758D01*
X117253722Y-62501758D01*
X117247752Y-62501194D01*
X117229834Y-62499500D01*
X116952405Y-62499500D01*
X116884284Y-62479498D01*
X116837791Y-62425842D01*
X116827687Y-62355568D01*
X116852442Y-62296796D01*
X116919509Y-62209392D01*
X116924536Y-62202841D01*
X116985044Y-62056762D01*
X117005682Y-61900000D01*
X116985044Y-61743238D01*
X116924536Y-61597159D01*
X116828282Y-61471718D01*
X116702841Y-61375464D01*
X116556762Y-61314956D01*
X116400000Y-61294318D01*
X116243238Y-61314956D01*
X116097159Y-61375464D01*
X115971718Y-61471718D01*
X115875464Y-61597159D01*
X115814956Y-61743238D01*
X115794318Y-61900000D01*
X115814956Y-62056762D01*
X115875464Y-62202841D01*
X115880491Y-62209392D01*
X115947558Y-62296796D01*
X115973158Y-62363017D01*
X115958893Y-62432565D01*
X115909292Y-62483361D01*
X115847595Y-62499500D01*
X115622166Y-62499500D01*
X115604248Y-62501194D01*
X115598278Y-62501758D01*
X115598277Y-62501758D01*
X115590631Y-62502481D01*
X115462816Y-62547366D01*
X115455246Y-62552958D01*
X115455243Y-62552959D01*
X115370794Y-62615335D01*
X115353850Y-62627850D01*
X115348258Y-62635421D01*
X115278959Y-62729243D01*
X115278958Y-62729246D01*
X115273366Y-62736816D01*
X115228481Y-62864631D01*
X115225500Y-62896166D01*
X115225500Y-63503834D01*
X115228481Y-63535369D01*
X115231026Y-63542615D01*
X115231026Y-63542617D01*
X115238073Y-63562683D01*
X115241773Y-63633583D01*
X115206553Y-63695229D01*
X115143597Y-63728047D01*
X115070976Y-63720843D01*
X115064395Y-63718117D01*
X115064390Y-63718116D01*
X115056762Y-63714956D01*
X114900000Y-63694318D01*
X114743238Y-63714956D01*
X114597159Y-63775464D01*
X114471718Y-63871718D01*
X114375464Y-63997159D01*
X114314956Y-64143238D01*
X114294318Y-64300000D01*
X110725500Y-64300000D01*
X110725500Y-61768277D01*
X110745502Y-61700156D01*
X110799158Y-61653663D01*
X110876079Y-61644698D01*
X110899179Y-61649293D01*
X110899189Y-61649294D01*
X110905252Y-61650500D01*
X111137984Y-61650500D01*
X111206105Y-61670502D01*
X111227079Y-61687405D01*
X112167291Y-62627617D01*
X112201317Y-62689929D01*
X112203118Y-62733157D01*
X112194318Y-62800000D01*
X112214956Y-62956762D01*
X112275464Y-63102841D01*
X112324053Y-63166163D01*
X112360758Y-63213998D01*
X112371718Y-63228282D01*
X112497159Y-63324536D01*
X112643238Y-63385044D01*
X112800000Y-63405682D01*
X112808188Y-63404604D01*
X112948574Y-63386122D01*
X112956762Y-63385044D01*
X113102841Y-63324536D01*
X113228282Y-63228282D01*
X113239243Y-63213998D01*
X113275947Y-63166163D01*
X113324536Y-63102841D01*
X113385044Y-62956762D01*
X113405682Y-62800000D01*
X113385044Y-62643238D01*
X113324536Y-62497159D01*
X113319509Y-62490608D01*
X113319507Y-62490604D01*
X113242828Y-62390673D01*
X113217228Y-62324453D01*
X113231493Y-62254904D01*
X113281094Y-62204109D01*
X113326346Y-62189048D01*
X113356762Y-62185044D01*
X113502841Y-62124536D01*
X113628282Y-62028282D01*
X113724536Y-61902841D01*
X113781348Y-61765684D01*
X113781884Y-61764391D01*
X113785044Y-61756762D01*
X113787377Y-61739045D01*
X113804604Y-61608188D01*
X113805682Y-61600000D01*
X113785044Y-61443238D01*
X113786873Y-61442997D01*
X113788317Y-61382334D01*
X113828112Y-61323539D01*
X113893377Y-61295592D01*
X113924779Y-61295779D01*
X114000000Y-61305682D01*
X114008188Y-61304604D01*
X114148574Y-61286122D01*
X114156762Y-61285044D01*
X114302841Y-61224536D01*
X114428282Y-61128282D01*
X114524536Y-61002841D01*
X114585044Y-60856762D01*
X114605682Y-60700000D01*
X114585044Y-60543238D01*
X114559113Y-60480635D01*
X114549522Y-60432417D01*
X114549522Y-60253472D01*
X114569524Y-60185351D01*
X114623180Y-60138858D01*
X114693454Y-60128754D01*
X114715816Y-60134889D01*
X114721769Y-60138867D01*
X114733938Y-60141288D01*
X114733939Y-60141288D01*
X114774184Y-60149293D01*
X114780252Y-60150500D01*
X116019748Y-60150500D01*
X116025816Y-60149293D01*
X116066061Y-60141288D01*
X116066062Y-60141288D01*
X116078231Y-60138867D01*
X116144552Y-60094552D01*
X116188867Y-60028231D01*
X116200500Y-59969748D01*
X116200500Y-59801500D01*
X116220502Y-59733379D01*
X116274158Y-59686886D01*
X116326500Y-59675500D01*
X116580290Y-59675500D01*
X116591272Y-59675980D01*
X116617820Y-59678303D01*
X116617822Y-59678303D01*
X116628807Y-59679264D01*
X116665215Y-59669508D01*
X116675942Y-59667130D01*
X116680717Y-59666288D01*
X116713045Y-59660588D01*
X116722590Y-59655077D01*
X116725866Y-59653885D01*
X116729034Y-59652408D01*
X116739684Y-59649554D01*
X116770544Y-59627945D01*
X116779815Y-59622039D01*
X116802906Y-59608707D01*
X116812455Y-59603194D01*
X116836685Y-59574318D01*
X116844111Y-59566215D01*
X116872921Y-59537405D01*
X116935233Y-59503379D01*
X116962016Y-59500500D01*
X117569748Y-59500500D01*
X117575816Y-59499293D01*
X117616061Y-59491288D01*
X117616062Y-59491288D01*
X117628231Y-59488867D01*
X117694552Y-59444552D01*
X117738867Y-59378231D01*
X117750500Y-59319748D01*
X117750500Y-58580252D01*
X117746697Y-58561133D01*
X117741288Y-58533939D01*
X117741288Y-58533938D01*
X117738867Y-58521769D01*
X117694552Y-58455448D01*
X117628231Y-58411133D01*
X117616062Y-58408712D01*
X117616061Y-58408712D01*
X117575816Y-58400707D01*
X117569748Y-58399500D01*
X116630252Y-58399500D01*
X116624184Y-58400707D01*
X116583939Y-58408712D01*
X116583938Y-58408712D01*
X116571769Y-58411133D01*
X116505448Y-58455448D01*
X116461133Y-58521769D01*
X116458712Y-58533938D01*
X116458712Y-58533939D01*
X116453303Y-58561133D01*
X116449500Y-58580252D01*
X116449500Y-58702760D01*
X116429498Y-58770881D01*
X116375842Y-58817374D01*
X116305568Y-58827478D01*
X116240988Y-58797984D01*
X116202604Y-58738258D01*
X116199921Y-58727341D01*
X116191288Y-58683939D01*
X116191288Y-58683938D01*
X116188867Y-58671769D01*
X116144552Y-58605448D01*
X116078231Y-58561133D01*
X116066062Y-58558712D01*
X116066061Y-58558712D01*
X116025816Y-58550707D01*
X116019748Y-58549500D01*
X114780252Y-58549500D01*
X114774184Y-58550707D01*
X114733939Y-58558712D01*
X114733938Y-58558712D01*
X114721769Y-58561133D01*
X114718174Y-58563535D01*
X114653149Y-58570526D01*
X114589662Y-58538746D01*
X114553435Y-58477687D01*
X114549522Y-58446528D01*
X114549522Y-58434006D01*
X114550002Y-58423024D01*
X114552325Y-58396476D01*
X114552325Y-58396474D01*
X114553286Y-58385489D01*
X114543530Y-58349081D01*
X114541152Y-58338354D01*
X114540560Y-58334995D01*
X114534610Y-58301251D01*
X114529099Y-58291706D01*
X114527907Y-58288430D01*
X114526430Y-58285262D01*
X114523576Y-58274612D01*
X114501967Y-58243752D01*
X114496061Y-58234481D01*
X114482729Y-58211390D01*
X114477216Y-58201841D01*
X114448339Y-58177611D01*
X114440237Y-58170185D01*
X114204815Y-57934763D01*
X114197388Y-57926659D01*
X114180245Y-57906229D01*
X114180246Y-57906229D01*
X114173159Y-57897784D01*
X114163612Y-57892272D01*
X114155167Y-57885186D01*
X114156487Y-57883613D01*
X114117135Y-57842347D01*
X114107485Y-57793321D01*
X114103775Y-57793646D01*
X114102814Y-57782659D01*
X114103774Y-57771682D01*
X114094019Y-57735272D01*
X114091644Y-57724561D01*
X114087012Y-57698295D01*
X114085099Y-57687444D01*
X114079589Y-57677900D01*
X114078397Y-57674624D01*
X114076918Y-57671453D01*
X114074065Y-57660805D01*
X114052451Y-57629937D01*
X114046547Y-57620668D01*
X114033218Y-57597581D01*
X114033215Y-57597577D01*
X114027705Y-57588034D01*
X113998841Y-57563814D01*
X113990738Y-57556389D01*
X113818126Y-57383778D01*
X113810699Y-57375673D01*
X113793563Y-57355251D01*
X113786477Y-57346806D01*
X113782681Y-57344614D01*
X113745621Y-57288912D01*
X113744495Y-57217924D01*
X113781926Y-57157597D01*
X113846031Y-57127083D01*
X113865939Y-57125500D01*
X114473500Y-57125500D01*
X114541621Y-57145502D01*
X114588114Y-57199158D01*
X114599500Y-57251500D01*
X114599500Y-57769748D01*
X114600707Y-57775816D01*
X114608441Y-57814696D01*
X114611133Y-57828231D01*
X114655448Y-57894552D01*
X114721769Y-57938867D01*
X114733938Y-57941288D01*
X114733939Y-57941288D01*
X114774184Y-57949293D01*
X114780252Y-57950500D01*
X116019748Y-57950500D01*
X116025816Y-57949293D01*
X116066061Y-57941288D01*
X116066062Y-57941288D01*
X116078231Y-57938867D01*
X116144552Y-57894552D01*
X116188867Y-57828231D01*
X116191560Y-57814696D01*
X116199293Y-57775816D01*
X116200500Y-57769748D01*
X116200500Y-57647240D01*
X116220502Y-57579119D01*
X116274158Y-57532626D01*
X116344432Y-57522522D01*
X116409012Y-57552016D01*
X116447396Y-57611742D01*
X116450079Y-57622659D01*
X116454969Y-57647240D01*
X116461133Y-57678231D01*
X116505448Y-57744552D01*
X116571769Y-57788867D01*
X116583938Y-57791288D01*
X116583939Y-57791288D01*
X116624184Y-57799293D01*
X116630252Y-57800500D01*
X117569748Y-57800500D01*
X117575816Y-57799293D01*
X117616061Y-57791288D01*
X117616062Y-57791288D01*
X117628231Y-57788867D01*
X117694552Y-57744552D01*
X117738867Y-57678231D01*
X117745032Y-57647240D01*
X117749293Y-57625816D01*
X117750500Y-57619748D01*
X117750500Y-56880252D01*
X117747265Y-56863990D01*
X117741288Y-56833939D01*
X117741288Y-56833938D01*
X117738867Y-56821769D01*
X117735655Y-56816961D01*
X117728556Y-56750933D01*
X117752591Y-56696602D01*
X117819509Y-56609392D01*
X117824536Y-56602841D01*
X117885044Y-56456762D01*
X117895091Y-56380448D01*
X117899078Y-56350163D01*
X117922015Y-56298314D01*
X117903104Y-56268889D01*
X117899078Y-56249837D01*
X117886122Y-56151426D01*
X117885044Y-56143238D01*
X117824536Y-55997159D01*
X117728282Y-55871718D01*
X117699979Y-55850000D01*
X117679967Y-55834645D01*
X117602841Y-55775464D01*
X117456762Y-55714956D01*
X117300000Y-55694318D01*
X117143238Y-55714956D01*
X116997159Y-55775464D01*
X116920033Y-55834645D01*
X116900022Y-55850000D01*
X116871718Y-55871718D01*
X116775464Y-55997159D01*
X116714956Y-56143238D01*
X116694318Y-56300000D01*
X116714956Y-56456762D01*
X116718116Y-56464391D01*
X116743468Y-56525596D01*
X116751057Y-56596186D01*
X116719278Y-56659673D01*
X116658220Y-56695900D01*
X116639412Y-56699207D01*
X116636437Y-56699500D01*
X116630252Y-56699500D01*
X116624186Y-56700707D01*
X116624182Y-56700707D01*
X116583939Y-56708712D01*
X116583938Y-56708712D01*
X116571769Y-56711133D01*
X116505448Y-56755448D01*
X116461133Y-56821769D01*
X116458712Y-56833938D01*
X116458712Y-56833939D01*
X116450079Y-56877341D01*
X116417171Y-56940251D01*
X116355476Y-56975383D01*
X116284582Y-56971583D01*
X116226996Y-56930057D01*
X116201001Y-56863990D01*
X116200500Y-56852760D01*
X116200500Y-56530252D01*
X116194320Y-56499184D01*
X116191288Y-56483939D01*
X116191288Y-56483938D01*
X116188867Y-56471769D01*
X116178840Y-56456762D01*
X116151443Y-56415761D01*
X116144552Y-56405448D01*
X116078231Y-56361133D01*
X116066062Y-56358712D01*
X116066061Y-56358712D01*
X116025816Y-56350707D01*
X116019748Y-56349500D01*
X114780252Y-56349500D01*
X114774184Y-56350707D01*
X114733939Y-56358712D01*
X114733938Y-56358712D01*
X114721769Y-56361133D01*
X114655448Y-56405448D01*
X114648557Y-56415761D01*
X114648553Y-56415765D01*
X114646725Y-56418501D01*
X114641197Y-56423121D01*
X114639778Y-56424540D01*
X114639651Y-56424413D01*
X114592249Y-56464029D01*
X114541960Y-56474500D01*
X113991917Y-56474500D01*
X113923796Y-56454498D01*
X113877303Y-56400842D01*
X113867199Y-56330568D01*
X113896693Y-56265988D01*
X113905769Y-56257054D01*
X113912455Y-56253194D01*
X113936685Y-56224317D01*
X113944111Y-56216215D01*
X115441711Y-54718616D01*
X115449815Y-54711189D01*
X115462183Y-54700811D01*
X115478683Y-54686966D01*
X115484193Y-54677423D01*
X115484196Y-54677419D01*
X115497525Y-54654332D01*
X115503430Y-54645062D01*
X115518721Y-54623224D01*
X115525043Y-54614195D01*
X115527896Y-54603547D01*
X115529992Y-54599053D01*
X115535112Y-54589227D01*
X115535341Y-54588831D01*
X115586758Y-54539873D01*
X115656481Y-54526486D01*
X115726080Y-54555953D01*
X115797564Y-54616791D01*
X115802942Y-54619797D01*
X115802944Y-54619798D01*
X115880326Y-54663045D01*
X115977398Y-54717297D01*
X116050527Y-54741058D01*
X116167471Y-54779056D01*
X116167475Y-54779057D01*
X116173329Y-54780959D01*
X116377894Y-54805351D01*
X116384029Y-54804879D01*
X116384031Y-54804879D01*
X116447437Y-54800000D01*
X116583300Y-54789546D01*
X116589230Y-54787890D01*
X116589232Y-54787890D01*
X116775797Y-54735800D01*
X116775796Y-54735800D01*
X116781725Y-54734145D01*
X116787214Y-54731372D01*
X116787220Y-54731370D01*
X116960116Y-54644033D01*
X116965610Y-54641258D01*
X117018228Y-54600149D01*
X117088777Y-54545030D01*
X117127951Y-54514424D01*
X117137538Y-54503318D01*
X117258540Y-54363134D01*
X117258540Y-54363133D01*
X117262564Y-54358472D01*
X117283387Y-54321818D01*
X117361276Y-54184707D01*
X117364323Y-54179344D01*
X117429351Y-53983863D01*
X117455171Y-53779474D01*
X117455583Y-53750000D01*
X117435480Y-53544970D01*
X117375935Y-53347749D01*
X117279218Y-53165849D01*
X117185420Y-53050842D01*
X117152906Y-53010975D01*
X117152903Y-53010972D01*
X117149011Y-53006200D01*
X117142173Y-53000543D01*
X116995025Y-52878811D01*
X116995021Y-52878809D01*
X116990275Y-52874882D01*
X116809055Y-52776897D01*
X116612254Y-52715977D01*
X116606129Y-52715333D01*
X116606128Y-52715333D01*
X116413498Y-52695087D01*
X116413496Y-52695087D01*
X116407369Y-52694443D01*
X116320529Y-52702346D01*
X116208342Y-52712555D01*
X116208339Y-52712556D01*
X116202203Y-52713114D01*
X116004572Y-52771280D01*
X115822002Y-52866726D01*
X115798259Y-52885816D01*
X115755941Y-52919840D01*
X115690318Y-52946936D01*
X115620464Y-52934252D01*
X115568556Y-52885816D01*
X115550989Y-52821643D01*
X115550989Y-52571528D01*
X115570991Y-52503407D01*
X115587894Y-52482432D01*
X115859123Y-52211204D01*
X115921435Y-52177179D01*
X115987154Y-52180467D01*
X116167471Y-52239056D01*
X116167475Y-52239057D01*
X116173329Y-52240959D01*
X116377894Y-52265351D01*
X116384029Y-52264879D01*
X116384031Y-52264879D01*
X116440039Y-52260569D01*
X116583300Y-52249546D01*
X116589230Y-52247890D01*
X116589232Y-52247890D01*
X116775797Y-52195800D01*
X116775796Y-52195800D01*
X116781725Y-52194145D01*
X116787214Y-52191372D01*
X116787220Y-52191370D01*
X116960116Y-52104033D01*
X116965610Y-52101258D01*
X117127951Y-51974424D01*
X117262564Y-51818472D01*
X117267625Y-51809564D01*
X117361276Y-51644707D01*
X117364323Y-51639344D01*
X117429351Y-51443863D01*
X117455171Y-51239474D01*
X117455390Y-51223806D01*
X117455534Y-51213522D01*
X117455534Y-51213518D01*
X117455583Y-51210000D01*
X117435480Y-51004970D01*
X117375935Y-50807749D01*
X117279218Y-50625849D01*
X117172522Y-50495027D01*
X117152906Y-50470975D01*
X117152903Y-50470972D01*
X117149011Y-50466200D01*
X117136458Y-50455815D01*
X116995025Y-50338811D01*
X116995021Y-50338809D01*
X116990275Y-50334882D01*
X116809055Y-50236897D01*
X116612254Y-50175977D01*
X116606129Y-50175333D01*
X116606128Y-50175333D01*
X116413498Y-50155087D01*
X116413496Y-50155087D01*
X116407369Y-50154443D01*
X116320529Y-50162346D01*
X116208342Y-50172555D01*
X116208339Y-50172556D01*
X116202203Y-50173114D01*
X116004572Y-50231280D01*
X115822002Y-50326726D01*
X115817201Y-50330586D01*
X115817198Y-50330588D01*
X115667658Y-50450821D01*
X115661447Y-50455815D01*
X115529024Y-50613630D01*
X115526056Y-50619028D01*
X115526053Y-50619033D01*
X115463437Y-50732933D01*
X115429776Y-50794162D01*
X115367484Y-50990532D01*
X115366798Y-50996649D01*
X115366797Y-50996653D01*
X115347575Y-51168026D01*
X115344520Y-51195262D01*
X115345375Y-51205448D01*
X115356242Y-51334848D01*
X115361759Y-51400553D01*
X115363458Y-51406478D01*
X115401534Y-51539264D01*
X115418544Y-51598586D01*
X115421361Y-51604067D01*
X115421537Y-51604410D01*
X115421575Y-51604608D01*
X115423630Y-51609799D01*
X115422644Y-51610190D01*
X115434888Y-51674140D01*
X115408420Y-51740019D01*
X115398569Y-51751104D01*
X115009268Y-52140406D01*
X115001164Y-52147832D01*
X114972295Y-52172056D01*
X114966782Y-52181605D01*
X114953450Y-52204696D01*
X114947544Y-52213967D01*
X114925935Y-52244827D01*
X114923081Y-52255477D01*
X114921604Y-52258645D01*
X114920412Y-52261921D01*
X114914901Y-52271466D01*
X114908951Y-52305210D01*
X114908359Y-52308569D01*
X114905981Y-52319296D01*
X114896225Y-52355704D01*
X114897186Y-52366689D01*
X114897186Y-52366691D01*
X114899509Y-52393239D01*
X114899989Y-52404221D01*
X114899989Y-54287494D01*
X114879987Y-54355615D01*
X114863084Y-54376589D01*
X114764617Y-54475056D01*
X114702305Y-54509082D01*
X114631490Y-54504017D01*
X114574654Y-54461470D01*
X114549843Y-54394950D01*
X114549522Y-54385961D01*
X114549522Y-51032994D01*
X114569524Y-50964873D01*
X114586427Y-50943899D01*
X115859122Y-49671204D01*
X115921434Y-49637178D01*
X115987151Y-49640466D01*
X116173329Y-49700959D01*
X116377894Y-49725351D01*
X116384029Y-49724879D01*
X116384031Y-49724879D01*
X116440039Y-49720569D01*
X116583300Y-49709546D01*
X116589230Y-49707890D01*
X116589232Y-49707890D01*
X116775797Y-49655800D01*
X116775796Y-49655800D01*
X116781725Y-49654145D01*
X116787214Y-49651372D01*
X116787220Y-49651370D01*
X116960116Y-49564033D01*
X116965610Y-49561258D01*
X117127951Y-49434424D01*
X117133603Y-49427877D01*
X117258540Y-49283134D01*
X117258540Y-49283133D01*
X117262564Y-49278472D01*
X117283387Y-49241818D01*
X117333295Y-49153963D01*
X117364323Y-49099344D01*
X117429351Y-48903863D01*
X117455171Y-48699474D01*
X117455583Y-48670000D01*
X117435480Y-48464970D01*
X117375935Y-48267749D01*
X117279218Y-48085849D01*
X117156960Y-47935946D01*
X117152906Y-47930975D01*
X117152903Y-47930972D01*
X117149011Y-47926200D01*
X117129661Y-47910192D01*
X116995025Y-47798811D01*
X116995021Y-47798809D01*
X116990275Y-47794882D01*
X116809055Y-47696897D01*
X116612254Y-47635977D01*
X116606129Y-47635333D01*
X116606128Y-47635333D01*
X116413498Y-47615087D01*
X116413496Y-47615087D01*
X116407369Y-47614443D01*
X116320529Y-47622346D01*
X116208342Y-47632555D01*
X116208339Y-47632556D01*
X116202203Y-47633114D01*
X116004572Y-47691280D01*
X115999107Y-47694137D01*
X115920584Y-47735188D01*
X115822002Y-47786726D01*
X115817201Y-47790586D01*
X115817198Y-47790588D01*
X115675051Y-47904877D01*
X115661447Y-47915815D01*
X115529024Y-48073630D01*
X115526056Y-48079028D01*
X115526053Y-48079033D01*
X115448496Y-48220110D01*
X115429776Y-48254162D01*
X115390408Y-48378268D01*
X115388240Y-48385101D01*
X115348577Y-48443985D01*
X115283375Y-48472078D01*
X115213335Y-48460461D01*
X115168176Y-48423707D01*
X115133309Y-48378268D01*
X115133305Y-48378264D01*
X115128282Y-48371718D01*
X115002841Y-48275464D01*
X114856762Y-48214956D01*
X114700000Y-48194318D01*
X114633157Y-48203118D01*
X114563010Y-48192179D01*
X114527617Y-48167291D01*
X114287405Y-47927079D01*
X114253379Y-47864767D01*
X114250500Y-47837984D01*
X114250500Y-47416782D01*
X114241871Y-47358162D01*
X114241784Y-47357574D01*
X114241784Y-47357573D01*
X114240358Y-47347888D01*
X114188932Y-47243145D01*
X114115677Y-47170018D01*
X114113721Y-47168065D01*
X114113720Y-47168065D01*
X114106350Y-47160707D01*
X114001518Y-47109464D01*
X113971027Y-47105016D01*
X113937744Y-47100160D01*
X113937740Y-47100160D01*
X113933218Y-47099500D01*
X113566782Y-47099500D01*
X113562232Y-47100170D01*
X113562229Y-47100170D01*
X113507574Y-47108216D01*
X113507573Y-47108216D01*
X113497888Y-47109642D01*
X113485346Y-47115800D01*
X113402493Y-47156478D01*
X113402491Y-47156479D01*
X113393145Y-47161068D01*
X113310707Y-47243650D01*
X113306134Y-47253006D01*
X113306133Y-47253007D01*
X113297335Y-47271006D01*
X113259464Y-47348482D01*
X113249500Y-47416782D01*
X113249500Y-48658218D01*
X113259642Y-48727112D01*
X113311068Y-48831855D01*
X113318438Y-48839212D01*
X113387518Y-48908172D01*
X113421597Y-48970455D01*
X113424500Y-48997345D01*
X113424500Y-49037293D01*
X113404498Y-49105414D01*
X113350842Y-49151907D01*
X113345295Y-49153698D01*
X113345405Y-49153963D01*
X113333939Y-49158712D01*
X113321769Y-49161133D01*
X113255448Y-49205448D01*
X113211133Y-49271769D01*
X113199500Y-49330252D01*
X113199500Y-50184984D01*
X113179498Y-50253105D01*
X113125842Y-50299598D01*
X113055568Y-50309702D01*
X112990988Y-50280208D01*
X112984405Y-50274079D01*
X112637405Y-49927079D01*
X112603379Y-49864767D01*
X112600500Y-49837984D01*
X112600500Y-49330252D01*
X112588867Y-49271769D01*
X112544552Y-49205448D01*
X112478231Y-49161133D01*
X112466061Y-49158712D01*
X112454595Y-49153963D01*
X112456218Y-49150044D01*
X112414007Y-49127963D01*
X112378877Y-49066267D01*
X112375500Y-49037293D01*
X112375500Y-48257210D01*
X112375980Y-48246228D01*
X112378303Y-48219680D01*
X112378303Y-48219678D01*
X112379264Y-48208693D01*
X112369508Y-48172285D01*
X112367130Y-48161558D01*
X112366538Y-48158199D01*
X112360588Y-48124455D01*
X112357320Y-48118794D01*
X112350500Y-48080119D01*
X112350500Y-47416782D01*
X112341871Y-47358162D01*
X112341784Y-47357574D01*
X112341784Y-47357573D01*
X112340358Y-47347888D01*
X112288932Y-47243145D01*
X112215677Y-47170018D01*
X112213721Y-47168065D01*
X112213720Y-47168065D01*
X112206350Y-47160707D01*
X112101518Y-47109464D01*
X112071027Y-47105016D01*
X112037744Y-47100160D01*
X112037740Y-47100160D01*
X112033218Y-47099500D01*
X111676980Y-47099500D01*
X111608859Y-47079498D01*
X111562366Y-47025842D01*
X111550980Y-46973500D01*
X111550980Y-46783218D01*
X112299500Y-46783218D01*
X112300170Y-46787768D01*
X112300170Y-46787771D01*
X112308216Y-46842426D01*
X112309642Y-46852112D01*
X112361068Y-46956855D01*
X112368438Y-46964212D01*
X112430176Y-47025842D01*
X112443650Y-47039293D01*
X112548482Y-47090536D01*
X112578973Y-47094984D01*
X112612256Y-47099840D01*
X112612260Y-47099840D01*
X112616782Y-47100500D01*
X112983218Y-47100500D01*
X112987768Y-47099830D01*
X112987771Y-47099830D01*
X113042426Y-47091784D01*
X113042427Y-47091784D01*
X113052112Y-47090358D01*
X113146804Y-47043867D01*
X113147507Y-47043522D01*
X113147509Y-47043521D01*
X113156855Y-47038932D01*
X113239293Y-46956350D01*
X113290536Y-46851518D01*
X113300500Y-46783218D01*
X113300500Y-46581500D01*
X113320502Y-46513379D01*
X113374158Y-46466886D01*
X113426500Y-46455500D01*
X115309211Y-46455500D01*
X115377332Y-46475502D01*
X115421278Y-46523906D01*
X115501982Y-46680939D01*
X115512712Y-46701818D01*
X115640677Y-46863270D01*
X115645370Y-46867264D01*
X115645371Y-46867265D01*
X115785208Y-46986275D01*
X115797564Y-46996791D01*
X115802942Y-46999797D01*
X115802944Y-46999798D01*
X115859779Y-47031562D01*
X115977398Y-47097297D01*
X116072238Y-47128113D01*
X116167471Y-47159056D01*
X116167475Y-47159057D01*
X116173329Y-47160959D01*
X116377894Y-47185351D01*
X116384029Y-47184879D01*
X116384031Y-47184879D01*
X116440039Y-47180569D01*
X116583300Y-47169546D01*
X116589230Y-47167890D01*
X116589232Y-47167890D01*
X116775797Y-47115800D01*
X116775796Y-47115800D01*
X116781725Y-47114145D01*
X116787214Y-47111372D01*
X116787220Y-47111370D01*
X116944473Y-47031935D01*
X116965610Y-47021258D01*
X116990142Y-47002092D01*
X117123101Y-46898213D01*
X117127951Y-46894424D01*
X117143923Y-46875921D01*
X117258540Y-46743134D01*
X117258540Y-46743133D01*
X117262564Y-46738472D01*
X117283387Y-46701818D01*
X117330987Y-46618026D01*
X117364323Y-46559344D01*
X117429351Y-46363863D01*
X117455171Y-46159474D01*
X117455583Y-46130000D01*
X117435480Y-45924970D01*
X117375935Y-45727749D01*
X117279218Y-45545849D01*
X117205859Y-45455902D01*
X117152906Y-45390975D01*
X117152903Y-45390972D01*
X117149011Y-45386200D01*
X117142173Y-45380543D01*
X116995025Y-45258811D01*
X116995021Y-45258809D01*
X116990275Y-45254882D01*
X116809055Y-45156897D01*
X116612254Y-45095977D01*
X116606129Y-45095333D01*
X116606128Y-45095333D01*
X116413498Y-45075087D01*
X116413496Y-45075087D01*
X116407369Y-45074443D01*
X116320529Y-45082346D01*
X116208342Y-45092555D01*
X116208339Y-45092556D01*
X116202203Y-45093114D01*
X116004572Y-45151280D01*
X115999107Y-45154137D01*
X115946032Y-45181884D01*
X115822002Y-45246726D01*
X115817201Y-45250586D01*
X115817198Y-45250588D01*
X115670358Y-45368650D01*
X115661447Y-45375815D01*
X115529024Y-45533630D01*
X115526056Y-45539028D01*
X115526053Y-45539033D01*
X115449381Y-45678500D01*
X115429776Y-45714162D01*
X115427914Y-45720031D01*
X115425485Y-45725699D01*
X115423458Y-45724830D01*
X115389342Y-45775481D01*
X115324140Y-45803575D01*
X115308901Y-45804500D01*
X113426500Y-45804500D01*
X113358379Y-45784498D01*
X113311886Y-45730842D01*
X113300500Y-45678500D01*
X113300500Y-45541782D01*
X113294763Y-45502807D01*
X113291784Y-45482574D01*
X113291784Y-45482573D01*
X113290358Y-45472888D01*
X113247797Y-45386200D01*
X113243522Y-45377493D01*
X113243521Y-45377491D01*
X113238932Y-45368145D01*
X113156350Y-45285707D01*
X113051518Y-45234464D01*
X113021027Y-45230016D01*
X112987744Y-45225160D01*
X112987740Y-45225160D01*
X112983218Y-45224500D01*
X112616782Y-45224500D01*
X112612232Y-45225170D01*
X112612229Y-45225170D01*
X112557574Y-45233216D01*
X112557573Y-45233216D01*
X112547888Y-45234642D01*
X112529095Y-45243869D01*
X112452493Y-45281478D01*
X112452491Y-45281479D01*
X112443145Y-45286068D01*
X112360707Y-45368650D01*
X112356134Y-45378006D01*
X112356133Y-45378007D01*
X112354049Y-45382271D01*
X112309464Y-45473482D01*
X112299500Y-45541782D01*
X112299500Y-46783218D01*
X111550980Y-46783218D01*
X111550980Y-45111536D01*
X111570982Y-45043415D01*
X111587885Y-45022441D01*
X111722921Y-44887405D01*
X111785233Y-44853379D01*
X111812016Y-44850500D01*
X112319748Y-44850500D01*
X112329411Y-44848578D01*
X112366061Y-44841288D01*
X112366062Y-44841288D01*
X112378231Y-44838867D01*
X112444552Y-44794552D01*
X112488867Y-44728231D01*
X112491451Y-44715243D01*
X112499293Y-44675816D01*
X112500500Y-44669748D01*
X112500500Y-43730252D01*
X112495435Y-43704789D01*
X112491288Y-43683939D01*
X112491288Y-43683938D01*
X112488867Y-43671769D01*
X112444552Y-43605448D01*
X112378231Y-43561133D01*
X112366061Y-43558712D01*
X112354595Y-43553963D01*
X112356218Y-43550044D01*
X112314007Y-43527963D01*
X112278877Y-43466267D01*
X112275500Y-43437293D01*
X112275500Y-43288075D01*
X112293069Y-43233196D01*
X112289293Y-43231350D01*
X112293867Y-43221993D01*
X112340536Y-43126518D01*
X112350500Y-43058218D01*
X112350500Y-41816782D01*
X112348735Y-41804789D01*
X112341784Y-41757574D01*
X112341784Y-41757573D01*
X112340358Y-41747888D01*
X112311985Y-41690099D01*
X112293522Y-41652493D01*
X112293521Y-41652491D01*
X112288932Y-41643145D01*
X112206350Y-41560707D01*
X112196527Y-41555905D01*
X112157270Y-41536716D01*
X112101518Y-41509464D01*
X112071027Y-41505016D01*
X112037744Y-41500160D01*
X112037740Y-41500160D01*
X112033218Y-41499500D01*
X111666782Y-41499500D01*
X111662232Y-41500170D01*
X111662229Y-41500170D01*
X111607574Y-41508216D01*
X111607573Y-41508216D01*
X111597888Y-41509642D01*
X111555071Y-41530664D01*
X111502493Y-41556478D01*
X111502491Y-41556479D01*
X111493145Y-41561068D01*
X111410707Y-41643650D01*
X111359464Y-41748482D01*
X111358052Y-41758162D01*
X111351250Y-41804789D01*
X111349500Y-41816782D01*
X111349500Y-43058218D01*
X111350170Y-43062768D01*
X111350170Y-43062771D01*
X111358216Y-43117426D01*
X111359642Y-43127112D01*
X111380093Y-43168765D01*
X111395344Y-43199828D01*
X111411068Y-43231855D01*
X111493650Y-43314293D01*
X111524501Y-43329373D01*
X111531796Y-43332939D01*
X111584212Y-43380825D01*
X111602419Y-43449448D01*
X111580634Y-43517020D01*
X111527923Y-43559909D01*
X111521769Y-43561133D01*
X111455448Y-43605448D01*
X111411133Y-43671769D01*
X111408712Y-43683938D01*
X111408712Y-43683939D01*
X111404565Y-43704789D01*
X111399500Y-43730252D01*
X111399500Y-44237984D01*
X111379498Y-44306105D01*
X111362595Y-44327079D01*
X111009265Y-44680409D01*
X111001161Y-44687836D01*
X110972286Y-44712065D01*
X110966773Y-44721614D01*
X110953441Y-44744705D01*
X110947535Y-44753976D01*
X110925926Y-44784836D01*
X110923072Y-44795486D01*
X110921595Y-44798654D01*
X110920403Y-44801930D01*
X110914892Y-44811475D01*
X110908942Y-44845219D01*
X110908350Y-44848578D01*
X110905972Y-44859305D01*
X110896216Y-44895713D01*
X110897177Y-44906698D01*
X110897177Y-44906700D01*
X110899500Y-44933248D01*
X110899980Y-44944230D01*
X110899980Y-49507830D01*
X110879978Y-49575951D01*
X110826322Y-49622444D01*
X110756048Y-49632548D01*
X110691468Y-49603054D01*
X110672046Y-49581893D01*
X110670630Y-49579944D01*
X110595056Y-49504370D01*
X110579213Y-49492859D01*
X110483982Y-49444336D01*
X110465355Y-49438284D01*
X110386373Y-49425775D01*
X110376527Y-49425000D01*
X110068115Y-49425000D01*
X110052876Y-49429475D01*
X110051671Y-49430865D01*
X110050000Y-49438548D01*
X110050000Y-50224000D01*
X110029998Y-50292121D01*
X109976342Y-50338614D01*
X109924000Y-50350000D01*
X109876000Y-50350000D01*
X109807879Y-50329998D01*
X109761386Y-50276342D01*
X109750000Y-50224000D01*
X109750000Y-49443116D01*
X109745525Y-49427877D01*
X109744135Y-49426672D01*
X109736452Y-49425001D01*
X109423475Y-49425001D01*
X109413626Y-49425776D01*
X109334649Y-49438283D01*
X109316014Y-49444338D01*
X109220787Y-49492859D01*
X109204944Y-49504370D01*
X109129370Y-49579944D01*
X109117859Y-49595787D01*
X109091485Y-49647549D01*
X109042737Y-49699164D01*
X108973822Y-49716230D01*
X108906620Y-49693329D01*
X108898709Y-49686669D01*
X108894552Y-49680448D01*
X108828231Y-49636133D01*
X108816062Y-49633712D01*
X108816061Y-49633712D01*
X108775816Y-49625707D01*
X108769748Y-49624500D01*
X108751500Y-49624500D01*
X108683379Y-49604498D01*
X108636886Y-49550842D01*
X108625500Y-49498500D01*
X108625500Y-48162419D01*
X108645502Y-48094298D01*
X108662405Y-48073323D01*
X109265320Y-47470409D01*
X109327632Y-47436384D01*
X109370859Y-47434583D01*
X109437701Y-47443383D01*
X109445889Y-47442305D01*
X109586275Y-47423823D01*
X109594463Y-47422745D01*
X109740542Y-47362237D01*
X109865983Y-47265983D01*
X109962237Y-47140542D01*
X110022745Y-46994463D01*
X110043383Y-46837701D01*
X110022745Y-46680939D01*
X109962237Y-46534860D01*
X109865983Y-46409419D01*
X109740542Y-46313165D01*
X109594463Y-46252657D01*
X109437701Y-46232019D01*
X109280939Y-46252657D01*
X109134860Y-46313165D01*
X109128309Y-46318192D01*
X109128304Y-46318195D01*
X109044779Y-46382286D01*
X108978559Y-46407887D01*
X108909010Y-46393622D01*
X108858214Y-46344021D01*
X108842298Y-46274832D01*
X108853121Y-46235006D01*
X108852599Y-46234836D01*
X108861716Y-46206776D01*
X108874225Y-46127794D01*
X108875000Y-46117948D01*
X108875000Y-45809536D01*
X108870525Y-45794297D01*
X108869135Y-45793092D01*
X108861452Y-45791421D01*
X108268115Y-45791421D01*
X108252876Y-45795896D01*
X108251671Y-45797286D01*
X108250000Y-45804969D01*
X108250000Y-46473305D01*
X108254475Y-46488544D01*
X108255865Y-46489749D01*
X108263548Y-46491420D01*
X108501525Y-46491420D01*
X108511374Y-46490645D01*
X108590351Y-46478138D01*
X108608986Y-46472083D01*
X108704210Y-46423564D01*
X108707624Y-46421083D01*
X108712478Y-46419351D01*
X108713045Y-46419062D01*
X108713082Y-46419135D01*
X108774491Y-46397222D01*
X108843643Y-46413300D01*
X108893125Y-46464212D01*
X108907227Y-46533794D01*
X108898098Y-46571234D01*
X108858944Y-46665761D01*
X108852657Y-46680939D01*
X108832019Y-46837701D01*
X108840819Y-46904542D01*
X108829880Y-46974689D01*
X108804993Y-47010082D01*
X108083779Y-47731297D01*
X108075675Y-47738723D01*
X108046806Y-47762947D01*
X108041293Y-47772496D01*
X108027961Y-47795587D01*
X108022055Y-47804858D01*
X108000446Y-47835718D01*
X107997592Y-47846368D01*
X107996115Y-47849536D01*
X107994923Y-47852812D01*
X107989412Y-47862357D01*
X107984351Y-47891060D01*
X107982870Y-47899460D01*
X107980492Y-47910187D01*
X107970736Y-47946595D01*
X107971697Y-47957580D01*
X107971697Y-47957582D01*
X107974020Y-47984130D01*
X107974500Y-47995112D01*
X107974500Y-49498500D01*
X107954498Y-49566621D01*
X107900842Y-49613114D01*
X107848500Y-49624500D01*
X107830252Y-49624500D01*
X107824184Y-49625707D01*
X107783939Y-49633712D01*
X107783938Y-49633712D01*
X107771769Y-49636133D01*
X107705448Y-49680448D01*
X107661133Y-49746769D01*
X107649500Y-49805252D01*
X107649500Y-50594748D01*
X107650707Y-50600816D01*
X107656769Y-50631290D01*
X107661133Y-50653231D01*
X107705448Y-50719552D01*
X107771769Y-50763867D01*
X107783938Y-50766288D01*
X107783939Y-50766288D01*
X107814582Y-50772383D01*
X107830252Y-50775500D01*
X108562494Y-50775500D01*
X108630615Y-50795502D01*
X108651589Y-50812405D01*
X108773589Y-50934405D01*
X108807615Y-50996717D01*
X108802550Y-51067532D01*
X108760003Y-51124368D01*
X108693483Y-51149179D01*
X108684494Y-51149500D01*
X108505252Y-51149500D01*
X108446769Y-51161133D01*
X108442888Y-51163726D01*
X108377630Y-51170743D01*
X108359761Y-51165496D01*
X108353231Y-51161133D01*
X108294748Y-51149500D01*
X107705252Y-51149500D01*
X107646769Y-51161133D01*
X107642888Y-51163726D01*
X107577630Y-51170743D01*
X107559761Y-51165496D01*
X107553231Y-51161133D01*
X107494748Y-51149500D01*
X106905252Y-51149500D01*
X106846769Y-51161133D01*
X106842888Y-51163726D01*
X106777630Y-51170743D01*
X106759761Y-51165496D01*
X106753231Y-51161133D01*
X106694748Y-51149500D01*
X106105252Y-51149500D01*
X106046769Y-51161133D01*
X106042888Y-51163726D01*
X105977630Y-51170743D01*
X105959761Y-51165496D01*
X105953231Y-51161133D01*
X105894748Y-51149500D01*
X105305252Y-51149500D01*
X105299184Y-51150707D01*
X105258939Y-51158712D01*
X105258938Y-51158712D01*
X105246769Y-51161133D01*
X105180448Y-51205448D01*
X105136133Y-51271769D01*
X105124500Y-51330252D01*
X105124500Y-52969748D01*
X105126137Y-52977977D01*
X105126033Y-52979131D01*
X105126314Y-52981979D01*
X105125774Y-52982032D01*
X105119810Y-53048689D01*
X105076256Y-53104757D01*
X105009304Y-53128377D01*
X104977980Y-53126137D01*
X104969748Y-53124500D01*
X103330252Y-53124500D01*
X103324184Y-53125707D01*
X103283939Y-53133712D01*
X103283938Y-53133712D01*
X103271769Y-53136133D01*
X103261453Y-53143026D01*
X103252658Y-53148903D01*
X103205448Y-53180448D01*
X103161133Y-53246769D01*
X103149500Y-53305252D01*
X103149500Y-53894748D01*
X103161133Y-53953231D01*
X103163726Y-53957112D01*
X103170743Y-54022370D01*
X103165496Y-54040239D01*
X103161133Y-54046769D01*
X103149500Y-54105252D01*
X103149500Y-54694748D01*
X103161133Y-54753231D01*
X103163726Y-54757112D01*
X103170743Y-54822370D01*
X103165496Y-54840239D01*
X103161133Y-54846769D01*
X103149500Y-54905252D01*
X103149500Y-55307799D01*
X103129498Y-55375920D01*
X103110564Y-55395968D01*
X103111955Y-55397359D01*
X103029370Y-55479944D01*
X103017859Y-55495787D01*
X102969338Y-55591014D01*
X102962337Y-55612562D01*
X102922264Y-55671168D01*
X102856867Y-55698806D01*
X102786910Y-55686700D01*
X102753408Y-55662722D01*
X102720056Y-55629370D01*
X102704210Y-55617857D01*
X102668796Y-55599812D01*
X102617181Y-55551064D01*
X102600000Y-55487546D01*
X102600000Y-54156800D01*
X101800000Y-54156800D01*
X101800000Y-55425537D01*
X101779998Y-55493658D01*
X101726342Y-55540151D01*
X101693317Y-55548717D01*
X101693520Y-55550001D01*
X101609649Y-55563283D01*
X101591014Y-55569338D01*
X101495787Y-55617859D01*
X101479944Y-55629370D01*
X101404370Y-55704944D01*
X101392859Y-55720787D01*
X101344336Y-55816018D01*
X101338284Y-55834645D01*
X101325775Y-55913627D01*
X101325000Y-55923473D01*
X101325000Y-56231885D01*
X101329475Y-56247124D01*
X101330865Y-56248329D01*
X101338548Y-56250000D01*
X101674000Y-56250000D01*
X101742121Y-56270002D01*
X101788614Y-56323658D01*
X101800000Y-56376000D01*
X101800000Y-56424000D01*
X101779998Y-56492121D01*
X101726342Y-56538614D01*
X101674000Y-56550000D01*
X101343116Y-56550000D01*
X101327877Y-56554475D01*
X101326672Y-56555865D01*
X101325001Y-56563548D01*
X101325001Y-56876525D01*
X101325776Y-56886374D01*
X101338283Y-56965351D01*
X101344338Y-56983986D01*
X101392859Y-57079213D01*
X101404370Y-57095056D01*
X101479944Y-57170630D01*
X101495787Y-57182141D01*
X101547549Y-57208515D01*
X101599164Y-57257263D01*
X101616230Y-57326178D01*
X101593329Y-57393380D01*
X101586669Y-57401291D01*
X101580448Y-57405448D01*
X101573557Y-57415761D01*
X101546161Y-57456762D01*
X101536133Y-57471769D01*
X101524500Y-57530252D01*
X101524500Y-58469748D01*
X101525707Y-58475816D01*
X101532796Y-58511453D01*
X101536133Y-58528231D01*
X101580448Y-58594552D01*
X101646769Y-58638867D01*
X101658940Y-58641288D01*
X101660637Y-58641991D01*
X101715918Y-58686539D01*
X101738339Y-58753903D01*
X101720781Y-58822694D01*
X101689122Y-58858363D01*
X101678266Y-58866693D01*
X101678264Y-58866695D01*
X101671718Y-58871718D01*
X101575464Y-58997159D01*
X101514956Y-59143238D01*
X101494318Y-59300000D01*
X101495396Y-59308188D01*
X101513349Y-59444552D01*
X101514956Y-59456762D01*
X101575464Y-59602841D01*
X101671718Y-59728282D01*
X101678264Y-59733305D01*
X101750704Y-59788890D01*
X101792571Y-59846228D01*
X101800000Y-59888853D01*
X101800000Y-60600000D01*
X102600000Y-60600000D01*
X102600000Y-59676945D01*
X102616880Y-59613946D01*
X102619509Y-59609392D01*
X102624536Y-59602841D01*
X102685044Y-59456762D01*
X102686652Y-59444552D01*
X102704604Y-59308188D01*
X102705682Y-59300000D01*
X102685044Y-59143238D01*
X102624536Y-58997159D01*
X102619509Y-58990607D01*
X102616880Y-58986054D01*
X102600000Y-58923055D01*
X102600000Y-58662036D01*
X102621235Y-58592033D01*
X102656974Y-58538547D01*
X102663867Y-58528231D01*
X102667205Y-58511453D01*
X102674293Y-58475816D01*
X102675500Y-58469748D01*
X102675500Y-57937017D01*
X102695502Y-57868896D01*
X102712405Y-57847921D01*
X102934405Y-57625922D01*
X102996717Y-57591897D01*
X103067533Y-57596962D01*
X103124368Y-57639509D01*
X103149179Y-57706030D01*
X103149500Y-57715018D01*
X103149500Y-57894748D01*
X103161133Y-57953231D01*
X103163726Y-57957112D01*
X103170743Y-58022370D01*
X103165496Y-58040239D01*
X103161133Y-58046769D01*
X103149500Y-58105252D01*
X103149500Y-58694748D01*
X103161133Y-58753231D01*
X103163726Y-58757112D01*
X103170743Y-58822370D01*
X103165496Y-58840239D01*
X103161133Y-58846769D01*
X103149500Y-58905252D01*
X103149500Y-59494748D01*
X103161133Y-59553231D01*
X103205448Y-59619552D01*
X103215761Y-59626443D01*
X103252718Y-59651137D01*
X103271769Y-59663867D01*
X103283938Y-59666288D01*
X103283939Y-59666288D01*
X103310761Y-59671623D01*
X103330252Y-59675500D01*
X104969748Y-59675500D01*
X104977977Y-59673863D01*
X104979131Y-59673967D01*
X104981979Y-59673686D01*
X104982032Y-59674226D01*
X105048689Y-59680190D01*
X105104757Y-59723744D01*
X105128377Y-59790696D01*
X105126137Y-59822020D01*
X105124500Y-59830252D01*
X105124500Y-61469748D01*
X105136133Y-61528231D01*
X105143026Y-61538547D01*
X105151632Y-61551426D01*
X105180448Y-61594552D01*
X105246769Y-61638867D01*
X105258938Y-61641288D01*
X105258939Y-61641288D01*
X105276083Y-61644698D01*
X105305252Y-61650500D01*
X105550681Y-61650500D01*
X105618802Y-61670502D01*
X105665295Y-61724158D01*
X105675399Y-61794432D01*
X105645905Y-61859012D01*
X105639788Y-61865583D01*
X104791576Y-62713796D01*
X104729265Y-62747820D01*
X104702482Y-62750700D01*
X104520312Y-62750700D01*
X104509330Y-62750220D01*
X104482782Y-62747897D01*
X104482780Y-62747897D01*
X104471795Y-62746936D01*
X104435387Y-62756692D01*
X104424660Y-62759070D01*
X104421301Y-62759662D01*
X104387557Y-62765612D01*
X104378012Y-62771123D01*
X104374736Y-62772315D01*
X104371568Y-62773792D01*
X104360918Y-62776646D01*
X104351887Y-62782970D01*
X104330058Y-62798255D01*
X104320787Y-62804161D01*
X104297696Y-62817493D01*
X104288147Y-62823006D01*
X104281061Y-62831451D01*
X104263917Y-62851882D01*
X104256491Y-62859985D01*
X103859985Y-63256491D01*
X103851881Y-63263918D01*
X103823006Y-63288147D01*
X103817493Y-63297696D01*
X103804161Y-63320787D01*
X103798255Y-63330058D01*
X103776646Y-63360918D01*
X103773792Y-63371568D01*
X103772315Y-63374736D01*
X103771123Y-63378012D01*
X103765612Y-63387557D01*
X103759662Y-63421301D01*
X103759070Y-63424660D01*
X103756692Y-63435387D01*
X103746936Y-63471795D01*
X103747897Y-63482780D01*
X103747897Y-63482782D01*
X103750220Y-63509330D01*
X103750700Y-63520312D01*
X103750700Y-63836784D01*
X103730698Y-63904905D01*
X103713795Y-63925879D01*
X103417511Y-64222163D01*
X103355199Y-64256189D01*
X103284384Y-64251124D01*
X103227548Y-64208577D01*
X103202737Y-64142057D01*
X103203494Y-64116624D01*
X103204604Y-64108191D01*
X103204604Y-64108188D01*
X103205682Y-64100000D01*
X103185044Y-63943238D01*
X103124536Y-63797159D01*
X103028282Y-63671718D01*
X102902841Y-63575464D01*
X102756762Y-63514956D01*
X102600000Y-63494318D01*
X102443238Y-63514956D01*
X102297159Y-63575464D01*
X102171718Y-63671718D01*
X102166695Y-63678264D01*
X102130677Y-63725204D01*
X102073339Y-63767071D01*
X102030714Y-63774500D01*
X101717334Y-63774500D01*
X101649213Y-63754498D01*
X101602720Y-63700842D01*
X101592616Y-63630568D01*
X101598452Y-63606751D01*
X101620973Y-63542620D01*
X101620974Y-63542616D01*
X101623519Y-63535369D01*
X101626500Y-63503834D01*
X101626500Y-62896166D01*
X101623519Y-62864631D01*
X101578634Y-62736816D01*
X101573042Y-62729246D01*
X101573041Y-62729243D01*
X101503742Y-62635421D01*
X101498150Y-62627850D01*
X101481206Y-62615335D01*
X101396757Y-62552959D01*
X101396754Y-62552958D01*
X101389184Y-62547366D01*
X101261369Y-62502481D01*
X101253723Y-62501758D01*
X101253722Y-62501758D01*
X101247752Y-62501194D01*
X101229834Y-62499500D01*
X101072464Y-62499500D01*
X101004343Y-62479498D01*
X100957850Y-62425842D01*
X100947746Y-62355568D01*
X100977240Y-62290988D01*
X101024246Y-62257091D01*
X101029526Y-62254904D01*
X101102841Y-62224536D01*
X101228282Y-62128282D01*
X101324536Y-62002841D01*
X101385044Y-61856762D01*
X101405682Y-61700000D01*
X101385044Y-61543238D01*
X101324536Y-61397159D01*
X101228282Y-61271718D01*
X101102841Y-61175464D01*
X100956762Y-61114956D01*
X100800000Y-61094318D01*
X100643238Y-61114956D01*
X100497159Y-61175464D01*
X100371718Y-61271718D01*
X100275464Y-61397159D01*
X100214956Y-61543238D01*
X100194318Y-61700000D01*
X100195396Y-61708188D01*
X100195396Y-61708190D01*
X100202886Y-61765085D01*
X100191946Y-61835233D01*
X100177782Y-61857370D01*
X100172806Y-61861545D01*
X100167293Y-61871094D01*
X100153961Y-61894185D01*
X100148055Y-61903456D01*
X100126446Y-61934316D01*
X100123592Y-61944966D01*
X100122115Y-61948134D01*
X100120923Y-61951410D01*
X100115412Y-61960955D01*
X100111205Y-61984817D01*
X100108870Y-61998058D01*
X100106492Y-62008785D01*
X100096736Y-62045193D01*
X100097697Y-62056178D01*
X100097697Y-62056180D01*
X100100020Y-62082728D01*
X100100500Y-62093710D01*
X100100500Y-62373500D01*
X100080498Y-62441621D01*
X100026842Y-62488114D01*
X99974500Y-62499500D01*
X99622166Y-62499500D01*
X99604248Y-62501194D01*
X99598278Y-62501758D01*
X99598277Y-62501758D01*
X99590631Y-62502481D01*
X99462816Y-62547366D01*
X99455246Y-62552958D01*
X99455243Y-62552959D01*
X99370794Y-62615335D01*
X99353850Y-62627850D01*
X99348258Y-62635421D01*
X99278959Y-62729243D01*
X99278958Y-62729246D01*
X99273366Y-62736816D01*
X99228481Y-62864631D01*
X99225500Y-62896166D01*
X99225500Y-63503834D01*
X99228481Y-63535369D01*
X99273366Y-63663184D01*
X99278958Y-63670754D01*
X99278959Y-63670757D01*
X99313940Y-63718117D01*
X99353850Y-63772150D01*
X99361421Y-63777742D01*
X99455243Y-63847041D01*
X99455246Y-63847042D01*
X99462816Y-63852634D01*
X99590631Y-63897519D01*
X99598277Y-63898242D01*
X99598278Y-63898242D01*
X99604248Y-63898806D01*
X99622166Y-63900500D01*
X100960984Y-63900500D01*
X101029105Y-63920502D01*
X101075598Y-63974158D01*
X101085702Y-64044432D01*
X101056208Y-64109012D01*
X101050079Y-64115595D01*
X100703079Y-64462595D01*
X100640767Y-64496621D01*
X100613984Y-64499500D01*
X99622166Y-64499500D01*
X99604248Y-64501194D01*
X99598278Y-64501758D01*
X99598277Y-64501758D01*
X99590631Y-64502481D01*
X99462816Y-64547366D01*
X99455246Y-64552958D01*
X99455243Y-64552959D01*
X99398039Y-64595211D01*
X99353850Y-64627850D01*
X99348258Y-64635421D01*
X99278959Y-64729243D01*
X99278958Y-64729246D01*
X99273366Y-64736816D01*
X99228481Y-64864631D01*
X99225500Y-64896166D01*
X99225500Y-65503834D01*
X99228481Y-65535369D01*
X99273366Y-65663184D01*
X99278958Y-65670754D01*
X99278959Y-65670757D01*
X99341335Y-65755206D01*
X99353850Y-65772150D01*
X99361421Y-65777742D01*
X99455243Y-65847041D01*
X99455246Y-65847042D01*
X99462816Y-65852634D01*
X99590631Y-65897519D01*
X99598277Y-65898242D01*
X99598278Y-65898242D01*
X99604248Y-65898806D01*
X99622166Y-65900500D01*
X101229834Y-65900500D01*
X101247752Y-65898806D01*
X101253722Y-65898242D01*
X101253723Y-65898242D01*
X101261369Y-65897519D01*
X101389184Y-65852634D01*
X101396754Y-65847042D01*
X101396757Y-65847041D01*
X101490579Y-65777742D01*
X101498150Y-65772150D01*
X101510665Y-65755206D01*
X101573041Y-65670757D01*
X101573042Y-65670754D01*
X101578634Y-65663184D01*
X101623519Y-65535369D01*
X101626500Y-65503834D01*
X101626500Y-64896166D01*
X101623519Y-64864631D01*
X101578634Y-64736816D01*
X101573041Y-64729244D01*
X101573039Y-64729240D01*
X101545741Y-64692281D01*
X101521359Y-64625603D01*
X101536896Y-64556327D01*
X101557998Y-64528328D01*
X101623921Y-64462405D01*
X101686233Y-64428379D01*
X101713016Y-64425500D01*
X102030714Y-64425500D01*
X102098835Y-64445502D01*
X102130677Y-64474796D01*
X102151366Y-64501758D01*
X102171718Y-64528282D01*
X102297159Y-64624536D01*
X102443238Y-64685044D01*
X102600000Y-64705682D01*
X102608188Y-64704604D01*
X102608191Y-64704604D01*
X102616624Y-64703494D01*
X102686773Y-64714434D01*
X102739870Y-64761563D01*
X102759059Y-64829918D01*
X102738246Y-64897795D01*
X102722163Y-64917511D01*
X101177079Y-66462595D01*
X101114767Y-66496621D01*
X101087984Y-66499500D01*
X99622166Y-66499500D01*
X99604248Y-66501194D01*
X99598278Y-66501758D01*
X99598277Y-66501758D01*
X99590631Y-66502481D01*
X99462816Y-66547366D01*
X99455246Y-66552958D01*
X99455243Y-66552959D01*
X99399248Y-66594318D01*
X99353850Y-66627850D01*
X99348258Y-66635421D01*
X99278959Y-66729243D01*
X99278958Y-66729246D01*
X99273366Y-66736816D01*
X99228481Y-66864631D01*
X99225500Y-66896166D01*
X99225500Y-67503834D01*
X99228481Y-67535369D01*
X99273366Y-67663184D01*
X99278958Y-67670754D01*
X99278959Y-67670757D01*
X99341335Y-67755206D01*
X99353850Y-67772150D01*
X99361421Y-67777742D01*
X99455243Y-67847041D01*
X99455246Y-67847042D01*
X99462816Y-67852634D01*
X99590631Y-67897519D01*
X99598277Y-67898242D01*
X99598278Y-67898242D01*
X99604248Y-67898806D01*
X99622166Y-67900500D01*
X100960984Y-67900500D01*
X101029105Y-67920502D01*
X101075598Y-67974158D01*
X101085702Y-68044432D01*
X101056208Y-68109012D01*
X101050079Y-68115595D01*
X100703079Y-68462595D01*
X100640767Y-68496621D01*
X100613984Y-68499500D01*
X99622166Y-68499500D01*
X99604248Y-68501194D01*
X99598278Y-68501758D01*
X99598277Y-68501758D01*
X99590631Y-68502481D01*
X99462816Y-68547366D01*
X99455246Y-68552958D01*
X99455243Y-68552959D01*
X99376670Y-68610995D01*
X99353850Y-68627850D01*
X99348258Y-68635421D01*
X99278959Y-68729243D01*
X99278958Y-68729246D01*
X99273366Y-68736816D01*
X99228481Y-68864631D01*
X99225500Y-68896166D01*
X99225500Y-69503834D01*
X99228481Y-69535369D01*
X99273366Y-69663184D01*
X99278958Y-69670754D01*
X99278959Y-69670757D01*
X99302468Y-69702585D01*
X99353850Y-69772150D01*
X99361421Y-69777742D01*
X99455243Y-69847041D01*
X99455246Y-69847042D01*
X99462816Y-69852634D01*
X99590631Y-69897519D01*
X99598277Y-69898242D01*
X99598278Y-69898242D01*
X99604248Y-69898806D01*
X99622166Y-69900500D01*
X101229834Y-69900500D01*
X101247752Y-69898806D01*
X101253722Y-69898242D01*
X101253723Y-69898242D01*
X101261369Y-69897519D01*
X101389184Y-69852634D01*
X101396754Y-69847042D01*
X101396757Y-69847041D01*
X101490579Y-69777742D01*
X101498150Y-69772150D01*
X101549532Y-69702585D01*
X101573041Y-69670757D01*
X101573042Y-69670754D01*
X101578634Y-69663184D01*
X101623519Y-69535369D01*
X101626500Y-69503834D01*
X101626500Y-68896166D01*
X101623519Y-68864631D01*
X101578634Y-68736816D01*
X101573041Y-68729244D01*
X101573039Y-68729240D01*
X101545741Y-68692281D01*
X101521359Y-68625603D01*
X101536896Y-68556327D01*
X101557998Y-68528328D01*
X108216215Y-61870111D01*
X108224319Y-61862684D01*
X108238553Y-61850740D01*
X108253194Y-61838455D01*
X108255386Y-61834659D01*
X108311088Y-61797599D01*
X108382076Y-61796473D01*
X108442403Y-61833904D01*
X108472917Y-61898009D01*
X108474500Y-61917917D01*
X108474500Y-62443191D01*
X108454498Y-62511312D01*
X108437595Y-62532286D01*
X107934784Y-63035097D01*
X107926680Y-63042524D01*
X107897805Y-63066753D01*
X107892292Y-63076302D01*
X107878960Y-63099393D01*
X107873054Y-63108664D01*
X107851445Y-63139524D01*
X107848591Y-63150174D01*
X107847114Y-63153342D01*
X107845922Y-63156618D01*
X107840411Y-63166163D01*
X107834461Y-63199907D01*
X107833869Y-63203266D01*
X107831491Y-63213993D01*
X107821735Y-63250401D01*
X107822696Y-63261386D01*
X107822696Y-63261388D01*
X107825019Y-63287936D01*
X107825499Y-63298918D01*
X107825499Y-64761985D01*
X107805497Y-64830106D01*
X107788594Y-64851080D01*
X101804519Y-70835155D01*
X101742207Y-70869181D01*
X101671392Y-70864116D01*
X101614556Y-70821569D01*
X101596541Y-70787808D01*
X101581753Y-70745699D01*
X101578634Y-70736816D01*
X101573042Y-70729246D01*
X101573041Y-70729243D01*
X101503742Y-70635421D01*
X101498150Y-70627850D01*
X101481206Y-70615335D01*
X101396757Y-70552959D01*
X101396754Y-70552958D01*
X101389184Y-70547366D01*
X101261369Y-70502481D01*
X101253723Y-70501758D01*
X101253722Y-70501758D01*
X101247752Y-70501194D01*
X101229834Y-70499500D01*
X99622166Y-70499500D01*
X99604248Y-70501194D01*
X99598278Y-70501758D01*
X99598277Y-70501758D01*
X99590631Y-70502481D01*
X99462816Y-70547366D01*
X99455246Y-70552958D01*
X99455243Y-70552959D01*
X99370794Y-70615335D01*
X99353850Y-70627850D01*
X99348258Y-70635421D01*
X99278959Y-70729243D01*
X99278958Y-70729246D01*
X99273366Y-70736816D01*
X99228481Y-70864631D01*
X99225500Y-70896166D01*
X99225500Y-71503834D01*
X99228481Y-71535369D01*
X99273366Y-71663184D01*
X99278958Y-71670754D01*
X99278959Y-71670757D01*
X99313940Y-71718117D01*
X99353850Y-71772150D01*
X99361421Y-71777742D01*
X99455243Y-71847041D01*
X99455246Y-71847042D01*
X99462816Y-71852634D01*
X99590631Y-71897519D01*
X99598277Y-71898242D01*
X99598278Y-71898242D01*
X99604248Y-71898806D01*
X99622166Y-71900500D01*
X101070688Y-71900500D01*
X101138809Y-71920502D01*
X101185302Y-71974158D01*
X101195406Y-72044432D01*
X101165912Y-72109012D01*
X101159783Y-72115595D01*
X100812783Y-72462595D01*
X100750471Y-72496621D01*
X100723688Y-72499500D01*
X99622166Y-72499500D01*
X99604248Y-72501194D01*
X99598278Y-72501758D01*
X99598277Y-72501758D01*
X99590631Y-72502481D01*
X99462816Y-72547366D01*
X99455246Y-72552958D01*
X99455243Y-72552959D01*
X99416145Y-72581838D01*
X99353850Y-72627850D01*
X99348258Y-72635421D01*
X99278959Y-72729243D01*
X99278958Y-72729246D01*
X99273366Y-72736816D01*
X99228481Y-72864631D01*
X99225500Y-72896166D01*
X99225500Y-73503834D01*
X99228481Y-73535369D01*
X99273366Y-73663184D01*
X99278958Y-73670754D01*
X99278959Y-73670757D01*
X99341335Y-73755206D01*
X99353850Y-73772150D01*
X99361421Y-73777742D01*
X99455243Y-73847041D01*
X99455246Y-73847042D01*
X99462816Y-73852634D01*
X99590631Y-73897519D01*
X99598277Y-73898242D01*
X99598278Y-73898242D01*
X99604248Y-73898806D01*
X99622166Y-73900500D01*
X101229834Y-73900500D01*
X101247752Y-73898806D01*
X101253722Y-73898242D01*
X101253723Y-73898242D01*
X101261369Y-73897519D01*
X101389184Y-73852634D01*
X101396754Y-73847042D01*
X101396757Y-73847041D01*
X101490579Y-73777742D01*
X101498150Y-73772150D01*
X101510665Y-73755206D01*
X101573041Y-73670757D01*
X101573042Y-73670754D01*
X101578634Y-73663184D01*
X101623519Y-73535369D01*
X101626500Y-73503834D01*
X101626500Y-72896166D01*
X101623519Y-72864631D01*
X101578634Y-72736816D01*
X101578736Y-72736780D01*
X101565606Y-72672463D01*
X101591266Y-72606266D01*
X101602064Y-72593966D01*
X102223132Y-71972898D01*
X102285444Y-71938872D01*
X102356259Y-71943937D01*
X102413095Y-71986484D01*
X102437906Y-72053004D01*
X102428636Y-72110210D01*
X102418117Y-72135605D01*
X102418116Y-72135609D01*
X102414956Y-72143238D01*
X102394318Y-72300000D01*
X102414956Y-72456762D01*
X102475464Y-72602841D01*
X102571718Y-72728282D01*
X102578264Y-72733305D01*
X102625204Y-72769323D01*
X102667071Y-72826661D01*
X102674500Y-72869286D01*
X102674500Y-77344558D01*
X102654498Y-77412679D01*
X102600842Y-77459172D01*
X102530568Y-77469276D01*
X102465988Y-77439782D01*
X102432091Y-77392776D01*
X102403196Y-77323019D01*
X102400036Y-77315389D01*
X102303782Y-77189948D01*
X102178341Y-77093694D01*
X102032262Y-77033186D01*
X101875500Y-77012548D01*
X101808657Y-77021348D01*
X101738510Y-77010409D01*
X101703117Y-76985521D01*
X101701381Y-76983785D01*
X101693954Y-76975681D01*
X101676811Y-76955251D01*
X101676812Y-76955251D01*
X101669725Y-76946806D01*
X101665483Y-76944357D01*
X101628248Y-76888391D01*
X101625493Y-76877980D01*
X101624242Y-76872277D01*
X101623519Y-76864631D01*
X101578634Y-76736816D01*
X101573042Y-76729246D01*
X101573041Y-76729243D01*
X101503742Y-76635421D01*
X101498150Y-76627850D01*
X101424912Y-76573755D01*
X101396757Y-76552959D01*
X101396754Y-76552958D01*
X101389184Y-76547366D01*
X101261369Y-76502481D01*
X101253723Y-76501758D01*
X101253722Y-76501758D01*
X101247752Y-76501194D01*
X101229834Y-76499500D01*
X99622166Y-76499500D01*
X99604248Y-76501194D01*
X99598278Y-76501758D01*
X99598277Y-76501758D01*
X99590631Y-76502481D01*
X99462816Y-76547366D01*
X99455246Y-76552958D01*
X99455243Y-76552959D01*
X99427088Y-76573755D01*
X99353850Y-76627850D01*
X99348258Y-76635421D01*
X99278959Y-76729243D01*
X99278958Y-76729246D01*
X99273366Y-76736816D01*
X99228481Y-76864631D01*
X99225500Y-76896166D01*
X99225500Y-77503834D01*
X99228481Y-77535369D01*
X99273366Y-77663184D01*
X99278958Y-77670754D01*
X99278959Y-77670757D01*
X99341335Y-77755206D01*
X99353850Y-77772150D01*
X99361421Y-77777742D01*
X99455243Y-77847041D01*
X99455246Y-77847042D01*
X99462816Y-77852634D01*
X99590631Y-77897519D01*
X99598277Y-77898242D01*
X99598278Y-77898242D01*
X99604248Y-77898806D01*
X99622166Y-77900500D01*
X101229834Y-77900500D01*
X101239491Y-77899587D01*
X101258665Y-77897775D01*
X101328366Y-77911278D01*
X101370484Y-77946512D01*
X101442191Y-78039962D01*
X101442195Y-78039966D01*
X101447218Y-78046512D01*
X101572659Y-78142766D01*
X101718738Y-78203274D01*
X101875500Y-78223912D01*
X101899342Y-78220773D01*
X101969490Y-78231712D01*
X102022589Y-78278840D01*
X102041779Y-78347194D01*
X102020968Y-78415072D01*
X102004883Y-78434790D01*
X100125079Y-80314595D01*
X100062767Y-80348620D01*
X100035984Y-80351500D01*
X99697280Y-80351500D01*
X99693194Y-80352038D01*
X99693193Y-80352038D01*
X99592952Y-80365235D01*
X99584764Y-80366313D01*
X99444767Y-80424302D01*
X99324549Y-80516549D01*
X99232302Y-80636767D01*
X99174313Y-80776764D01*
X99159500Y-80889280D01*
X99159500Y-82214720D01*
X99160038Y-82218806D01*
X99160038Y-82218807D01*
X99165139Y-82257554D01*
X99154199Y-82327703D01*
X99107071Y-82380801D01*
X99040217Y-82400000D01*
X98876000Y-82400000D01*
X98807879Y-82379998D01*
X98761386Y-82326342D01*
X98750000Y-82274000D01*
X98750000Y-75503834D01*
X99225500Y-75503834D01*
X99228481Y-75535369D01*
X99273366Y-75663184D01*
X99278958Y-75670754D01*
X99278959Y-75670757D01*
X99337699Y-75750283D01*
X99353850Y-75772150D01*
X99361421Y-75777742D01*
X99455243Y-75847041D01*
X99455246Y-75847042D01*
X99462816Y-75852634D01*
X99590631Y-75897519D01*
X99598277Y-75898242D01*
X99598278Y-75898242D01*
X99604248Y-75898806D01*
X99622166Y-75900500D01*
X101229834Y-75900500D01*
X101247752Y-75898806D01*
X101253722Y-75898242D01*
X101253723Y-75898242D01*
X101261369Y-75897519D01*
X101389184Y-75852634D01*
X101396754Y-75847042D01*
X101396757Y-75847041D01*
X101490579Y-75777742D01*
X101498150Y-75772150D01*
X101514301Y-75750283D01*
X101573041Y-75670757D01*
X101573042Y-75670754D01*
X101578634Y-75663184D01*
X101623519Y-75535369D01*
X101626500Y-75503834D01*
X101626500Y-74896166D01*
X101623519Y-74864631D01*
X101578634Y-74736816D01*
X101573042Y-74729246D01*
X101573041Y-74729243D01*
X101503742Y-74635421D01*
X101498150Y-74627850D01*
X101481206Y-74615335D01*
X101396757Y-74552959D01*
X101396754Y-74552958D01*
X101389184Y-74547366D01*
X101261369Y-74502481D01*
X101253723Y-74501758D01*
X101253722Y-74501758D01*
X101247752Y-74501194D01*
X101229834Y-74499500D01*
X99622166Y-74499500D01*
X99604248Y-74501194D01*
X99598278Y-74501758D01*
X99598277Y-74501758D01*
X99590631Y-74502481D01*
X99462816Y-74547366D01*
X99455246Y-74552958D01*
X99455243Y-74552959D01*
X99370794Y-74615335D01*
X99353850Y-74627850D01*
X99348258Y-74635421D01*
X99278959Y-74729243D01*
X99278958Y-74729246D01*
X99273366Y-74736816D01*
X99228481Y-74864631D01*
X99225500Y-74896166D01*
X99225500Y-75503834D01*
X98750000Y-75503834D01*
X98750000Y-53735262D01*
X99444520Y-53735262D01*
X99445036Y-53741406D01*
X99457913Y-53894748D01*
X99461759Y-53940553D01*
X99463458Y-53946478D01*
X99510760Y-54111439D01*
X99518544Y-54138586D01*
X99521359Y-54144063D01*
X99521360Y-54144066D01*
X99542247Y-54184707D01*
X99612712Y-54321818D01*
X99740677Y-54483270D01*
X99745370Y-54487264D01*
X99745371Y-54487265D01*
X99878010Y-54600149D01*
X99897564Y-54616791D01*
X99902942Y-54619797D01*
X99902944Y-54619798D01*
X99980326Y-54663045D01*
X100077398Y-54717297D01*
X100150527Y-54741058D01*
X100267471Y-54779056D01*
X100267475Y-54779057D01*
X100273329Y-54780959D01*
X100477894Y-54805351D01*
X100484029Y-54804879D01*
X100484031Y-54804879D01*
X100547437Y-54800000D01*
X100683300Y-54789546D01*
X100689230Y-54787890D01*
X100689232Y-54787890D01*
X100875797Y-54735800D01*
X100875796Y-54735800D01*
X100881725Y-54734145D01*
X100887214Y-54731372D01*
X100887220Y-54731370D01*
X101060116Y-54644033D01*
X101065610Y-54641258D01*
X101118228Y-54600149D01*
X101188777Y-54545030D01*
X101227951Y-54514424D01*
X101237538Y-54503318D01*
X101358540Y-54363134D01*
X101358540Y-54363133D01*
X101362564Y-54358472D01*
X101383387Y-54321818D01*
X101461276Y-54184707D01*
X101464323Y-54179344D01*
X101529351Y-53983863D01*
X101555171Y-53779474D01*
X101555583Y-53750000D01*
X101535480Y-53544970D01*
X101475935Y-53347749D01*
X101379218Y-53165849D01*
X101285420Y-53050842D01*
X101252906Y-53010975D01*
X101252903Y-53010972D01*
X101249011Y-53006200D01*
X101242173Y-53000543D01*
X101095025Y-52878811D01*
X101095021Y-52878809D01*
X101090275Y-52874882D01*
X100909055Y-52776897D01*
X100712254Y-52715977D01*
X100706129Y-52715333D01*
X100706128Y-52715333D01*
X100513498Y-52695087D01*
X100513496Y-52695087D01*
X100507369Y-52694443D01*
X100420529Y-52702346D01*
X100308342Y-52712555D01*
X100308339Y-52712556D01*
X100302203Y-52713114D01*
X100104572Y-52771280D01*
X99922002Y-52866726D01*
X99917201Y-52870586D01*
X99917198Y-52870588D01*
X99778590Y-52982032D01*
X99761447Y-52995815D01*
X99629024Y-53153630D01*
X99626056Y-53159028D01*
X99626053Y-53159033D01*
X99549005Y-53299184D01*
X99529776Y-53334162D01*
X99467484Y-53530532D01*
X99466798Y-53536649D01*
X99466797Y-53536653D01*
X99445207Y-53729137D01*
X99444520Y-53735262D01*
X98750000Y-53735262D01*
X98750000Y-51195262D01*
X99444520Y-51195262D01*
X99445375Y-51205448D01*
X99456242Y-51334848D01*
X99461759Y-51400553D01*
X99463458Y-51406478D01*
X99501534Y-51539264D01*
X99518544Y-51598586D01*
X99521359Y-51604063D01*
X99521360Y-51604066D01*
X99589153Y-51735977D01*
X99612712Y-51781818D01*
X99740677Y-51943270D01*
X99897564Y-52076791D01*
X100077398Y-52177297D01*
X100161723Y-52204696D01*
X100267471Y-52239056D01*
X100267475Y-52239057D01*
X100273329Y-52240959D01*
X100477894Y-52265351D01*
X100484029Y-52264879D01*
X100484031Y-52264879D01*
X100540039Y-52260569D01*
X100683300Y-52249546D01*
X100689230Y-52247890D01*
X100689232Y-52247890D01*
X100875797Y-52195800D01*
X100875796Y-52195800D01*
X100881725Y-52194145D01*
X100887214Y-52191372D01*
X100887220Y-52191370D01*
X101060116Y-52104033D01*
X101065610Y-52101258D01*
X101227951Y-51974424D01*
X101362564Y-51818472D01*
X101367625Y-51809564D01*
X101461275Y-51644709D01*
X101461276Y-51644707D01*
X101464323Y-51639344D01*
X101470184Y-51621726D01*
X101510666Y-51563403D01*
X101576254Y-51536224D01*
X101589741Y-51535500D01*
X103170290Y-51535500D01*
X103181272Y-51535980D01*
X103207820Y-51538303D01*
X103207822Y-51538303D01*
X103218807Y-51539264D01*
X103255215Y-51529508D01*
X103265942Y-51527130D01*
X103269301Y-51526538D01*
X103303045Y-51520588D01*
X103312590Y-51515077D01*
X103315866Y-51513885D01*
X103319034Y-51512408D01*
X103329684Y-51509554D01*
X103360544Y-51487945D01*
X103369815Y-51482039D01*
X103392906Y-51468707D01*
X103402455Y-51463194D01*
X103426685Y-51434318D01*
X103434111Y-51426215D01*
X103627617Y-51232709D01*
X103689929Y-51198683D01*
X103733157Y-51196882D01*
X103800000Y-51205682D01*
X103808188Y-51204604D01*
X103832480Y-51201406D01*
X103901009Y-51192384D01*
X103948574Y-51186122D01*
X103956762Y-51185044D01*
X104102841Y-51124536D01*
X104228282Y-51028282D01*
X104324536Y-50902841D01*
X104385044Y-50756762D01*
X104391301Y-50709239D01*
X104404604Y-50608188D01*
X104405682Y-50600000D01*
X104385044Y-50443238D01*
X104324536Y-50297159D01*
X104228282Y-50171718D01*
X104102841Y-50075464D01*
X104095212Y-50072304D01*
X104088499Y-50068428D01*
X104039506Y-50017045D01*
X104025500Y-49959309D01*
X104025500Y-49726000D01*
X104045502Y-49657879D01*
X104099158Y-49611386D01*
X104151500Y-49600000D01*
X104331885Y-49600000D01*
X104347124Y-49595525D01*
X104348329Y-49594135D01*
X104350000Y-49586452D01*
X104350000Y-49581884D01*
X104650000Y-49581884D01*
X104654475Y-49597123D01*
X104655865Y-49598328D01*
X104663548Y-49599999D01*
X104976525Y-49599999D01*
X104986374Y-49599224D01*
X105065351Y-49586717D01*
X105083986Y-49580662D01*
X105179213Y-49532141D01*
X105195056Y-49520630D01*
X105260905Y-49454781D01*
X105323217Y-49420755D01*
X105394032Y-49425820D01*
X105439095Y-49454781D01*
X105504944Y-49520630D01*
X105520787Y-49532141D01*
X105616018Y-49580664D01*
X105634645Y-49586716D01*
X105713627Y-49599225D01*
X105723473Y-49600000D01*
X106031885Y-49600000D01*
X106047124Y-49595525D01*
X106048329Y-49594135D01*
X106050000Y-49586452D01*
X106050000Y-49581884D01*
X106350000Y-49581884D01*
X106354475Y-49597123D01*
X106355865Y-49598328D01*
X106363548Y-49599999D01*
X106676525Y-49599999D01*
X106686374Y-49599224D01*
X106765351Y-49586717D01*
X106783986Y-49580662D01*
X106879213Y-49532141D01*
X106895056Y-49520630D01*
X106970630Y-49445056D01*
X106982141Y-49429213D01*
X107030664Y-49333982D01*
X107036716Y-49315355D01*
X107049225Y-49236373D01*
X107050000Y-49226527D01*
X107050000Y-49018115D01*
X107045525Y-49002876D01*
X107044135Y-49001671D01*
X107036452Y-49000000D01*
X106368115Y-49000000D01*
X106352876Y-49004475D01*
X106351671Y-49005865D01*
X106350000Y-49013548D01*
X106350000Y-49581884D01*
X106050000Y-49581884D01*
X106050000Y-49018115D01*
X106045525Y-49002876D01*
X106044135Y-49001671D01*
X106036452Y-49000000D01*
X104668115Y-49000000D01*
X104652876Y-49004475D01*
X104651671Y-49005865D01*
X104650000Y-49013548D01*
X104650000Y-49581884D01*
X104350000Y-49581884D01*
X104350000Y-48826000D01*
X104370002Y-48757879D01*
X104423658Y-48711386D01*
X104476000Y-48700000D01*
X106031885Y-48700000D01*
X106047124Y-48695525D01*
X106048329Y-48694135D01*
X106050000Y-48686452D01*
X106050000Y-48681885D01*
X106350000Y-48681885D01*
X106354475Y-48697124D01*
X106355865Y-48698329D01*
X106363548Y-48700000D01*
X107031884Y-48700000D01*
X107047123Y-48695525D01*
X107048328Y-48694135D01*
X107049999Y-48686452D01*
X107049999Y-48473475D01*
X107049224Y-48463626D01*
X107036717Y-48384649D01*
X107030662Y-48366014D01*
X106982141Y-48270787D01*
X106970630Y-48254944D01*
X106895056Y-48179370D01*
X106879213Y-48167859D01*
X106783982Y-48119336D01*
X106765355Y-48113284D01*
X106686373Y-48100775D01*
X106676527Y-48100000D01*
X106368115Y-48100000D01*
X106352876Y-48104475D01*
X106351671Y-48105865D01*
X106350000Y-48113548D01*
X106350000Y-48681885D01*
X106050000Y-48681885D01*
X106050000Y-48118116D01*
X106045525Y-48102877D01*
X106044135Y-48101672D01*
X106036452Y-48100001D01*
X106014515Y-48100001D01*
X105946394Y-48079999D01*
X105899901Y-48026343D01*
X105889797Y-47956069D01*
X105919291Y-47891489D01*
X105925420Y-47884906D01*
X106072921Y-47737405D01*
X106135233Y-47703379D01*
X106162016Y-47700500D01*
X106669748Y-47700500D01*
X106675816Y-47699293D01*
X106716061Y-47691288D01*
X106716062Y-47691288D01*
X106728231Y-47688867D01*
X106794552Y-47644552D01*
X106838867Y-47578231D01*
X106842871Y-47558105D01*
X106849293Y-47525816D01*
X106850500Y-47519748D01*
X106850500Y-46780252D01*
X106843117Y-46743134D01*
X106841288Y-46733939D01*
X106841288Y-46733938D01*
X106838867Y-46721769D01*
X106794552Y-46655448D01*
X106728231Y-46611133D01*
X106716062Y-46608712D01*
X106716061Y-46608712D01*
X106675816Y-46600707D01*
X106669748Y-46599500D01*
X106062016Y-46599500D01*
X105993895Y-46579498D01*
X105972921Y-46562595D01*
X105566842Y-46156516D01*
X105532816Y-46094204D01*
X105537881Y-46023389D01*
X105580428Y-45966553D01*
X105646948Y-45941742D01*
X105655937Y-45941421D01*
X107199001Y-45941421D01*
X107267122Y-45961423D01*
X107313615Y-46015079D01*
X107325001Y-46067421D01*
X107325001Y-46117946D01*
X107325776Y-46127795D01*
X107338283Y-46206772D01*
X107344338Y-46225407D01*
X107392859Y-46320634D01*
X107404370Y-46336477D01*
X107479944Y-46412051D01*
X107495787Y-46423562D01*
X107591018Y-46472085D01*
X107609645Y-46478137D01*
X107688627Y-46490646D01*
X107698473Y-46491421D01*
X107931885Y-46491421D01*
X107947124Y-46486946D01*
X107948329Y-46485556D01*
X107950000Y-46477873D01*
X107950000Y-45617421D01*
X107970002Y-45549300D01*
X108023658Y-45502807D01*
X108076000Y-45491421D01*
X108856884Y-45491421D01*
X108872123Y-45486946D01*
X108873328Y-45485556D01*
X108874999Y-45477873D01*
X108874999Y-45164896D01*
X108874224Y-45155047D01*
X108861717Y-45076070D01*
X108855662Y-45057435D01*
X108807141Y-44962208D01*
X108795630Y-44946365D01*
X108720056Y-44870791D01*
X108704213Y-44859280D01*
X108652451Y-44832906D01*
X108600836Y-44784158D01*
X108583770Y-44715243D01*
X108606671Y-44648041D01*
X108613331Y-44640130D01*
X108619552Y-44635973D01*
X108663867Y-44569652D01*
X108675500Y-44511169D01*
X108677238Y-44511515D01*
X108700677Y-44453481D01*
X108758635Y-44412476D01*
X108829561Y-44409315D01*
X108876185Y-44431710D01*
X108990603Y-44519506D01*
X108990606Y-44519508D01*
X108997159Y-44524536D01*
X109143238Y-44585044D01*
X109300000Y-44605682D01*
X109308188Y-44604604D01*
X109448574Y-44586122D01*
X109456762Y-44585044D01*
X109602841Y-44524536D01*
X109728282Y-44428282D01*
X109824536Y-44302841D01*
X109885044Y-44156762D01*
X109905682Y-44000000D01*
X109885044Y-43843238D01*
X109824536Y-43697159D01*
X109748873Y-43598553D01*
X109733305Y-43578264D01*
X109728282Y-43571718D01*
X109602841Y-43475464D01*
X109456762Y-43414956D01*
X109448574Y-43413878D01*
X109343898Y-43400097D01*
X109278971Y-43371374D01*
X109239880Y-43312109D01*
X109239035Y-43241118D01*
X109276705Y-43180939D01*
X109287178Y-43172596D01*
X109315205Y-43152605D01*
X109323606Y-43141904D01*
X109316619Y-43128751D01*
X108462812Y-42274944D01*
X108448868Y-42267330D01*
X108447035Y-42267461D01*
X108440420Y-42271712D01*
X107584465Y-43127667D01*
X107577206Y-43140960D01*
X107584350Y-43151020D01*
X107640268Y-43197444D01*
X107642462Y-43198981D01*
X107643139Y-43199828D01*
X107644241Y-43200743D01*
X107644052Y-43200971D01*
X107686786Y-43254441D01*
X107694089Y-43325061D01*
X107662054Y-43388419D01*
X107640185Y-43406953D01*
X107590763Y-43439976D01*
X107590761Y-43439978D01*
X107580448Y-43446869D01*
X107536133Y-43513190D01*
X107524500Y-43571673D01*
X107524500Y-43590335D01*
X107504498Y-43658456D01*
X107450842Y-43704949D01*
X107429358Y-43710612D01*
X107429772Y-43712158D01*
X107393383Y-43721909D01*
X107382648Y-43724289D01*
X107375087Y-43725622D01*
X107345534Y-43730833D01*
X107335986Y-43736345D01*
X107332709Y-43737538D01*
X107329541Y-43739015D01*
X107318895Y-43741868D01*
X107309866Y-43748190D01*
X107288032Y-43763478D01*
X107278764Y-43769382D01*
X107246124Y-43788227D01*
X107239041Y-43796668D01*
X107239040Y-43796669D01*
X107221899Y-43817097D01*
X107214473Y-43825200D01*
X107135157Y-43904516D01*
X107072845Y-43938542D01*
X107046062Y-43941421D01*
X103700000Y-43941421D01*
X103700000Y-44428905D01*
X103679998Y-44497026D01*
X103663095Y-44518000D01*
X103234274Y-44946821D01*
X103226170Y-44954248D01*
X103197295Y-44978477D01*
X103191782Y-44988026D01*
X103178450Y-45011117D01*
X103172544Y-45020388D01*
X103150935Y-45051248D01*
X103148081Y-45061898D01*
X103146604Y-45065066D01*
X103145412Y-45068342D01*
X103139901Y-45077887D01*
X103133968Y-45111536D01*
X103133359Y-45114990D01*
X103130981Y-45125717D01*
X103121225Y-45162125D01*
X103122186Y-45173110D01*
X103122186Y-45173112D01*
X103124509Y-45199660D01*
X103124989Y-45210642D01*
X103124989Y-46080779D01*
X103124509Y-46091761D01*
X103121225Y-46129296D01*
X103124079Y-46139945D01*
X103130980Y-46165699D01*
X103133359Y-46176431D01*
X103139901Y-46213534D01*
X103145412Y-46223079D01*
X103146604Y-46226355D01*
X103148081Y-46229523D01*
X103150935Y-46240173D01*
X103172544Y-46271033D01*
X103178450Y-46280304D01*
X103191782Y-46303395D01*
X103197295Y-46312944D01*
X103205740Y-46320030D01*
X103226171Y-46337174D01*
X103234274Y-46344600D01*
X103602109Y-46712435D01*
X103636135Y-46774747D01*
X103631070Y-46845562D01*
X103596516Y-46894494D01*
X103592511Y-46896806D01*
X103585427Y-46905248D01*
X103585425Y-46905250D01*
X103568281Y-46925682D01*
X103560855Y-46933785D01*
X103228101Y-47266539D01*
X103165789Y-47300565D01*
X103122561Y-47302366D01*
X103055718Y-47293566D01*
X102898956Y-47314204D01*
X102752877Y-47374712D01*
X102627436Y-47470966D01*
X102531182Y-47596407D01*
X102470674Y-47742486D01*
X102450036Y-47899248D01*
X102451114Y-47907436D01*
X102458836Y-47966090D01*
X102447897Y-48036238D01*
X102423009Y-48071631D01*
X102187045Y-48307595D01*
X102124733Y-48341621D01*
X102097950Y-48344500D01*
X101591269Y-48344500D01*
X101523148Y-48324498D01*
X101476008Y-48267991D01*
X101475935Y-48267749D01*
X101379218Y-48085849D01*
X101256960Y-47935946D01*
X101252906Y-47930975D01*
X101252903Y-47930972D01*
X101249011Y-47926200D01*
X101229661Y-47910192D01*
X101095025Y-47798811D01*
X101095021Y-47798809D01*
X101090275Y-47794882D01*
X100909055Y-47696897D01*
X100712254Y-47635977D01*
X100706129Y-47635333D01*
X100706128Y-47635333D01*
X100513498Y-47615087D01*
X100513496Y-47615087D01*
X100507369Y-47614443D01*
X100420529Y-47622346D01*
X100308342Y-47632555D01*
X100308339Y-47632556D01*
X100302203Y-47633114D01*
X100104572Y-47691280D01*
X100099107Y-47694137D01*
X100020584Y-47735188D01*
X99922002Y-47786726D01*
X99917201Y-47790586D01*
X99917198Y-47790588D01*
X99775051Y-47904877D01*
X99761447Y-47915815D01*
X99629024Y-48073630D01*
X99626056Y-48079028D01*
X99626053Y-48079033D01*
X99548496Y-48220110D01*
X99529776Y-48254162D01*
X99467484Y-48450532D01*
X99466798Y-48456649D01*
X99466797Y-48456653D01*
X99463697Y-48484292D01*
X99444520Y-48655262D01*
X99445036Y-48661406D01*
X99459596Y-48834790D01*
X99461759Y-48860553D01*
X99463458Y-48866478D01*
X99505630Y-49013548D01*
X99518544Y-49058586D01*
X99521359Y-49064063D01*
X99521360Y-49064066D01*
X99605755Y-49228282D01*
X99612712Y-49241818D01*
X99740677Y-49403270D01*
X99745370Y-49407264D01*
X99745371Y-49407265D01*
X99782129Y-49438548D01*
X99897564Y-49536791D01*
X100077398Y-49637297D01*
X100140743Y-49657879D01*
X100267471Y-49699056D01*
X100267475Y-49699057D01*
X100273329Y-49700959D01*
X100477894Y-49725351D01*
X100484029Y-49724879D01*
X100484031Y-49724879D01*
X100540039Y-49720569D01*
X100683300Y-49709546D01*
X100689230Y-49707890D01*
X100689232Y-49707890D01*
X100875797Y-49655800D01*
X100875796Y-49655800D01*
X100881725Y-49654145D01*
X100887214Y-49651372D01*
X100887220Y-49651370D01*
X101060116Y-49564033D01*
X101065610Y-49561258D01*
X101227951Y-49434424D01*
X101233603Y-49427877D01*
X101358540Y-49283134D01*
X101358540Y-49283133D01*
X101362564Y-49278472D01*
X101383387Y-49241818D01*
X101433295Y-49153963D01*
X101464323Y-49099344D01*
X101470184Y-49081726D01*
X101510666Y-49023403D01*
X101576254Y-48996224D01*
X101589741Y-48995500D01*
X102265256Y-48995500D01*
X102276238Y-48995980D01*
X102302786Y-48998303D01*
X102302788Y-48998303D01*
X102313773Y-48999264D01*
X102350181Y-48989508D01*
X102360908Y-48987130D01*
X102364267Y-48986538D01*
X102398011Y-48980588D01*
X102407556Y-48975077D01*
X102410832Y-48973885D01*
X102414000Y-48972408D01*
X102424650Y-48969554D01*
X102455510Y-48947945D01*
X102464781Y-48942039D01*
X102487872Y-48928707D01*
X102497421Y-48923194D01*
X102521651Y-48894317D01*
X102529077Y-48886215D01*
X102883335Y-48531957D01*
X102945647Y-48497931D01*
X102988875Y-48496130D01*
X103055718Y-48504930D01*
X103063906Y-48503852D01*
X103204292Y-48485370D01*
X103212480Y-48484292D01*
X103220107Y-48481133D01*
X103220110Y-48481132D01*
X103225773Y-48478786D01*
X103296363Y-48471198D01*
X103359850Y-48502979D01*
X103396076Y-48564038D01*
X103399989Y-48595196D01*
X103399989Y-48741275D01*
X103393044Y-48780664D01*
X103389412Y-48786955D01*
X103383558Y-48820159D01*
X103382870Y-48824058D01*
X103380492Y-48834785D01*
X103370736Y-48871193D01*
X103371697Y-48882178D01*
X103371697Y-48882180D01*
X103374020Y-48908728D01*
X103374500Y-48919710D01*
X103374500Y-50125321D01*
X103354498Y-50193442D01*
X103348462Y-50202025D01*
X103280494Y-50290603D01*
X103280492Y-50290606D01*
X103275464Y-50297159D01*
X103214956Y-50443238D01*
X103194318Y-50600000D01*
X103203029Y-50666163D01*
X103203118Y-50666842D01*
X103192179Y-50736990D01*
X103167291Y-50772383D01*
X103092079Y-50847595D01*
X103029767Y-50881621D01*
X103002984Y-50884500D01*
X101591269Y-50884500D01*
X101523148Y-50864498D01*
X101476008Y-50807991D01*
X101475935Y-50807749D01*
X101379218Y-50625849D01*
X101272522Y-50495027D01*
X101252906Y-50470975D01*
X101252903Y-50470972D01*
X101249011Y-50466200D01*
X101236458Y-50455815D01*
X101095025Y-50338811D01*
X101095021Y-50338809D01*
X101090275Y-50334882D01*
X100909055Y-50236897D01*
X100712254Y-50175977D01*
X100706129Y-50175333D01*
X100706128Y-50175333D01*
X100513498Y-50155087D01*
X100513496Y-50155087D01*
X100507369Y-50154443D01*
X100420529Y-50162346D01*
X100308342Y-50172555D01*
X100308339Y-50172556D01*
X100302203Y-50173114D01*
X100104572Y-50231280D01*
X99922002Y-50326726D01*
X99917201Y-50330586D01*
X99917198Y-50330588D01*
X99767658Y-50450821D01*
X99761447Y-50455815D01*
X99629024Y-50613630D01*
X99626056Y-50619028D01*
X99626053Y-50619033D01*
X99563437Y-50732933D01*
X99529776Y-50794162D01*
X99467484Y-50990532D01*
X99466798Y-50996649D01*
X99466797Y-50996653D01*
X99447575Y-51168026D01*
X99444520Y-51195262D01*
X98750000Y-51195262D01*
X98750000Y-46115262D01*
X99444520Y-46115262D01*
X99445758Y-46130000D01*
X99461139Y-46313165D01*
X99461759Y-46320553D01*
X99463458Y-46326478D01*
X99510755Y-46491421D01*
X99518544Y-46518586D01*
X99521359Y-46524063D01*
X99521360Y-46524066D01*
X99606190Y-46689127D01*
X99612712Y-46701818D01*
X99740677Y-46863270D01*
X99745370Y-46867264D01*
X99745371Y-46867265D01*
X99885208Y-46986275D01*
X99897564Y-46996791D01*
X99902942Y-46999797D01*
X99902944Y-46999798D01*
X99959779Y-47031562D01*
X100077398Y-47097297D01*
X100172238Y-47128113D01*
X100267471Y-47159056D01*
X100267475Y-47159057D01*
X100273329Y-47160959D01*
X100477894Y-47185351D01*
X100484029Y-47184879D01*
X100484031Y-47184879D01*
X100540039Y-47180569D01*
X100683300Y-47169546D01*
X100689230Y-47167890D01*
X100689232Y-47167890D01*
X100875797Y-47115800D01*
X100875796Y-47115800D01*
X100881725Y-47114145D01*
X100887214Y-47111372D01*
X100887220Y-47111370D01*
X101044473Y-47031935D01*
X101065610Y-47021258D01*
X101090142Y-47002092D01*
X101223101Y-46898213D01*
X101227951Y-46894424D01*
X101243923Y-46875921D01*
X101358540Y-46743134D01*
X101358540Y-46743133D01*
X101362564Y-46738472D01*
X101383387Y-46701818D01*
X101430987Y-46618026D01*
X101464323Y-46559344D01*
X101529351Y-46363863D01*
X101555171Y-46159474D01*
X101555583Y-46130000D01*
X101535480Y-45924970D01*
X101475935Y-45727749D01*
X101379218Y-45545849D01*
X101305859Y-45455902D01*
X101252906Y-45390975D01*
X101252903Y-45390972D01*
X101249011Y-45386200D01*
X101242173Y-45380543D01*
X101095025Y-45258811D01*
X101095021Y-45258809D01*
X101090275Y-45254882D01*
X100909055Y-45156897D01*
X100712254Y-45095977D01*
X100706129Y-45095333D01*
X100706128Y-45095333D01*
X100513498Y-45075087D01*
X100513496Y-45075087D01*
X100507369Y-45074443D01*
X100420529Y-45082346D01*
X100308342Y-45092555D01*
X100308339Y-45092556D01*
X100302203Y-45093114D01*
X100104572Y-45151280D01*
X100099107Y-45154137D01*
X100046032Y-45181884D01*
X99922002Y-45246726D01*
X99917201Y-45250586D01*
X99917198Y-45250588D01*
X99770358Y-45368650D01*
X99761447Y-45375815D01*
X99629024Y-45533630D01*
X99626056Y-45539028D01*
X99626053Y-45539033D01*
X99549381Y-45678500D01*
X99529776Y-45714162D01*
X99467484Y-45910532D01*
X99466798Y-45916649D01*
X99466797Y-45916653D01*
X99449886Y-46067421D01*
X99444520Y-46115262D01*
X98750000Y-46115262D01*
X98750000Y-41926525D01*
X99250001Y-41926525D01*
X99250776Y-41936374D01*
X99263283Y-42015351D01*
X99269338Y-42033986D01*
X99317859Y-42129213D01*
X99329370Y-42145056D01*
X99404944Y-42220630D01*
X99420787Y-42232141D01*
X99516018Y-42280664D01*
X99534645Y-42286716D01*
X99613627Y-42299225D01*
X99623473Y-42300000D01*
X100308732Y-42300000D01*
X100376853Y-42320002D01*
X100423346Y-42373658D01*
X100433450Y-42443932D01*
X100403956Y-42508512D01*
X100344230Y-42546896D01*
X100320161Y-42551480D01*
X100302203Y-42553114D01*
X100104572Y-42611280D01*
X100099107Y-42614137D01*
X100093828Y-42616897D01*
X99922002Y-42706726D01*
X99917201Y-42710586D01*
X99917198Y-42710588D01*
X99906971Y-42718811D01*
X99761447Y-42835815D01*
X99629024Y-42993630D01*
X99626056Y-42999028D01*
X99626053Y-42999033D01*
X99548029Y-43140960D01*
X99529776Y-43174162D01*
X99467484Y-43370532D01*
X99466798Y-43376649D01*
X99466797Y-43376653D01*
X99451482Y-43513190D01*
X99444520Y-43575262D01*
X99445036Y-43581406D01*
X99458055Y-43736439D01*
X99461759Y-43780553D01*
X99466380Y-43796669D01*
X99512892Y-43958874D01*
X99518544Y-43978586D01*
X99521359Y-43984063D01*
X99521360Y-43984066D01*
X99609897Y-44156341D01*
X99612712Y-44161818D01*
X99740677Y-44323270D01*
X99897564Y-44456791D01*
X100077398Y-44557297D01*
X100147172Y-44579968D01*
X100267471Y-44619056D01*
X100267475Y-44619057D01*
X100273329Y-44620959D01*
X100477894Y-44645351D01*
X100484029Y-44644879D01*
X100484031Y-44644879D01*
X100540039Y-44640569D01*
X100683300Y-44629546D01*
X100689230Y-44627890D01*
X100689232Y-44627890D01*
X100875797Y-44575800D01*
X100875796Y-44575800D01*
X100881725Y-44574145D01*
X100887214Y-44571372D01*
X100887220Y-44571370D01*
X101060116Y-44484033D01*
X101065610Y-44481258D01*
X101103794Y-44451426D01*
X101223101Y-44358213D01*
X101227951Y-44354424D01*
X101251555Y-44327079D01*
X101358540Y-44203134D01*
X101358540Y-44203133D01*
X101362564Y-44198472D01*
X101377763Y-44171718D01*
X101401056Y-44130714D01*
X101464323Y-44019344D01*
X101529351Y-43823863D01*
X101555171Y-43619474D01*
X101555390Y-43603806D01*
X101555534Y-43593522D01*
X101555534Y-43593518D01*
X101555583Y-43590000D01*
X101535480Y-43384970D01*
X101475935Y-43187749D01*
X101379218Y-43005849D01*
X101272730Y-42875282D01*
X101252906Y-42850975D01*
X101252903Y-42850972D01*
X101249011Y-42846200D01*
X101166237Y-42777723D01*
X101095025Y-42718811D01*
X101095021Y-42718809D01*
X101090275Y-42714882D01*
X100909055Y-42616897D01*
X100712254Y-42555977D01*
X100706131Y-42555334D01*
X100706129Y-42555333D01*
X100667843Y-42551309D01*
X100602186Y-42524295D01*
X100561557Y-42466073D01*
X100558854Y-42395128D01*
X100594937Y-42333984D01*
X100658348Y-42302054D01*
X100681014Y-42299999D01*
X101376525Y-42299999D01*
X101386374Y-42299224D01*
X101465351Y-42286717D01*
X101483986Y-42280662D01*
X101579213Y-42232141D01*
X101595056Y-42220630D01*
X101670630Y-42145056D01*
X101682141Y-42129213D01*
X101730664Y-42033982D01*
X101736716Y-42015355D01*
X101749225Y-41936373D01*
X101750000Y-41926527D01*
X101750000Y-41218115D01*
X101745525Y-41202876D01*
X101744135Y-41201671D01*
X101736452Y-41200000D01*
X99268116Y-41200000D01*
X99252877Y-41204475D01*
X99251672Y-41205865D01*
X99250001Y-41213548D01*
X99250001Y-41926525D01*
X98750000Y-41926525D01*
X98750000Y-41169748D01*
X102699500Y-41169748D01*
X102700707Y-41175816D01*
X102706408Y-41204475D01*
X102711133Y-41228231D01*
X102755448Y-41294552D01*
X102821769Y-41338867D01*
X102833938Y-41341288D01*
X102833939Y-41341288D01*
X102862621Y-41346993D01*
X102880252Y-41350500D01*
X103123500Y-41350500D01*
X103191621Y-41370502D01*
X103238114Y-41424158D01*
X103249500Y-41476500D01*
X103249500Y-41657901D01*
X103229498Y-41726022D01*
X103223463Y-41734605D01*
X103219558Y-41739694D01*
X103175464Y-41797159D01*
X103114956Y-41943238D01*
X103094318Y-42100000D01*
X103114956Y-42256762D01*
X103118116Y-42264391D01*
X103122487Y-42274944D01*
X103175464Y-42402841D01*
X103271718Y-42528282D01*
X103397159Y-42624536D01*
X103543238Y-42685044D01*
X103551426Y-42686122D01*
X103621619Y-42695363D01*
X103700000Y-42705682D01*
X103708188Y-42704604D01*
X103848574Y-42686122D01*
X103856762Y-42685044D01*
X104002841Y-42624536D01*
X104128282Y-42528282D01*
X104224536Y-42402841D01*
X104277513Y-42274944D01*
X104281884Y-42264391D01*
X104285044Y-42256762D01*
X104305682Y-42100000D01*
X104285044Y-41943238D01*
X104224536Y-41797159D01*
X104128282Y-41671718D01*
X104099796Y-41649860D01*
X104057929Y-41592522D01*
X104050500Y-41549897D01*
X104050500Y-41476500D01*
X104070502Y-41408379D01*
X104124158Y-41361886D01*
X104176500Y-41350500D01*
X104419748Y-41350500D01*
X104437379Y-41346993D01*
X104466061Y-41341288D01*
X104466062Y-41341288D01*
X104478231Y-41338867D01*
X104544552Y-41294552D01*
X104588867Y-41228231D01*
X104593593Y-41204475D01*
X104599152Y-41176525D01*
X105000001Y-41176525D01*
X105000776Y-41186374D01*
X105013283Y-41265351D01*
X105019338Y-41283986D01*
X105067859Y-41379213D01*
X105079370Y-41395056D01*
X105154944Y-41470630D01*
X105170787Y-41482141D01*
X105266018Y-41530664D01*
X105284645Y-41536716D01*
X105363627Y-41549225D01*
X105373473Y-41550000D01*
X105981885Y-41550000D01*
X105997124Y-41545525D01*
X105998329Y-41544135D01*
X106000000Y-41536452D01*
X106000000Y-41531884D01*
X106300000Y-41531884D01*
X106304475Y-41547123D01*
X106305865Y-41548328D01*
X106313548Y-41549999D01*
X106926525Y-41549999D01*
X106936378Y-41549224D01*
X106951658Y-41546804D01*
X107022068Y-41555905D01*
X107076381Y-41601628D01*
X107097352Y-41669457D01*
X107092782Y-41704925D01*
X107071467Y-41781783D01*
X107069536Y-41791904D01*
X107046169Y-42010546D01*
X107045918Y-42020834D01*
X107058575Y-42240341D01*
X107060011Y-42250562D01*
X107108349Y-42465050D01*
X107111428Y-42474878D01*
X107194153Y-42678605D01*
X107198796Y-42687796D01*
X107313688Y-42875282D01*
X107319764Y-42883584D01*
X107347135Y-42915182D01*
X107360219Y-42923593D01*
X107370192Y-42917676D01*
X108225056Y-42062812D01*
X108231434Y-42051132D01*
X108667330Y-42051132D01*
X108667461Y-42052965D01*
X108671712Y-42059580D01*
X109529073Y-42916941D01*
X109541083Y-42923500D01*
X109552823Y-42914532D01*
X109651129Y-42777723D01*
X109656440Y-42768885D01*
X109753854Y-42571782D01*
X109757653Y-42562187D01*
X109821568Y-42351821D01*
X109823747Y-42341740D01*
X109852684Y-42121945D01*
X109853203Y-42115272D01*
X109854716Y-42053365D01*
X109854522Y-42046646D01*
X109836359Y-41825721D01*
X109834674Y-41815541D01*
X109781111Y-41602300D01*
X109777786Y-41592534D01*
X109690118Y-41390911D01*
X109685240Y-41381814D01*
X109565818Y-41197214D01*
X109559526Y-41189044D01*
X109554358Y-41183364D01*
X109554118Y-41183218D01*
X112299500Y-41183218D01*
X112300170Y-41187768D01*
X112300170Y-41187771D01*
X112308216Y-41242426D01*
X112309642Y-41252112D01*
X112361068Y-41356855D01*
X112399336Y-41395056D01*
X112428489Y-41424158D01*
X112443650Y-41439293D01*
X112548482Y-41490536D01*
X112578973Y-41494984D01*
X112612256Y-41499840D01*
X112612260Y-41499840D01*
X112616782Y-41500500D01*
X112983218Y-41500500D01*
X112987768Y-41499830D01*
X112987771Y-41499830D01*
X113042426Y-41491784D01*
X113042427Y-41491784D01*
X113052112Y-41490358D01*
X113146804Y-41443867D01*
X113147507Y-41443522D01*
X113147509Y-41443521D01*
X113156855Y-41438932D01*
X113198273Y-41397442D01*
X113231935Y-41363721D01*
X113231935Y-41363720D01*
X113239293Y-41356350D01*
X113246656Y-41341288D01*
X113266132Y-41301443D01*
X113290536Y-41251518D01*
X113293843Y-41228850D01*
X113323469Y-41164330D01*
X113383275Y-41126070D01*
X113454271Y-41126217D01*
X113507618Y-41157944D01*
X113635692Y-41286018D01*
X113669718Y-41348330D01*
X113664653Y-41419145D01*
X113622106Y-41475981D01*
X113564948Y-41499770D01*
X113507574Y-41508216D01*
X113507573Y-41508216D01*
X113497888Y-41509642D01*
X113455071Y-41530664D01*
X113402493Y-41556478D01*
X113402491Y-41556479D01*
X113393145Y-41561068D01*
X113310707Y-41643650D01*
X113259464Y-41748482D01*
X113258052Y-41758162D01*
X113251250Y-41804789D01*
X113249500Y-41816782D01*
X113249500Y-43058218D01*
X113250170Y-43062768D01*
X113250170Y-43062771D01*
X113258216Y-43117426D01*
X113259642Y-43127112D01*
X113280093Y-43168765D01*
X113295344Y-43199828D01*
X113311068Y-43231855D01*
X113340962Y-43261697D01*
X113387518Y-43308172D01*
X113421597Y-43370455D01*
X113424500Y-43397345D01*
X113424500Y-43423500D01*
X113404498Y-43491621D01*
X113350842Y-43538114D01*
X113298500Y-43549500D01*
X113280252Y-43549500D01*
X113274184Y-43550707D01*
X113233939Y-43558712D01*
X113233938Y-43558712D01*
X113221769Y-43561133D01*
X113155448Y-43605448D01*
X113111133Y-43671769D01*
X113108712Y-43683938D01*
X113108712Y-43683939D01*
X113104565Y-43704789D01*
X113099500Y-43730252D01*
X113099500Y-44669748D01*
X113100707Y-44675816D01*
X113108550Y-44715243D01*
X113111133Y-44728231D01*
X113155448Y-44794552D01*
X113221769Y-44838867D01*
X113233938Y-44841288D01*
X113233939Y-44841288D01*
X113270589Y-44848578D01*
X113280252Y-44850500D01*
X114019748Y-44850500D01*
X114029411Y-44848578D01*
X114066061Y-44841288D01*
X114066062Y-44841288D01*
X114078231Y-44838867D01*
X114088547Y-44831974D01*
X114100017Y-44827223D01*
X114100995Y-44829585D01*
X114152053Y-44813599D01*
X114220520Y-44832383D01*
X114267990Y-44888167D01*
X114268175Y-44888060D01*
X114268757Y-44889068D01*
X114270709Y-44891362D01*
X114275464Y-44902841D01*
X114371718Y-45028282D01*
X114497159Y-45124536D01*
X114643238Y-45185044D01*
X114800000Y-45205682D01*
X114808188Y-45204604D01*
X114948574Y-45186122D01*
X114956762Y-45185044D01*
X115102841Y-45124536D01*
X115228282Y-45028282D01*
X115324536Y-44902841D01*
X115385044Y-44756762D01*
X115405682Y-44600000D01*
X115385044Y-44443238D01*
X115379108Y-44428905D01*
X115346384Y-44349904D01*
X115338795Y-44279314D01*
X115353735Y-44249467D01*
X115324028Y-44250844D01*
X115262588Y-44215268D01*
X115253926Y-44205138D01*
X115233305Y-44178264D01*
X115228282Y-44171718D01*
X115102841Y-44075464D01*
X114956762Y-44014956D01*
X114800000Y-43994318D01*
X114791812Y-43995396D01*
X114735548Y-44002803D01*
X114665399Y-43991863D01*
X114622582Y-43958874D01*
X114619543Y-43955253D01*
X114619542Y-43955252D01*
X114612455Y-43946806D01*
X114598141Y-43938542D01*
X114579815Y-43927961D01*
X114570544Y-43922055D01*
X114548715Y-43906770D01*
X114539684Y-43900446D01*
X114529034Y-43897592D01*
X114525866Y-43896115D01*
X114522590Y-43894923D01*
X114513045Y-43889412D01*
X114479301Y-43883462D01*
X114475942Y-43882870D01*
X114465215Y-43880492D01*
X114428807Y-43870736D01*
X114417822Y-43871697D01*
X114417820Y-43871697D01*
X114391272Y-43874020D01*
X114380290Y-43874500D01*
X114326500Y-43874500D01*
X114258379Y-43854498D01*
X114211886Y-43800842D01*
X114200500Y-43748500D01*
X114200500Y-43730252D01*
X114195435Y-43704789D01*
X114191288Y-43683939D01*
X114191288Y-43683938D01*
X114188867Y-43671769D01*
X114144552Y-43605448D01*
X114134239Y-43598557D01*
X114134235Y-43598553D01*
X114131499Y-43596725D01*
X114126879Y-43591197D01*
X114125460Y-43589778D01*
X114125587Y-43589651D01*
X114085971Y-43542249D01*
X114075500Y-43491960D01*
X114075500Y-43397468D01*
X114095502Y-43329347D01*
X114112327Y-43308450D01*
X114113840Y-43306935D01*
X114189293Y-43231350D01*
X114240536Y-43126518D01*
X114250500Y-43058218D01*
X114250500Y-42205016D01*
X114270502Y-42136895D01*
X114324158Y-42090402D01*
X114394432Y-42080298D01*
X114459012Y-42109792D01*
X114465595Y-42115921D01*
X115398257Y-43048583D01*
X115432283Y-43110895D01*
X115429264Y-43175776D01*
X115385439Y-43313932D01*
X115367484Y-43370532D01*
X115366798Y-43376649D01*
X115366797Y-43376653D01*
X115351482Y-43513190D01*
X115344520Y-43575262D01*
X115345036Y-43581406D01*
X115358055Y-43736439D01*
X115361759Y-43780553D01*
X115366380Y-43796669D01*
X115412892Y-43958874D01*
X115418544Y-43978586D01*
X115426629Y-43994318D01*
X115465956Y-44070840D01*
X115479303Y-44140570D01*
X115463168Y-44180726D01*
X115502584Y-44182134D01*
X115561538Y-44223421D01*
X115582182Y-44249467D01*
X115636849Y-44318441D01*
X115636852Y-44318444D01*
X115640677Y-44323270D01*
X115797564Y-44456791D01*
X115977398Y-44557297D01*
X116047172Y-44579968D01*
X116167471Y-44619056D01*
X116167475Y-44619057D01*
X116173329Y-44620959D01*
X116377894Y-44645351D01*
X116384029Y-44644879D01*
X116384031Y-44644879D01*
X116440039Y-44640569D01*
X116583300Y-44629546D01*
X116589230Y-44627890D01*
X116589232Y-44627890D01*
X116775797Y-44575800D01*
X116775796Y-44575800D01*
X116781725Y-44574145D01*
X116787214Y-44571372D01*
X116787220Y-44571370D01*
X116960116Y-44484033D01*
X116965610Y-44481258D01*
X117003794Y-44451426D01*
X117123101Y-44358213D01*
X117127951Y-44354424D01*
X117151555Y-44327079D01*
X117258540Y-44203134D01*
X117258540Y-44203133D01*
X117262564Y-44198472D01*
X117277763Y-44171718D01*
X117301056Y-44130714D01*
X117364323Y-44019344D01*
X117429351Y-43823863D01*
X117455171Y-43619474D01*
X117455390Y-43603806D01*
X117455534Y-43593522D01*
X117455534Y-43593518D01*
X117455583Y-43590000D01*
X117435480Y-43384970D01*
X117375935Y-43187749D01*
X117279218Y-43005849D01*
X117172730Y-42875282D01*
X117152906Y-42850975D01*
X117152903Y-42850972D01*
X117149011Y-42846200D01*
X117066237Y-42777723D01*
X116995025Y-42718811D01*
X116995021Y-42718809D01*
X116990275Y-42714882D01*
X116809055Y-42616897D01*
X116612254Y-42555977D01*
X116606131Y-42555334D01*
X116606129Y-42555333D01*
X116567843Y-42551309D01*
X116502186Y-42524295D01*
X116461557Y-42466073D01*
X116458854Y-42395128D01*
X116494937Y-42333984D01*
X116558348Y-42302054D01*
X116581014Y-42299999D01*
X117276525Y-42299999D01*
X117286374Y-42299224D01*
X117365351Y-42286717D01*
X117383986Y-42280662D01*
X117479213Y-42232141D01*
X117495056Y-42220630D01*
X117570630Y-42145056D01*
X117582141Y-42129213D01*
X117630664Y-42033982D01*
X117636716Y-42015355D01*
X117649225Y-41936373D01*
X117650000Y-41926527D01*
X117650000Y-41218115D01*
X117645525Y-41202876D01*
X117644135Y-41201671D01*
X117636452Y-41200000D01*
X115168116Y-41200000D01*
X115152877Y-41204475D01*
X115151672Y-41205865D01*
X115150001Y-41213548D01*
X115150001Y-41575485D01*
X115129999Y-41643606D01*
X115076343Y-41690099D01*
X115006069Y-41700203D01*
X114941489Y-41670709D01*
X114934906Y-41664580D01*
X114152211Y-40881885D01*
X115150000Y-40881885D01*
X115154475Y-40897124D01*
X115155865Y-40898329D01*
X115163548Y-40900000D01*
X116231885Y-40900000D01*
X116247124Y-40895525D01*
X116248329Y-40894135D01*
X116250000Y-40886452D01*
X116250000Y-40881885D01*
X116550000Y-40881885D01*
X116554475Y-40897124D01*
X116555865Y-40898329D01*
X116563548Y-40900000D01*
X117631884Y-40900000D01*
X117647123Y-40895525D01*
X117648328Y-40894135D01*
X117649999Y-40886452D01*
X117649999Y-40173475D01*
X117649224Y-40163626D01*
X117636717Y-40084649D01*
X117630662Y-40066014D01*
X117582141Y-39970787D01*
X117570630Y-39954944D01*
X117495056Y-39879370D01*
X117479213Y-39867859D01*
X117383982Y-39819336D01*
X117365355Y-39813284D01*
X117286373Y-39800775D01*
X117276527Y-39800000D01*
X116568115Y-39800000D01*
X116552876Y-39804475D01*
X116551671Y-39805865D01*
X116550000Y-39813548D01*
X116550000Y-40881885D01*
X116250000Y-40881885D01*
X116250000Y-39818116D01*
X116245525Y-39802877D01*
X116244135Y-39801672D01*
X116236452Y-39800001D01*
X115523475Y-39800001D01*
X115513626Y-39800776D01*
X115434649Y-39813283D01*
X115416014Y-39819338D01*
X115320787Y-39867859D01*
X115304944Y-39879370D01*
X115229370Y-39954944D01*
X115217859Y-39970787D01*
X115169336Y-40066018D01*
X115163284Y-40084645D01*
X115150775Y-40163627D01*
X115150000Y-40173473D01*
X115150000Y-40881885D01*
X114152211Y-40881885D01*
X113616611Y-40346285D01*
X113609184Y-40338181D01*
X113592041Y-40317751D01*
X113592042Y-40317751D01*
X113584955Y-40309306D01*
X113575406Y-40303793D01*
X113552315Y-40290461D01*
X113543044Y-40284555D01*
X113521215Y-40269270D01*
X113512184Y-40262946D01*
X113501534Y-40260092D01*
X113498366Y-40258615D01*
X113495090Y-40257423D01*
X113485545Y-40251912D01*
X113451801Y-40245962D01*
X113448442Y-40245370D01*
X113437715Y-40242992D01*
X113401308Y-40233236D01*
X113401889Y-40231070D01*
X113349402Y-40210540D01*
X113307762Y-40153038D01*
X113300500Y-40110881D01*
X113300500Y-39941782D01*
X113291871Y-39883162D01*
X113291784Y-39882574D01*
X113291784Y-39882573D01*
X113290358Y-39872888D01*
X113256769Y-39804475D01*
X113243522Y-39777493D01*
X113243521Y-39777491D01*
X113238932Y-39768145D01*
X113156350Y-39685707D01*
X113051518Y-39634464D01*
X113021027Y-39630016D01*
X112987744Y-39625160D01*
X112987740Y-39625160D01*
X112983218Y-39624500D01*
X112616782Y-39624500D01*
X112612232Y-39625170D01*
X112612229Y-39625170D01*
X112557574Y-39633216D01*
X112557573Y-39633216D01*
X112547888Y-39634642D01*
X112497992Y-39659140D01*
X112452493Y-39681478D01*
X112452491Y-39681479D01*
X112443145Y-39686068D01*
X112360707Y-39768650D01*
X112356134Y-39778006D01*
X112356133Y-39778007D01*
X112345383Y-39800000D01*
X112309464Y-39873482D01*
X112299500Y-39941782D01*
X112299500Y-41183218D01*
X109554118Y-41183218D01*
X109540793Y-41175105D01*
X109540538Y-41175111D01*
X109531523Y-41180609D01*
X108674944Y-42037188D01*
X108667330Y-42051132D01*
X108231434Y-42051132D01*
X108232670Y-42048868D01*
X108232539Y-42047035D01*
X108228288Y-42040420D01*
X107369268Y-41181400D01*
X107365613Y-41179404D01*
X107315412Y-41129201D01*
X107300000Y-41068817D01*
X107300000Y-40959500D01*
X107577218Y-40959500D01*
X107583964Y-40971832D01*
X108437188Y-41825056D01*
X108451132Y-41832670D01*
X108452965Y-41832539D01*
X108459580Y-41828288D01*
X109315471Y-40972397D01*
X109322492Y-40959540D01*
X109314719Y-40948873D01*
X109231460Y-40883118D01*
X109222876Y-40877415D01*
X109030393Y-40771158D01*
X109020981Y-40766928D01*
X108813725Y-40693534D01*
X108803755Y-40690900D01*
X108587293Y-40652344D01*
X108577039Y-40651374D01*
X108357176Y-40648687D01*
X108346891Y-40649407D01*
X108129553Y-40682664D01*
X108119526Y-40685053D01*
X107910538Y-40753360D01*
X107901029Y-40757357D01*
X107706009Y-40858879D01*
X107697274Y-40864380D01*
X107585672Y-40948174D01*
X107577218Y-40959500D01*
X107300000Y-40959500D01*
X107300000Y-40693115D01*
X107295525Y-40677876D01*
X107294135Y-40676671D01*
X107286452Y-40675000D01*
X106318115Y-40675000D01*
X106302876Y-40679475D01*
X106301671Y-40680865D01*
X106300000Y-40688548D01*
X106300000Y-41531884D01*
X106000000Y-41531884D01*
X106000000Y-40693115D01*
X105995525Y-40677876D01*
X105994135Y-40676671D01*
X105986452Y-40675000D01*
X105018116Y-40675000D01*
X105002877Y-40679475D01*
X105001672Y-40680865D01*
X105000001Y-40688548D01*
X105000001Y-41176525D01*
X104599152Y-41176525D01*
X104599293Y-41175816D01*
X104600500Y-41169748D01*
X104600500Y-39880252D01*
X104588867Y-39821769D01*
X104544552Y-39755448D01*
X104478231Y-39711133D01*
X104466062Y-39708712D01*
X104466061Y-39708712D01*
X104425816Y-39700707D01*
X104419748Y-39699500D01*
X102880252Y-39699500D01*
X102874184Y-39700707D01*
X102833939Y-39708712D01*
X102833938Y-39708712D01*
X102821769Y-39711133D01*
X102755448Y-39755448D01*
X102711133Y-39821769D01*
X102699500Y-39880252D01*
X102699500Y-41169748D01*
X98750000Y-41169748D01*
X98750000Y-40881885D01*
X99250000Y-40881885D01*
X99254475Y-40897124D01*
X99255865Y-40898329D01*
X99263548Y-40900000D01*
X100331885Y-40900000D01*
X100347124Y-40895525D01*
X100348329Y-40894135D01*
X100350000Y-40886452D01*
X100350000Y-40881885D01*
X100650000Y-40881885D01*
X100654475Y-40897124D01*
X100655865Y-40898329D01*
X100663548Y-40900000D01*
X101731884Y-40900000D01*
X101747123Y-40895525D01*
X101748328Y-40894135D01*
X101749999Y-40886452D01*
X101749999Y-40173475D01*
X101749224Y-40163626D01*
X101736717Y-40084649D01*
X101730662Y-40066014D01*
X101682141Y-39970787D01*
X101670630Y-39954944D01*
X101595056Y-39879370D01*
X101579213Y-39867859D01*
X101483982Y-39819336D01*
X101465355Y-39813284D01*
X101386373Y-39800775D01*
X101376527Y-39800000D01*
X100668115Y-39800000D01*
X100652876Y-39804475D01*
X100651671Y-39805865D01*
X100650000Y-39813548D01*
X100650000Y-40881885D01*
X100350000Y-40881885D01*
X100350000Y-39818116D01*
X100345525Y-39802877D01*
X100344135Y-39801672D01*
X100336452Y-39800001D01*
X99623475Y-39800001D01*
X99613626Y-39800776D01*
X99534649Y-39813283D01*
X99516014Y-39819338D01*
X99420787Y-39867859D01*
X99404944Y-39879370D01*
X99329370Y-39954944D01*
X99317859Y-39970787D01*
X99269336Y-40066018D01*
X99263284Y-40084645D01*
X99250775Y-40163627D01*
X99250000Y-40173473D01*
X99250000Y-40881885D01*
X98750000Y-40881885D01*
X98750000Y-39442000D01*
X98770002Y-39373879D01*
X98823658Y-39327386D01*
X98876000Y-39316000D01*
X105140259Y-39316000D01*
X105208380Y-39336002D01*
G37*
%TD.AperFunction*%
%TA.AperFunction,Conductor*%
G36*
X110492121Y-52020002D02*
G01*
X110538614Y-52073658D01*
X110550000Y-52126000D01*
X110550000Y-53331884D01*
X110554475Y-53347123D01*
X110555865Y-53348328D01*
X110563548Y-53349999D01*
X110701525Y-53349999D01*
X110711374Y-53349224D01*
X110790351Y-53336717D01*
X110808986Y-53330662D01*
X110904213Y-53282141D01*
X110920056Y-53270630D01*
X111002641Y-53188045D01*
X111005380Y-53190784D01*
X111046489Y-53159085D01*
X111092201Y-53150500D01*
X111494748Y-53150500D01*
X111502977Y-53148863D01*
X111504131Y-53148967D01*
X111506979Y-53148686D01*
X111507032Y-53149226D01*
X111573689Y-53155190D01*
X111629757Y-53198744D01*
X111653377Y-53265696D01*
X111651137Y-53297020D01*
X111649500Y-53305252D01*
X111649500Y-53894748D01*
X111661133Y-53953231D01*
X111663726Y-53957112D01*
X111670743Y-54022370D01*
X111665496Y-54040239D01*
X111661133Y-54046769D01*
X111649500Y-54105252D01*
X111649500Y-54694748D01*
X111661133Y-54753231D01*
X111663726Y-54757112D01*
X111670743Y-54822370D01*
X111665496Y-54840239D01*
X111661133Y-54846769D01*
X111649500Y-54905252D01*
X111649500Y-55494748D01*
X111661133Y-55553231D01*
X111663726Y-55557112D01*
X111670743Y-55622370D01*
X111665496Y-55640239D01*
X111661133Y-55646769D01*
X111649500Y-55705252D01*
X111649500Y-56294748D01*
X111661133Y-56353231D01*
X111663726Y-56357112D01*
X111670743Y-56422370D01*
X111665496Y-56440239D01*
X111661133Y-56446769D01*
X111649500Y-56505252D01*
X111649500Y-57094748D01*
X111661133Y-57153231D01*
X111663726Y-57157112D01*
X111670743Y-57222370D01*
X111665496Y-57240239D01*
X111661133Y-57246769D01*
X111649500Y-57305252D01*
X111649500Y-57894748D01*
X111661133Y-57953231D01*
X111663726Y-57957112D01*
X111670743Y-58022370D01*
X111665496Y-58040239D01*
X111661133Y-58046769D01*
X111649500Y-58105252D01*
X111649500Y-58694748D01*
X111661133Y-58753231D01*
X111663726Y-58757112D01*
X111670743Y-58822370D01*
X111665496Y-58840239D01*
X111661133Y-58846769D01*
X111649500Y-58905252D01*
X111649500Y-59494748D01*
X111651137Y-59502977D01*
X111651033Y-59504131D01*
X111651314Y-59506979D01*
X111650774Y-59507032D01*
X111644810Y-59573689D01*
X111601256Y-59629757D01*
X111534304Y-59653377D01*
X111502980Y-59651137D01*
X111494748Y-59649500D01*
X110905252Y-59649500D01*
X110846769Y-59661133D01*
X110842888Y-59663726D01*
X110777630Y-59670743D01*
X110759761Y-59665496D01*
X110753231Y-59661133D01*
X110694748Y-59649500D01*
X110105252Y-59649500D01*
X110046769Y-59661133D01*
X110042888Y-59663726D01*
X109977630Y-59670743D01*
X109959761Y-59665496D01*
X109953231Y-59661133D01*
X109894748Y-59649500D01*
X109305252Y-59649500D01*
X109246769Y-59661133D01*
X109242888Y-59663726D01*
X109177630Y-59670743D01*
X109159761Y-59665496D01*
X109153231Y-59661133D01*
X109094748Y-59649500D01*
X108505252Y-59649500D01*
X108446769Y-59661133D01*
X108442888Y-59663726D01*
X108377630Y-59670743D01*
X108359761Y-59665496D01*
X108353231Y-59661133D01*
X108294748Y-59649500D01*
X107705252Y-59649500D01*
X107646769Y-59661133D01*
X107642888Y-59663726D01*
X107577630Y-59670743D01*
X107559761Y-59665496D01*
X107553231Y-59661133D01*
X107494748Y-59649500D01*
X106905252Y-59649500D01*
X106846769Y-59661133D01*
X106842888Y-59663726D01*
X106777630Y-59670743D01*
X106759761Y-59665496D01*
X106753231Y-59661133D01*
X106694748Y-59649500D01*
X106515016Y-59649500D01*
X106446895Y-59629498D01*
X106400402Y-59575842D01*
X106390298Y-59505568D01*
X106419792Y-59440988D01*
X106425921Y-59434405D01*
X107927617Y-57932709D01*
X107989929Y-57898683D01*
X108033157Y-57896882D01*
X108100000Y-57905682D01*
X108108188Y-57904604D01*
X108132199Y-57901443D01*
X108256762Y-57885044D01*
X108402841Y-57824536D01*
X108498098Y-57751443D01*
X108521736Y-57733305D01*
X108528282Y-57728282D01*
X108624536Y-57602841D01*
X108685044Y-57456762D01*
X108691217Y-57409877D01*
X108704604Y-57308188D01*
X108705682Y-57300000D01*
X108685044Y-57143238D01*
X108624536Y-56997159D01*
X108528282Y-56871718D01*
X108402841Y-56775464D01*
X108256762Y-56714956D01*
X108100000Y-56694318D01*
X107943238Y-56714956D01*
X107797159Y-56775464D01*
X107671718Y-56871718D01*
X107575464Y-56997159D01*
X107572522Y-57004261D01*
X107521331Y-57053073D01*
X107451618Y-57066511D01*
X107385707Y-57040125D01*
X107363630Y-57017784D01*
X107333308Y-56978267D01*
X107333305Y-56978264D01*
X107328282Y-56971718D01*
X107202841Y-56875464D01*
X107056762Y-56814956D01*
X106900000Y-56794318D01*
X106743238Y-56814956D01*
X106597159Y-56875464D01*
X106471718Y-56971718D01*
X106466695Y-56978264D01*
X106466692Y-56978267D01*
X106449963Y-57000069D01*
X106392625Y-57041937D01*
X106321754Y-57046159D01*
X106259851Y-57011395D01*
X106250037Y-57000069D01*
X106233308Y-56978267D01*
X106233305Y-56978264D01*
X106228282Y-56971718D01*
X106174796Y-56930677D01*
X106132929Y-56873339D01*
X106125500Y-56830714D01*
X106125500Y-55819713D01*
X106125979Y-55808732D01*
X106128303Y-55782170D01*
X106128303Y-55782168D01*
X106129263Y-55771193D01*
X106119508Y-55734783D01*
X106117133Y-55724072D01*
X106116083Y-55718116D01*
X106110588Y-55686955D01*
X106105079Y-55677412D01*
X106103888Y-55674140D01*
X106102408Y-55670967D01*
X106099554Y-55660316D01*
X106077945Y-55629456D01*
X106072039Y-55620185D01*
X106058707Y-55597094D01*
X106053194Y-55587545D01*
X106024317Y-55563315D01*
X106016215Y-55555889D01*
X105444111Y-54983785D01*
X105436684Y-54975681D01*
X105419541Y-54955251D01*
X105419542Y-54955251D01*
X105412455Y-54946806D01*
X105402906Y-54941293D01*
X105379815Y-54927961D01*
X105370544Y-54922055D01*
X105348715Y-54906770D01*
X105339684Y-54900446D01*
X105329034Y-54897592D01*
X105325866Y-54896115D01*
X105322590Y-54894923D01*
X105313045Y-54889412D01*
X105279301Y-54883462D01*
X105275942Y-54882870D01*
X105265213Y-54880491D01*
X105249802Y-54876362D01*
X105235218Y-54872454D01*
X105174597Y-54835505D01*
X105143574Y-54771645D01*
X105144250Y-54726169D01*
X105150500Y-54694748D01*
X105150500Y-54105252D01*
X105138867Y-54046769D01*
X105136274Y-54042888D01*
X105129257Y-53977630D01*
X105134504Y-53959761D01*
X105138867Y-53953231D01*
X105150500Y-53894748D01*
X105150500Y-53305252D01*
X105148863Y-53297023D01*
X105148967Y-53295869D01*
X105148686Y-53293021D01*
X105149226Y-53292968D01*
X105155190Y-53226311D01*
X105198744Y-53170243D01*
X105265696Y-53146623D01*
X105297020Y-53148863D01*
X105305252Y-53150500D01*
X105894748Y-53150500D01*
X105953231Y-53138867D01*
X105957112Y-53136274D01*
X106022370Y-53129257D01*
X106040239Y-53134504D01*
X106046769Y-53138867D01*
X106105252Y-53150500D01*
X106694748Y-53150500D01*
X106753231Y-53138867D01*
X106757112Y-53136274D01*
X106822370Y-53129257D01*
X106840239Y-53134504D01*
X106846769Y-53138867D01*
X106905252Y-53150500D01*
X107494748Y-53150500D01*
X107553231Y-53138867D01*
X107557112Y-53136274D01*
X107622370Y-53129257D01*
X107640239Y-53134504D01*
X107646769Y-53138867D01*
X107705252Y-53150500D01*
X108294748Y-53150500D01*
X108353231Y-53138867D01*
X108357112Y-53136274D01*
X108422370Y-53129257D01*
X108440239Y-53134504D01*
X108446769Y-53138867D01*
X108505252Y-53150500D01*
X109094748Y-53150500D01*
X109153231Y-53138867D01*
X109157112Y-53136274D01*
X109222370Y-53129257D01*
X109240239Y-53134504D01*
X109246769Y-53138867D01*
X109305252Y-53150500D01*
X109707799Y-53150500D01*
X109775920Y-53170502D01*
X109795968Y-53189436D01*
X109797359Y-53188045D01*
X109879944Y-53270630D01*
X109895787Y-53282141D01*
X109991018Y-53330664D01*
X110009645Y-53336716D01*
X110088627Y-53349225D01*
X110098473Y-53350000D01*
X110231885Y-53350000D01*
X110247124Y-53345525D01*
X110248329Y-53344135D01*
X110250000Y-53336452D01*
X110250000Y-52126000D01*
X110270002Y-52057879D01*
X110323658Y-52011386D01*
X110376000Y-52000000D01*
X110424000Y-52000000D01*
X110492121Y-52020002D01*
G37*
%TD.AperFunction*%
M02*
