%TF.GenerationSoftware,KiCad,Pcbnew,(6.0.0)*%
%TF.CreationDate,2022-01-09T21:33:39+01:00*%
%TF.ProjectId,LoraTrigger,4c6f7261-5472-4696-9767-65722e6b6963,rev?*%
%TF.SameCoordinates,Original*%
%TF.FileFunction,Soldermask,Top*%
%TF.FilePolarity,Negative*%
%FSLAX46Y46*%
G04 Gerber Fmt 4.6, Leading zero omitted, Abs format (unit mm)*
G04 Created by KiCad (PCBNEW (6.0.0)) date 2022-01-09 21:33:39*
%MOMM*%
%LPD*%
G01*
G04 APERTURE LIST*
G04 Aperture macros list*
%AMRoundRect*
0 Rectangle with rounded corners*
0 $1 Rounding radius*
0 $2 $3 $4 $5 $6 $7 $8 $9 X,Y pos of 4 corners*
0 Add a 4 corners polygon primitive as box body*
4,1,4,$2,$3,$4,$5,$6,$7,$8,$9,$2,$3,0*
0 Add four circle primitives for the rounded corners*
1,1,$1+$1,$2,$3*
1,1,$1+$1,$4,$5*
1,1,$1+$1,$6,$7*
1,1,$1+$1,$8,$9*
0 Add four rect primitives between the rounded corners*
20,1,$1+$1,$2,$3,$4,$5,0*
20,1,$1+$1,$4,$5,$6,$7,0*
20,1,$1+$1,$6,$7,$8,$9,0*
20,1,$1+$1,$8,$9,$2,$3,0*%
G04 Aperture macros list end*
%ADD10R,1.200000X1.200000*%
%ADD11R,1.700000X1.700000*%
%ADD12RoundRect,0.375000X-0.375000X-0.625000X0.375000X-0.625000X0.375000X0.625000X-0.375000X0.625000X0*%
%ADD13RoundRect,0.250000X-0.750000X-0.250000X0.750000X-0.250000X0.750000X0.250000X-0.750000X0.250000X0*%
%ADD14C,2.000000*%
%ADD15R,0.750000X0.900000*%
%ADD16R,0.900000X0.750000*%
%ADD17R,0.900000X0.700000*%
%ADD18R,1.500000X1.250000*%
%ADD19R,0.700000X0.900000*%
%ADD20RoundRect,0.150000X0.150000X-0.587500X0.150000X0.587500X-0.150000X0.587500X-0.150000X-0.587500X0*%
%ADD21R,0.550000X1.600000*%
%ADD22R,1.600000X0.550000*%
%ADD23O,1.700000X1.700000*%
%ADD24R,0.700000X0.300000*%
G04 APERTURE END LIST*
D10*
X115400000Y-59350000D03*
X115400000Y-57150000D03*
D11*
X116205000Y-80518000D03*
D12*
X100110000Y-81552000D03*
X102650000Y-81552000D03*
X105190000Y-81552000D03*
D13*
X116426000Y-75200000D03*
X100426000Y-77200000D03*
X100426000Y-63200000D03*
X100426000Y-65200000D03*
X100426000Y-67200000D03*
X100426000Y-69200000D03*
X100426000Y-71200000D03*
X100426000Y-73200000D03*
X116426000Y-67200000D03*
X116426000Y-65200000D03*
X116426000Y-63200000D03*
X116426000Y-73200000D03*
X116426000Y-71200000D03*
X100426000Y-75200000D03*
X116426000Y-77200000D03*
X116426000Y-69200000D03*
D14*
X108450000Y-42050000D03*
X108450000Y-79550000D03*
D15*
X102100000Y-56400000D03*
X102100000Y-58000000D03*
X108100000Y-45641421D03*
X108100000Y-44041421D03*
D16*
X109900000Y-50200000D03*
X108300000Y-50200000D03*
D17*
X117100000Y-58950000D03*
X117100000Y-57250000D03*
X106200000Y-48850000D03*
X106200000Y-47150000D03*
X104500000Y-48850000D03*
X104500000Y-47150000D03*
D18*
X106150000Y-40525000D03*
X103650000Y-40525000D03*
D19*
X112050000Y-49800000D03*
X113750000Y-49800000D03*
D20*
X111850000Y-42437500D03*
X113750000Y-42437500D03*
X112800000Y-40562500D03*
D21*
X105600000Y-60650000D03*
X106400000Y-60650000D03*
X107200000Y-60650000D03*
X108000000Y-60650000D03*
X108800000Y-60650000D03*
X109600000Y-60650000D03*
X110400000Y-60650000D03*
X111200000Y-60650000D03*
D22*
X112650000Y-59200000D03*
X112650000Y-58400000D03*
X112650000Y-57600000D03*
X112650000Y-56800000D03*
X112650000Y-56000000D03*
X112650000Y-55200000D03*
X112650000Y-54400000D03*
X112650000Y-53600000D03*
D21*
X111200000Y-52150000D03*
X110400000Y-52150000D03*
X109600000Y-52150000D03*
X108800000Y-52150000D03*
X108000000Y-52150000D03*
X107200000Y-52150000D03*
X106400000Y-52150000D03*
X105600000Y-52150000D03*
D22*
X104150000Y-53600000D03*
X104150000Y-54400000D03*
X104150000Y-55200000D03*
X104150000Y-56000000D03*
X104150000Y-56800000D03*
X104150000Y-57600000D03*
X104150000Y-58400000D03*
X104150000Y-59200000D03*
D11*
X100500000Y-41050000D03*
D23*
X100500000Y-43590000D03*
X100500000Y-46130000D03*
X100500000Y-48670000D03*
X100500000Y-51210000D03*
X100500000Y-53750000D03*
D11*
X116400000Y-41050000D03*
D23*
X116400000Y-43590000D03*
X116400000Y-46130000D03*
X116400000Y-48670000D03*
X116400000Y-51210000D03*
X116400000Y-53750000D03*
D19*
X111950000Y-44200000D03*
X113650000Y-44200000D03*
D24*
X104800000Y-44441421D03*
X104800000Y-45241421D03*
X106200000Y-45241421D03*
X106200000Y-44441421D03*
D20*
X111850000Y-48037500D03*
X113750000Y-48037500D03*
X112800000Y-46162500D03*
M02*
