%TF.GenerationSoftware,KiCad,Pcbnew,(6.0.5)*%
%TF.CreationDate,2022-05-20T14:29:48+02:00*%
%TF.ProjectId,LoraTrigger,4c6f7261-5472-4696-9767-65722e6b6963,rev?*%
%TF.SameCoordinates,Original*%
%TF.FileFunction,Copper,L2,Bot*%
%TF.FilePolarity,Positive*%
%FSLAX46Y46*%
G04 Gerber Fmt 4.6, Leading zero omitted, Abs format (unit mm)*
G04 Created by KiCad (PCBNEW (6.0.5)) date 2022-05-20 14:29:48*
%MOMM*%
%LPD*%
G01*
G04 APERTURE LIST*
G04 Aperture macros list*
%AMRoundRect*
0 Rectangle with rounded corners*
0 $1 Rounding radius*
0 $2 $3 $4 $5 $6 $7 $8 $9 X,Y pos of 4 corners*
0 Add a 4 corners polygon primitive as box body*
4,1,4,$2,$3,$4,$5,$6,$7,$8,$9,$2,$3,0*
0 Add four circle primitives for the rounded corners*
1,1,$1+$1,$2,$3*
1,1,$1+$1,$4,$5*
1,1,$1+$1,$6,$7*
1,1,$1+$1,$8,$9*
0 Add four rect primitives between the rounded corners*
20,1,$1+$1,$2,$3,$4,$5,0*
20,1,$1+$1,$4,$5,$6,$7,0*
20,1,$1+$1,$6,$7,$8,$9,0*
20,1,$1+$1,$8,$9,$2,$3,0*%
G04 Aperture macros list end*
%TA.AperFunction,ComponentPad*%
%ADD10R,1.700000X1.700000*%
%TD*%
%TA.AperFunction,ConnectorPad*%
%ADD11RoundRect,0.375000X0.625000X-0.375000X0.625000X0.375000X-0.625000X0.375000X-0.625000X-0.375000X0*%
%TD*%
%TA.AperFunction,ComponentPad*%
%ADD12C,2.000000*%
%TD*%
%TA.AperFunction,ComponentPad*%
%ADD13O,1.700000X1.700000*%
%TD*%
%TA.AperFunction,SMDPad,CuDef*%
%ADD14R,5.100000X2.500000*%
%TD*%
%TA.AperFunction,SMDPad,CuDef*%
%ADD15C,2.500000*%
%TD*%
%TA.AperFunction,ViaPad*%
%ADD16C,0.800000*%
%TD*%
%TA.AperFunction,Conductor*%
%ADD17C,0.250000*%
%TD*%
G04 APERTURE END LIST*
D10*
X116205000Y-80518000D03*
D11*
X117351000Y-55640000D03*
X117351000Y-53100000D03*
X117351000Y-50560000D03*
D12*
X108450000Y-42050000D03*
X108450000Y-79550000D03*
D10*
X100500000Y-41050000D03*
D13*
X100500000Y-43590000D03*
X100500000Y-46130000D03*
X100500000Y-48670000D03*
X100500000Y-51210000D03*
X100500000Y-53750000D03*
D14*
X108400000Y-72500000D03*
X108400000Y-48900000D03*
D15*
X112400000Y-56700000D03*
X112400000Y-64700000D03*
X104400000Y-60700000D03*
D16*
X106200000Y-62900000D03*
X110100000Y-57100000D03*
X105200000Y-62900000D03*
X108500000Y-59000000D03*
X102500000Y-64400000D03*
X102500000Y-62200000D03*
X102500000Y-77200000D03*
X102000000Y-56100000D03*
X114500000Y-75200000D03*
X111200000Y-61600000D03*
X115200000Y-40500000D03*
X100400000Y-61400000D03*
X111900000Y-48900000D03*
X115500000Y-56900000D03*
X103300000Y-79600000D03*
X103200000Y-48900000D03*
X107500000Y-45200000D03*
X110300000Y-45200000D03*
X114200000Y-53000000D03*
X108600000Y-54300000D03*
X115200000Y-55600000D03*
D17*
X110100000Y-57100000D02*
X110100000Y-59000000D01*
X110100000Y-59000000D02*
X106200000Y-62900000D01*
X108500000Y-59000000D02*
X105200000Y-62300000D01*
X105200000Y-62300000D02*
X105200000Y-62900000D01*
X102500000Y-62200000D02*
X102500000Y-64400000D01*
X116651000Y-55849000D02*
X115700000Y-56800000D01*
X108300000Y-72500000D02*
X103300000Y-77500000D01*
X108400000Y-48900000D02*
X108900000Y-48900000D01*
X108400000Y-48900000D02*
X111900000Y-48900000D01*
X103300000Y-77500000D02*
X103300000Y-79600000D01*
X108400000Y-72500000D02*
X108300000Y-72500000D01*
X108900000Y-48900000D02*
X109000000Y-49000000D01*
X107500000Y-45200000D02*
X110300000Y-45200000D01*
X103000000Y-48900000D02*
X103000000Y-48630000D01*
X103000000Y-48630000D02*
X100500000Y-46130000D01*
X117251000Y-53000000D02*
X117351000Y-53100000D01*
X114200000Y-53000000D02*
X117251000Y-53000000D01*
X108600000Y-54300000D02*
X113900000Y-54300000D01*
X113900000Y-54300000D02*
X115200000Y-55600000D01*
%TA.AperFunction,Conductor*%
G36*
X118091621Y-39336502D02*
G01*
X118138114Y-39390158D01*
X118149500Y-39442500D01*
X118149500Y-49284000D01*
X118129498Y-49352121D01*
X118075842Y-49398614D01*
X118023500Y-49410000D01*
X117519115Y-49410000D01*
X117503876Y-49414475D01*
X117502671Y-49415865D01*
X117501000Y-49423548D01*
X117501000Y-51691885D01*
X117505475Y-51707124D01*
X117506865Y-51708329D01*
X117514548Y-51710000D01*
X118023500Y-51710000D01*
X118091621Y-51730002D01*
X118138114Y-51783658D01*
X118149500Y-51836000D01*
X118149500Y-52024141D01*
X118129498Y-52092262D01*
X118075842Y-52138755D01*
X118015793Y-52149773D01*
X118013720Y-52149500D01*
X116688280Y-52149500D01*
X116575764Y-52164313D01*
X116435767Y-52222302D01*
X116315549Y-52314549D01*
X116223302Y-52434767D01*
X116165313Y-52574764D01*
X116164409Y-52581634D01*
X116127779Y-52641732D01*
X116063920Y-52672755D01*
X116043022Y-52674500D01*
X114769286Y-52674500D01*
X114701165Y-52654498D01*
X114669323Y-52625204D01*
X114633305Y-52578264D01*
X114628282Y-52571718D01*
X114502841Y-52475464D01*
X114356762Y-52414956D01*
X114200000Y-52394318D01*
X114043238Y-52414956D01*
X113897159Y-52475464D01*
X113771718Y-52571718D01*
X113675464Y-52697159D01*
X113614956Y-52843238D01*
X113594318Y-53000000D01*
X113614956Y-53156762D01*
X113675464Y-53302841D01*
X113771718Y-53428282D01*
X113897159Y-53524536D01*
X114043238Y-53585044D01*
X114200000Y-53605682D01*
X114208188Y-53604604D01*
X114348574Y-53586122D01*
X114356762Y-53585044D01*
X114502841Y-53524536D01*
X114628282Y-53428282D01*
X114669323Y-53374796D01*
X114726661Y-53332929D01*
X114769286Y-53325500D01*
X116024500Y-53325500D01*
X116092621Y-53345502D01*
X116139114Y-53399158D01*
X116150500Y-53451500D01*
X116150500Y-53512720D01*
X116165313Y-53625236D01*
X116223302Y-53765233D01*
X116315549Y-53885451D01*
X116435767Y-53977698D01*
X116575764Y-54035687D01*
X116688280Y-54050500D01*
X118013720Y-54050500D01*
X118015733Y-54050235D01*
X118084542Y-54065633D01*
X118134445Y-54116133D01*
X118149500Y-54175859D01*
X118149500Y-54564141D01*
X118129498Y-54632262D01*
X118075842Y-54678755D01*
X118015793Y-54689773D01*
X118013720Y-54689500D01*
X116688280Y-54689500D01*
X116575764Y-54704313D01*
X116435767Y-54762302D01*
X116315549Y-54854549D01*
X116223302Y-54974767D01*
X116165313Y-55114764D01*
X116150500Y-55227280D01*
X116150500Y-55836984D01*
X116130498Y-55905105D01*
X116113595Y-55926079D01*
X115760750Y-56278924D01*
X115698438Y-56312950D01*
X115655210Y-56314751D01*
X115615155Y-56309478D01*
X115550227Y-56280756D01*
X115511135Y-56221491D01*
X115510290Y-56150500D01*
X115547959Y-56090321D01*
X115554896Y-56084593D01*
X115621736Y-56033305D01*
X115628282Y-56028282D01*
X115724536Y-55902841D01*
X115785044Y-55756762D01*
X115789438Y-55723390D01*
X115804604Y-55608188D01*
X115805682Y-55600000D01*
X115785044Y-55443238D01*
X115724536Y-55297159D01*
X115628282Y-55171718D01*
X115502841Y-55075464D01*
X115356762Y-55014956D01*
X115200000Y-54994318D01*
X115133157Y-55003118D01*
X115063010Y-54992179D01*
X115027617Y-54967291D01*
X114144111Y-54083785D01*
X114136684Y-54075681D01*
X114119541Y-54055251D01*
X114119542Y-54055251D01*
X114112455Y-54046806D01*
X114102906Y-54041293D01*
X114079815Y-54027961D01*
X114070544Y-54022055D01*
X114048715Y-54006770D01*
X114039684Y-54000446D01*
X114029034Y-53997592D01*
X114025866Y-53996115D01*
X114022590Y-53994923D01*
X114013045Y-53989412D01*
X113979301Y-53983462D01*
X113975942Y-53982870D01*
X113965215Y-53980492D01*
X113928807Y-53970736D01*
X113917822Y-53971697D01*
X113917820Y-53971697D01*
X113891272Y-53974020D01*
X113880290Y-53974500D01*
X109169286Y-53974500D01*
X109101165Y-53954498D01*
X109069323Y-53925204D01*
X109033305Y-53878264D01*
X109028282Y-53871718D01*
X108902841Y-53775464D01*
X108756762Y-53714956D01*
X108600000Y-53694318D01*
X108443238Y-53714956D01*
X108297159Y-53775464D01*
X108171718Y-53871718D01*
X108075464Y-53997159D01*
X108014956Y-54143238D01*
X107994318Y-54300000D01*
X108014956Y-54456762D01*
X108075464Y-54602841D01*
X108171718Y-54728282D01*
X108297159Y-54824536D01*
X108443238Y-54885044D01*
X108600000Y-54905682D01*
X108608188Y-54904604D01*
X108748574Y-54886122D01*
X108756762Y-54885044D01*
X108902841Y-54824536D01*
X109028282Y-54728282D01*
X109069323Y-54674796D01*
X109126661Y-54632929D01*
X109169286Y-54625500D01*
X113712984Y-54625500D01*
X113781105Y-54645502D01*
X113802079Y-54662405D01*
X114567291Y-55427617D01*
X114601317Y-55489929D01*
X114603118Y-55533157D01*
X114594318Y-55600000D01*
X114595396Y-55608188D01*
X114610563Y-55723390D01*
X114614956Y-55756762D01*
X114675464Y-55902841D01*
X114771718Y-56028282D01*
X114897159Y-56124536D01*
X115043238Y-56185044D01*
X115051426Y-56186122D01*
X115084847Y-56190522D01*
X115149774Y-56219245D01*
X115188865Y-56278510D01*
X115189710Y-56349502D01*
X115152039Y-56409680D01*
X115145104Y-56415407D01*
X115071718Y-56471718D01*
X114975464Y-56597159D01*
X114914956Y-56743238D01*
X114894318Y-56900000D01*
X114914956Y-57056762D01*
X114975464Y-57202841D01*
X115071718Y-57328282D01*
X115197159Y-57424536D01*
X115343238Y-57485044D01*
X115500000Y-57505682D01*
X115508188Y-57504604D01*
X115648574Y-57486122D01*
X115656762Y-57485044D01*
X115802841Y-57424536D01*
X115928282Y-57328282D01*
X116024536Y-57202841D01*
X116085044Y-57056762D01*
X116105682Y-56900000D01*
X116106881Y-56900158D01*
X116124606Y-56839791D01*
X116141509Y-56818817D01*
X116381086Y-56579240D01*
X116443398Y-56545214D01*
X116518398Y-56551926D01*
X116568131Y-56572526D01*
X116568136Y-56572527D01*
X116575764Y-56575687D01*
X116583952Y-56576765D01*
X116602752Y-56579240D01*
X116688280Y-56590500D01*
X118013720Y-56590500D01*
X118015733Y-56590235D01*
X118084542Y-56605633D01*
X118134445Y-56656133D01*
X118149500Y-56715859D01*
X118149500Y-82273500D01*
X118129498Y-82341621D01*
X118075842Y-82388114D01*
X118023500Y-82399500D01*
X98876500Y-82399500D01*
X98808379Y-82379498D01*
X98761886Y-82325842D01*
X98750500Y-82273500D01*
X98750500Y-81387748D01*
X115154500Y-81387748D01*
X115166133Y-81446231D01*
X115210448Y-81512552D01*
X115276769Y-81556867D01*
X115288938Y-81559288D01*
X115288939Y-81559288D01*
X115329184Y-81567293D01*
X115335252Y-81568500D01*
X117074748Y-81568500D01*
X117080816Y-81567293D01*
X117121061Y-81559288D01*
X117121062Y-81559288D01*
X117133231Y-81556867D01*
X117199552Y-81512552D01*
X117243867Y-81446231D01*
X117255500Y-81387748D01*
X117255500Y-79648252D01*
X117243867Y-79589769D01*
X117199552Y-79523448D01*
X117133231Y-79479133D01*
X117121062Y-79476712D01*
X117121061Y-79476712D01*
X117080816Y-79468707D01*
X117074748Y-79467500D01*
X115335252Y-79467500D01*
X115329184Y-79468707D01*
X115288939Y-79476712D01*
X115288938Y-79476712D01*
X115276769Y-79479133D01*
X115210448Y-79523448D01*
X115166133Y-79589769D01*
X115154500Y-79648252D01*
X115154500Y-81387748D01*
X98750500Y-81387748D01*
X98750500Y-80640960D01*
X107577206Y-80640960D01*
X107584350Y-80651020D01*
X107640267Y-80697443D01*
X107648698Y-80703348D01*
X107838549Y-80814288D01*
X107847832Y-80818735D01*
X108053243Y-80897174D01*
X108063141Y-80900050D01*
X108278605Y-80943886D01*
X108288833Y-80945105D01*
X108508562Y-80953163D01*
X108518848Y-80952696D01*
X108736946Y-80924757D01*
X108747024Y-80922615D01*
X108957625Y-80859431D01*
X108967223Y-80855670D01*
X109164682Y-80758936D01*
X109173520Y-80753667D01*
X109315206Y-80652604D01*
X109323606Y-80641904D01*
X109316619Y-80628751D01*
X108462812Y-79774944D01*
X108448868Y-79767330D01*
X108447035Y-79767461D01*
X108440420Y-79771712D01*
X107584465Y-80627667D01*
X107577206Y-80640960D01*
X98750500Y-80640960D01*
X98750500Y-79600000D01*
X102694318Y-79600000D01*
X102714956Y-79756762D01*
X102718116Y-79764391D01*
X102722487Y-79774944D01*
X102775464Y-79902841D01*
X102871718Y-80028282D01*
X102997159Y-80124536D01*
X103143238Y-80185044D01*
X103151426Y-80186122D01*
X103221619Y-80195363D01*
X103300000Y-80205682D01*
X103308188Y-80204604D01*
X103448574Y-80186122D01*
X103456762Y-80185044D01*
X103602841Y-80124536D01*
X103728282Y-80028282D01*
X103824536Y-79902841D01*
X103877513Y-79774944D01*
X103881884Y-79764391D01*
X103885044Y-79756762D01*
X103905682Y-79600000D01*
X103895260Y-79520834D01*
X107045918Y-79520834D01*
X107058575Y-79740341D01*
X107060011Y-79750562D01*
X107108349Y-79965050D01*
X107111428Y-79974878D01*
X107194153Y-80178605D01*
X107198796Y-80187796D01*
X107313688Y-80375282D01*
X107319764Y-80383584D01*
X107347135Y-80415182D01*
X107360219Y-80423593D01*
X107370192Y-80417676D01*
X108225056Y-79562812D01*
X108231434Y-79551132D01*
X108667330Y-79551132D01*
X108667461Y-79552965D01*
X108671712Y-79559580D01*
X109529073Y-80416941D01*
X109541083Y-80423500D01*
X109552823Y-80414532D01*
X109651129Y-80277723D01*
X109656440Y-80268885D01*
X109753854Y-80071782D01*
X109757653Y-80062187D01*
X109821568Y-79851821D01*
X109823747Y-79841740D01*
X109852684Y-79621945D01*
X109853203Y-79615272D01*
X109854716Y-79553365D01*
X109854522Y-79546646D01*
X109836359Y-79325721D01*
X109834674Y-79315541D01*
X109781111Y-79102300D01*
X109777786Y-79092534D01*
X109690118Y-78890911D01*
X109685240Y-78881814D01*
X109565818Y-78697214D01*
X109559526Y-78689044D01*
X109554358Y-78683364D01*
X109540793Y-78675105D01*
X109540538Y-78675111D01*
X109531523Y-78680609D01*
X108674944Y-79537188D01*
X108667330Y-79551132D01*
X108231434Y-79551132D01*
X108232670Y-79548868D01*
X108232539Y-79547035D01*
X108228288Y-79540420D01*
X107369268Y-78681400D01*
X107357732Y-78675100D01*
X107345449Y-78684723D01*
X107231447Y-78851842D01*
X107226359Y-78860798D01*
X107133786Y-79060231D01*
X107130223Y-79069918D01*
X107071467Y-79281783D01*
X107069536Y-79291904D01*
X107046169Y-79510546D01*
X107045918Y-79520834D01*
X103895260Y-79520834D01*
X103885044Y-79443238D01*
X103824536Y-79297159D01*
X103728282Y-79171718D01*
X103674796Y-79130677D01*
X103632929Y-79073339D01*
X103625500Y-79030714D01*
X103625500Y-78459500D01*
X107577218Y-78459500D01*
X107583964Y-78471832D01*
X108437188Y-79325056D01*
X108451132Y-79332670D01*
X108452965Y-79332539D01*
X108459580Y-79328288D01*
X109315471Y-78472397D01*
X109322492Y-78459540D01*
X109314719Y-78448873D01*
X109231460Y-78383118D01*
X109222876Y-78377415D01*
X109030393Y-78271158D01*
X109020981Y-78266928D01*
X108813725Y-78193534D01*
X108803755Y-78190900D01*
X108587293Y-78152344D01*
X108577039Y-78151374D01*
X108357176Y-78148687D01*
X108346891Y-78149407D01*
X108129553Y-78182664D01*
X108119526Y-78185053D01*
X107910538Y-78253360D01*
X107901029Y-78257357D01*
X107706009Y-78358879D01*
X107697274Y-78364380D01*
X107585672Y-78448174D01*
X107577218Y-78459500D01*
X103625500Y-78459500D01*
X103625500Y-77687016D01*
X103645502Y-77618895D01*
X103662405Y-77597921D01*
X107272921Y-73987405D01*
X107335233Y-73953379D01*
X107362016Y-73950500D01*
X110969748Y-73950500D01*
X110975816Y-73949293D01*
X111016061Y-73941288D01*
X111016062Y-73941288D01*
X111028231Y-73938867D01*
X111094552Y-73894552D01*
X111138867Y-73828231D01*
X111150500Y-73769748D01*
X111150500Y-71230252D01*
X111138867Y-71171769D01*
X111094552Y-71105448D01*
X111028231Y-71061133D01*
X111016062Y-71058712D01*
X111016061Y-71058712D01*
X110975816Y-71050707D01*
X110969748Y-71049500D01*
X105830252Y-71049500D01*
X105824184Y-71050707D01*
X105783939Y-71058712D01*
X105783938Y-71058712D01*
X105771769Y-71061133D01*
X105705448Y-71105448D01*
X105661133Y-71171769D01*
X105649500Y-71230252D01*
X105649500Y-73769748D01*
X105661133Y-73828231D01*
X105705448Y-73894552D01*
X105771769Y-73938867D01*
X105783938Y-73941288D01*
X105783939Y-73941288D01*
X105824184Y-73949293D01*
X105830252Y-73950500D01*
X106084984Y-73950500D01*
X106153105Y-73970502D01*
X106199598Y-74024158D01*
X106209702Y-74094432D01*
X106180208Y-74159012D01*
X106174079Y-74165595D01*
X103083785Y-77255889D01*
X103075681Y-77263316D01*
X103046806Y-77287545D01*
X103041293Y-77297094D01*
X103027961Y-77320185D01*
X103022055Y-77329456D01*
X103000446Y-77360316D01*
X102997592Y-77370966D01*
X102996115Y-77374134D01*
X102994923Y-77377410D01*
X102989412Y-77386955D01*
X102983462Y-77420699D01*
X102982870Y-77424058D01*
X102980492Y-77434785D01*
X102970736Y-77471193D01*
X102971697Y-77482178D01*
X102971697Y-77482180D01*
X102974020Y-77508728D01*
X102974500Y-77519710D01*
X102974500Y-79030714D01*
X102954498Y-79098835D01*
X102925204Y-79130677D01*
X102871718Y-79171718D01*
X102775464Y-79297159D01*
X102714956Y-79443238D01*
X102694318Y-79600000D01*
X98750500Y-79600000D01*
X98750500Y-65968778D01*
X111349499Y-65968778D01*
X111356286Y-65978479D01*
X111423390Y-66035790D01*
X111431372Y-66041590D01*
X111644379Y-66172121D01*
X111653173Y-66176602D01*
X111883972Y-66272202D01*
X111893357Y-66275251D01*
X112136272Y-66333570D01*
X112146019Y-66335113D01*
X112395070Y-66354714D01*
X112404930Y-66354714D01*
X112653981Y-66335113D01*
X112663728Y-66333570D01*
X112906643Y-66275251D01*
X112916028Y-66272202D01*
X113146827Y-66176602D01*
X113155621Y-66172121D01*
X113368628Y-66041590D01*
X113376610Y-66035790D01*
X113442144Y-65979820D01*
X113450574Y-65966906D01*
X113444567Y-65956699D01*
X112412812Y-64924944D01*
X112398868Y-64917330D01*
X112397035Y-64917461D01*
X112390420Y-64921712D01*
X111356891Y-65955241D01*
X111349499Y-65968778D01*
X98750500Y-65968778D01*
X98750500Y-64400000D01*
X101894318Y-64400000D01*
X101914956Y-64556762D01*
X101975464Y-64702841D01*
X102071718Y-64828282D01*
X102197159Y-64924536D01*
X102343238Y-64985044D01*
X102500000Y-65005682D01*
X102508188Y-65004604D01*
X102648574Y-64986122D01*
X102656762Y-64985044D01*
X102802841Y-64924536D01*
X102928282Y-64828282D01*
X103022933Y-64704930D01*
X110745286Y-64704930D01*
X110764887Y-64953981D01*
X110766430Y-64963728D01*
X110824749Y-65206643D01*
X110827798Y-65216028D01*
X110923398Y-65446827D01*
X110927879Y-65455621D01*
X111058410Y-65668628D01*
X111064210Y-65676610D01*
X111120180Y-65742144D01*
X111133094Y-65750574D01*
X111143301Y-65744567D01*
X112175056Y-64712812D01*
X112181434Y-64701132D01*
X112617330Y-64701132D01*
X112617461Y-64702965D01*
X112621712Y-64709580D01*
X113655241Y-65743109D01*
X113668778Y-65750501D01*
X113678479Y-65743714D01*
X113735790Y-65676610D01*
X113741590Y-65668628D01*
X113872121Y-65455621D01*
X113876602Y-65446827D01*
X113972202Y-65216028D01*
X113975251Y-65206643D01*
X114033570Y-64963728D01*
X114035113Y-64953981D01*
X114054714Y-64704930D01*
X114054714Y-64695070D01*
X114035113Y-64446019D01*
X114033570Y-64436272D01*
X113975251Y-64193357D01*
X113972202Y-64183972D01*
X113876602Y-63953173D01*
X113872121Y-63944379D01*
X113741590Y-63731372D01*
X113735790Y-63723390D01*
X113679820Y-63657856D01*
X113666906Y-63649426D01*
X113656699Y-63655433D01*
X112624944Y-64687188D01*
X112617330Y-64701132D01*
X112181434Y-64701132D01*
X112182670Y-64698868D01*
X112182539Y-64697035D01*
X112178288Y-64690420D01*
X111144759Y-63656891D01*
X111131222Y-63649499D01*
X111121521Y-63656286D01*
X111064210Y-63723390D01*
X111058410Y-63731372D01*
X110927879Y-63944379D01*
X110923398Y-63953173D01*
X110827798Y-64183972D01*
X110824749Y-64193357D01*
X110766430Y-64436272D01*
X110764887Y-64446019D01*
X110745286Y-64695070D01*
X110745286Y-64704930D01*
X103022933Y-64704930D01*
X103024536Y-64702841D01*
X103085044Y-64556762D01*
X103105682Y-64400000D01*
X103085044Y-64243238D01*
X103024536Y-64097159D01*
X102928282Y-63971718D01*
X102874796Y-63930677D01*
X102832929Y-63873339D01*
X102825500Y-63830714D01*
X102825500Y-62769286D01*
X102845502Y-62701165D01*
X102874796Y-62669323D01*
X102921736Y-62633305D01*
X102928282Y-62628282D01*
X103024536Y-62502841D01*
X103085044Y-62356762D01*
X103105682Y-62200000D01*
X103085044Y-62043238D01*
X103054202Y-61968778D01*
X103349499Y-61968778D01*
X103356286Y-61978479D01*
X103423390Y-62035790D01*
X103431372Y-62041590D01*
X103644379Y-62172121D01*
X103653173Y-62176602D01*
X103883972Y-62272202D01*
X103893357Y-62275251D01*
X104136272Y-62333570D01*
X104146019Y-62335113D01*
X104395070Y-62354714D01*
X104404930Y-62354714D01*
X104608713Y-62338676D01*
X104678193Y-62353272D01*
X104728753Y-62403115D01*
X104744339Y-62472379D01*
X104718562Y-62540991D01*
X104680493Y-62590604D01*
X104680491Y-62590608D01*
X104675464Y-62597159D01*
X104614956Y-62743238D01*
X104594318Y-62900000D01*
X104614956Y-63056762D01*
X104675464Y-63202841D01*
X104771718Y-63328282D01*
X104897159Y-63424536D01*
X105043238Y-63485044D01*
X105200000Y-63505682D01*
X105208188Y-63504604D01*
X105348574Y-63486122D01*
X105356762Y-63485044D01*
X105502841Y-63424536D01*
X105623296Y-63332108D01*
X105689517Y-63306508D01*
X105759065Y-63320773D01*
X105776704Y-63332108D01*
X105897159Y-63424536D01*
X106043238Y-63485044D01*
X106200000Y-63505682D01*
X106208188Y-63504604D01*
X106348574Y-63486122D01*
X106356762Y-63485044D01*
X106482180Y-63433094D01*
X111349426Y-63433094D01*
X111355433Y-63443301D01*
X112387188Y-64475056D01*
X112401132Y-64482670D01*
X112402965Y-64482539D01*
X112409580Y-64478288D01*
X113443109Y-63444759D01*
X113450501Y-63431222D01*
X113443714Y-63421521D01*
X113376610Y-63364210D01*
X113368628Y-63358410D01*
X113155621Y-63227879D01*
X113146827Y-63223398D01*
X112916028Y-63127798D01*
X112906643Y-63124749D01*
X112663728Y-63066430D01*
X112653981Y-63064887D01*
X112404930Y-63045286D01*
X112395070Y-63045286D01*
X112146019Y-63064887D01*
X112136272Y-63066430D01*
X111893357Y-63124749D01*
X111883972Y-63127798D01*
X111653173Y-63223398D01*
X111644379Y-63227879D01*
X111431372Y-63358410D01*
X111423390Y-63364210D01*
X111357856Y-63420180D01*
X111349426Y-63433094D01*
X106482180Y-63433094D01*
X106502841Y-63424536D01*
X106628282Y-63328282D01*
X106724536Y-63202841D01*
X106785044Y-63056762D01*
X106805682Y-62900000D01*
X106796882Y-62833157D01*
X106807821Y-62763010D01*
X106832709Y-62727617D01*
X110316215Y-59244111D01*
X110324319Y-59236684D01*
X110334812Y-59227879D01*
X110353194Y-59212455D01*
X110358707Y-59202906D01*
X110372039Y-59179815D01*
X110377945Y-59170544D01*
X110399554Y-59139684D01*
X110402408Y-59129034D01*
X110403885Y-59125866D01*
X110405077Y-59122590D01*
X110410588Y-59113045D01*
X110417130Y-59075942D01*
X110419509Y-59065210D01*
X110426410Y-59039456D01*
X110429264Y-59028807D01*
X110425980Y-58991272D01*
X110425500Y-58980290D01*
X110425500Y-57968778D01*
X111349499Y-57968778D01*
X111356286Y-57978479D01*
X111423390Y-58035790D01*
X111431372Y-58041590D01*
X111644379Y-58172121D01*
X111653173Y-58176602D01*
X111883972Y-58272202D01*
X111893357Y-58275251D01*
X112136272Y-58333570D01*
X112146019Y-58335113D01*
X112395070Y-58354714D01*
X112404930Y-58354714D01*
X112653981Y-58335113D01*
X112663728Y-58333570D01*
X112906643Y-58275251D01*
X112916028Y-58272202D01*
X113146827Y-58176602D01*
X113155621Y-58172121D01*
X113368628Y-58041590D01*
X113376610Y-58035790D01*
X113442144Y-57979820D01*
X113450574Y-57966906D01*
X113444567Y-57956699D01*
X112412812Y-56924944D01*
X112398868Y-56917330D01*
X112397035Y-56917461D01*
X112390420Y-56921712D01*
X111356891Y-57955241D01*
X111349499Y-57968778D01*
X110425500Y-57968778D01*
X110425500Y-57669286D01*
X110445502Y-57601165D01*
X110474796Y-57569323D01*
X110521736Y-57533305D01*
X110528282Y-57528282D01*
X110624536Y-57402841D01*
X110627695Y-57395213D01*
X110627698Y-57395209D01*
X110648448Y-57345112D01*
X110692996Y-57289831D01*
X110760359Y-57267409D01*
X110829150Y-57284967D01*
X110877529Y-57336928D01*
X110881266Y-57345111D01*
X110923398Y-57446827D01*
X110927879Y-57455621D01*
X111058410Y-57668628D01*
X111064210Y-57676610D01*
X111120180Y-57742144D01*
X111133094Y-57750574D01*
X111143301Y-57744567D01*
X112175056Y-56712812D01*
X112181434Y-56701132D01*
X112617330Y-56701132D01*
X112617461Y-56702965D01*
X112621712Y-56709580D01*
X113655241Y-57743109D01*
X113668778Y-57750501D01*
X113678479Y-57743714D01*
X113735790Y-57676610D01*
X113741590Y-57668628D01*
X113872121Y-57455621D01*
X113876602Y-57446827D01*
X113972202Y-57216028D01*
X113975251Y-57206643D01*
X114033570Y-56963728D01*
X114035113Y-56953981D01*
X114054714Y-56704930D01*
X114054714Y-56695070D01*
X114035113Y-56446019D01*
X114033570Y-56436272D01*
X113975251Y-56193357D01*
X113972202Y-56183972D01*
X113876602Y-55953173D01*
X113872121Y-55944379D01*
X113741590Y-55731372D01*
X113735790Y-55723390D01*
X113679820Y-55657856D01*
X113666906Y-55649426D01*
X113656699Y-55655433D01*
X112624944Y-56687188D01*
X112617330Y-56701132D01*
X112181434Y-56701132D01*
X112182670Y-56698868D01*
X112182539Y-56697035D01*
X112178288Y-56690420D01*
X111144759Y-55656891D01*
X111131222Y-55649499D01*
X111121521Y-55656286D01*
X111064210Y-55723390D01*
X111058410Y-55731372D01*
X110927879Y-55944379D01*
X110923398Y-55953173D01*
X110827798Y-56183972D01*
X110824749Y-56193357D01*
X110766430Y-56436272D01*
X110764887Y-56446019D01*
X110752490Y-56603533D01*
X110727204Y-56669874D01*
X110670066Y-56712014D01*
X110599216Y-56716573D01*
X110537783Y-56682742D01*
X110533305Y-56678264D01*
X110528282Y-56671718D01*
X110402841Y-56575464D01*
X110256762Y-56514956D01*
X110100000Y-56494318D01*
X109943238Y-56514956D01*
X109797159Y-56575464D01*
X109671718Y-56671718D01*
X109575464Y-56797159D01*
X109514956Y-56943238D01*
X109494318Y-57100000D01*
X109514956Y-57256762D01*
X109575464Y-57402841D01*
X109671718Y-57528282D01*
X109678264Y-57533305D01*
X109725204Y-57569323D01*
X109767071Y-57626661D01*
X109774500Y-57669286D01*
X109774500Y-58812984D01*
X109754498Y-58881105D01*
X109737595Y-58902079D01*
X109251621Y-59388053D01*
X109189309Y-59422079D01*
X109118494Y-59417014D01*
X109061658Y-59374467D01*
X109036847Y-59307947D01*
X109046117Y-59250740D01*
X109081884Y-59164391D01*
X109085044Y-59156762D01*
X109105682Y-59000000D01*
X109085044Y-58843238D01*
X109024536Y-58697159D01*
X108928282Y-58571718D01*
X108802841Y-58475464D01*
X108656762Y-58414956D01*
X108500000Y-58394318D01*
X108343238Y-58414956D01*
X108197159Y-58475464D01*
X108071718Y-58571718D01*
X107975464Y-58697159D01*
X107914956Y-58843238D01*
X107894318Y-59000000D01*
X107902861Y-59064887D01*
X107903118Y-59066842D01*
X107892179Y-59136990D01*
X107867291Y-59172383D01*
X106269127Y-60770547D01*
X106206815Y-60804573D01*
X106136000Y-60799508D01*
X106079164Y-60756961D01*
X106054420Y-60691338D01*
X106035113Y-60446019D01*
X106033570Y-60436272D01*
X105975251Y-60193357D01*
X105972202Y-60183972D01*
X105876602Y-59953173D01*
X105872121Y-59944379D01*
X105741590Y-59731372D01*
X105735790Y-59723390D01*
X105679820Y-59657856D01*
X105666906Y-59649426D01*
X105656699Y-59655433D01*
X103356891Y-61955241D01*
X103349499Y-61968778D01*
X103054202Y-61968778D01*
X103036145Y-61925185D01*
X103028556Y-61854597D01*
X103060335Y-61791110D01*
X103121393Y-61754882D01*
X103126920Y-61754208D01*
X103143301Y-61744567D01*
X104175056Y-60712812D01*
X104182670Y-60698868D01*
X104182539Y-60697035D01*
X104178288Y-60690420D01*
X103144759Y-59656891D01*
X103131222Y-59649499D01*
X103121521Y-59656286D01*
X103064210Y-59723390D01*
X103058410Y-59731372D01*
X102927879Y-59944379D01*
X102923398Y-59953173D01*
X102827798Y-60183972D01*
X102824749Y-60193357D01*
X102766430Y-60436272D01*
X102764887Y-60446019D01*
X102745286Y-60695070D01*
X102745286Y-60704930D01*
X102764887Y-60953981D01*
X102766430Y-60963728D01*
X102824749Y-61206643D01*
X102827798Y-61216028D01*
X102923398Y-61446827D01*
X102927881Y-61455624D01*
X102948343Y-61489015D01*
X102966882Y-61557548D01*
X102945426Y-61625225D01*
X102890788Y-61670559D01*
X102820313Y-61679156D01*
X102792693Y-61671260D01*
X102664392Y-61618116D01*
X102664389Y-61618115D01*
X102656762Y-61614956D01*
X102500000Y-61594318D01*
X102343238Y-61614956D01*
X102197159Y-61675464D01*
X102190608Y-61680491D01*
X102094538Y-61754208D01*
X102071718Y-61771718D01*
X101975464Y-61897159D01*
X101914956Y-62043238D01*
X101894318Y-62200000D01*
X101914956Y-62356762D01*
X101975464Y-62502841D01*
X102071718Y-62628282D01*
X102078264Y-62633305D01*
X102125204Y-62669323D01*
X102167071Y-62726661D01*
X102174500Y-62769286D01*
X102174500Y-63830714D01*
X102154498Y-63898835D01*
X102125204Y-63930677D01*
X102071718Y-63971718D01*
X101975464Y-64097159D01*
X101914956Y-64243238D01*
X101894318Y-64400000D01*
X98750500Y-64400000D01*
X98750500Y-59433094D01*
X103349426Y-59433094D01*
X103355433Y-59443301D01*
X104387188Y-60475056D01*
X104401132Y-60482670D01*
X104402965Y-60482539D01*
X104409580Y-60478288D01*
X105443109Y-59444759D01*
X105450501Y-59431222D01*
X105443714Y-59421521D01*
X105376610Y-59364210D01*
X105368628Y-59358410D01*
X105155621Y-59227879D01*
X105146827Y-59223398D01*
X104916028Y-59127798D01*
X104906643Y-59124749D01*
X104663728Y-59066430D01*
X104653981Y-59064887D01*
X104404930Y-59045286D01*
X104395070Y-59045286D01*
X104146019Y-59064887D01*
X104136272Y-59066430D01*
X103893357Y-59124749D01*
X103883972Y-59127798D01*
X103653173Y-59223398D01*
X103644379Y-59227879D01*
X103431372Y-59358410D01*
X103423390Y-59364210D01*
X103357856Y-59420180D01*
X103349426Y-59433094D01*
X98750500Y-59433094D01*
X98750500Y-55433094D01*
X111349426Y-55433094D01*
X111355433Y-55443301D01*
X112387188Y-56475056D01*
X112401132Y-56482670D01*
X112402965Y-56482539D01*
X112409580Y-56478288D01*
X113443109Y-55444759D01*
X113450501Y-55431222D01*
X113443714Y-55421521D01*
X113376610Y-55364210D01*
X113368628Y-55358410D01*
X113155621Y-55227879D01*
X113146827Y-55223398D01*
X112916028Y-55127798D01*
X112906643Y-55124749D01*
X112663728Y-55066430D01*
X112653981Y-55064887D01*
X112404930Y-55045286D01*
X112395070Y-55045286D01*
X112146019Y-55064887D01*
X112136272Y-55066430D01*
X111893357Y-55124749D01*
X111883972Y-55127798D01*
X111653173Y-55223398D01*
X111644379Y-55227879D01*
X111431372Y-55358410D01*
X111423390Y-55364210D01*
X111357856Y-55420180D01*
X111349426Y-55433094D01*
X98750500Y-55433094D01*
X98750500Y-53735262D01*
X99444520Y-53735262D01*
X99461759Y-53940553D01*
X99463458Y-53946478D01*
X99512106Y-54116133D01*
X99518544Y-54138586D01*
X99521359Y-54144063D01*
X99521360Y-54144066D01*
X99542247Y-54184707D01*
X99612712Y-54321818D01*
X99740677Y-54483270D01*
X99745370Y-54487264D01*
X99745371Y-54487265D01*
X99872208Y-54595211D01*
X99897564Y-54616791D01*
X99902942Y-54619797D01*
X99902944Y-54619798D01*
X99987481Y-54667044D01*
X100077398Y-54717297D01*
X100172238Y-54748113D01*
X100267471Y-54779056D01*
X100267475Y-54779057D01*
X100273329Y-54780959D01*
X100477894Y-54805351D01*
X100484029Y-54804879D01*
X100484031Y-54804879D01*
X100540039Y-54800569D01*
X100683300Y-54789546D01*
X100689230Y-54787890D01*
X100689232Y-54787890D01*
X100875797Y-54735800D01*
X100875796Y-54735800D01*
X100881725Y-54734145D01*
X100887214Y-54731372D01*
X100887220Y-54731370D01*
X101060116Y-54644033D01*
X101065610Y-54641258D01*
X101077125Y-54632262D01*
X101223101Y-54518213D01*
X101227951Y-54514424D01*
X101362564Y-54358472D01*
X101383387Y-54321818D01*
X101461276Y-54184707D01*
X101464323Y-54179344D01*
X101529351Y-53983863D01*
X101555171Y-53779474D01*
X101555583Y-53750000D01*
X101535480Y-53544970D01*
X101475935Y-53347749D01*
X101379218Y-53165849D01*
X101305859Y-53075902D01*
X101252906Y-53010975D01*
X101252903Y-53010972D01*
X101249011Y-53006200D01*
X101242173Y-53000543D01*
X101095025Y-52878811D01*
X101095021Y-52878809D01*
X101090275Y-52874882D01*
X100909055Y-52776897D01*
X100712254Y-52715977D01*
X100706129Y-52715333D01*
X100706128Y-52715333D01*
X100513498Y-52695087D01*
X100513496Y-52695087D01*
X100507369Y-52694443D01*
X100420529Y-52702346D01*
X100308342Y-52712555D01*
X100308339Y-52712556D01*
X100302203Y-52713114D01*
X100104572Y-52771280D01*
X99922002Y-52866726D01*
X99917201Y-52870586D01*
X99917198Y-52870588D01*
X99906971Y-52878811D01*
X99761447Y-52995815D01*
X99629024Y-53153630D01*
X99626056Y-53159028D01*
X99626053Y-53159033D01*
X99619315Y-53171290D01*
X99529776Y-53334162D01*
X99467484Y-53530532D01*
X99466798Y-53536649D01*
X99466797Y-53536653D01*
X99448992Y-53695396D01*
X99444520Y-53735262D01*
X98750500Y-53735262D01*
X98750500Y-51195262D01*
X99444520Y-51195262D01*
X99461759Y-51400553D01*
X99518544Y-51598586D01*
X99521359Y-51604063D01*
X99521360Y-51604066D01*
X99586082Y-51730002D01*
X99612712Y-51781818D01*
X99740677Y-51943270D01*
X99897564Y-52076791D01*
X100077398Y-52177297D01*
X100172238Y-52208112D01*
X100267471Y-52239056D01*
X100267475Y-52239057D01*
X100273329Y-52240959D01*
X100477894Y-52265351D01*
X100484029Y-52264879D01*
X100484031Y-52264879D01*
X100540039Y-52260569D01*
X100683300Y-52249546D01*
X100689230Y-52247890D01*
X100689232Y-52247890D01*
X100875797Y-52195800D01*
X100875796Y-52195800D01*
X100881725Y-52194145D01*
X100887214Y-52191372D01*
X100887220Y-52191370D01*
X101060116Y-52104033D01*
X101065610Y-52101258D01*
X101077125Y-52092262D01*
X101223101Y-51978213D01*
X101227951Y-51974424D01*
X101362564Y-51818472D01*
X101383387Y-51781818D01*
X101425134Y-51708329D01*
X101464323Y-51639344D01*
X101529351Y-51443863D01*
X101555171Y-51239474D01*
X101555583Y-51210000D01*
X101536779Y-51018220D01*
X115951000Y-51018220D01*
X115951050Y-51019955D01*
X115952465Y-51029839D01*
X115988793Y-51187193D01*
X115993443Y-51200396D01*
X116062984Y-51344248D01*
X116070445Y-51356096D01*
X116170136Y-51480977D01*
X116180023Y-51490864D01*
X116304904Y-51590555D01*
X116316752Y-51598016D01*
X116460604Y-51667557D01*
X116473807Y-51672207D01*
X116631161Y-51708535D01*
X116641045Y-51709950D01*
X116642780Y-51710000D01*
X117182885Y-51710000D01*
X117198124Y-51705525D01*
X117199329Y-51704135D01*
X117201000Y-51696452D01*
X117201000Y-50728115D01*
X117196525Y-50712876D01*
X117195135Y-50711671D01*
X117187452Y-50710000D01*
X115969115Y-50710000D01*
X115953876Y-50714475D01*
X115952671Y-50715865D01*
X115951000Y-50723548D01*
X115951000Y-51018220D01*
X101536779Y-51018220D01*
X101535480Y-51004970D01*
X101475935Y-50807749D01*
X101379218Y-50625849D01*
X101305859Y-50535902D01*
X101252906Y-50470975D01*
X101252903Y-50470972D01*
X101249011Y-50466200D01*
X101181077Y-50410000D01*
X101159180Y-50391885D01*
X115951000Y-50391885D01*
X115955475Y-50407124D01*
X115956865Y-50408329D01*
X115964548Y-50410000D01*
X117182885Y-50410000D01*
X117198124Y-50405525D01*
X117199329Y-50404135D01*
X117201000Y-50396452D01*
X117201000Y-49428115D01*
X117196525Y-49412876D01*
X117195135Y-49411671D01*
X117187452Y-49410000D01*
X116642780Y-49410000D01*
X116641045Y-49410050D01*
X116631161Y-49411465D01*
X116473807Y-49447793D01*
X116460604Y-49452443D01*
X116316752Y-49521984D01*
X116304904Y-49529445D01*
X116180023Y-49629136D01*
X116170136Y-49639023D01*
X116070445Y-49763904D01*
X116062984Y-49775752D01*
X115993443Y-49919604D01*
X115988793Y-49932807D01*
X115952465Y-50090161D01*
X115951050Y-50100045D01*
X115951000Y-50101780D01*
X115951000Y-50391885D01*
X101159180Y-50391885D01*
X101095025Y-50338811D01*
X101095021Y-50338809D01*
X101090275Y-50334882D01*
X100909055Y-50236897D01*
X100712254Y-50175977D01*
X100706129Y-50175333D01*
X100706128Y-50175333D01*
X100652990Y-50169748D01*
X105649500Y-50169748D01*
X105661133Y-50228231D01*
X105705448Y-50294552D01*
X105771769Y-50338867D01*
X105783938Y-50341288D01*
X105783939Y-50341288D01*
X105824184Y-50349293D01*
X105830252Y-50350500D01*
X110969748Y-50350500D01*
X110975816Y-50349293D01*
X111016061Y-50341288D01*
X111016062Y-50341288D01*
X111028231Y-50338867D01*
X111094552Y-50294552D01*
X111138867Y-50228231D01*
X111150500Y-50169748D01*
X111150500Y-49351500D01*
X111170502Y-49283379D01*
X111224158Y-49236886D01*
X111276500Y-49225500D01*
X111330714Y-49225500D01*
X111398835Y-49245502D01*
X111430677Y-49274796D01*
X111471718Y-49328282D01*
X111597159Y-49424536D01*
X111743238Y-49485044D01*
X111900000Y-49505682D01*
X111908188Y-49504604D01*
X112048574Y-49486122D01*
X112056762Y-49485044D01*
X112202841Y-49424536D01*
X112328282Y-49328282D01*
X112424536Y-49202841D01*
X112485044Y-49056762D01*
X112505682Y-48900000D01*
X112485044Y-48743238D01*
X112424536Y-48597159D01*
X112328282Y-48471718D01*
X112202841Y-48375464D01*
X112056762Y-48314956D01*
X111900000Y-48294318D01*
X111743238Y-48314956D01*
X111597159Y-48375464D01*
X111471718Y-48471718D01*
X111466695Y-48478264D01*
X111430677Y-48525204D01*
X111373339Y-48567071D01*
X111330714Y-48574500D01*
X111276500Y-48574500D01*
X111208379Y-48554498D01*
X111161886Y-48500842D01*
X111150500Y-48448500D01*
X111150500Y-47630252D01*
X111149293Y-47624184D01*
X111141288Y-47583939D01*
X111141288Y-47583938D01*
X111138867Y-47571769D01*
X111094552Y-47505448D01*
X111028231Y-47461133D01*
X111016062Y-47458712D01*
X111016061Y-47458712D01*
X110975816Y-47450707D01*
X110969748Y-47449500D01*
X105830252Y-47449500D01*
X105824184Y-47450707D01*
X105783939Y-47458712D01*
X105783938Y-47458712D01*
X105771769Y-47461133D01*
X105705448Y-47505448D01*
X105661133Y-47571769D01*
X105658712Y-47583938D01*
X105658712Y-47583939D01*
X105650707Y-47624184D01*
X105649500Y-47630252D01*
X105649500Y-50169748D01*
X100652990Y-50169748D01*
X100513498Y-50155087D01*
X100513496Y-50155087D01*
X100507369Y-50154443D01*
X100420529Y-50162346D01*
X100308342Y-50172555D01*
X100308339Y-50172556D01*
X100302203Y-50173114D01*
X100104572Y-50231280D01*
X99922002Y-50326726D01*
X99917201Y-50330586D01*
X99917198Y-50330588D01*
X99766254Y-50451950D01*
X99761447Y-50455815D01*
X99629024Y-50613630D01*
X99626056Y-50619028D01*
X99626053Y-50619033D01*
X99532743Y-50788765D01*
X99529776Y-50794162D01*
X99467484Y-50990532D01*
X99466798Y-50996649D01*
X99466797Y-50996653D01*
X99463075Y-51029839D01*
X99444520Y-51195262D01*
X98750500Y-51195262D01*
X98750500Y-48655262D01*
X99444520Y-48655262D01*
X99461759Y-48860553D01*
X99518544Y-49058586D01*
X99521359Y-49064063D01*
X99521360Y-49064066D01*
X99596047Y-49209392D01*
X99612712Y-49241818D01*
X99740677Y-49403270D01*
X99745370Y-49407264D01*
X99745371Y-49407265D01*
X99769378Y-49427696D01*
X99897564Y-49536791D01*
X100077398Y-49637297D01*
X100172238Y-49668113D01*
X100267471Y-49699056D01*
X100267475Y-49699057D01*
X100273329Y-49700959D01*
X100477894Y-49725351D01*
X100484029Y-49724879D01*
X100484031Y-49724879D01*
X100540039Y-49720569D01*
X100683300Y-49709546D01*
X100689230Y-49707890D01*
X100689232Y-49707890D01*
X100875797Y-49655800D01*
X100875796Y-49655800D01*
X100881725Y-49654145D01*
X100887214Y-49651372D01*
X100887220Y-49651370D01*
X101060116Y-49564033D01*
X101065610Y-49561258D01*
X101227951Y-49434424D01*
X101233759Y-49427696D01*
X101358540Y-49283134D01*
X101358540Y-49283133D01*
X101362564Y-49278472D01*
X101383387Y-49241818D01*
X101461276Y-49104707D01*
X101464323Y-49099344D01*
X101529351Y-48903863D01*
X101555171Y-48699474D01*
X101555583Y-48670000D01*
X101535480Y-48464970D01*
X101475935Y-48267749D01*
X101379218Y-48085849D01*
X101305859Y-47995902D01*
X101252906Y-47930975D01*
X101252903Y-47930972D01*
X101249011Y-47926200D01*
X101231786Y-47911950D01*
X101095025Y-47798811D01*
X101095021Y-47798809D01*
X101090275Y-47794882D01*
X100909055Y-47696897D01*
X100712254Y-47635977D01*
X100706129Y-47635333D01*
X100706128Y-47635333D01*
X100513498Y-47615087D01*
X100513496Y-47615087D01*
X100507369Y-47614443D01*
X100420529Y-47622346D01*
X100308342Y-47632555D01*
X100308339Y-47632556D01*
X100302203Y-47633114D01*
X100104572Y-47691280D01*
X99922002Y-47786726D01*
X99917201Y-47790586D01*
X99917198Y-47790588D01*
X99906971Y-47798811D01*
X99761447Y-47915815D01*
X99629024Y-48073630D01*
X99626056Y-48079028D01*
X99626053Y-48079033D01*
X99619315Y-48091290D01*
X99529776Y-48254162D01*
X99467484Y-48450532D01*
X99466798Y-48456649D01*
X99466797Y-48456653D01*
X99464373Y-48478264D01*
X99444520Y-48655262D01*
X98750500Y-48655262D01*
X98750500Y-46115262D01*
X99444520Y-46115262D01*
X99461759Y-46320553D01*
X99518544Y-46518586D01*
X99521359Y-46524063D01*
X99521360Y-46524066D01*
X99564536Y-46608077D01*
X99612712Y-46701818D01*
X99740677Y-46863270D01*
X99897564Y-46996791D01*
X100077398Y-47097297D01*
X100152352Y-47121651D01*
X100267471Y-47159056D01*
X100267475Y-47159057D01*
X100273329Y-47160959D01*
X100477894Y-47185351D01*
X100484029Y-47184879D01*
X100484031Y-47184879D01*
X100540039Y-47180569D01*
X100683300Y-47169546D01*
X100689230Y-47167890D01*
X100689232Y-47167890D01*
X100875797Y-47115800D01*
X100875796Y-47115800D01*
X100881725Y-47114145D01*
X100887221Y-47111369D01*
X100894722Y-47107580D01*
X100964544Y-47094721D01*
X101030235Y-47121651D01*
X101040626Y-47130952D01*
X102575434Y-48665760D01*
X102609460Y-48728072D01*
X102611261Y-48771301D01*
X102594318Y-48900000D01*
X102614956Y-49056762D01*
X102675464Y-49202841D01*
X102771718Y-49328282D01*
X102897159Y-49424536D01*
X103043238Y-49485044D01*
X103200000Y-49505682D01*
X103208188Y-49504604D01*
X103348574Y-49486122D01*
X103356762Y-49485044D01*
X103502841Y-49424536D01*
X103628282Y-49328282D01*
X103724536Y-49202841D01*
X103785044Y-49056762D01*
X103805682Y-48900000D01*
X103785044Y-48743238D01*
X103724536Y-48597159D01*
X103628282Y-48471718D01*
X103502841Y-48375464D01*
X103356762Y-48314956D01*
X103200000Y-48294318D01*
X103191812Y-48295396D01*
X103183553Y-48295396D01*
X103183553Y-48293188D01*
X103124859Y-48284032D01*
X103089473Y-48259147D01*
X101500715Y-46670389D01*
X101466689Y-46608077D01*
X101470252Y-46541522D01*
X101527404Y-46369715D01*
X101529351Y-46363863D01*
X101555171Y-46159474D01*
X101555583Y-46130000D01*
X101535480Y-45924970D01*
X101475935Y-45727749D01*
X101379218Y-45545849D01*
X101305859Y-45455902D01*
X101252906Y-45390975D01*
X101252903Y-45390972D01*
X101249011Y-45386200D01*
X101231786Y-45371950D01*
X101095025Y-45258811D01*
X101095021Y-45258809D01*
X101090275Y-45254882D01*
X100988773Y-45200000D01*
X106894318Y-45200000D01*
X106914956Y-45356762D01*
X106975464Y-45502841D01*
X107071718Y-45628282D01*
X107197159Y-45724536D01*
X107343238Y-45785044D01*
X107500000Y-45805682D01*
X107508188Y-45804604D01*
X107648574Y-45786122D01*
X107656762Y-45785044D01*
X107802841Y-45724536D01*
X107928282Y-45628282D01*
X107969323Y-45574796D01*
X108026661Y-45532929D01*
X108069286Y-45525500D01*
X109730714Y-45525500D01*
X109798835Y-45545502D01*
X109830677Y-45574796D01*
X109871718Y-45628282D01*
X109997159Y-45724536D01*
X110143238Y-45785044D01*
X110300000Y-45805682D01*
X110308188Y-45804604D01*
X110448574Y-45786122D01*
X110456762Y-45785044D01*
X110602841Y-45724536D01*
X110728282Y-45628282D01*
X110824536Y-45502841D01*
X110885044Y-45356762D01*
X110905682Y-45200000D01*
X110885044Y-45043238D01*
X110824536Y-44897159D01*
X110728282Y-44771718D01*
X110602841Y-44675464D01*
X110456762Y-44614956D01*
X110300000Y-44594318D01*
X110143238Y-44614956D01*
X109997159Y-44675464D01*
X109871718Y-44771718D01*
X109866695Y-44778264D01*
X109830677Y-44825204D01*
X109773339Y-44867071D01*
X109730714Y-44874500D01*
X108069286Y-44874500D01*
X108001165Y-44854498D01*
X107969323Y-44825204D01*
X107933305Y-44778264D01*
X107928282Y-44771718D01*
X107802841Y-44675464D01*
X107656762Y-44614956D01*
X107500000Y-44594318D01*
X107343238Y-44614956D01*
X107197159Y-44675464D01*
X107071718Y-44771718D01*
X106975464Y-44897159D01*
X106914956Y-45043238D01*
X106894318Y-45200000D01*
X100988773Y-45200000D01*
X100909055Y-45156897D01*
X100712254Y-45095977D01*
X100706129Y-45095333D01*
X100706128Y-45095333D01*
X100513498Y-45075087D01*
X100513496Y-45075087D01*
X100507369Y-45074443D01*
X100420529Y-45082346D01*
X100308342Y-45092555D01*
X100308339Y-45092556D01*
X100302203Y-45093114D01*
X100104572Y-45151280D01*
X99922002Y-45246726D01*
X99917201Y-45250586D01*
X99917198Y-45250588D01*
X99906971Y-45258811D01*
X99761447Y-45375815D01*
X99629024Y-45533630D01*
X99626056Y-45539028D01*
X99626053Y-45539033D01*
X99574227Y-45633305D01*
X99529776Y-45714162D01*
X99467484Y-45910532D01*
X99466798Y-45916649D01*
X99466797Y-45916653D01*
X99445207Y-46109137D01*
X99444520Y-46115262D01*
X98750500Y-46115262D01*
X98750500Y-41926525D01*
X99250001Y-41926525D01*
X99250776Y-41936374D01*
X99263283Y-42015351D01*
X99269338Y-42033986D01*
X99317859Y-42129213D01*
X99329370Y-42145056D01*
X99404944Y-42220630D01*
X99420787Y-42232141D01*
X99516018Y-42280664D01*
X99534645Y-42286716D01*
X99613627Y-42299225D01*
X99623473Y-42300000D01*
X100308732Y-42300000D01*
X100376853Y-42320002D01*
X100423346Y-42373658D01*
X100433450Y-42443932D01*
X100403956Y-42508512D01*
X100344230Y-42546896D01*
X100320161Y-42551480D01*
X100302203Y-42553114D01*
X100104572Y-42611280D01*
X99922002Y-42706726D01*
X99917201Y-42710586D01*
X99917198Y-42710588D01*
X99883943Y-42737326D01*
X99761447Y-42835815D01*
X99629024Y-42993630D01*
X99626056Y-42999028D01*
X99626053Y-42999033D01*
X99532743Y-43168765D01*
X99529776Y-43174162D01*
X99467484Y-43370532D01*
X99466798Y-43376649D01*
X99466797Y-43376653D01*
X99445207Y-43569137D01*
X99444520Y-43575262D01*
X99461759Y-43780553D01*
X99518544Y-43978586D01*
X99521359Y-43984063D01*
X99521360Y-43984066D01*
X99542247Y-44024707D01*
X99612712Y-44161818D01*
X99740677Y-44323270D01*
X99897564Y-44456791D01*
X100077398Y-44557297D01*
X100172238Y-44588113D01*
X100267471Y-44619056D01*
X100267475Y-44619057D01*
X100273329Y-44620959D01*
X100477894Y-44645351D01*
X100484029Y-44644879D01*
X100484031Y-44644879D01*
X100540039Y-44640569D01*
X100683300Y-44629546D01*
X100689230Y-44627890D01*
X100689232Y-44627890D01*
X100875797Y-44575800D01*
X100875796Y-44575800D01*
X100881725Y-44574145D01*
X100887214Y-44571372D01*
X100887220Y-44571370D01*
X101060116Y-44484033D01*
X101065610Y-44481258D01*
X101227951Y-44354424D01*
X101362564Y-44198472D01*
X101383387Y-44161818D01*
X101461276Y-44024707D01*
X101464323Y-44019344D01*
X101529351Y-43823863D01*
X101555171Y-43619474D01*
X101555583Y-43590000D01*
X101535480Y-43384970D01*
X101475935Y-43187749D01*
X101379218Y-43005849D01*
X101291328Y-42898086D01*
X101252906Y-42850975D01*
X101252903Y-42850972D01*
X101249011Y-42846200D01*
X101242173Y-42840543D01*
X101095025Y-42718811D01*
X101095021Y-42718809D01*
X101090275Y-42714882D01*
X100909055Y-42616897D01*
X100712254Y-42555977D01*
X100706131Y-42555334D01*
X100706129Y-42555333D01*
X100667843Y-42551309D01*
X100602186Y-42524295D01*
X100561557Y-42466073D01*
X100558854Y-42395128D01*
X100594937Y-42333984D01*
X100658348Y-42302054D01*
X100681014Y-42299999D01*
X101376525Y-42299999D01*
X101386374Y-42299224D01*
X101465351Y-42286717D01*
X101483986Y-42280662D01*
X101579213Y-42232141D01*
X101595056Y-42220630D01*
X101670630Y-42145056D01*
X101682141Y-42129213D01*
X101730664Y-42033982D01*
X101735714Y-42018440D01*
X107244770Y-42018440D01*
X107259200Y-42238604D01*
X107260621Y-42244200D01*
X107260622Y-42244205D01*
X107298952Y-42395128D01*
X107313511Y-42452452D01*
X107315928Y-42457694D01*
X107315928Y-42457695D01*
X107354046Y-42540379D01*
X107405883Y-42652821D01*
X107533222Y-42833002D01*
X107691264Y-42986961D01*
X107696060Y-42990166D01*
X107696063Y-42990168D01*
X107780261Y-43046427D01*
X107874717Y-43109540D01*
X107880020Y-43111818D01*
X107880023Y-43111820D01*
X108056753Y-43187749D01*
X108077436Y-43196635D01*
X108157088Y-43214658D01*
X108286995Y-43244054D01*
X108287001Y-43244055D01*
X108292632Y-43245329D01*
X108298403Y-43245556D01*
X108298405Y-43245556D01*
X108366211Y-43248220D01*
X108513098Y-43253991D01*
X108622275Y-43238161D01*
X108725738Y-43223160D01*
X108725743Y-43223159D01*
X108731452Y-43222331D01*
X108736916Y-43220476D01*
X108736921Y-43220475D01*
X108934907Y-43153268D01*
X108934912Y-43153266D01*
X108940379Y-43151410D01*
X109132884Y-43043602D01*
X109184020Y-43001073D01*
X109298086Y-42906204D01*
X109302518Y-42902518D01*
X109345386Y-42850975D01*
X109439908Y-42737326D01*
X109439910Y-42737323D01*
X109443602Y-42732884D01*
X109512678Y-42609540D01*
X109548586Y-42545422D01*
X109548587Y-42545420D01*
X109551410Y-42540379D01*
X109553266Y-42534912D01*
X109553268Y-42534907D01*
X109620475Y-42336921D01*
X109620476Y-42336916D01*
X109622331Y-42331452D01*
X109623159Y-42325743D01*
X109623160Y-42325738D01*
X109653458Y-42116772D01*
X109653991Y-42113098D01*
X109655643Y-42050000D01*
X109635454Y-41830289D01*
X109575565Y-41617936D01*
X109477980Y-41420053D01*
X109345967Y-41243267D01*
X109183949Y-41093499D01*
X108997350Y-40975764D01*
X108792421Y-40894006D01*
X108786761Y-40892880D01*
X108786757Y-40892879D01*
X108581691Y-40852089D01*
X108581688Y-40852089D01*
X108576024Y-40850962D01*
X108570249Y-40850886D01*
X108570245Y-40850886D01*
X108459504Y-40849437D01*
X108355406Y-40848074D01*
X108349709Y-40849053D01*
X108349708Y-40849053D01*
X108143654Y-40884459D01*
X108143653Y-40884459D01*
X108137957Y-40885438D01*
X107930957Y-40961804D01*
X107741341Y-41074614D01*
X107575457Y-41220090D01*
X107438863Y-41393360D01*
X107336131Y-41588620D01*
X107270703Y-41799333D01*
X107244770Y-42018440D01*
X101735714Y-42018440D01*
X101736716Y-42015355D01*
X101749225Y-41936373D01*
X101750000Y-41926527D01*
X101750000Y-41218115D01*
X101745525Y-41202876D01*
X101744135Y-41201671D01*
X101736452Y-41200000D01*
X99268116Y-41200000D01*
X99252877Y-41204475D01*
X99251672Y-41205865D01*
X99250001Y-41213548D01*
X99250001Y-41926525D01*
X98750500Y-41926525D01*
X98750500Y-40881885D01*
X99250000Y-40881885D01*
X99254475Y-40897124D01*
X99255865Y-40898329D01*
X99263548Y-40900000D01*
X100331885Y-40900000D01*
X100347124Y-40895525D01*
X100348329Y-40894135D01*
X100350000Y-40886452D01*
X100350000Y-40881885D01*
X100650000Y-40881885D01*
X100654475Y-40897124D01*
X100655865Y-40898329D01*
X100663548Y-40900000D01*
X101731884Y-40900000D01*
X101747123Y-40895525D01*
X101748328Y-40894135D01*
X101749999Y-40886452D01*
X101749999Y-40173475D01*
X101749224Y-40163626D01*
X101736717Y-40084649D01*
X101730662Y-40066014D01*
X101682141Y-39970787D01*
X101670630Y-39954944D01*
X101595056Y-39879370D01*
X101579213Y-39867859D01*
X101483982Y-39819336D01*
X101465355Y-39813284D01*
X101386373Y-39800775D01*
X101376527Y-39800000D01*
X100668115Y-39800000D01*
X100652876Y-39804475D01*
X100651671Y-39805865D01*
X100650000Y-39813548D01*
X100650000Y-40881885D01*
X100350000Y-40881885D01*
X100350000Y-39818116D01*
X100345525Y-39802877D01*
X100344135Y-39801672D01*
X100336452Y-39800001D01*
X99623475Y-39800001D01*
X99613626Y-39800776D01*
X99534649Y-39813283D01*
X99516014Y-39819338D01*
X99420787Y-39867859D01*
X99404944Y-39879370D01*
X99329370Y-39954944D01*
X99317859Y-39970787D01*
X99269336Y-40066018D01*
X99263284Y-40084645D01*
X99250775Y-40163627D01*
X99250000Y-40173473D01*
X99250000Y-40881885D01*
X98750500Y-40881885D01*
X98750500Y-39442500D01*
X98770502Y-39374379D01*
X98824158Y-39327886D01*
X98876500Y-39316500D01*
X118023500Y-39316500D01*
X118091621Y-39336502D01*
G37*
%TD.AperFunction*%
M02*
