M48
; DRILL file {KiCad (6.0.5)} date Fri May 20 14:29:52 2022
; FORMAT={-:-/ absolute / inch / decimal}
; #@! TF.CreationDate,2022-05-20T14:29:52+02:00
; #@! TF.GenerationSoftware,Kicad,Pcbnew,(6.0.5)
; #@! TF.FileFunction,Plated,1,2,PTH
FMAT,2
INCH
; #@! TA.AperFunction,Plated,PTH,ViaDrill
T1C0.0157
; #@! TA.AperFunction,Plated,PTH,ComponentDrill
T2C0.0394
; #@! TA.AperFunction,Plated,PTH,ComponentDrill
T3C0.0512
%
G90
G05
T1
X3.9528Y-2.4173
X4.0157Y-2.2087
X4.0354Y-2.4488
X4.0354Y-2.5354
X4.0354Y-3.0394
X4.063Y-1.9252
X4.0669Y-3.1339
X4.1417Y-2.4764
X4.1811Y-2.4764
X4.2323Y-1.7795
X4.2717Y-2.3228
X4.2756Y-2.1378
X4.3346Y-2.248
X4.3425Y-1.7795
X4.378Y-2.4252
X4.4055Y-1.9252
X4.4961Y-2.0866
X4.5079Y-2.9606
X4.5354Y-1.5945
X4.5354Y-2.189
X4.5472Y-2.2402
T2
X3.9567Y-1.6161
X3.9567Y-1.7161
X3.9567Y-1.8161
X3.9567Y-1.9161
X3.9567Y-2.0161
X3.9567Y-2.1161
X4.575Y-3.17
T3
X4.2697Y-1.6555
X4.2697Y-3.1319
T0
M30
