%TF.GenerationSoftware,KiCad,Pcbnew,(6.0.5)*%
%TF.CreationDate,2022-05-20T14:29:48+02:00*%
%TF.ProjectId,LoraTrigger,4c6f7261-5472-4696-9767-65722e6b6963,rev?*%
%TF.SameCoordinates,Original*%
%TF.FileFunction,Soldermask,Top*%
%TF.FilePolarity,Negative*%
%FSLAX46Y46*%
G04 Gerber Fmt 4.6, Leading zero omitted, Abs format (unit mm)*
G04 Created by KiCad (PCBNEW (6.0.5)) date 2022-05-20 14:29:48*
%MOMM*%
%LPD*%
G01*
G04 APERTURE LIST*
G04 Aperture macros list*
%AMRoundRect*
0 Rectangle with rounded corners*
0 $1 Rounding radius*
0 $2 $3 $4 $5 $6 $7 $8 $9 X,Y pos of 4 corners*
0 Add a 4 corners polygon primitive as box body*
4,1,4,$2,$3,$4,$5,$6,$7,$8,$9,$2,$3,0*
0 Add four circle primitives for the rounded corners*
1,1,$1+$1,$2,$3*
1,1,$1+$1,$4,$5*
1,1,$1+$1,$6,$7*
1,1,$1+$1,$8,$9*
0 Add four rect primitives between the rounded corners*
20,1,$1+$1,$2,$3,$4,$5,0*
20,1,$1+$1,$4,$5,$6,$7,0*
20,1,$1+$1,$6,$7,$8,$9,0*
20,1,$1+$1,$8,$9,$2,$3,0*%
G04 Aperture macros list end*
%ADD10RoundRect,0.237500X0.237500X-0.287500X0.237500X0.287500X-0.237500X0.287500X-0.237500X-0.287500X0*%
%ADD11R,1.700000X1.700000*%
%ADD12RoundRect,0.375000X0.625000X-0.375000X0.625000X0.375000X-0.625000X0.375000X-0.625000X-0.375000X0*%
%ADD13RoundRect,0.250000X-0.750000X-0.250000X0.750000X-0.250000X0.750000X0.250000X-0.750000X0.250000X0*%
%ADD14C,2.000000*%
%ADD15R,0.900000X0.750000*%
%ADD16R,0.900000X0.700000*%
%ADD17R,1.500000X1.250000*%
%ADD18RoundRect,0.200000X0.800000X0.200000X-0.800000X0.200000X-0.800000X-0.200000X0.800000X-0.200000X0*%
%ADD19R,0.750000X0.900000*%
%ADD20O,1.700000X1.700000*%
%ADD21R,1.100000X0.300000*%
G04 APERTURE END LIST*
D10*
X100100000Y-58975000D03*
X100100000Y-57225000D03*
D11*
X116205000Y-80518000D03*
D12*
X117351000Y-55640000D03*
X117351000Y-53100000D03*
X117351000Y-50560000D03*
D13*
X116426000Y-75200000D03*
X100426000Y-77200000D03*
X100426000Y-63200000D03*
X100426000Y-65200000D03*
X100426000Y-67200000D03*
X100426000Y-69200000D03*
X100426000Y-71200000D03*
X100426000Y-73200000D03*
X116426000Y-67200000D03*
X116426000Y-65200000D03*
X116426000Y-63200000D03*
X116426000Y-73200000D03*
X116426000Y-71200000D03*
X100426000Y-75200000D03*
X116426000Y-77200000D03*
X116426000Y-69200000D03*
D14*
X108450000Y-42050000D03*
X108450000Y-79550000D03*
D15*
X109600000Y-60900000D03*
X108000000Y-60900000D03*
D16*
X102000000Y-59150000D03*
X102000000Y-57450000D03*
X104200000Y-47150000D03*
X104200000Y-48850000D03*
X105800000Y-47150000D03*
X105800000Y-48850000D03*
D17*
X106150000Y-40525000D03*
X103650000Y-40525000D03*
D18*
X111848000Y-59315000D03*
X111848000Y-58045000D03*
X111848000Y-56775000D03*
X111848000Y-55505000D03*
X111848000Y-54235000D03*
X111848000Y-52965000D03*
X111848000Y-51695000D03*
X105752000Y-51695000D03*
X105752000Y-52965000D03*
X105752000Y-54235000D03*
X105752000Y-55505000D03*
X105752000Y-56775000D03*
X105752000Y-58045000D03*
X105752000Y-59315000D03*
D19*
X116400000Y-43100000D03*
X116400000Y-41500000D03*
D11*
X100500000Y-41050000D03*
D20*
X100500000Y-43590000D03*
X100500000Y-46130000D03*
X100500000Y-48670000D03*
X100500000Y-51210000D03*
X100500000Y-53750000D03*
D21*
X112800000Y-41800000D03*
X112800000Y-42600000D03*
X114600000Y-42600000D03*
X114600000Y-41800000D03*
M02*
